<?xml version="1.0" encoding="iso-8859-1"?>
<!-- Generator: Adobe Illustrator 19.0.0, SVG Export Plug-In . SVG Version: 6.00 Build 0)  -->
<svg version="1.1" id="Layer_1" xmlns="http://www.w3.org/2000/svg" xmlns:xlink="http://www.w3.org/1999/xlink" x="0px" y="0px"
	 viewBox="0 0 490 490" style="enable-background:new 0 0 490 490;" xml:space="preserve">
<g>
	<polygon style="fill:#E5FFE8;" points="221.451,83.334 233.226,44.905 256.774,44.905 268.549,83.334 	"/>
	<path style="fill:#B3B3B3;" d="M41.741,278.649c0-112.256,91.002-203.258,203.259-203.258
		c112.256,0,203.259,91.002,203.259,203.258H41.741z"/>
	<path style="opacity:0.1;" d="M265.871,76.451c-6.862-0.7-13.824-1.06-20.871-1.06c-112.257,0-203.259,91.002-203.259,203.258
		h41.741C83.482,173.44,163.419,86.901,265.871,76.451z"/>
	<g>
		<path style="fill:#FFE7CC;" d="M108.198,451.928c-2.848,0-5.561-1.215-7.459-3.339c-1.897-2.125-2.798-4.957-2.478-7.787
			l3.502-30.886c0.283-2.494,1.493-4.789,3.39-6.433l76.316-66.1c1.818-1.575,4.142-2.441,6.547-2.441h84.173
			c12.83,0,23.268,10.438,23.268,23.268c0,12.83-10.438,23.268-23.268,23.268h-65.926V405.5l136.434-0.108l40.368-40.369
			c4.395-4.394,10.238-6.814,16.453-6.814c6.216,0,12.059,2.42,16.454,6.814c9.071,9.072,9.071,23.835-0.001,32.907l-51.068,51.068
			c-1.875,1.875-4.419,2.929-7.071,2.929H108.198z"/>
	</g>
	<g style="opacity:0.1;">
		<path d="M111.989,430.488c0.283-2.494,1.493-4.79,3.39-6.433l76.316-66.1c1.818-1.575,4.142-2.441,6.547-2.441h84.173
			c4.813,0,9.291,1.469,13.006,3.983c0.023-0.426,0.037-0.855,0.037-1.288c0-12.83-10.438-23.268-23.268-23.268h-84.173
			c-2.405,0-4.729,0.867-6.547,2.441l-76.316,66.1c-1.897,1.643-3.107,3.939-3.39,6.433l-3.502,30.886
			c-0.321,2.83,0.581,5.663,2.478,7.787c1.897,2.124,4.611,3.339,7.459,3.339h1.359L111.989,430.488z"/>
	</g>
	<path style="fill:#CCFFE8;" d="M126.896,466.147c0,5.711-4.629,10.341-10.342,10.341h-43.95c-5.712,0-10.342-4.63-10.342-10.341
		v-93.072c0-5.711,4.629-10.341,10.342-10.341h43.95c5.712,0,10.342,4.63,10.342,10.341V466.147z"/>
	<path style="opacity:0.1;" d="M83,466.147v-93.072c0-5.711,4.629-10.341,10.342-10.341H72.604c-5.712,0-10.342,4.63-10.342,10.341
		v93.072c0,5.711,4.629,10.341,10.342,10.341h20.738C87.629,476.488,83,471.858,83,466.147z"/>
	<path style="fill:#E5FFE8;" d="M482.5,288c0,5.523-4.477,10-10,10h-455c-5.523,0-10-4.477-10-10v-11.5c0-5.522,4.477-10,10-10h455
		c5.523,0,10,4.478,10,10V288z"/>
	<path style="fill:#B3B3B3;" d="M227.431,54.046c-1.75,0-3.365-0.938-4.232-2.458l-17.569-30.789
		c-0.86-1.508-0.854-3.359,0.019-4.861c0.872-1.502,2.477-2.426,4.213-2.426h70.276c1.736,0,3.342,0.924,4.213,2.426
		c0.872,1.502,0.879,3.354,0.018,4.861l-17.569,30.789c-0.867,1.52-2.483,2.458-4.232,2.458H227.431z"/>
	<g>
		<path d="M127.043,235c-4.142,0-7.5,3.358-7.5,7.5s3.358,7.5,7.5,7.5h33.915c4.142,0,7.5-3.358,7.5-7.5s-3.358-7.5-7.5-7.5H127.043
			z"/>
		<path d="M399.518,350.709c-8.217,0-15.943,3.2-21.756,9.011l-38.173,38.174l-125.825,0.1v-9.018h58.426
			c16.965,0,30.768-13.802,30.768-30.768c0-16.965-13.803-30.768-30.768-30.768h-84.173c-4.208,0-8.277,1.518-11.457,4.272
			l-42.724,37.005c-1.952-7.735-8.949-13.485-17.282-13.485h-43.95c-9.838,0-17.842,8.003-17.842,17.841v93.072
			c0,9.838,8.004,17.841,17.842,17.841h43.95c9.838,0,17.842-8.003,17.842-17.841v-6.719H171c4.142,0,7.5-3.358,7.5-7.5
			s-3.358-7.5-7.5-7.5h-36.605v-56.351l51.985-45.025c0.454-0.394,1.035-0.61,1.636-0.61h84.173c8.694,0,15.768,7.073,15.768,15.768
			c0,8.694-7.074,15.768-15.768,15.768h-5.69v-20.148c0-4.142-3.358-7.5-7.5-7.5c-4.142,0-7.5,3.358-7.5,7.5v20.148h-45.236
			c-4.142,0-7.5,3.358-7.5,7.5V405.5c0,1.99,0.791,3.899,2.199,5.305c1.407,1.406,3.313,2.195,5.301,2.195c0.002,0,0.004,0,0.006,0
			l136.434-0.108c1.987-0.001,3.893-0.792,5.297-2.197l40.367-40.368c2.979-2.978,6.939-4.618,11.151-4.618
			c4.212,0,8.172,1.64,11.15,4.618c6.147,6.148,6.147,16.152,0,22.3l-1.967,1.967l-12.398-12.398c-2.929-2.929-7.678-2.929-10.606,0
			c-2.929,2.929-2.929,7.678,0,10.606l12.398,12.398L359.6,443.695c-0.473,0.472-1.1,0.732-1.768,0.732H197.999
			c-4.142,0-7.5,3.358-7.5,7.5s3.358,7.5,7.5,7.5h159.833c4.674,0,9.069-1.82,12.374-5.126l51.068-51.068
			c11.995-11.997,11.995-31.517,0-43.513C415.464,353.909,407.737,350.709,399.518,350.709z M119.396,466.147
			c0,1.567-1.275,2.841-2.842,2.841h-14.475v-34.323c0-4.142-3.358-7.5-7.5-7.5c-4.142,0-7.5,3.358-7.5,7.5v34.323H72.604
			c-1.567,0-2.842-1.274-2.842-2.841v-93.072c0-1.567,1.275-2.841,2.842-2.841h43.95c1.567,0,2.842,1.274,2.842,2.841V466.147z"/>
		<path d="M472.5,259h-17.662c-2.06-22.433-7.648-44.193-16.729-64.903c-11.311-25.795-27.441-48.755-47.944-68.24
			c-3.002-2.853-7.75-2.733-10.603,0.27c-2.853,3.002-2.732,7.75,0.27,10.603c19.049,18.104,34.034,39.432,44.54,63.391
			c8.244,18.801,13.396,38.534,15.412,58.88H374c-4.142,0-7.5,3.358-7.5,7.5s3.358,7.5,7.5,7.5h98.5c1.378,0,2.5,1.122,2.5,2.5V288
			c0,1.378-1.122,2.5-2.5,2.5h-455c-1.378,0-2.5-1.122-2.5-2.5v-11.5c0-1.378,1.122-2.5,2.5-2.5H338c4.142,0,7.5-3.358,7.5-7.5
			s-3.358-7.5-7.5-7.5H50.236c0.302-3.02,0.676-6.021,1.115-9H102c4.142,0,7.5-3.358,7.5-7.5s-3.358-7.5-7.5-7.5H54.174
			C74.062,148.002,152.06,82.892,245,82.892c41.907,0,81.869,13.049,115.565,37.736c3.341,2.447,8.035,1.724,10.483-1.618
			c2.448-3.341,1.724-8.034-1.618-10.482c-28.916-21.184-62.114-34.4-97.237-38.899l-3.063-9.994
			c1.701-1.066,3.158-2.53,4.185-4.329l17.568-30.788c2.179-3.816,2.161-8.548-0.045-12.344c-2.206-3.801-6.306-6.162-10.7-6.162
			h-70.276c-4.395,0-8.495,2.361-10.698,6.158c-2.208,3.799-2.226,8.53-0.048,12.346l17.57,30.789
			c1.026,1.798,2.483,3.262,4.184,4.329l-3.07,10.019C120.799,82.211,44.286,160.971,35.178,259H17.5C7.851,259,0,266.851,0,276.5
			V288c0,9.649,7.851,17.5,17.5,17.5h455c9.649,0,17.5-7.851,17.5-17.5v-11.5C490,266.851,482.149,259,472.5,259z M245,67.892
			c-3.711,0-7.398,0.104-11.064,0.295l2.035-6.641h18.057l2.034,6.639C252.391,67.996,248.703,67.892,245,67.892z M214.386,21.012
			h61.227l-14.57,25.534h-32.087L214.386,21.012z"/>
	</g>
	<circle style="fill:#8CCCCC;" cx="94.578" cy="394.404" r="9.721"/>
	<path style="fill:#FFFFFF;" d="M366.05,143.025c-15.729,6.515-21.01,11.797-27.525,27.525
		c-6.515-15.729-11.796-21.01-27.525-27.525c15.728-6.515,21.01-11.796,27.525-27.525C345.04,131.229,350.322,136.51,366.05,143.025
		z"/>
	<circle style="fill:#FFFFFF;" cx="379.364" cy="172.238" r="12.144"/>
</g>
<g>
</g>
<g>
</g>
<g>
</g>
<g>
</g>
<g>
</g>
<g>
</g>
<g>
</g>
<g>
</g>
<g>
</g>
<g>
</g>
<g>
</g>
<g>
</g>
<g>
</g>
<g>
</g>
<g>
</g>
</svg>
