<?xml version="1.0" encoding="iso-8859-1"?>
<!-- Generator: Adobe Illustrator 19.0.0, SVG Export Plug-In . SVG Version: 6.00 Build 0)  -->
<svg version="1.1" id="Layer_1" xmlns="http://www.w3.org/2000/svg" xmlns:xlink="http://www.w3.org/1999/xlink" x="0px" y="0px"
	 viewBox="0 0 490 490" style="enable-background:new 0 0 490 490;" xml:space="preserve">
<g>
	<path style="fill:#F48911;" d="M176.433,315.071c-3.767,3.765-9.874,3.765-13.641,0l-45.188-45.164
		c-3.767-3.766-3.767-9.869-0.001-13.635l45.189-45.165c3.768-3.766,9.874-3.766,13.641,0l45.188,45.165
		c3.767,3.766,3.767,9.869,0,13.635L176.433,315.071z"/>
	<path style="fill:#E0D9AF;" d="M308.186,302.66L278.48,173.757c-1.467-6.369-7.139-10.88-13.677-10.88h-39.606
		c-6.539,0-12.209,4.511-13.678,10.88L181.813,302.66H308.186z"/>
	<path style="opacity:0.1;" d="M213.693,302.66L243.4,173.757c1.468-6.369,7.139-10.88,13.678-10.88h-31.881
		c-6.539,0-12.209,4.511-13.678,10.88L181.813,302.66H213.693z"/>
	<path style="fill:#B0CE6F;" d="M336.797,341.641c-3.767,3.765-9.874,3.765-13.641,0l-45.187-45.165
		c-3.768-3.765-3.768-9.868-0.001-13.634l45.188-45.165c3.767-3.763,9.873-3.763,13.641,0l45.188,45.165
		c3.767,3.766,3.767,9.869,0,13.634L336.797,341.641z"/>
	<path style="fill:#B3B3B3;" d="M287.544,399.847h-85.088l-25.619,62.405c-1.221,2.974-0.879,6.359,0.912,9.029
		c1.792,2.671,4.795,4.272,8.012,4.272h118.478c3.216,0,6.22-1.601,8.012-4.272c1.79-2.669,2.132-6.055,0.912-9.029L287.544,399.847
		z"/>
	<g>
		<path style="fill:#C6BA83;" d="M96.09,308.912c0,10.982-8.907,19.885-19.895,19.885H29.171c-10.988,0-19.895-8.903-19.895-19.885
			l0,0c0-10.982,8.907-19.885,19.895-19.885h47.024C87.183,289.027,96.09,297.93,96.09,308.912L96.09,308.912z"/>
		<path style="fill:#C6BA83;" d="M480.724,308.912c0,10.982-8.908,19.885-19.895,19.885h-47.025
			c-10.986,0-19.894-8.903-19.894-19.885l0,0c0-10.982,8.907-19.885,19.894-19.885h47.025
			C471.816,289.027,480.724,297.93,480.724,308.912L480.724,308.912z"/>
	</g>
	<ellipse style="fill:#B0CE6F;" cx="184.11" cy="288.426" rx="33.158" ry="33.14"/>
	<g>
		<path style="fill:#FFC38D;" d="M143.139,244.588c26.749,26.735,34.453,62.382,17.207,79.62
			c-17.247,17.236-52.913,9.538-79.661-17.198c-26.749-26.735-34.453-62.383-17.207-79.62
			C80.726,210.153,116.39,217.852,143.139,244.588z"/>
		<path style="fill:#754C24;" d="M98.352,238.398c3.422,3.419,3.42,8.963-0.001,12.382c-3.421,3.42-8.969,3.421-12.39,0.001
			c-3.422-3.42-3.422-8.965,0-12.384C89.383,234.977,94.931,234.977,98.352,238.398z"/>
	</g>
	<ellipse style="fill:#F48911;" cx="374.617" cy="293.246" rx="33.158" ry="33.141"/>
	<path style="fill:#FFC38D;" d="M280.184,354.897c-3.767,3.765-9.875,3.765-13.642,0l-45.187-45.165
		c-3.768-3.766-3.768-9.869,0-13.635l45.188-45.164c3.767-3.766,9.874-3.766,13.642,0l45.188,45.164
		c3.766,3.766,3.766,9.869,0,13.635L280.184,354.897z"/>
	<path style="fill:#E0D9AF;" d="M48.694,289.027c8.146,79.212,75.111,141,156.516,141h79.58c81.405,0,148.37-61.788,156.516-141
		H48.694z"/>
	<path style="opacity:0.1;" d="M91.28,289.027H48.694c8.146,79.212,75.111,141,156.516,141h42.586
		C166.391,430.028,99.426,368.24,91.28,289.027z"/>
	<g>
		<g>
			<g>
				<path style="fill:#FCE9C3;" d="M360.297,78.956h-49.855c-4.142,0-7.5-3.358-7.5-7.5c0-4.142,3.358-7.5,7.5-7.5h49.855
					c13.506,0,24.494-10.981,24.494-24.479C384.792,25.98,373.804,15,360.297,15h-22.074c-4.142,0-7.5-3.358-7.5-7.5
					c0-4.142,3.358-7.5,7.5-7.5h22.074c21.777,0,39.494,17.71,39.494,39.478C399.792,61.246,382.075,78.956,360.297,78.956z"/>
			</g>
		</g>
		<g>
			<g>
				<path style="fill:#FCE9C3;" d="M270,123.148c-4.142,0-7.5-3.358-7.5-7.5V98.25c0-18.91,15.391-34.294,34.308-34.294h41.773
					c4.142,0,7.5,3.358,7.5,7.5c0,4.142-3.358,7.5-7.5,7.5h-41.773c-10.647,0-19.308,8.655-19.308,19.294v17.398
					C277.5,119.79,274.142,123.148,270,123.148z"/>
			</g>
		</g>
	</g>
	<g>
		<path style="fill:#F2D8A0;" d="M162.757,168.574h-57.129c-15.335,0-27.811-12.468-27.811-27.793
			c0-15.325,12.476-27.793,27.811-27.793h26.288c4.142,0,7.5-3.358,7.5-7.5s-3.358-7.5-7.5-7.5h-26.288
			c-23.606,0-42.811,19.197-42.811,42.793c0,23.596,19.205,42.793,42.811,42.793h57.129c4.142,0,7.5-3.358,7.5-7.5
			S166.899,168.574,162.757,168.574z"/>
		<path style="fill:#F2D8A0;" d="M188.401,19.097h-34.823c-4.142,0-7.5,3.358-7.5,7.5s3.358,7.5,7.5,7.5h34.823
			c17.625,0,31.964,14.331,31.964,31.945c0,17.615-14.339,31.946-31.964,31.946H157.56c-4.142,0-7.5,3.358-7.5,7.5
			s3.358,7.5,7.5,7.5h30.842c25.896,0,46.964-21.06,46.964-46.946C235.366,40.156,214.297,19.097,188.401,19.097z"/>
		<path style="fill:#F2D8A0;" d="M363.434,112.714H345.52c-4.142,0-7.5,3.358-7.5,7.5c0,4.142,3.358,7.5,7.5,7.5h17.914
			c14.33,0,25.988,11.651,25.988,25.972c0,14.321-11.658,25.972-25.988,25.972h-49.897c-4.142,0-7.5,3.358-7.5,7.5
			c0,4.142,3.358,7.5,7.5,7.5h49.897c22.601,0,40.988-18.38,40.988-40.972C404.421,131.094,386.034,112.714,363.434,112.714z"/>
	</g>
	<path style="fill:#E0D9AF;" d="M339.032,472.34c0,5.611-4.551,10.16-10.165,10.16H161.134c-5.615,0-10.165-4.549-10.165-10.16
		v-5.081c0-5.611,4.551-10.16,10.165-10.16h167.732c5.615,0,10.165,4.549,10.165,10.16V472.34z"/>
	<path style="fill:#FFFFFF;" d="M354.95,335.525c15.728,6.515,21.01,11.797,27.525,27.525c6.515-15.728,11.796-21.01,27.525-27.525
		c-15.729-6.515-21.01-11.796-27.525-27.525C375.96,323.728,370.678,329.01,354.95,335.525z"/>
	<circle style="fill:#FFFFFF;" cx="353.144" cy="371.144" r="12.144"/>
	<path d="M460.829,281.527h-47.279c-5.044-16.715-20.587-28.923-38.932-28.923c-3.742,0-7.364,0.517-10.808,1.467l-21.712-21.701
		c-3.238-3.235-7.543-5.016-12.121-5.016c-4.578,0-8.883,1.781-12.122,5.018l-14.769,14.761l-6.871-29.817
		c-0.931-4.037-4.956-6.553-8.993-5.624c-4.036,0.93-6.555,4.956-5.625,8.993l6.306,27.362l-2.418-2.417
		c-3.238-3.237-7.544-5.02-12.122-5.02c-4.58,0-8.885,1.783-12.123,5.02l-35.917,35.898h-1.154
		c-2.283-13.286-11.034-24.385-22.893-29.93l17.55-76.155c0.688-2.982,3.307-5.065,6.37-5.065h39.606
		c3.063,0,5.681,2.083,6.368,5.064l3.974,17.243c0.931,4.037,4.958,6.55,8.993,5.624c4.036-0.931,6.554-4.956,5.624-8.993
		l-3.974-17.242c-2.265-9.83-10.895-16.696-20.985-16.696h-39.606c-10.09,0-18.72,6.865-20.986,16.696l-10.526,45.674l-11.95-11.944
		c-3.238-3.237-7.544-5.02-12.123-5.02c-4.579,0-8.884,1.783-12.123,5.02l-22.218,22.206
		c-15.101-11.017-31.937-17.315-47.198-17.315c-12.103,0-22.441,3.939-29.898,11.391c-10.206,10.201-13.73,25.521-9.923,43.137
		c1.176,5.441,3.039,10.912,5.488,16.305H29.171c-15.106,0-27.395,12.285-27.395,27.385s12.289,27.385,27.395,27.385h23.904
		c9.233,22.076,23.268,42.069,41.364,58.49c24.009,21.787,53.622,35.827,85.254,40.758l-5.77,14.054h-12.791
		c-9.741,0-17.665,7.922-17.665,17.66v5.081c0,9.738,7.925,17.66,17.665,17.66H265c4.142,0,7.5-3.358,7.5-7.5s-3.358-7.5-7.5-7.5
		H161.134c-1.47,0-2.665-1.193-2.665-2.66v-5.081c0-1.467,1.196-2.66,2.665-2.66h167.732c1.47,0,2.665,1.193,2.665,2.66v5.081
		c0,1.467-1.196,2.66-2.665,2.66H295c-4.142,0-7.5,3.358-7.5,7.5s3.358,7.5,7.5,7.5h33.866c9.741,0,17.665-7.922,17.665-17.66
		v-5.081c0-9.738-7.925-17.66-17.665-17.66h-12.791l-5.77-14.054c31.633-4.932,61.245-18.972,85.254-40.758
		c18.096-16.42,32.131-36.414,41.364-58.49h23.904c15.105,0,27.395-12.285,27.395-27.385S475.934,281.527,460.829,281.527z
		 M29.171,321.297c-6.834,0-12.395-5.556-12.395-12.385s5.561-12.385,12.395-12.385h12.902c1.22,8.431,3.091,16.708,5.574,24.77
		H29.171z M374.618,267.604c9.92,0,18.518,5.669,22.785,13.923h-45.57C356.099,273.273,364.698,267.604,374.618,267.604z
		 M328.457,242.982c0.52-0.52,1.113-0.628,1.52-0.628c0.407,0,1.001,0.109,1.519,0.627l18.197,18.188
		c-6.574,5.116-11.544,12.197-14.007,20.358h-14.282l-15.755-15.747L328.457,242.982z M271.845,256.238
		c0.52-0.519,1.113-0.628,1.519-0.628c0.406,0,0.999,0.109,1.519,0.629l25.303,25.289h-53.643L271.845,256.238z M208.817,281.527
		h-34.483c-1.329-4.623-3.11-9.244-5.331-13.797c4.241-3.103,9.46-4.946,15.107-4.946
		C195.866,262.784,205.794,270.729,208.817,281.527z M168.094,216.412c0.52-0.52,1.113-0.629,1.519-0.629s0.998,0.109,1.518,0.629
		l18.581,18.572l-2.972,12.895c-0.871-0.056-1.747-0.094-2.631-0.094c-8.419,0-16.244,2.577-22.738,6.976
		c-3.74-5.409-8.065-10.614-12.93-15.476c-0.54-0.54-1.084-1.072-1.632-1.598L168.094,216.412z M68.781,232.694
		c5.789-5.786,13.688-7.001,19.294-7.001c15.999,0,34.602,9.046,49.763,24.199c9.602,9.597,16.776,20.593,20.748,31.634h-54.54
		l17.371-17.362c2.93-2.928,2.931-7.677,0.003-10.606c-2.929-2.931-7.678-2.931-10.606-0.003l-27.985,27.972H70.544
		c-3.614-6.405-6.226-12.986-7.628-19.474C60.223,249.593,62.306,239.167,68.781,232.694z M190.139,449.599l5.083-12.382
		c3.316,0.2,6.646,0.311,9.988,0.311h79.58c3.342,0,6.672-0.111,9.988-0.311l5.083,12.382H190.139z M385.48,383.678
		c-27.609,25.052-63.368,38.85-100.69,38.85h-79.58c-37.322,0-73.082-13.797-100.691-38.85
		c-25.346-22.999-41.939-53.691-47.281-87.151h375.522C427.419,329.987,410.827,360.679,385.48,383.678z M460.829,321.297h-18.476
		c2.483-8.061,4.354-16.338,5.574-24.77h12.902c6.835,0,12.395,5.556,12.395,12.385S467.663,321.297,460.829,321.297z"/>
</g>
<g>
</g>
<g>
</g>
<g>
</g>
<g>
</g>
<g>
</g>
<g>
</g>
<g>
</g>
<g>
</g>
<g>
</g>
<g>
</g>
<g>
</g>
<g>
</g>
<g>
</g>
<g>
</g>
<g>
</g>
</svg>
