<?xml version="1.0" encoding="iso-8859-1"?>
<!-- Generator: Adobe Illustrator 19.0.0, SVG Export Plug-In . SVG Version: 6.00 Build 0)  -->
<svg version="1.1" id="Layer_1" xmlns="http://www.w3.org/2000/svg" xmlns:xlink="http://www.w3.org/1999/xlink" x="0px" y="0px"
	 viewBox="0 0 490 490" style="enable-background:new 0 0 490 490;" xml:space="preserve">
<g>
	<circle style="fill:#FE5C93;" cx="73" cy="266.5" r="26"/>
	<g>
		<path style="fill:#B0CE6F;" d="M34.672,314.828c-9.278-9.279-12.859-22.925-9.344-35.612c0.938-3.385,3.582-6.029,6.967-6.968
			c12.688-3.515,26.332,0.066,35.611,9.346c9.279,9.279,12.861,22.925,9.346,35.612c-0.938,3.385-3.582,6.029-6.967,6.967
			C57.598,327.687,43.951,324.107,34.672,314.828z"/>
	</g>
	<g>
		<path style="fill:#B0CE6F;" d="M414.736,252.592c9.279-9.278,22.925-12.859,35.612-9.344c3.385,0.938,6.029,3.582,6.968,6.967
			c3.515,12.688-0.066,26.332-9.346,35.611s-22.925,12.861-35.612,9.346c-3.385-0.938-6.029-3.582-6.967-6.967
			C401.877,275.518,405.457,261.871,414.736,252.592z"/>
	</g>
	<path style="fill:#FFF393;" d="M305.098,125.399c0,5.259-4.263,9.521-9.521,9.521H194.423c-5.258,0-9.521-4.262-9.521-9.521v-13.09
		c0-5.258,4.263-9.52,9.521-9.52h101.154c5.258,0,9.521,4.262,9.521,9.52V125.399z"/>
	<path style="opacity:0.1;" d="M216,125.399v-13.09c0-5.258,4.263-9.52,9.52-9.52h-31.098c-5.258,0-9.521,4.262-9.521,9.52v13.09
		c0,5.259,4.263,9.521,9.521,9.521h31.098C220.263,134.92,216,130.658,216,125.399z"/>
	<path style="fill:#FFDB92;" d="M418.747,233.694c0,18.403-14.918,33.321-33.321,33.321H104.574
		c-18.403,0-33.321-14.918-33.321-33.321l0,0c0-18.403,14.919-33.321,33.321-33.321h280.852
		C403.829,200.373,418.747,215.292,418.747,233.694L418.747,233.694z"/>
	<path style="opacity:0.1;" d="M102.506,233.694c0-18.403,14.918-33.321,33.321-33.321h-31.253
		c-18.403,0-33.321,14.919-33.321,33.321c0,18.403,14.919,33.321,33.321,33.321h31.253
		C117.424,267.016,102.506,252.097,102.506,233.694z"/>
	<g>
		<g>
			<path style="fill:#C69C6D;" d="M415,241h-99c-4.143,0-7.5-3.358-7.5-7.5s3.357-7.5,7.5-7.5h99c4.143,0,7.5,3.358,7.5,7.5
				S419.143,241,415,241z"/>
		</g>
		<g>
			<path style="fill:#C69C6D;" d="M290,241h-35c-4.143,0-7.5-3.358-7.5-7.5s3.357-7.5,7.5-7.5h35c4.143,0,7.5,3.358,7.5,7.5
				S294.143,241,290,241z"/>
		</g>
	</g>
	<path style="fill:#FFE7B0;" d="M418.747,300.337c0,18.403-14.918,33.322-33.321,33.322H104.574
		c-18.403,0-33.321-14.918-33.321-33.322l0,0c0-18.402,14.919-33.321,33.321-33.321h280.852
		C403.829,267.016,418.747,281.935,418.747,300.337L418.747,300.337z"/>
	<path d="M75.08,284.875C74.396,284.952,73.704,285,73,285c-0.752,0-1.49-0.059-2.219-0.147c0.944,1.211,1.81,2.473,2.591,3.778
		C73.858,287.335,74.442,286.089,75.08,284.875z"/>
	<path style="opacity:0.1;" d="M102.506,300.337c0-18.402,14.918-33.321,33.321-33.321h-31.253
		c-18.403,0-33.321,14.919-33.321,33.321c0,18.403,14.919,33.322,33.321,33.322h31.253
		C117.424,333.659,102.506,318.74,102.506,300.337z"/>
	<g>
		<g>
			<path style="fill:#C69C6D;" d="M235,309h-35c-4.142,0-7.5-3.358-7.5-7.5s3.358-7.5,7.5-7.5h35c4.142,0,7.5,3.358,7.5,7.5
				S239.142,309,235,309z"/>
		</g>
		<g>
			<path style="fill:#C69C6D;" d="M174,294H94.224c8.047,1.907,14.646,7.55,17.862,15H174c4.142,0,7.5-3.358,7.5-7.5
				S178.142,294,174,294z"/>
		</g>
	</g>
	<path style="fill:#FFE7B0;" d="M418.747,167.052c0,18.402-14.918,33.321-33.321,33.321H104.574
		c-18.403,0-33.321-14.919-33.321-33.321l0,0c0-18.403,14.919-33.321,33.321-33.321h280.852
		C403.829,133.73,418.747,148.648,418.747,167.052L418.747,167.052z"/>
	<path style="fill:#C69C6D;" d="M385.426,133.73H104.574c-16.786,0-30.667,12.414-32.977,28.561h40.118V233.1
		c0,7.559,6.127,13.686,13.686,13.686c7.558,0,13.685-6.127,13.685-13.686v-70.809h20.231v6.546c0,7.887,6.394,14.28,14.28,14.28
		c7.887,0,14.281-6.394,14.281-14.28v-6.546h148.756v13.091c0,7.887,6.395,14.281,14.28,14.281c7.887,0,14.281-6.394,14.281-14.281
		v-13.091h53.208C416.093,146.145,402.212,133.73,385.426,133.73z"/>
	<path style="fill:#A768AA;" d="M113.833,323.672c0.242-1.425,0.374-2.886,0.374-4.379c0-14.359-11.641-26-26-26s-26,11.641-26,26
		c0,1.494,0.133,2.955,0.375,4.379H113.833z"/>
	<circle style="fill:#FE5C93;" cx="440" cy="315.5" r="26"/>
	<circle style="fill:#A768AA;" cx="394" cy="312.5" r="26"/>
	<path style="fill:#CCFFE8;" d="M46.79,341.989c9.144,26.32,34.139,45.222,63.574,45.222h269.272
		c29.435,0,54.43-18.902,63.574-45.222H46.79z"/>
	<path style="opacity:0.1;" d="M87.29,341.989h-40.5c9.144,26.32,34.139,45.222,63.574,45.222h40.5
		C121.429,387.211,96.434,368.309,87.29,341.989z"/>
	<path style="fill:#E5FFE8;" d="M482.5,339.543c0,8.765-7.105,15.871-15.872,15.871H23.371c-8.766,0-15.871-7.105-15.871-15.871l0,0
		c0-8.766,7.105-15.871,15.871-15.871h443.257C475.395,323.672,482.5,330.777,482.5,339.543L482.5,339.543z"/>
	<path style="opacity:0.1;" d="M48,339.543c0-8.766,7.105-15.871,15.871-15.871h-40.5c-8.766,0-15.871,7.105-15.871,15.871
		c0,8.765,7.105,15.871,15.871,15.871h40.5C55.105,355.414,48,348.308,48,339.543z"/>
	<path d="M473.44,317.188c0.029-0.56,0.06-1.12,0.06-1.688c0-12.218-6.577-22.925-16.375-28.777
		c8.276-10.853,11.127-25.126,7.419-38.512c-1.633-5.889-6.305-10.56-12.192-12.19c-3.833-1.062-7.794-1.601-11.771-1.601
		c-4.947,0-9.845,0.858-14.472,2.467c0.082-1.055,0.139-2.117,0.139-3.193c0-13.748-6.838-25.921-17.284-33.321
		c10.446-7.4,17.284-19.574,17.284-33.321c0-22.509-18.313-40.821-40.821-40.821h-72.828v-13.921c0-9.385-7.636-17.02-17.021-17.02
		H194.423c-9.385,0-17.021,7.635-17.021,17.02v13.921h-72.829c-20.613,0-37.695,15.36-40.429,35.233
		c-0.003,0.027-0.007,0.053-0.01,0.08c-0.244,1.803-0.382,3.639-0.382,5.508c0,13.93,7.018,25.912,17.699,33.027
		c-10.681,7.37-17.699,19.686-17.699,33.616c0,0.204,0.016,0.404,0.019,0.607c-13.071,3.752-22.889,15.258-24.132,29.201
		c-3.159,0.174-6.294,0.672-9.348,1.518c-5.889,1.633-10.56,6.305-12.19,12.192c-3.761,13.573-0.765,28.051,7.782,38.96h-2.512
		C10.484,316.172,0,326.656,0,339.543c0,12.887,10.484,23.371,23.371,23.371h25.812c13.77,19.572,36.435,31.797,61.181,31.797H301
		c4.143,0,7.5-3.358,7.5-7.5c0-4.142-3.357-7.5-7.5-7.5H110.364c-15.837,0-30.603-6.271-41.514-16.797h352.3
		c-10.911,10.526-25.677,16.797-41.514,16.797H334c-4.143,0-7.5,3.358-7.5,7.5c0,4.142,3.357,7.5,7.5,7.5h45.636
		c24.745,0,47.41-12.225,61.182-31.797h25.81c12.888,0,23.372-10.484,23.372-23.371C490,329.025,483.015,320.11,473.44,317.188z
		 M440,297c10.201,0,18.5,8.299,18.5,18.5c0,0.226-0.012,0.448-0.02,0.672h-36.96c-0.009-0.224-0.021-0.446-0.021-0.672
		C421.5,305.299,429.799,297,440,297z M448.347,250.476c0.841,0.233,1.509,0.901,1.742,1.741c2.794,10.087-0.05,20.934-7.422,28.306
		c-0.525,0.525-1.076,1.022-1.64,1.504C440.685,282.016,440.345,282,440,282c-4.944,0-9.631,1.094-13.857,3.027l10.161-10.162
		c2.929-2.929,2.929-7.678,0-10.606c-2.93-2.929-7.678-2.929-10.607,0l-9.425,9.424c-1.088-1.26-2.248-2.455-3.477-3.576
		c1.348-4.542,3.792-8.76,7.244-12.212c5.388-5.387,12.874-8.476,20.541-8.476C443.204,249.42,445.817,249.775,448.347,250.476z
		 M406.522,316.172h-30.637c-0.242-1.188-0.385-2.412-0.385-3.671c0-10.201,8.299-18.5,18.5-18.5c6.353,0,11.967,3.221,15.299,8.114
		c-1.796,4.103-2.799,8.628-2.799,13.386C406.5,315.726,406.517,315.947,406.522,316.172z M360.709,316.172H121.557
		c-1.58-17.014-15.93-30.379-33.35-30.379c-1.769,0-3.506,0.14-5.202,0.406c4.618-7.024,12.551-11.683,21.568-11.683h280.852
		c5.833,0,11.218,1.946,15.546,5.22c-2.249-0.48-4.581-0.735-6.972-0.735c-18.472,0-33.5,15.028-33.5,33.5
		C360.5,313.742,360.576,314.965,360.709,316.172z M106.423,316.172H69.992c1.49-8.717,9.081-15.379,18.216-15.379
		C97.343,300.793,104.933,307.455,106.423,316.172z M385.426,192.873h-21.549c5.347-3.973,8.818-10.334,8.818-17.491v-5.591h38.405
		C409.728,182.746,398.738,192.873,385.426,192.873z M192.402,112.309c0-1.114,0.906-2.02,2.021-2.02h101.154
		c1.114,0,2.021,0.906,2.021,2.02v13.921H192.402V112.309z M104.574,141.23h280.852c9.804,0,18.348,5.492,22.719,13.561h-42.949
		c-4.143,0-7.5,3.358-7.5,7.5v13.091c0,3.739-3.042,6.781-6.781,6.781c-3.738,0-6.78-3.042-6.78-6.781v-13.091
		c0-4.142-3.357-7.5-7.5-7.5H311c-4.143,0-7.5,3.358-7.5,7.5s3.357,7.5,7.5,7.5h18.134v5.591c0,7.157,3.472,13.519,8.817,17.491
		H146.585v-23.082h5.252c0.501,11.569,10.07,20.826,21.76,20.826c11.69,0,21.259-9.257,21.76-20.826H281c4.143,0,7.5-3.358,7.5-7.5
		s-3.357-7.5-7.5-7.5h-93.123c-4.142,0-7.5,3.358-7.5,7.5v6.546c0,3.739-3.042,6.78-6.781,6.78c-3.739,0-6.78-3.042-6.78-6.78
		v-6.546c0-4.142-3.358-7.5-7.5-7.5h-20.231c-4.142,0-7.5,3.358-7.5,7.5V233.1c0,3.411-2.775,6.186-6.185,6.186
		c-3.411,0-6.186-2.775-6.186-6.186v-70.809c0-4.142-3.358-7.5-7.5-7.5h-29.86C86.227,146.723,94.77,141.23,104.574,141.23z
		 M78.899,169.791h25.315v23.073C91.064,192.683,80.259,182.628,78.899,169.791z M104.214,207.882V233.1
		c0,11.682,9.504,21.186,21.186,21.186s21.185-9.504,21.185-21.186v-25.227h238.84c14.238,0,25.821,11.583,25.821,25.821
		c0,14.238-11.583,25.821-25.821,25.821H104.574c-14.238,0-25.821-11.583-25.821-25.821
		C78.752,219.577,90.142,208.076,104.214,207.882z M66.79,249.095c2.966,7.241,7.942,13.454,14.247,17.92
		c-3.317,2.35-6.267,5.185-8.753,8.395c-5.022-4.73-11.131-8.205-17.721-10.159C55.066,257.778,60.015,251.521,66.79,249.095z
		 M32.556,281.217c0.233-0.841,0.901-1.509,1.741-1.742c2.528-0.701,5.14-1.056,7.764-1.056c7.668,0,15.154,3.089,20.542,8.477
		c0.92,0.92,1.765,1.896,2.541,2.916c-0.553,2.067-0.942,4.199-1.164,6.38c-0.669,0.701-1.309,1.43-1.915,2.187l-5.119-5.119
		c-2.929-2.929-7.678-2.929-10.606,0c-2.929,2.929-2.929,7.678,0,10.606l8.994,8.994c-0.212,1.086-0.372,2.19-0.476,3.311h-4.454
		c-3.896-1.442-7.479-3.697-10.429-6.647C32.603,302.152,29.761,291.306,32.556,281.217z M466.628,347.914H23.371
		c-4.616,0-8.371-3.755-8.371-8.371c0-4.616,3.755-8.371,8.371-8.371h443.257c4.616,0,8.372,3.755,8.372,8.371
		C475,344.159,471.244,347.914,466.628,347.914z"/>
</g>
<g>
</g>
<g>
</g>
<g>
</g>
<g>
</g>
<g>
</g>
<g>
</g>
<g>
</g>
<g>
</g>
<g>
</g>
<g>
</g>
<g>
</g>
<g>
</g>
<g>
</g>
<g>
</g>
<g>
</g>
</svg>
