<?xml version="1.0" encoding="iso-8859-1"?>
<!-- Generator: Adobe Illustrator 19.0.0, SVG Export Plug-In . SVG Version: 6.00 Build 0)  -->
<svg version="1.1" id="Layer_1" xmlns="http://www.w3.org/2000/svg" xmlns:xlink="http://www.w3.org/1999/xlink" x="0px" y="0px"
	 viewBox="0 0 490 490" style="enable-background:new 0 0 490 490;" xml:space="preserve">
<g>
	<path style="fill:#EFDFBB;" d="M482.5,449.568c0,5.523-4.478,10-10,10h-455c-5.523,0-10-4.477-10-10v-269c0-5.523,4.477-10,10-10
		h455c5.522,0,10,4.477,10,10V449.568z"/>
	<path style="opacity:0.1;" d="M40,170.568H17.5c-5.523,0-10,4.477-10,10v269c0,5.523,4.477,10,10,10H40V170.568z"/>
	<circle style="fill:#FCF6E6;" cx="64.209" cy="87.142" r="56.709"/>
	<path style="fill:#8C572C;" d="M64.209,123.851c-20.241,0-36.709-16.468-36.709-36.709c0-20.242,16.468-36.71,36.709-36.71
		s36.709,16.468,36.709,36.71C100.918,107.383,84.45,123.851,64.209,123.851z"/>
	<path style="opacity:0.1;" d="M48,87.142c0-16.685,11.191-30.795,26.459-35.243c-3.256-0.948-6.692-1.467-10.25-1.467
		c-20.241,0-36.709,16.468-36.709,36.71c0,20.241,16.468,36.709,36.709,36.709c3.558,0,6.994-0.519,10.25-1.467
		C59.191,117.936,48,103.825,48,87.142z"/>
	<g>
		<path style="fill:#FFFFFF;" d="M115.139,414.578c0,7.998-6.484,14.482-14.483,14.482H64.932c-7.998,0-14.482-6.484-14.482-14.482
			v-35.724c0-7.999,6.484-14.483,14.482-14.483h35.724c7.999,0,14.483,6.484,14.483,14.483V414.578z"/>
		<circle style="fill:#FF8150;" cx="82.793" cy="396.716" r="15.931"/>
		<path style="fill:#FFFFFF;" d="M196.242,414.578c0,7.998-6.484,14.482-14.483,14.482h-35.724c-7.998,0-14.483-6.484-14.483-14.482
			v-35.724c0-7.999,6.485-14.483,14.483-14.483h35.724c7.999,0,14.483,6.484,14.483,14.483V414.578z"/>
		<circle style="fill:#FF8150;" cx="163.897" cy="396.716" r="15.931"/>
		<path style="fill:#FFFFFF;" d="M277.345,414.578c0,7.998-6.484,14.482-14.482,14.482h-35.724c-7.999,0-14.483-6.484-14.483-14.482
			v-35.724c0-7.999,6.484-14.483,14.483-14.483h35.724c7.998,0,14.482,6.484,14.482,14.483V414.578z"/>
		<circle style="fill:#FF8150;" cx="245" cy="396.716" r="15.932"/>
		<path style="fill:#FFFFFF;" d="M358.448,414.578c0,7.998-6.485,14.482-14.483,14.482h-35.724c-7.999,0-14.482-6.484-14.482-14.482
			v-35.724c0-7.999,6.483-14.483,14.482-14.483h35.724c7.998,0,14.483,6.484,14.483,14.483V414.578z"/>
		<circle style="fill:#FF8150;" cx="326.103" cy="396.716" r="15.931"/>
		<path style="fill:#FFFFFF;" d="M439.551,414.578c0,7.998-6.484,14.482-14.482,14.482h-35.724c-7.999,0-14.483-6.484-14.483-14.482
			v-35.724c0-7.999,6.484-14.483,14.483-14.483h35.724c7.998,0,14.482,6.484,14.482,14.483V414.578z"/>
		<circle style="fill:#FF8150;" cx="407.207" cy="396.716" r="15.931"/>
	</g>
	<g>
		<g>
			<g>
				<path style="fill:#FF4E00;" d="M126.551,305.301c0,16.977-13.764,30.741-30.741,30.741H81.207
					c-16.978,0-30.741-13.764-30.741-30.741v-69.936c0-16.978,13.764-30.741,30.741-30.741H95.81
					c16.978,0,30.741,13.764,30.741,30.741V305.301z"/>
				<path style="fill:#F4D0C1;" d="M50.466,245.67v15.467c13.027-17.069,39.305-40.615,61.943-51.64
					c-3.698-2.378-7.937-3.983-12.493-4.592C82.037,215.348,63.486,231.304,50.466,245.67z"/>
				<path style="fill:#F4D0C1;" d="M50.466,279.427v17.985c13.635-24.534,45.242-50.901,76.042-63.673
					c-0.183-3.487-0.951-6.817-2.201-9.902C96.522,234.987,67.82,256.894,50.466,279.427z"/>
				<path style="fill:#F4D0C1;" d="M52.663,316.711c1.403,3.509,3.432,6.699,5.952,9.43c12.069-21.26,40.332-45.207,67.936-57.985
					V257.22C97.432,269.57,67.632,293.675,52.663,316.711z"/>
				<path style="fill:#F4D0C1;" d="M126.551,288.427c-21.217,9.166-44.719,30.655-54.292,46.288c2.832,0.86,5.835,1.327,8.948,1.327
					h2.174c9.075-12.564,26.694-28.313,43.17-36.587V288.427z"/>
			</g>
			<path style="opacity:0.1;" d="M71,305.301v-69.936c0-15.977,12.189-29.104,27.775-30.596c-0.977-0.094-1.965-0.146-2.966-0.146
				H81.207c-16.978,0-30.741,13.764-30.741,30.741v69.936c0,16.977,13.764,30.741,30.741,30.741H95.81
				c1.001,0,1.989-0.052,2.966-0.145C83.189,334.404,71,321.277,71,305.301z"/>
		</g>
		<g>
			<path style="fill:#FF9150;" d="M179.836,214.432h20.889c4.854-4.418,9.852-11.081,13.971-19.108
				c8.699-16.953,10.174-33.557,3.295-37.087c-6.752-3.463-19.033,6.952-27.711,23.36c-8.676-16.408-20.957-26.823-27.709-23.36
				c-6.879,3.53-5.404,20.134,3.295,37.087C169.984,203.351,174.982,210.014,179.836,214.432z"/>
			<g style="opacity:0.1;">
				<path d="M182.544,195.323c-6.706-13.069-9.114-25.925-6.716-32.749c-5.044-4.299-9.854-6.084-13.258-4.338
					c-6.879,3.53-5.404,20.134,3.295,37.087c4.119,8.027,9.117,14.691,13.971,19.108h16.679
					C191.661,210.014,186.663,203.351,182.544,195.323z"/>
			</g>
			<path style="fill:#F2B47C;" d="M228.322,305.301c0,16.977-13.764,30.741-30.74,30.741h-14.604
				c-16.977,0-30.74-13.764-30.74-30.741v-69.936c0-16.978,13.764-30.741,30.74-30.741h14.604c16.977,0,30.74,13.764,30.74,30.741
				V305.301z"/>
			<path style="fill:#FFFFFF;" d="M190.28,261.716c13.455,0,26.905-4.372,38.042-13.08v-13.271c0-0.108-0.007-0.214-0.008-0.321
				c-0.638,0.256-1.235,0.642-1.752,1.158c-20.007,20.007-52.558,20.006-72.564,0c-0.517-0.516-1.114-0.902-1.752-1.158
				c-0.001,0.107-0.008,0.213-0.008,0.321v13.271C163.375,257.346,176.82,261.716,190.28,261.716z"/>
			<path style="fill:#FFFFFF;" d="M153.998,263.54c-0.518-0.518-1.119-0.904-1.76-1.161v13.596
				c11.137,8.708,24.582,13.079,38.042,13.079c13.455,0,26.905-4.372,38.042-13.079v-13.596c-0.641,0.257-1.241,0.643-1.76,1.161
				C206.556,283.547,174.005,283.546,153.998,263.54z"/>
			<path style="fill:#FFFFFF;" d="M153.998,290.878c-0.518-0.518-1.119-0.904-1.76-1.161v13.596
				c11.137,8.709,24.582,13.079,38.042,13.079c13.455,0,26.905-4.372,38.042-13.079v-13.596c-0.641,0.257-1.241,0.643-1.76,1.161
				C206.556,310.884,174.005,310.884,153.998,290.878z"/>
			<path style="opacity:0.1;" d="M173,305.301v-69.936c0-15.938,12.131-29.042,27.661-30.587c-1.013-0.101-2.04-0.154-3.079-0.154
				h-14.604c-16.977,0-30.74,13.764-30.74,30.741v69.936c0,16.977,13.764,30.741,30.74,30.741h14.604
				c1.039,0,2.066-0.053,3.079-0.154C185.131,334.343,173,321.239,173,305.301z"/>
		</g>
		<g>
			<path style="fill:#FFE266;" d="M330.821,305.601c0,16.978-13.764,30.74-30.74,30.74h-14.604c-16.977,0-30.74-13.763-30.74-30.74
				v-69.936c0-16.977,13.764-30.741,30.74-30.741h14.604c16.977,0,30.74,13.764,30.74,30.741V305.601z"/>
			<path style="fill:#316638;" d="M332.779,280.132c0,4.419-3.582,8-8,8h-64c-4.418,0-8-3.581-8-8v-19c0-4.418,3.582-8,8-8h64
				c4.418,0,8,3.582,8,8V280.132z"/>
			<path style="opacity:0.1;" d="M273,280.132v-19c0-4.418,3.582-8,8-8h-20.221c-4.418,0-8,3.582-8,8v19c0,4.419,3.582,8,8,8H281
				C276.582,288.132,273,284.551,273,280.132z"/>
		</g>
		<g>
			<path style="fill:#A8443F;" d="M437.593,305.601c0,16.978-13.764,30.74-30.74,30.74h-14.604c-16.977,0-30.74-13.763-30.74-30.74
				v-69.936c0-16.977,13.764-30.741,30.74-30.741h14.604c16.977,0,30.74,13.764,30.74,30.741V305.601z"/>
			<path style="opacity:0.1;" d="M382,305.601v-69.936c0-15.984,12.201-29.115,27.797-30.598c-0.97-0.092-1.951-0.144-2.944-0.144
				h-14.604c-16.977,0-30.74,13.764-30.74,30.741v69.936c0,16.978,13.764,30.74,30.74,30.74h14.604c0.993,0,1.975-0.051,2.944-0.143
				C394.201,334.715,382,321.585,382,305.601z"/>
			<path style="fill:#316638;" d="M439.551,280.132c0,4.419-3.582,8-8,8h-64c-4.418,0-8-3.581-8-8v-19c0-4.418,3.582-8,8-8h64
				c4.418,0,8,3.582,8,8V280.132z"/>
			<path style="opacity:0.1;" d="M380,280.132v-19c0-4.418,3.582-8,8-8h-20.449c-4.418,0-8,3.582-8,8v19c0,4.419,3.582,8,8,8H388
				C383.582,288.132,380,284.551,380,280.132z"/>
		</g>
	</g>
	<g>
		<path d="M42.949,414.578c0,12.121,9.861,21.982,21.982,21.982h35.724c12.122,0,21.983-9.861,21.983-21.982v-35.724
			c0-12.122-9.861-21.983-21.983-21.983H64.932c-12.121,0-21.982,9.862-21.982,21.983V414.578z M57.949,378.854
			c0-3.851,3.132-6.983,6.982-6.983h35.724c3.851,0,6.983,3.133,6.983,6.983v35.724c0,3.85-3.133,6.982-6.983,6.982H64.932
			c-3.851,0-6.982-3.132-6.982-6.982V378.854z"/>
		<path d="M124.052,378.854v35.724c0,12.121,9.861,21.982,21.983,21.982h35.724c12.122,0,21.983-9.861,21.983-21.982v-35.724
			c0-12.122-9.861-21.983-21.983-21.983h-35.724C133.913,356.871,124.052,366.733,124.052,378.854z M139.052,378.854
			c0-3.851,3.133-6.983,6.983-6.983h35.724c3.851,0,6.983,3.133,6.983,6.983v35.724c0,3.85-3.133,6.982-6.983,6.982h-35.724
			c-3.851,0-6.983-3.132-6.983-6.982V378.854z"/>
		<path d="M205.155,378.854v35.724c0,12.121,9.861,21.982,21.983,21.982h35.724c12.121,0,21.982-9.861,21.982-21.982v-35.724
			c0-12.122-9.861-21.983-21.982-21.983h-35.724C215.017,356.871,205.155,366.733,205.155,378.854z M269.845,378.854v35.724
			c0,3.85-3.132,6.982-6.982,6.982h-35.724c-3.851,0-6.983-3.132-6.983-6.982v-35.724c0-3.851,3.133-6.983,6.983-6.983h35.724
			C266.713,371.871,269.845,375.004,269.845,378.854z"/>
		<path d="M308.241,356.871c-12.121,0-21.982,9.862-21.982,21.983v35.724c0,12.121,9.861,21.982,21.982,21.982h35.724
			c12.122,0,21.983-9.861,21.983-21.982v-35.724c0-12.122-9.861-21.983-21.983-21.983H308.241z M350.948,378.854v35.724
			c0,3.85-3.133,6.982-6.983,6.982h-35.724c-3.851,0-6.982-3.132-6.982-6.982v-35.724c0-3.851,3.132-6.983,6.982-6.983h35.724
			C347.815,371.871,350.948,375.004,350.948,378.854z"/>
		<path d="M425.068,356.871h-35.724c-12.122,0-21.983,9.862-21.983,21.983v35.724c0,12.121,9.861,21.982,21.983,21.982h35.724
			c12.121,0,21.982-9.861,21.982-21.982v-35.724C447.051,366.733,437.19,356.871,425.068,356.871z M432.051,414.578
			c0,3.85-3.132,6.982-6.982,6.982h-35.724c-3.851,0-6.983-3.132-6.983-6.982v-35.724c0-3.851,3.133-6.983,6.983-6.983h35.724
			c3.851,0,6.982,3.133,6.982,6.983V414.578z"/>
		<path d="M82.794,420.147c12.92,0,23.431-10.511,23.431-23.432c0-12.92-10.511-23.431-23.431-23.431
			c-12.92,0-23.432,10.511-23.432,23.431C59.362,409.636,69.874,420.147,82.794,420.147z M82.794,388.285
			c4.648,0,8.431,3.782,8.431,8.431c0,4.649-3.782,8.432-8.431,8.432c-4.649,0-8.432-3.782-8.432-8.432
			C74.362,392.067,78.145,388.285,82.794,388.285z"/>
		<path d="M163.896,420.147c12.92,0,23.432-10.511,23.432-23.432c0-12.92-10.512-23.431-23.432-23.431s-23.431,10.511-23.431,23.431
			C140.466,409.636,150.977,420.147,163.896,420.147z M163.896,388.285c4.649,0,8.432,3.782,8.432,8.431
			c0,4.649-3.782,8.432-8.432,8.432c-4.648,0-8.431-3.782-8.431-8.432C155.466,392.067,159.248,388.285,163.896,388.285z"/>
		<path d="M245,420.147c12.92,0,23.432-10.511,23.432-23.432c0-12.92-10.512-23.431-23.432-23.431
			c-12.92,0-23.432,10.511-23.432,23.431C221.568,409.636,232.08,420.147,245,420.147z M245,388.285
			c4.649,0,8.432,3.782,8.432,8.431c0,4.649-3.782,8.432-8.432,8.432s-8.432-3.782-8.432-8.432
			C236.568,392.067,240.351,388.285,245,388.285z"/>
		<path d="M326.103,373.285c-12.92,0-23.432,10.511-23.432,23.431c0,12.92,10.512,23.432,23.432,23.432
			c12.92,0,23.431-10.511,23.431-23.432C349.534,383.796,339.023,373.285,326.103,373.285z M326.103,405.147
			c-4.649,0-8.432-3.782-8.432-8.432c0-4.649,3.782-8.431,8.432-8.431c4.649,0,8.431,3.782,8.431,8.431
			C334.534,401.365,330.752,405.147,326.103,405.147z"/>
		<path d="M407.206,373.285c-12.92,0-23.431,10.511-23.431,23.431c0,12.92,10.511,23.432,23.431,23.432
			c12.92,0,23.432-10.511,23.432-23.432C430.638,383.796,420.126,373.285,407.206,373.285z M407.206,405.147
			c-4.648,0-8.431-3.782-8.431-8.432c0-4.649,3.782-8.431,8.431-8.431c4.649,0,8.432,3.782,8.432,8.431
			C415.638,401.365,411.855,405.147,407.206,405.147z"/>
		<path d="M95.81,197.124H81.207c-21.086,0-38.241,17.155-38.241,38.241v69.936c0,21.086,17.155,38.241,38.241,38.241H95.81
			c21.086,0,38.241-17.155,38.241-38.241v-69.936C134.051,214.279,116.896,197.124,95.81,197.124z M119.051,305.301
			c0,12.815-10.426,23.241-23.241,23.241H81.207c-12.815,0-23.241-10.426-23.241-23.241v-69.936
			c0-12.815,10.426-23.241,23.241-23.241H95.81c12.815,0,23.241,10.426,23.241,23.241V305.301z"/>
		<path d="M300.081,197.424h-14.604c-21.086,0-38.24,17.155-38.24,38.241v17.945c-1.243,2.23-1.958,4.792-1.958,7.521v19
			c0,2.729,0.715,5.292,1.958,7.521v17.947c0,21.086,17.154,38.24,38.24,38.24h14.604c21.086,0,38.24-17.154,38.24-38.24v-17.947
			c1.243-2.23,1.958-4.792,1.958-7.521v-19c0-2.729-0.715-5.292-1.958-7.521v-17.945
			C338.321,214.579,321.167,197.424,300.081,197.424z M262.237,235.665c0-12.815,10.426-23.241,23.24-23.241h14.604
			c12.814,0,23.24,10.426,23.24,23.241v9.967h-5v-9.967c0-10.058-8.183-18.241-18.24-18.241h-14.604
			c-10.058,0-18.24,8.183-18.24,18.241v9.967h-5V235.665z M292.779,234.632c-2.762,0-5,2.239-5,5v6h-5.542v-9.967
			c0-1.787,1.453-3.241,3.24-3.241h14.604c1.787,0,3.24,1.454,3.24,3.241v9.967h-5.542v-6
			C297.779,236.871,295.541,234.632,292.779,234.632z M323.321,305.601c0,12.815-10.426,23.24-23.24,23.24h-14.604
			c-12.814,0-23.24-10.425-23.24-23.24v-9.969h5v9.969c0,10.058,8.183,18.24,18.24,18.24h14.604c10.058,0,18.24-8.183,18.24-18.24
			v-9.969h5V305.601z M292.779,306.632c2.762,0,5-2.239,5-5v-6h5.542v9.969c0,1.787-1.453,3.24-3.24,3.24h-14.604
			c-1.787,0-3.24-1.454-3.24-3.24v-9.969h5.542v6C287.779,304.393,290.018,306.632,292.779,306.632z M325.279,280.132
			c0,0.276-0.225,0.5-0.5,0.5h-64c-0.275,0-0.5-0.224-0.5-0.5v-19c0-0.276,0.225-0.5,0.5-0.5h64c0.275,0,0.5,0.224,0.5,0.5V280.132z
			"/>
		<path d="M406.853,197.424h-14.604c-21.086,0-38.24,17.155-38.24,38.241v17.945c-1.243,2.23-1.958,4.792-1.958,7.521v19
			c0,2.729,0.715,5.292,1.958,7.521v17.947c0,21.086,17.154,38.24,38.24,38.24h14.604c21.086,0,38.24-17.154,38.24-38.24v-17.947
			c1.243-2.23,1.958-4.792,1.958-7.521v-19c0-2.729-0.715-5.292-1.958-7.521v-17.945
			C445.093,214.579,427.939,197.424,406.853,197.424z M369.009,235.665c0-12.815,10.426-23.241,23.24-23.241h14.604
			c12.814,0,23.24,10.426,23.24,23.241v9.967h-61.084V235.665z M430.093,305.601c0,12.815-10.426,23.24-23.24,23.24h-14.604
			c-12.814,0-23.24-10.425-23.24-23.24v-9.969h61.084V305.601z M432.051,280.132c0,0.276-0.225,0.5-0.5,0.5h-64
			c-0.275,0-0.5-0.224-0.5-0.5v-19c0-0.276,0.225-0.5,0.5-0.5h64c0.275,0,0.5,0.224,0.5,0.5V280.132z"/>
		<g>
			<path d="M64.209,151.351c35.405,0,64.209-28.804,64.209-64.209c0-35.405-28.804-64.21-64.209-64.21S0,51.736,0,87.142
				C0,122.546,28.804,151.351,64.209,151.351z M64.209,37.932c27.134,0,49.209,22.076,49.209,49.21
				c0,27.134-22.075,49.209-49.209,49.209S15,114.275,15,87.142C15,60.007,37.075,37.932,64.209,37.932z"/>
			<path d="M472.5,163.068H229.283c-1.393-7.002-5.23-10.151-7.87-11.505c-1.929-0.989-4.05-1.491-6.305-1.491
				c-8.967,0-17.965,8.043-24.828,17.415c-6.863-9.373-15.86-17.415-24.828-17.415c-2.255,0-4.376,0.501-6.307,1.492
				c-2.638,1.354-6.476,4.502-7.868,11.504H17.5c-9.649,0-17.5,7.85-17.5,17.5v269c0,9.649,7.851,17.5,17.5,17.5h63.499
				c4.143,0,7.5-3.358,7.5-7.5c0-4.142-3.357-7.5-7.5-7.5H17.5c-1.379,0-2.5-1.122-2.5-2.5V227.5h4c4.143,0,7.5-3.358,7.5-7.5
				s-3.357-7.5-7.5-7.5h-4v-8h12.5c4.143,0,7.5-3.358,7.5-7.5s-3.357-7.5-7.5-7.5H15v-8.932c0-1.379,1.121-2.5,2.5-2.5h134.248
				c1.313,6.556,3.867,13.707,7.444,20.679c0.839,1.635,1.73,3.22,2.65,4.77c-10.301,6.859-17.105,18.572-17.105,31.849v69.936
				c0,21.086,17.154,38.241,38.24,38.241h14.604c21.086,0,38.24-17.155,38.24-38.241v-69.936c0-13.276-6.804-24.99-17.104-31.849
				c0.92-1.55,1.811-3.135,2.65-4.77c3.577-6.972,6.132-14.123,7.444-20.679H472.5c1.379,0,2.5,1.121,2.5,2.5V389.5h-4
				c-4.143,0-7.5,3.358-7.5,7.5s3.357,7.5,7.5,7.5h4v11h-6.603c-4.143,0-7.5,3.358-7.5,7.5s3.357,7.5,7.5,7.5H475v19.068
				c0,1.378-1.121,2.5-2.5,2.5H114.999c-4.143,0-7.5,3.358-7.5,7.5c0,4.142,3.357,7.5,7.5,7.5H472.5c9.649,0,17.5-7.851,17.5-17.5
				v-269C490,170.919,482.149,163.068,472.5,163.068z M166.137,165.194c2.95,0.897,10.598,6.831,17.513,19.909
				c1.299,2.457,3.851,3.994,6.63,3.994s5.331-1.537,6.63-3.994c6.917-13.079,14.564-19.012,17.515-19.909
				c1.037,3.002,0.622,13.018-6.401,26.706c-1.057,2.059-2.188,4.026-3.366,5.892c-2.294-0.432-4.656-0.667-7.074-0.667h-14.604
				c-2.418,0-4.78,0.235-7.074,0.667c-1.179-1.865-2.31-3.833-3.366-5.892C165.515,178.212,165.1,168.196,166.137,165.194z
				 M220.822,235.365v69.936c0,12.815-10.426,23.241-23.24,23.241h-14.604c-12.814,0-23.24-10.426-23.24-23.241v-69.936
				c0-12.749,10.318-23.129,23.042-23.236v20.303c0,4.142,3.357,7.5,7.5,7.5c4.143,0,7.5-3.358,7.5-7.5v-20.303
				C210.504,212.236,220.822,222.616,220.822,235.365z"/>
			<path d="M64.209,131.351c4.143,0,7.5-3.358,7.5-7.5s-3.357-7.5-7.5-7.5C48.104,116.351,35,103.248,35,87.142
				c0-16.106,13.104-29.21,29.209-29.21s29.209,13.104,29.209,29.21c0,8.147-3.458,15.992-9.487,21.523
				c-3.053,2.8-3.258,7.544-0.458,10.597c2.801,3.052,7.545,3.256,10.597,0.457c9.119-8.364,14.349-20.238,14.349-32.577
				c0-24.377-19.832-44.21-44.209-44.21C39.832,42.932,20,62.764,20,87.142C20,111.519,39.832,131.351,64.209,131.351z"/>
		</g>
	</g>
	<g>
		<path style="fill:#FFFFFF;" d="M56,75.458c7.802,3.23,10.421,5.851,13.652,13.653c3.233-7.802,5.852-10.423,13.654-13.653
			c-7.803-3.233-10.422-5.853-13.654-13.654C66.421,69.605,63.802,72.225,56,75.458z"/>
		<circle style="fill:#FFFFFF;" cx="82.979" cy="91.977" r="6.024"/>
	</g>
	<g>
		<g>
			<path style="fill:#8C6239;" d="M424,55.745H158.425c-4.207,0-7.616,3.41-7.616,7.616c0,4.207,3.409,7.617,7.616,7.617H424V55.745
				z"/>
		</g>
		<g>
			<path style="fill:#42210B;" d="M482.384,70.978H414.85c-4.207,0-7.616-3.41-7.616-7.617c0-4.207,3.409-7.616,7.616-7.616h67.534
				c4.207,0,7.616,3.41,7.616,7.616C490,67.568,486.591,70.978,482.384,70.978z"/>
		</g>
		<path style="fill:#8C6239;" d="M424,93.614H158.425c-4.207,0-7.616,3.41-7.616,7.617c0,4.206,3.409,7.617,7.616,7.617H424V93.614z
			"/>
		<g>
			<path style="fill:#42210B;" d="M482.384,108.848H414.85c-4.207,0-7.616-3.41-7.616-7.617c0-4.207,3.409-7.617,7.616-7.617h67.534
				c4.207,0,7.616,3.41,7.616,7.617C490,105.438,486.591,108.848,482.384,108.848z"/>
		</g>
	</g>
</g>
<g>
</g>
<g>
</g>
<g>
</g>
<g>
</g>
<g>
</g>
<g>
</g>
<g>
</g>
<g>
</g>
<g>
</g>
<g>
</g>
<g>
</g>
<g>
</g>
<g>
</g>
<g>
</g>
<g>
</g>
</svg>
