<?xml version="1.0" encoding="iso-8859-1"?>
<!-- Generator: Adobe Illustrator 19.0.0, SVG Export Plug-In . SVG Version: 6.00 Build 0)  -->
<svg version="1.1" id="Layer_1" xmlns="http://www.w3.org/2000/svg" xmlns:xlink="http://www.w3.org/1999/xlink" x="0px" y="0px"
	 viewBox="0 0 490 490" style="enable-background:new 0 0 490 490;" xml:space="preserve">
<g>
	<g>
		<g>
			<path style="fill:#B0CE6F;" d="M255.092,283.908c-9.278-9.279-12.859-22.925-9.344-35.612c0.938-3.385,3.582-6.029,6.967-6.968
				c12.688-3.515,26.332,0.066,35.611,9.346c9.279,9.279,12.861,22.925,9.346,35.612c-0.938,3.385-3.582,6.029-6.967,6.967
				C278.018,296.767,264.371,293.187,255.092,283.908z"/>
		</g>
		<g>
			<path style="fill:#B0CE6F;" d="M294.092,265.092c9.279-9.278,22.925-12.859,35.612-9.344c3.385,0.937,6.029,3.582,6.968,6.967
				c3.515,12.688-0.066,26.332-9.346,35.611s-22.925,12.861-35.612,9.346c-3.385-0.938-6.029-3.582-6.967-6.967
				C281.232,288.018,284.813,274.371,294.092,265.092z"/>
		</g>
		<ellipse style="fill:#F48911;" cx="418.6" cy="316.8" rx="34.399" ry="17.2"/>
		<ellipse style="fill:#F48911;" cx="384.2" cy="282.399" rx="17.2" ry="34.4"/>
		<path style="fill:#FFAB5F;" d="M420.685,304.637c-13.433,13.434-29.768,18.879-36.485,12.162
			c-4.311-4.31-3.613-12.578,0.987-21.499c2.57-4.984,6.359-10.172,11.174-14.987c13.435-13.434,29.771-18.879,36.487-12.162
			C439.566,274.868,434.12,291.204,420.685,304.637z"/>
		<path style="fill:#FFAB5F;" d="M368.5,302.504c-7.932,0-15.185,2.893-20.775,7.672c-5.787-8.264-15.371-13.672-26.225-13.672
			c-8.228,0-15.729,3.108-21.398,8.212c-5.742-8.569-15.512-14.212-26.602-14.212c-17.673,0-32,14.327-32,32v30
			c0,17.673,14.327,32,32,32c8.228,0,15.729-3.108,21.398-8.212c5.742,8.569,15.512,14.212,26.602,14.212
			c7.932,0,15.185-2.893,20.775-7.672c5.787,8.264,15.371,13.672,26.225,13.672c17.673,0,32-14.327,32-32v-30
			C400.5,316.831,386.173,302.504,368.5,302.504z"/>
		<path style="opacity:0.1;" d="M368.5,302.504c-7.932,0-15.185,2.893-20.775,7.672c-5.787-8.264-15.371-13.672-26.225-13.672
			c-8.228,0-15.729,3.108-21.398,8.212c-5.742-8.569-15.512-14.212-26.602-14.212c-17.673,0-32,14.327-32,32V343
			c0-17.673,14.327-32,32-32c11.09,0,20.859,5.643,26.602,14.212c5.669-5.104,13.17-8.212,21.398-8.212
			c10.853,0,20.438,5.408,26.225,13.672c5.591-4.779,12.844-7.672,20.775-7.672c17.673,0,32,14.327,32,32v-20.496
			C400.5,316.831,386.173,302.504,368.5,302.504z"/>
		<path style="fill:#F2FFE9;" d="M466.628,359.844H23.371c-8.766,0-15.871,7.105-15.871,15.871c0,8.765,7.106,15.871,15.871,15.871
			h29.841c11.875,19.085,33.018,31.797,57.151,31.797h269.272c24.134,0,45.276-12.713,57.151-31.797h29.841
			c8.767,0,15.872-7.105,15.872-15.871C482.5,366.949,475.395,359.844,466.628,359.844z"/>
		<g>
			<path style="fill:#F48911;" d="M46.595,352.616c-8.757-8.757-14.825-19.791-17.084-31.064c-0.499-2.493,0.323-5.067,2.178-6.807
				c1.855-1.74,4.477-2.398,6.934-1.74l38.04,10.194c0.633,0.17,1.313-0.013,1.775-0.476c0.464-0.463,0.646-1.143,0.477-1.776
				l-10.192-38.041c-0.659-2.457-0.001-5.078,1.737-6.933c1.74-1.854,4.314-2.678,6.809-2.179
				c11.274,2.259,22.306,8.327,31.063,17.085c20.962,20.963,24.17,51.864,7.149,68.885
				C98.459,376.786,67.557,373.579,46.595,352.616z"/>
		</g>
		<path style="fill:#FFAB5F;" d="M239.463,387.952c-0.996,0.996-2.164,1.819-3.46,2.425c-45.093,21.041-74.399,18.71-101.159-8.05
			c-30.347-30.346-39.184-75.494-22.512-115.021c0.615-1.462,1.508-2.774,2.609-3.876c1.102-1.101,2.413-1.994,3.876-2.609
			c39.526-16.671,84.675-7.835,115.021,22.511c26.761,26.76,29.091,56.067,8.049,101.16
			C241.281,385.788,240.459,386.956,239.463,387.952z"/>
		<path style="opacity:0.1;" d="M166.829,382.328c-30.347-30.346-39.184-75.494-22.512-115.021c0.615-1.462,1.508-2.774,2.609-3.876
			c1.102-1.101,2.413-1.994,3.876-2.609c8.144-3.435,16.527-5.769,24.971-7.074c-18.826-2.929-38.503-0.71-56.956,7.074
			c-1.463,0.616-2.774,1.508-3.876,2.609c-1.102,1.102-1.994,2.414-2.609,3.876c-16.672,39.527-7.835,84.675,22.512,115.021
			c19.066,19.066,39.431,25.72,65.871,20.366C188.469,399.702,177.446,392.945,166.829,382.328z"/>
		<g>
			<g>
				<g>
					<path style="fill:#FCE9C3;" d="M400.527,179.004h-25c-4.143,0-7.5-3.358-7.5-7.5c0-4.142,3.357-7.5,7.5-7.5h25
						c13.219,0,23.973-10.754,23.973-23.974c0-13.219-10.754-23.973-23.973-23.973h-21.715c-4.143,0-7.5-3.358-7.5-7.5
						c0-4.142,3.357-7.5,7.5-7.5h21.715c21.489,0,38.973,17.483,38.973,38.973C439.5,161.52,422.017,179.004,400.527,179.004z"/>
				</g>
			</g>
			<g>
				<g>
					<path style="fill:#FCE9C3;" d="M301.674,222.498c-4.142,0-7.5-3.358-7.5-7.5v-17.123c0-18.677,15.194-33.871,33.871-33.871H349
						c4.143,0,7.5,3.358,7.5,7.5c0,4.142-3.357,7.5-7.5,7.5h-20.955c-10.405,0-18.871,8.465-18.871,18.871v17.123
						C309.174,219.14,305.816,222.498,301.674,222.498z"/>
				</g>
			</g>
		</g>
		<g>
			<g>
				<path style="fill:#F2D8A0;" d="M344.5,140.004h-49.084c-22.3,0-40.442-18.143-40.442-40.443c0-22.3,18.143-40.443,40.442-40.443
					h17.622c4.143,0,7.5,3.358,7.5,7.5s-3.357,7.5-7.5,7.5h-17.622c-14.029,0-25.442,11.414-25.442,25.443
					s11.413,25.443,25.442,25.443H344.5c4.143,0,7.5,3.358,7.5,7.5C352,136.646,348.643,140.004,344.5,140.004z"/>
			</g>
		</g>
		<g>
			<circle style="fill:#FFFFFF;" cx="198" cy="279.844" r="22"/>
		</g>
		<g>
			<g>
				<path style="fill:#F48911;" d="M217.858,359.876c-9.742-9.742-16.493-22.015-19.007-34.556
					c-0.555-2.773,0.361-5.638,2.424-7.572c2.063-1.936,4.98-2.668,7.713-1.935l42.315,11.338c0.703,0.189,1.461-0.014,1.976-0.529
					c0.515-0.515,0.719-1.271,0.528-1.975l-11.337-42.317c-0.733-2.732-0.002-5.648,1.933-7.712c1.936-2.062,4.8-2.979,7.573-2.423
					c12.542,2.513,24.813,9.263,34.556,19.005c23.318,23.319,26.886,57.694,7.952,76.627
					C275.551,386.761,241.175,383.194,217.858,359.876z"/>
			</g>
		</g>
		<circle style="fill:#754C24;" cx="198.001" cy="279.844" r="8.618"/>
		<ellipse style="fill:#FFE266;" cx="418.773" cy="353.213" rx="26.227" ry="26.212"/>
		<path style="fill:#DAF7E9;" d="M46.79,378.161c9.144,26.32,34.14,45.222,63.573,45.222h269.272
			c29.435,0,54.43-18.902,63.574-45.222H46.79z"/>
		<path style="opacity:0.1;" d="M77.29,378.161h-30.5c9.144,26.32,34.14,45.222,63.573,45.222h30.5
			C111.43,423.383,86.434,404.481,77.29,378.161z"/>
		<path style="fill:#F2FFE9;" d="M482.5,375.715c0,8.765-7.105,15.871-15.872,15.871H23.371c-8.766,0-15.871-7.105-15.871-15.871
			l0,0c0-8.766,7.106-15.871,15.871-15.871h443.257C475.395,359.844,482.5,366.949,482.5,375.715L482.5,375.715z"/>
		<path style="opacity:0.1;" d="M38,375.715c0-8.766,7.105-15.871,15.871-15.871h-30.5c-8.766,0-15.871,7.105-15.871,15.871
			c0,8.765,7.106,15.871,15.871,15.871h30.5C45.105,391.585,38,384.48,38,375.715z"/>
	</g>
	<g>
		<circle cx="198" cy="279.843" r="8.618"/>
		<path d="M238.652,166.003c0,4.142,3.357,7.5,7.5,7.5c4.143,0,7.5-3.358,7.5-7.5c0-12.583-3.328-24.955-9.626-35.777
			c-2.083-3.581-6.675-4.794-10.254-2.711c-3.581,2.083-4.794,6.674-2.711,10.254C236.027,146.305,238.652,156.067,238.652,166.003z
			"/>
		<path d="M466.628,352.344h-14.149c-0.162-6.318-2.072-12.207-5.261-17.207c8.25-4.45,13.282-10.906,13.282-18.337
			c0-9.975-9.047-18.206-22.813-22.161c1.56-2.807,2.83-5.625,3.752-8.392c3.242-9.728,2.075-18.038-3.287-23.399
			c-3.319-3.319-7.915-5.074-13.29-5.074c-5.712,0-12.108,1.963-18.507,5.519c-3.957-13.754-12.185-22.793-22.155-22.793
			c-14.081,0-24.7,18.013-24.7,41.899c0,4.727,0.419,9.22,1.196,13.391c-4.104,0.829-8.056,2.302-11.698,4.371
			c-2.671-2.589-5.684-4.772-8.933-6.504c5.429-9.921,6.939-21.739,3.835-32.946c-2.979-10.742-14.007-13.791-23.964-13.791
			c-7.273,0-14.443,1.84-20.796,5.223c-1.592-2.412-3.425-4.687-5.51-6.773c-11.087-11.087-27.82-15.452-42.919-11.27
			c-5.889,1.633-10.56,6.305-12.19,12.192c-2.178,7.859-2.075,16.017,0.045,23.613c-1.265,1.446-2.23,3.077-2.884,4.813
			c-3.893-3.584-7.992-6.865-12.27-9.832c-5.138-8.695-14.602-14.543-25.412-14.543c-1.146,0-2.275,0.073-3.388,0.2
			c-18.333-6.005-38.202-7.145-57.107-3.318c-16.806-16.689-27.233-39.792-27.233-65.292c0.001-31.448,20.23-58.245,48.355-68.103
			c7.753,9.638,12.407,21.869,12.407,35.172c0,4.143,3.358,7.5,7.5,7.5c4.143,0,7.5-3.358,7.5-7.5c0-14.296-4.25-27.612-11.53-38.78
			c2.604-0.286,5.245-0.444,7.924-0.444c11.63,0,22.788,3.518,32.267,10.173c3.391,2.381,8.069,1.561,10.447-1.829
			c2.381-3.39,1.562-8.067-1.828-10.448c-12.017-8.437-26.154-12.896-40.886-12.896c-6.57,0-12.972,0.735-19.13,2.12
			c-12.726-11.851-29.771-19.12-48.489-19.12c-48.057,0-87.154,39.097-87.155,87.155c0.001,48.421,32.322,89.412,76.514,102.598
			c-1.049,2.706-1.984,5.434-2.814,8.179c-7.061-4.509-14.774-7.699-22.611-9.27c-10.614-2.124-20.067,7.956-17.263,18.407
			l7.654,28.568l-28.57-7.656c-10.47-2.804-20.527,6.663-18.404,17.266c2.084,10.403,7.019,20.591,14.11,29.318H23.371
			C10.484,352.344,0,362.828,0,375.715c0,12.887,10.484,23.371,23.371,23.371h25.811c13.771,19.572,36.435,31.797,61.181,31.797H301
			c4.143,0,7.5-3.358,7.5-7.5c0-4.142-3.357-7.5-7.5-7.5H110.363c-15.838,0-30.603-6.272-41.514-16.797H421.15
			c-10.912,10.526-25.678,16.797-41.515,16.797h-42.637c-4.143,0-7.5,3.358-7.5,7.5c0,4.142,3.357,7.5,7.5,7.5h42.637
			c24.745,0,47.41-12.225,61.182-31.797h25.81c12.888,0,23.372-10.484,23.372-23.371C490,362.828,479.516,352.344,466.628,352.344z
			 M445.5,316.799c0,1.701-3.463,4.88-10.04,7.136c-4.923-2.816-10.617-4.435-16.687-4.435c-1.753,0-3.471,0.149-5.151,0.409
			c4.234-2.676,8.423-6.025,12.366-9.968c0.692-0.692,1.363-1.398,2.021-2.109C439.424,309.675,445.5,314.542,445.5,316.799z
			 M437.456,352.344h-37.365c0.459-9.913,8.649-17.844,18.683-17.844S436.997,342.43,437.456,352.344z M401.664,285.616
			c8.872-8.872,18.044-12.843,23.198-12.843c1.272,0,2.251,0.248,2.684,0.681c0.707,0.708,1.201,3.435-0.337,8.049
			c-1.908,5.724-6.219,12.223-11.827,17.831c-5.446,5.446-11.001,9.038-15.674,11.006c-2.591-3.34-5.699-6.259-9.212-8.625
			c0.381-0.946,0.818-1.932,1.357-2.978C394.158,294.268,397.551,289.73,401.664,285.616z M384.2,255.5
			c2.257,0,7.122,6.073,8.966,17.48c-6.889,6.4-12.916,14.132-16.492,22.885c-0.218-0.046-0.434-0.096-0.651-0.139
			c-0.919-3.716-1.522-8.166-1.522-13.328C374.5,264.926,381.385,255.5,384.2,255.5z M299.395,270.396
			c5.388-5.387,12.874-8.476,20.541-8.476c2.624,0,5.237,0.355,7.767,1.056c0.841,0.233,1.509,0.901,1.742,1.741
			c2.342,8.456,0.709,17.437-4.219,24.466c-1.232-0.117-2.476-0.18-3.726-0.18c-2.846,0-5.654,0.318-8.391,0.912l2.55-2.55
			c2.929-2.929,2.929-7.678,0-10.606c-2.93-2.929-7.678-2.929-10.607,0l-11.218,11.218c-0.78-0.84-1.579-1.659-2.396-2.464
			C292.499,279.872,295.215,274.575,299.395,270.396C304.782,265.009,295.215,274.575,299.395,270.396z M252.976,250.297
			c0.233-0.841,0.901-1.509,1.741-1.742c2.528-0.701,5.141-1.056,7.765-1.056c7.667,0,15.154,3.089,20.541,8.477
			c1.649,1.649,3.057,3.479,4.239,5.429c-1.744,1.933-3.303,3.998-4.657,6.174l-5.238-5.238c-2.93-2.929-7.678-2.929-10.607,0
			c-1.579,1.579-2.298,3.686-2.175,5.752c-3.655-1.399-7.381-2.499-11.133-3.251c-0.249-0.05-0.499-0.088-0.748-0.125
			C251.604,260.041,251.648,255.086,252.976,250.297z M267.9,330.636l-6.596-6.596c-0.054-0.447-0.134-0.893-0.253-1.334
			l-11.338-42.32c-0.05-0.571,0.213-0.85,0.789-0.837c11.105,2.225,22.018,8.246,30.726,16.954
			c8.387,8.387,14.133,18.482,16.615,29.19c0.935,4.035,4.96,6.55,9.001,5.612c4.035-0.936,6.548-4.965,5.612-9
			c-1.109-4.785-2.736-9.459-4.828-13.966c4.064-2.8,8.879-4.336,13.871-4.336c7.242,0,14.086,3.232,18.725,8.729v15.771
			c0,4.142,3.357,7.5,7.5,7.5c4.143,0,7.5-3.358,7.5-7.5v-14.556c3.94-2.547,8.544-3.944,13.275-3.944
			c12.569,0,22.953,9.516,24.338,21.721c-4.677,5.63-7.569,12.792-7.77,20.619h-73.109c0.364-1.245,0.701-2.502,0.974-3.786
			c0.859-4.052-1.727-8.034-5.779-8.894c-4.049-0.86-8.034,1.727-8.895,5.779c-0.518,2.438-1.263,4.734-2.204,6.901h-75.008
			c-7.564-8.306-12.801-18.317-14.841-28.494c-0.014-0.578,0.267-0.842,0.841-0.792l42.311,11.337
			c0.443,0.119,0.891,0.199,1.34,0.253l6.596,6.595c3.114,3.113,8.396,2.821,11.154-0.609
			C270.814,337.69,270.569,333.305,267.9,330.636z M226.66,286.815c0.631,0.599,1.257,1.203,1.874,1.82
			c4.824,4.824,8.751,9.712,11.818,14.771l3.766,14.055l-33.187-8.893c-1.403-0.376-2.823-0.548-4.227-0.537
			C216.553,304.985,224.205,296.906,226.66,286.815z M198,265.344c7.995,0,14.5,6.505,14.5,14.5c0,7.995-6.505,14.5-14.5,14.5
			s-14.5-6.505-14.5-14.5C183.5,271.849,190.005,265.344,198,265.344z M159.742,260.004c5.204,0,10.348,0.415,15.395,1.222
			c-4.145,5.082-6.638,11.564-6.638,18.618c0,16.266,13.233,29.5,29.5,29.5c0.988,0,1.964-0.051,2.928-0.146
			c-1.737,0.714-3.36,1.744-4.783,3.08c-3.98,3.734-5.718,9.159-4.646,14.517c1.778,8.872,5.449,17.599,10.646,25.549h-79.985
			c-12.864-25.142-14.334-55.054-2.914-82.129c0.468-1.111,1.376-2.016,2.487-2.483C133.89,262.604,146.678,260.004,159.742,260.004
			z M42.652,164.934c0.001-39.786,32.369-72.155,72.155-72.155c11.726,0,22.622,3.613,31.642,9.778
			c-30.157,13.723-51.177,44.141-51.178,79.377c0,26.676,9.812,51.1,26.009,69.866c-1.802,0.656-3.593,1.358-5.372,2.109
			c-0.557,0.234-1.098,0.497-1.627,0.779C73.323,245.362,42.653,208.675,42.652,164.934z M75.754,330.645l5.757,5.757
			c3.114,3.112,8.396,2.821,11.154-0.609c2.367-2.944,2.122-7.329-0.547-9.998l-5.755-5.755
			c-0.052-0.346-10.335-38.844-10.335-38.844c7.639,1.573,15.164,5.18,21.751,10.346c-3.121,20.71-0.357,41.741,7.831,60.802H57.651
			c-1.997-1.535-3.927-3.204-5.753-5.031c-7.663-7.663-12.979-17.243-14.986-27.002C36.912,320.311,75.404,330.595,75.754,330.645z
			 M466.628,384.085H23.371c-4.616,0-8.371-3.755-8.371-8.371c0-4.616,3.755-8.371,8.371-8.371h443.257
			c4.616,0,8.372,3.755,8.372,8.371C475,380.331,471.244,384.085,466.628,384.085z"/>
	</g>
</g>
<g>
</g>
<g>
</g>
<g>
</g>
<g>
</g>
<g>
</g>
<g>
</g>
<g>
</g>
<g>
</g>
<g>
</g>
<g>
</g>
<g>
</g>
<g>
</g>
<g>
</g>
<g>
</g>
<g>
</g>
</svg>
