<?xml version="1.0" encoding="iso-8859-1"?>
<!-- Generator: Adobe Illustrator 19.0.0, SVG Export Plug-In . SVG Version: 6.00 Build 0)  -->
<svg version="1.1" id="Layer_1" xmlns="http://www.w3.org/2000/svg" xmlns:xlink="http://www.w3.org/1999/xlink" x="0px" y="0px"
	 viewBox="0 0 490 490" style="enable-background:new 0 0 490 490;" xml:space="preserve">
<g>
	<rect x="325.704" y="93" style="fill:#FFEA92;" width="82.919" height="10"/>
	<path style="fill:#FFEA33;" d="M357.441,73.777c-4.225,0-8.214-1.946-10.813-5.276c-2.599-3.33-3.519-7.671-2.493-11.771
		l9.724-38.846c1.528-6.104,7.013-10.385,13.306-10.385c6.293,0,11.78,4.282,13.309,10.385l9.721,38.846
		c1.025,4.099,0.105,8.44-2.494,11.771c-2.599,3.33-6.587,5.276-10.811,5.276H357.441z"/>
	<path style="fill:#FFEA33;" d="M422.171,78.881c0,5.718-4.636,10.354-10.357,10.354h-89.304c-5.718,0-10.355-4.637-10.355-10.354
		V67.234c0-5.721,4.637-10.356,10.355-10.356h89.304c5.721,0,10.357,4.636,10.357,10.356V78.881z"/>
	<g>
		<path style="fill:#FFEA92;" d="M334.328,482.5c-40.082,0-72.83-31.364-74.552-71.4c-0.083-1.904,0.016-3.808,0.298-5.692
			l40.608-272.072c2.183-14.623,14.737-25.443,29.523-25.443h73.916c14.783,0,27.341,10.82,29.521,25.443l40.61,272.072
			c0.279,1.885,0.382,3.789,0.299,5.692c-1.725,40.036-34.473,71.4-74.555,71.4H334.328z"/>
	</g>
	<path style="opacity:0.1;" d="M291.357,411.1c-0.083-1.904,0.016-3.808,0.298-5.692l40.608-272.072
		c2.183-14.623,14.737-25.443,29.523-25.443h-31.58c-14.786,0-27.341,10.82-29.523,25.443l-40.608,272.072
		c-0.282,1.885-0.381,3.789-0.298,5.692c1.722,40.036,34.47,71.4,74.552,71.4h31.58C325.827,482.5,293.078,451.136,291.357,411.1z"
		/>
	<polygon style="fill:#FFEA33;" points="267.368,356.54 466.96,356.54 439.469,172.356 294.86,172.356 	"/>
	<polygon style="opacity:0.1;" points="294.86,172.356 267.368,356.54 298.737,356.54 326.228,172.356 	"/>
	<g>
		<circle style="fill:#FFFFFF;" cx="367.164" cy="266.231" r="57.038"/>
	</g>
	<rect x="81.375" y="93" style="fill:#EF645E;" width="82.919" height="9"/>
	<path style="fill:#E23B3B;" d="M113.112,73.777c-4.225,0-8.214-1.946-10.813-5.276c-2.599-3.33-3.519-7.671-2.493-11.771
		l9.724-38.846c1.528-6.104,7.013-10.385,13.306-10.385c6.293,0,11.78,4.282,13.309,10.385l9.721,38.846
		c1.025,4.099,0.105,8.44-2.494,11.771c-2.599,3.33-6.587,5.276-10.812,5.276H113.112z"/>
	<path style="fill:#E23B3B;" d="M177.842,78.881c0,5.718-4.636,10.354-10.356,10.354H78.182c-5.718,0-10.354-4.637-10.354-10.354
		V67.234c0-5.721,4.637-10.356,10.354-10.356h89.304c5.721,0,10.356,4.636,10.356,10.356V78.881z"/>
	<g>
		<path style="fill:#EF645E;" d="M89.999,482.5c-40.082,0-72.83-31.364-74.552-71.4c-0.083-1.904,0.016-3.808,0.298-5.692
			l40.608-272.072c2.183-14.623,14.737-25.443,29.523-25.443h73.916c14.783,0,27.341,10.82,29.521,25.443l40.61,272.072
			c0.279,1.885,0.382,3.789,0.299,5.692c-1.725,40.036-34.473,71.4-74.555,71.4H89.999z"/>
	</g>
	<path style="opacity:0.1;" d="M46.699,411.1c-0.083-1.904,0.016-3.808,0.298-5.692l40.608-272.072
		c2.183-14.623,14.737-25.443,29.523-25.443H85.877c-14.786,0-27.341,10.82-29.523,25.443L15.745,405.408
		c-0.282,1.885-0.381,3.789-0.298,5.692c1.722,40.036,34.47,71.4,74.552,71.4h31.251C81.168,482.5,48.42,451.136,46.699,411.1z"/>
	<polygon style="fill:#E23B3B;" points="23.039,356.54 222.631,356.54 195.14,172.356 50.531,172.356 	"/>
	<polygon style="opacity:0.1;" points="50.491,172.356 22.999,356.54 54.508,356.54 81.999,172.356 	"/>
	<g>
		<circle style="fill:#FFFFFF;" cx="122.835" cy="266.231" r="57.038"/>
	</g>
	<g>
		<path d="M393.776,397.908h-25.568c-4.142,0-7.5,3.358-7.5,7.5c0,4.142,3.358,7.5,7.5,7.5h25.568c4.142,0,7.5-3.358,7.5-7.5
			C401.276,401.266,397.918,397.908,393.776,397.908z"/>
		<path d="M481.671,404.3l-36.034-241.408c-0.611-4.097-4.423-6.919-8.525-6.311c-4.013,0.599-6.797,4.275-6.335,8.275H303.561
			l4.54-30.414c1.621-10.86,11.124-19.05,22.105-19.05h73.916c10.982,0,20.484,8.189,22.103,19.049
			c0.61,4.098,4.423,6.921,8.524,6.313c4.097-0.61,6.923-4.427,6.312-8.523c-2.091-14.026-12.051-25.379-24.938-29.819v-6.223
			c7.768-1.935,13.548-8.95,13.548-17.307V67.234c0-9.846-8.01-17.856-17.857-17.856h-15.729l-8.337-33.314
			C385.38,6.606,376.916,0,367.164,0c-9.749,0-18.213,6.606-20.581,16.064l-8.339,33.314h-15.733
			c-9.845,0-17.855,8.01-17.855,17.856v11.646c0,8.358,5.78,15.373,13.548,17.308v6.223c-12.885,4.439-22.846,15.793-24.94,29.817
			l-40.608,272.068c-0.016,0.104-0.024,0.21-0.039,0.314c-0.001,0.014-0.004,0.027-0.005,0.041
			c-0.313,2.235-0.427,4.512-0.329,6.771C254.179,455.484,290.217,490,334.328,490h65.669c44.11,0,80.15-34.515,82.047-78.573
			C482.148,409.067,482.022,406.672,481.671,404.3z M400.731,64.378h11.084c1.575,0,2.857,1.281,2.857,2.856v11.646
			c0,1.574-1.281,2.854-2.857,2.854h-11.084V64.378z M385.731,64.378v17.357h-11.966V64.378H385.731z M361.134,19.707
			c0.694-2.772,3.174-4.707,6.03-4.707c2.858,0,5.339,1.935,6.033,4.706l7.425,29.672h-26.915L361.134,19.707z M346.8,64.378h11.965
			v17.357H346.8V64.378z M333.204,96.735h67.919v3.657h-67.919V96.735z M319.657,67.234c0-1.575,1.281-2.856,2.855-2.856h9.289
			v17.357h-9.289c-1.574,0-2.855-1.28-2.855-2.854V67.234z M301.323,179.856h131.68l25.253,169.184H276.071L301.323,179.856z
			 M399.997,475h-65.669c-35.337,0-64.317-27.104-66.915-62.092h72.89c4.142,0,7.5-3.358,7.5-7.5c0-4.142-3.358-7.5-7.5-7.5h-71.526
			l5.055-33.868h186.663l6.339,42.467c0.21,1.421,0.286,2.857,0.225,4.27C465.508,446.79,436.051,475,399.997,475z"/>
		<path d="M367.164,201.694c-35.586,0-64.538,28.952-64.538,64.538c0,35.586,28.952,64.538,64.538,64.538
			c35.586,0,64.537-28.952,64.537-64.538C431.702,230.645,402.75,201.694,367.164,201.694z M367.164,315.77
			c-27.315,0-49.538-22.223-49.538-49.538c0-27.315,22.223-49.538,49.538-49.538c27.315,0,49.537,22.223,49.537,49.538
			C416.702,293.547,394.479,315.77,367.164,315.77z"/>
		<path d="M384.989,246.253h-35.649c-4.142,0-7.5,3.358-7.5,7.5s3.358,7.5,7.5,7.5h35.649c4.142,0,7.5-3.358,7.5-7.5
			S389.131,246.253,384.989,246.253z"/>
		<path d="M368.354,271.21h-19.015c-4.142,0-7.5,3.358-7.5,7.5c0,4.142,3.358,7.5,7.5,7.5h19.015c4.142,0,7.5-3.358,7.5-7.5
			C375.854,274.568,372.496,271.21,368.354,271.21z"/>
		<path d="M149.447,397.908h-25.568c-4.142,0-7.5,3.358-7.5,7.5c0,4.142,3.358,7.5,7.5,7.5h25.568c4.142,0,7.5-3.358,7.5-7.5
			C156.947,401.266,153.589,397.908,149.447,397.908z"/>
		<path d="M122.835,201.694c-35.586,0-64.538,28.952-64.538,64.538c0,35.586,28.952,64.538,64.538,64.538
			c35.586,0,64.537-28.952,64.537-64.538C187.372,230.645,158.421,201.694,122.835,201.694z M122.835,315.77
			c-27.315,0-49.538-22.223-49.538-49.538c0-27.315,22.223-49.538,49.538-49.538c27.315,0,49.537,22.223,49.537,49.538
			C172.372,293.547,150.15,315.77,122.835,315.77z"/>
		<path d="M140.66,246.253H105.01c-4.142,0-7.5,3.358-7.5,7.5s3.358,7.5,7.5,7.5h35.649c4.142,0,7.5-3.358,7.5-7.5
			S144.802,246.253,140.66,246.253z"/>
		<path d="M124.025,271.21H105.01c-4.142,0-7.5,3.358-7.5,7.5c0,4.142,3.358,7.5,7.5,7.5h19.015c4.142,0,7.5-3.358,7.5-7.5
			C131.525,274.568,128.167,271.21,124.025,271.21z"/>
		<path d="M201.458,163.893c-0.612-4.097-4.426-6.917-8.525-6.311c-3.675,0.549-6.318,3.679-6.384,7.274H59.232l4.54-30.414
			c1.621-10.86,11.124-19.05,22.105-19.05h73.916c10.982,0,20.484,8.189,22.103,19.049c0.611,4.098,4.427,6.921,8.524,6.313
			c4.097-0.61,6.923-4.427,6.312-8.523c-2.091-14.026-12.051-25.379-24.938-29.819v-6.223c7.768-1.935,13.548-8.95,13.548-17.307
			V67.234c0-9.846-8.01-17.856-17.856-17.856h-15.73l-8.337-33.314C141.051,6.606,132.587,0,122.835,0
			c-9.75,0-18.213,6.606-20.581,16.064l-8.339,33.314H78.182c-9.845,0-17.855,8.01-17.855,17.856v11.646
			c0,8.358,5.78,15.373,13.548,17.308v6.223c-12.885,4.439-22.846,15.793-24.939,29.817L8.328,404.297
			c-0.016,0.104-0.024,0.21-0.04,0.314c-0.001,0.014-0.003,0.027-0.005,0.041c-0.313,2.235-0.427,4.512-0.329,6.771
			C9.849,455.484,45.888,490,89.999,490h65.669c44.11,0,80.15-34.515,82.047-78.573c0.103-2.36-0.023-4.755-0.374-7.126
			L201.458,163.893z M156.402,64.378h11.084c1.575,0,2.856,1.281,2.856,2.856v11.646c0,1.574-1.281,2.854-2.856,2.854h-11.084
			V64.378z M141.402,64.378v17.357h-11.966V64.378H141.402z M116.805,19.707c0.694-2.772,3.174-4.707,6.03-4.707
			c2.858,0,5.339,1.935,6.033,4.706l7.425,29.672h-26.915L116.805,19.707z M102.471,64.378h11.965v17.357h-11.965V64.378z
			 M88.875,96.735h67.919v3.657H88.875V96.735z M75.327,67.234c0-1.575,1.281-2.856,2.854-2.856h9.289v17.357h-9.289
			c-1.574,0-2.854-1.28-2.854-2.854V67.234z M56.993,179.856h131.681l25.253,169.184H31.742L56.993,179.856z M155.668,475H89.999
			c-35.337,0-64.317-27.104-66.915-62.092h72.89c4.142,0,7.5-3.358,7.5-7.5c0-4.142-3.358-7.5-7.5-7.5H24.448l5.055-33.868h186.663
			l6.339,42.467c0.21,1.421,0.286,2.857,0.225,4.27C221.179,446.79,191.722,475,155.668,475z"/>
	</g>
</g>
<g>
</g>
<g>
</g>
<g>
</g>
<g>
</g>
<g>
</g>
<g>
</g>
<g>
</g>
<g>
</g>
<g>
</g>
<g>
</g>
<g>
</g>
<g>
</g>
<g>
</g>
<g>
</g>
<g>
</g>
</svg>
