<?xml version="1.0" encoding="iso-8859-1"?>
<!-- Generator: Adobe Illustrator 19.0.0, SVG Export Plug-In . SVG Version: 6.00 Build 0)  -->
<svg version="1.1" id="Layer_1" xmlns="http://www.w3.org/2000/svg" xmlns:xlink="http://www.w3.org/1999/xlink" x="0px" y="0px"
	 viewBox="0 0 489.999 489.999" style="enable-background:new 0 0 489.999 489.999;" xml:space="preserve">
<g>
	<g>
		<path style="fill:#5B4841;" d="M482.31,426.277c-7.189-59.124-19.605-114.602-35.905-160.434
			c-16.381-46.066-33.485-73.725-45.616-89.334v-36.566c0-4.995-4.046-9.045-9.038-9.045h-42.477c-4.992,0-9.038,4.05-9.038,9.045
			v36.566c-12.13,15.609-29.234,43.268-45.615,89.334c-16.3,45.833-28.716,101.31-35.904,160.434
			c-0.898,7.376,1.408,14.784,6.33,20.347c4.923,5.563,11.991,8.748,19.417,8.748h172.098c7.425,0,14.494-3.186,19.417-8.748
			C480.902,441.061,483.207,433.653,482.31,426.277z"/>
		<path style="opacity:0.1;" d="M296.52,446.624c-4.922-5.563-7.228-12.971-6.33-20.347c7.188-59.124,19.605-114.602,35.904-160.434
			c16.381-46.066,33.485-73.725,45.615-89.334v-36.566c0-4.995,4.046-9.045,9.038-9.045h-31.473c-4.992,0-9.038,4.05-9.038,9.045
			v36.566c-12.13,15.609-29.234,43.268-45.615,89.334c-16.3,45.833-28.716,101.31-35.904,160.434
			c-0.898,7.376,1.408,14.784,6.33,20.347c4.923,5.563,11.991,8.748,19.417,8.748h31.473
			C308.511,455.372,301.443,452.186,296.52,446.624z"/>
	</g>
	<path style="fill:#FFEA33;" d="M314.378,288.862c-13.288,41.096-23.517,89.257-29.744,140.399h171.757
		c-6.227-51.142-16.457-99.303-29.746-140.399H314.378z"/>
	<path style="opacity:0.1;" d="M314.378,288.862c-13.288,41.096-23.517,89.257-29.744,140.399H316
		c6.227-51.143,16.456-99.304,29.744-140.399H314.378z"/>
	<path style="fill:#FFEA33;" d="M416.168,143.301c0,6.85-5.548,12.401-12.392,12.401H337.25c-6.844,0-12.392-5.552-12.392-12.401
		l0,0c0-6.85,5.548-12.402,12.392-12.402h66.526C410.62,130.898,416.168,136.451,416.168,143.301L416.168,143.301z"/>
	<path style="fill:#8C572C;" d="M231.283,426.277c-7.189-59.124-19.605-114.602-35.904-160.434
		c-16.381-46.066-33.485-73.725-45.615-89.334v-36.566c0-4.995-4.047-9.045-9.039-9.045H98.248c-4.992,0-9.038,4.05-9.038,9.045
		v36.566c-12.13,15.609-29.234,43.268-45.616,89.334c-16.3,45.833-28.716,101.31-35.904,160.434
		c-0.897,7.376,1.408,14.784,6.331,20.347c4.923,5.563,11.99,8.748,19.416,8.748h172.098c7.426,0,14.494-3.186,19.418-8.748
		C229.875,441.061,232.179,433.653,231.283,426.277z"/>
	<path style="opacity:0.1;" d="M45.521,446.624c-4.922-5.563-7.228-12.971-6.331-20.347c7.188-59.124,19.604-114.602,35.904-160.434
		c16.381-46.066,33.485-73.725,45.616-89.334v-36.566c0-4.995,4.046-9.045,9.038-9.045h-31.5c-4.992,0-9.038,4.05-9.038,9.045
		v36.566c-12.13,15.609-29.234,43.268-45.616,89.334c-16.3,45.833-28.716,101.31-35.904,160.434
		c-0.897,7.376,1.408,14.784,6.331,20.347c4.923,5.563,11.99,8.748,19.416,8.748h31.5C57.511,455.372,50.444,452.186,45.521,446.624
		z"/>
	<path style="fill:#E23B3B;" d="M63.353,288.862c-13.289,41.096-23.517,89.257-29.745,140.399h171.757
		c-6.228-51.142-16.456-99.303-29.746-140.399H63.353z"/>
	<path style="opacity:0.1;" d="M63.353,288.862c-13.289,41.096-23.517,89.257-29.745,140.399H65
		c6.228-51.143,16.456-99.304,29.745-140.399H63.353z"/>
	<path style="fill:#E23B3B;" d="M93.154,138.731c-7.243,0-13.935-3.866-17.554-10.143L54.166,91.435
		c-3.622-6.277-3.622-14.011,0-20.287c3.621-6.277,10.313-10.144,17.554-10.144h95.533c7.241,0,13.933,3.866,17.555,10.144
		c3.621,6.276,3.621,14.01,0,20.287l-21.435,37.152c-3.619,6.277-10.311,10.143-17.554,10.143H93.154z"/>
	<path style="opacity:0.1;" d="M107.076,128.588L85.642,91.435c-3.622-6.277-3.622-14.011,0-20.287
		c3.621-6.277,10.313-10.144,17.554-10.144H71.72c-7.241,0-13.934,3.866-17.554,10.144c-3.622,6.276-3.622,14.01,0,20.287
		L75.6,128.588c3.62,6.277,10.312,10.143,17.554,10.143h31.476C117.387,138.731,110.695,134.865,107.076,128.588z"/>
	<path style="fill:#EF645E;" d="M96.989,61.005v9.29c0,11.305,9.157,20.469,20.452,20.469h4.091
		c11.296,0,20.452-9.164,20.452-20.469v-9.29H96.989z"/>
	<path style="fill:#EF645E;" d="M165.142,143.301c0,6.85-5.548,12.401-12.392,12.401H86.223c-6.844,0-12.392-5.552-12.392-12.401
		l0,0c0-6.85,5.548-12.402,12.392-12.402h66.526C159.593,130.898,165.142,136.451,165.142,143.301L165.142,143.301z"/>
	<polygon style="fill:#FFEA33;" points="156.266,305.468 119.486,326.72 82.707,305.468 82.707,262.966 119.486,241.714 
		156.266,262.966 	"/>
	<polygon style="fill:#319E38;" points="407.292,305.468 370.512,326.72 333.732,305.468 333.732,262.966 370.512,241.714 
		407.292,262.966 	"/>
	<path style="fill:#FFEA92;" d="M426.604,118.178c0,7.21-5.84,13.055-13.045,13.055h-86.092c-7.204,0-13.044-5.845-13.044-13.055
		V47.682c0-7.21,5.84-13.055,13.044-13.055h86.092c7.205,0,13.045,5.845,13.045,13.055V118.178z"/>
	<path style="opacity:0.1;" d="M345.818,118.178V47.682c0-7.21,5.84-13.055,13.044-13.055h-31.396
		c-7.204,0-13.044,5.845-13.044,13.055v70.496c0,7.21,5.84,13.055,13.044,13.055h31.396
		C351.658,131.233,345.818,125.388,345.818,118.178z"/>
	<path style="fill:#FFEA33;" d="M348.015,68.235v9.29c0,11.305,9.157,20.469,20.453,20.469h4.091
		c11.295,0,20.452-9.164,20.452-20.469v-9.29H348.015z"/>
	<line style="fill:#998675;" x1="314.422" y1="68.235" x2="426.604" y2="68.235"/>
	<g>
		<path style="fill:#FFFFFF;" d="M369.588,204.344c9.911,4.104,13.239,7.433,17.344,17.344c4.105-9.911,7.433-13.24,17.344-17.344
			c-9.911-4.106-13.239-7.434-17.344-17.345C382.827,196.91,379.499,200.238,369.588,204.344z"/>
		<circle style="fill:#FFFFFF;" cx="408" cy="230.348" r="7.652"/>
	</g>
	<g>
		<path style="fill:#FFFFFF;" d="M116.952,205.704c9.911,4.104,13.239,7.433,17.344,17.344c4.105-9.911,7.433-13.24,17.344-17.344
			c-9.911-4.107-13.239-7.434-17.344-17.345C130.19,198.27,126.863,201.598,116.952,205.704z"/>
		<circle style="fill:#FFFFFF;" cx="154.004" cy="230.348" r="7.652"/>
	</g>
	<g>
		<path d="M391.277,351.857h-41.526c-4.142,0-7.5,3.358-7.5,7.5s3.358,7.5,7.5,7.5h41.526c4.142,0,7.5-3.358,7.5-7.5
			S395.419,351.857,391.277,351.857z"/>
		<path d="M391.277,385.82h-41.526c-4.142,0-7.5,3.358-7.5,7.5c0,4.142,3.358,7.5,7.5,7.5h41.526c4.142,0,7.5-3.358,7.5-7.5
			C398.777,389.178,395.419,385.82,391.277,385.82z"/>
		<path d="M140.25,351.857H98.723c-4.142,0-7.5,3.358-7.5,7.5s3.358,7.5,7.5,7.5h41.527c4.142,0,7.5-3.358,7.5-7.5
			S144.392,351.857,140.25,351.857z"/>
		<path d="M140.25,385.82H98.723c-4.142,0-7.5,3.358-7.5,7.5c0,4.142,3.358,7.5,7.5,7.5h41.527c4.142,0,7.5-3.358,7.5-7.5
			C147.75,389.178,144.392,385.82,140.25,385.82z"/>
		<path d="M160.019,256.472l-36.78-21.252c-2.322-1.342-5.183-1.342-7.505,0l-36.779,21.252c-2.319,1.34-3.748,3.815-3.748,6.494
			v18.396H63.353c-3.253,0-6.135,2.097-7.136,5.192c-13.417,41.494-23.81,90.527-30.053,141.8c-0.26,2.131,0.407,4.272,1.83,5.879
			c1.423,1.607,3.468,2.527,5.615,2.527h171.757c2.147,0,4.191-0.92,5.615-2.527c1.423-1.607,2.09-3.748,1.83-5.879
			c-6.244-51.272-16.637-100.306-30.055-141.8c-1.001-3.095-3.883-5.192-7.136-5.192h-11.853v-18.396
			C163.766,260.287,162.337,257.812,160.019,256.472z M90.207,267.294l29.279-16.918l29.28,16.918v33.846l-29.28,16.919
			L90.207,301.14V267.294z M170.133,296.362c11.614,37.177,20.789,80.243,26.723,125.399H42.117
			c5.933-45.157,15.108-88.223,26.721-125.399h6.369v9.106c0,2.679,1.429,5.154,3.748,6.494l36.779,21.252
			c1.161,0.671,2.457,1.006,3.752,1.006c1.295,0,2.592-0.335,3.753-1.006l36.78-21.252c2.319-1.34,3.748-3.815,3.748-6.494v-9.106
			H170.133z"/>
		<path d="M433.782,286.554c-1.001-3.095-3.883-5.192-7.136-5.192h-11.854v-18.396c0-2.679-1.429-5.154-3.748-6.494l-36.779-21.252
			c-2.321-1.341-5.183-1.342-7.505,0l-36.78,21.252c-2.319,1.34-3.748,3.815-3.748,6.494v18.396h-11.854
			c-3.253,0-6.135,2.097-7.136,5.192c-13.418,41.497-23.81,90.531-30.053,141.8c-0.26,2.131,0.407,4.272,1.83,5.879
			c1.423,1.607,3.468,2.527,5.615,2.527h171.757c2.147,0,4.191-0.92,5.615-2.527c1.423-1.607,2.09-3.748,1.83-5.879
			C457.593,377.089,447.201,328.054,433.782,286.554z M341.232,267.294l29.28-16.918l29.279,16.918v33.847l-29.279,16.918
			l-29.28-16.919V267.294z M293.143,421.761c5.933-45.151,15.109-88.223,26.721-125.399h6.368v9.106
			c0,2.679,1.429,5.154,3.748,6.494l36.78,21.252c1.161,0.671,2.456,1.006,3.752,1.006c1.296,0,2.591-0.335,3.752-1.006
			l36.779-21.252c2.319-1.34,3.748-3.815,3.748-6.494v-9.106h6.368c11.613,37.179,20.79,80.252,26.722,125.399H293.143z"/>
		<path d="M220.247,323.203c-0.993-4.021-5.059-6.473-9.079-5.483c-4.021,0.993-6.477,5.058-5.483,9.079
			c7.775,31.488,13.883,65.262,18.153,100.383c0.637,5.244-1.003,10.519-4.501,14.471c-3.499,3.953-8.529,6.219-13.802,6.219H33.437
			c-5.272,0-10.302-2.267-13.799-6.218c-3.499-3.954-5.14-9.228-4.502-14.471c7.122-58.581,19.406-113.502,35.525-158.827
			c16.267-45.743,33.162-72.692,44.471-87.245c1.023-1.316,1.578-2.936,1.578-4.602v-13.307h45.553v13.307
			c0,1.667,0.555,3.286,1.578,4.602c11.31,14.554,28.205,41.504,44.471,87.245c3.253,9.147,6.396,18.828,9.341,28.774
			c1.176,3.971,5.348,6.24,9.321,5.062c3.972-1.176,6.238-5.349,5.062-9.321c-3.021-10.203-6.248-20.142-9.591-29.541
			c-16.206-45.574-33.242-73.524-45.182-89.361v-11.303c8.798-2.054,15.378-9.947,15.378-19.365c0-3.87-1.128-7.474-3.045-10.534
			c0.088-0.146,0.187-0.283,0.272-0.431l4.955-8.588c2.07-3.587,0.84-8.174-2.748-10.244c-3.588-2.071-8.174-0.84-10.244,2.748
			l-4.451,7.713c-1.489-0.357-3.035-0.567-4.631-0.567H86.223c-1.597,0-3.143,0.21-4.631,0.567l-20.93-36.278
			c-2.276-3.945-2.276-8.846,0-12.791c2.274-3.942,6.511-6.391,11.058-6.391h17.769v1.79c0,15.422,12.539,27.969,27.952,27.969
			h4.091c15.413,0,27.952-12.547,27.952-27.969v-1.79h17.769c4.546,0,8.784,2.449,11.058,6.392c2.276,3.944,2.276,8.846,0,12.791
			c-2.07,3.588-0.839,8.174,2.749,10.244c3.588,2.069,8.174,0.838,10.244-2.749c4.943-8.569,4.943-19.215,0-27.783
			c-4.945-8.571-14.161-13.896-24.051-13.896H71.72c-9.891,0-19.107,5.325-24.05,13.895c-4.945,8.568-4.945,19.214,0,27.784
			l21.434,37.151c0.086,0.149,0.186,0.287,0.274,0.434c-1.918,3.059-3.045,6.663-3.045,10.533c0,9.418,6.581,17.311,15.378,19.365
			v11.302c-11.939,15.836-28.976,43.788-45.182,89.361c-16.483,46.35-29.03,102.383-36.283,162.042
			c-1.156,9.499,1.818,19.057,8.16,26.223c6.343,7.167,15.467,11.277,25.032,11.277h172.098c9.565,0,18.69-4.11,25.035-11.278
			c6.339-7.164,9.313-16.722,8.159-26.222C234.385,389.652,228.167,355.277,220.247,323.203z M104.489,68.505h29.995v1.79
			c0,7.151-5.811,12.969-12.952,12.969h-4.091c-7.142,0-12.952-5.818-12.952-12.969V68.505z M81.332,143.301
			c0-2.703,2.194-4.902,4.892-4.902h66.526c2.698,0,4.892,2.199,4.892,4.902c0,2.703-2.194,4.901-4.892,4.901H86.223
			C83.526,148.202,81.332,146.003,81.332,143.301z"/>
		<path d="M489.755,425.372c-7.253-59.659-19.8-115.692-36.284-162.043c-16.206-45.572-33.243-73.525-45.182-89.361v-11.302
			c8.798-2.054,15.378-9.947,15.378-19.365c0-2.928-0.641-4.949-1.78-6.349c7.187-3.204,12.216-10.407,12.216-18.773V109
			c0-4.142-3.358-7.5-7.5-7.5c-4.142,0-7.5,3.358-7.5,7.5v9.179c0,3.063-2.487,5.555-5.545,5.555h-86.092
			c-3.057,0-5.544-2.492-5.544-5.555V75.735h18.593v1.79c0,15.422,12.54,27.969,27.953,27.969h4.091
			c15.413,0,27.952-12.547,27.952-27.969v-1.79h18.593V81c0,4.142,3.358,7.5,7.5,7.5c4.142,0,7.5-3.358,7.5-7.5V47.682
			c0-11.334-9.216-20.555-20.545-20.555h-86.092c-11.328,0-20.544,9.221-20.544,20.555v70.496c0,8.367,5.03,15.568,12.216,18.773
			c-1.14,1.399-1.781,3.421-1.781,6.349c0,9.419,6.581,17.313,15.379,19.365v11.303c-11.939,15.837-28.976,43.788-45.182,89.361
			c-16.483,46.35-29.03,102.383-36.283,162.042c-1.157,9.499,1.817,19.057,8.159,26.224c6.343,7.167,15.467,11.277,25.033,11.277
			h172.098c9.566,0,18.69-4.11,25.033-11.277C487.936,444.43,490.91,434.872,489.755,425.372z M385.51,77.525
			c0,7.151-5.811,12.969-12.952,12.969h-4.091c-7.142,0-12.953-5.818-12.953-12.969v-1.79h29.996V77.525z M321.922,47.682
			c0-3.063,2.487-5.555,5.544-5.555h86.092c3.058,0,5.545,2.492,5.545,5.555v13.053h-97.182V47.682z M332.357,143.301
			c0-2.087,1.315-3.861,3.153-4.567h70.004c1.838,0.706,3.153,2.48,3.153,4.567c0,2.703-2.194,4.901-4.892,4.901H337.25
			C334.552,148.202,332.357,146.003,332.357,143.301z M470.363,441.653c-3.498,3.952-8.528,6.219-13.801,6.219H284.464
			c-5.272,0-10.302-2.267-13.8-6.218c-3.499-3.954-5.14-9.228-4.501-14.471c7.122-58.581,19.406-113.502,35.525-158.827
			c16.266-45.741,33.161-72.691,44.471-87.245c1.022-1.316,1.578-2.936,1.578-4.602v-13.307h45.552v13.307
			c0,1.667,0.555,3.286,1.578,4.602c11.309,14.553,28.205,41.502,44.471,87.245c16.119,45.326,28.404,100.247,35.526,158.827
			C475.502,432.426,473.861,437.7,470.363,441.653z"/>
	</g>
</g>
<g>
</g>
<g>
</g>
<g>
</g>
<g>
</g>
<g>
</g>
<g>
</g>
<g>
</g>
<g>
</g>
<g>
</g>
<g>
</g>
<g>
</g>
<g>
</g>
<g>
</g>
<g>
</g>
<g>
</g>
</svg>
