<?xml version="1.0" encoding="iso-8859-1"?>
<!-- Generator: Adobe Illustrator 19.0.0, SVG Export Plug-In . SVG Version: 6.00 Build 0)  -->
<svg version="1.1" id="Layer_1" xmlns="http://www.w3.org/2000/svg" xmlns:xlink="http://www.w3.org/1999/xlink" x="0px" y="0px"
	 viewBox="0 0 490 490" style="enable-background:new 0 0 490 490;" xml:space="preserve">
<g>
	<path style="fill:#E6E6E6;" d="M205.736,128.526c0,11.509-9.232,20.841-20.621,20.841H55.891c-11.388,0-20.62-9.332-20.62-20.841
		v-5.56c0-11.509,9.232-20.843,20.62-20.843h129.225c11.389,0,20.621,9.334,20.621,20.843V128.526z"/>
	<path style="fill:#E6E6E6;" d="M454.73,128.526c0,11.509-9.233,20.841-20.621,20.841H304.885c-11.389,0-20.62-9.332-20.62-20.841
		v-5.56c0-11.509,9.232-20.843,20.62-20.843h129.225c11.388,0,20.621,9.334,20.621,20.843V128.526z"/>
	<path style="fill:#78B591;" d="M29.93,112.647c-7.095,0-12.847-5.807-12.847-12.967V64.672c0-17.871,14.407-32.412,32.118-32.412
		h142.604c17.711,0,32.118,14.541,32.118,32.412V99.68c0,7.16-5.751,12.967-12.846,12.967H29.93z"/>
	<path style="opacity:0.1;" d="M59,99.68V64.672C59,46.801,73.407,32.26,91.118,32.26H49.201c-17.711,0-32.118,14.541-32.118,32.412
		V99.68c0,7.16,5.752,12.967,12.847,12.967h41.917C64.752,112.647,59,106.84,59,99.68z"/>
	<g>
		<path style="fill:#D4EBE9;" d="M233.506,436.325c0,11.826-9.485,21.415-21.188,21.415H28.688
			c-11.702,0-21.188-9.589-21.188-21.415V165.059c0-11.828,9.486-21.416,21.188-21.416h183.63c11.702,0,21.188,9.588,21.188,21.416
			V436.325z"/>
		<path style="opacity:0.1;" d="M49,436.325V165.059c0-11.828,9.486-21.416,21.188-21.416h-41.5
			c-11.702,0-21.188,9.588-21.188,21.416v271.266c0,11.826,9.486,21.415,21.188,21.415h41.5C58.486,457.74,49,448.151,49,436.325z"
			/>
	</g>
	<g>
		<rect x="35.75" y="276.419" style="fill:#666666;" width="169.506" height="152.766"/>
	</g>
	<path style="fill:#FFEA92;" d="M278.925,112.647c-7.097,0-12.849-5.807-12.849-12.967V64.672c0-17.871,14.408-32.412,32.119-32.412
		h142.603c17.711,0,32.117,14.541,32.117,32.412V99.68c0,7.16-5.75,12.967-12.846,12.967H278.925z"/>
	<path style="opacity:0.1;" d="M308,99.68V64.672c0-17.871,14.408-32.412,32.119-32.412h-41.924
		c-17.711,0-32.119,14.541-32.119,32.412V99.68c0,7.16,5.752,12.967,12.849,12.967h41.924C313.752,112.647,308,106.84,308,99.68z"/>
	<g>
		<path style="fill:#D4EBE9;" d="M482.5,436.325c0,11.826-9.485,21.415-21.188,21.415H277.682c-11.702,0-21.188-9.589-21.188-21.415
			V165.059c0-11.828,9.485-21.416,21.188-21.416h183.631c11.702,0,21.188,9.588,21.188,21.416V436.325z"/>
		<path style="opacity:0.1;" d="M298,436.325V165.059c0-11.828,9.485-21.416,21.188-21.416h-41.506
			c-11.702,0-21.188,9.588-21.188,21.416v271.266c0,11.826,9.485,21.415,21.188,21.415h41.506
			C307.485,457.74,298,448.151,298,436.325z"/>
	</g>
	<path style="fill:#FFFFFF;" d="M454.25,288.547c0-15.152-12.154-27.438-27.146-27.438c-12.957,0-23.775,9.183-26.478,21.455
		c-2.433-12.347-13.208-21.655-26.139-21.655c-11.173,0-20.728,6.956-24.691,16.813c-0.349-17.855-14.769-32.226-32.518-32.226
		c-17.318,0-31.471,13.679-32.472,30.929l-0.063-0.006v152.766H454.25C454.25,429.185,454.25,289.108,454.25,288.547z"/>
	<g>
		<ellipse style="fill:#CCCCCC;" cx="323.537" cy="305.345" rx="13.664" ry="13.811"/>
		<ellipse style="fill:#CCCCCC;" cx="356.071" cy="352.697" rx="13.664" ry="13.811"/>
		<ellipse style="fill:#CCCCCC;" cx="315.728" cy="396.104" rx="13.664" ry="13.811"/>
		<ellipse style="fill:#CCCCCC;" cx="417.887" cy="396.104" rx="13.664" ry="13.811"/>
		<ellipse style="fill:#CCCCCC;" cx="401.62" cy="319.813" rx="13.665" ry="13.811"/>
	</g>
	<g>
		<path style="fill:#4D4D4D;" d="M89.653,312.187h11.09c4.142,0,7.5-3.358,7.5-7.5c0-4.142-3.358-7.5-7.5-7.5h-11.09
			c-4.142,0-7.5,3.358-7.5,7.5C82.153,308.829,85.511,312.187,89.653,312.187z"/>
		<path style="fill:#4D4D4D;" d="M140.263,312.187h11.09c4.142,0,7.5-3.358,7.5-7.5c0-4.142-3.358-7.5-7.5-7.5h-11.09
			c-4.142,0-7.5,3.358-7.5,7.5C132.763,308.829,136.121,312.187,140.263,312.187z"/>
		<path style="fill:#4D4D4D;" d="M63.875,345.071h11.09c4.142,0,7.5-3.358,7.5-7.5s-3.358-7.5-7.5-7.5h-11.09
			c-4.142,0-7.5,3.358-7.5,7.5S59.733,345.071,63.875,345.071z"/>
		<path style="fill:#4D4D4D;" d="M114.485,345.071h11.089c4.142,0,7.5-3.358,7.5-7.5s-3.358-7.5-7.5-7.5h-11.089
			c-4.142,0-7.5,3.358-7.5,7.5S110.343,345.071,114.485,345.071z"/>
		<path style="fill:#4D4D4D;" d="M165.096,345.071h11.089c4.142,0,7.5-3.358,7.5-7.5s-3.358-7.5-7.5-7.5h-11.089
			c-4.142,0-7.5,3.358-7.5,7.5S160.954,345.071,165.096,345.071z"/>
		<path style="fill:#4D4D4D;" d="M100.743,361.639h-11.09c-4.142,0-7.5,3.358-7.5,7.5c0,4.142,3.358,7.5,7.5,7.5h11.09
			c4.142,0,7.5-3.358,7.5-7.5C108.243,364.997,104.885,361.639,100.743,361.639z"/>
		<path style="fill:#4D4D4D;" d="M151.352,361.639h-11.09c-4.142,0-7.5,3.358-7.5,7.5c0,4.142,3.358,7.5,7.5,7.5h11.09
			c4.142,0,7.5-3.358,7.5-7.5C158.852,364.997,155.495,361.639,151.352,361.639z"/>
		<path style="fill:#4D4D4D;" d="M74.965,394.522h-11.09c-4.142,0-7.5,3.358-7.5,7.5s3.358,7.5,7.5,7.5h11.09
			c4.142,0,7.5-3.358,7.5-7.5S79.107,394.522,74.965,394.522z"/>
		<path style="fill:#4D4D4D;" d="M125.574,394.522h-11.089c-4.142,0-7.5,3.358-7.5,7.5s3.358,7.5,7.5,7.5h11.089
			c4.142,0,7.5-3.358,7.5-7.5S129.716,394.522,125.574,394.522z"/>
		<path style="fill:#4D4D4D;" d="M176.185,394.522h-11.089c-4.142,0-7.5,3.358-7.5,7.5s3.358,7.5,7.5,7.5h11.089
			c4.142,0,7.5-3.358,7.5-7.5S180.327,394.522,176.185,394.522z"/>
		<path style="fill:#4D4D4D;" d="M205.256,362.408c-0.995-0.487-2.109-0.769-3.292-0.769h-11.089c-4.142,0-7.5,3.358-7.5,7.5
			c0,4.142,3.358,7.5,7.5,7.5h11.089c1.183,0,2.297-0.282,3.292-0.769V362.408z"/>
		<path style="fill:#4D4D4D;" d="M205.256,297.956c-0.995-0.487-2.109-0.769-3.292-0.769h-11.089c-4.142,0-7.5,3.358-7.5,7.5
			c0,4.142,3.358,7.5,7.5,7.5h11.089c1.183,0,2.297-0.282,3.292-0.769V297.956z"/>
		<path style="fill:#4D4D4D;" d="M50.133,297.187h-11.09c-1.183,0-2.298,0.282-3.293,0.77v13.461c0.995,0.488,2.11,0.77,3.293,0.77
			h11.09c4.142,0,7.5-3.358,7.5-7.5C57.633,300.545,54.275,297.187,50.133,297.187z"/>
		<path style="fill:#4D4D4D;" d="M50.133,361.639h-11.09c-1.183,0-2.298,0.282-3.293,0.77v13.461c0.995,0.488,2.11,0.77,3.293,0.77
			h11.09c4.142,0,7.5-3.358,7.5-7.5C57.633,364.997,54.275,361.639,50.133,361.639z"/>
	</g>
	<g>
		<path style="fill:#FFFFFF;" d="M163.28,185.93c13.674,5.663,18.265,10.255,23.929,23.929c5.664-13.673,10.255-18.266,23.93-23.929
			c-13.674-5.665-18.266-10.256-23.93-23.93C181.545,175.673,176.954,180.265,163.28,185.93z"/>
		<circle style="fill:#FFFFFF;" cx="202.478" cy="224.533" r="10.557"/>
	</g>
	<g>
		<path style="fill:#FFFFFF;" d="M413.801,185.93c13.674,5.663,18.266,10.255,23.929,23.929
			c5.663-13.673,10.255-18.266,23.93-23.929c-13.675-5.665-18.267-10.256-23.93-23.93
			C432.066,175.673,427.475,180.265,413.801,185.93z"/>
		<circle style="fill:#FFFFFF;" cx="453" cy="224.533" r="10.557"/>
	</g>
	<g>
		<path d="M80.776,54.941H71c-4.142,0-7.5,3.358-7.5,7.5s3.358,7.5,7.5,7.5h9.776c4.142,0,7.5-3.358,7.5-7.5
			S84.918,54.941,80.776,54.941z"/>
		<path d="M125.391,54.941h-9.775c-4.142,0-7.5,3.358-7.5,7.5s3.358,7.5,7.5,7.5h9.775c4.142,0,7.5-3.358,7.5-7.5
			S129.533,54.941,125.391,54.941z"/>
		<path d="M170.006,54.941h-9.776c-4.142,0-7.5,3.358-7.5,7.5s3.358,7.5,7.5,7.5h9.776c4.142,0,7.5-3.358,7.5-7.5
			S174.148,54.941,170.006,54.941z"/>
		<path d="M378.865,54.941h-18.737c-4.142,0-7.5,3.358-7.5,7.5s3.358,7.5,7.5,7.5h18.737c4.143,0,7.5-3.358,7.5-7.5
			S383.008,54.941,378.865,54.941z"/>
		<path d="M213.236,136.167v-16.138c10.207-1.089,18.187-9.797,18.187-20.348V64.672c0-22.008-17.773-39.912-39.618-39.912H49.201
			c-21.846,0-39.618,17.904-39.618,39.912V99.68c0,10.551,7.98,19.259,18.187,20.348v16.138C12.376,136.658,0,149.425,0,165.059
			v271.266c0,15.944,12.87,28.915,28.688,28.915h183.63c15.818,0,28.688-12.971,28.688-28.915V220c0-4.142-3.358-7.5-7.5-7.5
			c-4.142,0-7.5,3.358-7.5,7.5v216.325c0,7.673-6.14,13.915-13.688,13.915H28.688c-7.547,0-13.688-6.242-13.688-13.915V165.059
			c0-7.673,6.141-13.916,13.688-13.916h183.63c7.547,0,13.688,6.243,13.688,13.916V182c0,4.142,3.358,7.5,7.5,7.5
			c4.142,0,7.5-3.358,7.5-7.5v-16.941C241.006,149.425,228.63,136.658,213.236,136.167z M211.077,105.147H95
			c-4.142,0-7.5,3.358-7.5,7.5c0,4.142,3.358,7.5,7.5,7.5h103.236v15.996H42.77v-15.996h15.231c4.142,0,7.5-3.358,7.5-7.5
			c0-4.142-3.358-7.5-7.5-7.5H29.93c-2.948,0-5.347-2.453-5.347-5.467V64.672c0-13.736,11.043-24.912,24.618-24.912h142.604
			c13.574,0,24.618,11.176,24.618,24.912V99.68C216.423,102.694,214.024,105.147,211.077,105.147z"/>
		<path d="M482.5,185.5c4.143,0,7.5-3.358,7.5-7.5v-12.941c0-15.634-12.375-28.401-27.77-28.893v-16.138
			c10.206-1.089,18.185-9.797,18.185-20.348V64.672c0-22.008-17.772-39.912-39.617-39.912H298.195
			c-21.846,0-39.619,17.904-39.619,39.912V99.68c0,10.551,7.98,19.259,18.188,20.348v16.138
			c-15.395,0.491-27.771,13.258-27.771,28.893v271.266c0,15.944,12.869,28.915,28.688,28.915h183.631
			c15.818,0,28.688-12.971,28.688-28.915V215c0-4.142-3.357-7.5-7.5-7.5s-7.5,3.358-7.5,7.5v221.325
			c0,7.673-6.141,13.915-13.688,13.915H277.682c-7.547,0-13.688-6.242-13.688-13.915V165.059c0-7.673,6.141-13.916,13.688-13.916
			h183.631c7.547,0,13.688,6.243,13.688,13.916V178C475,182.142,478.357,185.5,482.5,185.5z M460.07,105.147H356
			c-4.143,0-7.5,3.358-7.5,7.5c0,4.142,3.357,7.5,7.5,7.5h91.23v15.996H291.765v-15.996H319c4.143,0,7.5-3.358,7.5-7.5
			c0-4.142-3.357-7.5-7.5-7.5h-40.075c-2.949,0-5.349-2.453-5.349-5.467V64.672c0-13.736,11.044-24.912,24.619-24.912h142.603
			c13.574,0,24.617,11.176,24.617,24.912V99.68C465.416,102.694,463.018,105.147,460.07,105.147z"/>
		<path d="M427.104,253.61c-10.32,0-19.868,4.727-26.311,12.294c-6.331-7.69-15.874-12.495-26.307-12.495
			c-7.904,0-15.314,2.703-21.209,7.418c-6.528-13.477-20.293-22.831-36-22.831c-20.815,0-38.133,16.133-39.883,36.925
			c-0.1,0.489-0.151,0.991-0.151,1.498v152.766c0,4.142,3.357,7.5,7.5,7.5H454.25c4.143,0,7.5-3.358,7.5-7.5V288.547
			C461.75,269.283,446.208,253.61,427.104,253.61z M446.75,421.685H292.244V277.392c0.022-0.176,0.04-0.354,0.05-0.532
			c0.776-13.381,11.751-23.863,24.984-23.863c13.527,0,24.751,11.158,25.019,24.872c0.07,3.564,2.64,6.587,6.146,7.23
			c3.506,0.644,6.981-1.271,8.311-4.579c2.959-7.357,9.92-12.111,17.733-12.111c9.101,0,16.999,6.563,18.78,15.605
			c0.686,3.485,3.724,6.01,7.275,6.05c0.028,0,0.056,0,0.084,0c3.516,0,6.565-2.446,7.323-5.887
			c1.987-9.021,10.043-15.568,19.154-15.568c10.833,0,19.646,8.944,19.646,19.938V421.685z"/>
		<path d="M205.256,268.919H35.75c-4.142,0-7.5,3.358-7.5,7.5v152.766c0,4.142,3.358,7.5,7.5,7.5h169.506c4.142,0,7.5-3.358,7.5-7.5
			V276.419C212.756,272.277,209.398,268.919,205.256,268.919z M197.756,421.685H43.25V283.919h154.506V421.685z"/>
	</g>
</g>
<g>
</g>
<g>
</g>
<g>
</g>
<g>
</g>
<g>
</g>
<g>
</g>
<g>
</g>
<g>
</g>
<g>
</g>
<g>
</g>
<g>
</g>
<g>
</g>
<g>
</g>
<g>
</g>
<g>
</g>
</svg>
