<?xml version="1.0" encoding="iso-8859-1"?>
<!-- Generator: Adobe Illustrator 19.0.0, SVG Export Plug-In . SVG Version: 6.00 Build 0)  -->
<svg version="1.1" id="Layer_1" xmlns="http://www.w3.org/2000/svg" xmlns:xlink="http://www.w3.org/1999/xlink" x="0px" y="0px"
	 viewBox="0 0 490 490" style="enable-background:new 0 0 490 490;" xml:space="preserve">
<g>
	<path style="fill:#C14616;" d="M185.032,482.5c-8.077,0-14.626-6.548-14.626-14.626V266.177c0-31.509,19.983-59.767,49.729-70.317
		V43.053c0-8.078,6.55-14.626,14.627-14.626h20.477c8.077,0,14.627,6.548,14.627,14.626V195.86
		c29.745,10.55,49.729,38.808,49.729,70.317v201.697c0,8.078-6.549,14.626-14.626,14.626H185.032z"/>
	<path style="opacity:0.1;" d="M185.032,482.5c-8.064,0-14.626-6.561-14.626-14.626V266.177c0-31.508,19.984-59.767,49.729-70.317
		V43.053c0-8.065,6.561-14.626,14.627-14.626h20.477c4.391,0,8.51,1.948,11.302,5.345c2.111,2.568,2.808,6.018,1.858,9.205
		c-0.949,3.187-3.42,5.693-6.593,6.687c-6.044,1.894-10.265,7.637-10.265,13.963v146.066c0,3.925-2.296,7.487-5.871,9.107
		c-26.643,12.08-43.857,38.752-43.857,67.95V472.5c0,5.523-4.478,10-10,10H185.032z"/>
	<polyline style="fill:#368939;" points="269.865,173.227 269.865,74.857 220.135,74.857 220.135,173.227 	"/>
	<g>
		<polygon style="fill:#FFFFFF;" points="220.135,141.734 269.865,92.004 269.865,74.857 265.797,74.857 220.135,120.52 		"/>
		<polygon style="fill:#FFFFFF;" points="269.865,111.055 220.135,160.785 220.135,173.227 228.908,173.227 269.865,132.27 		"/>
	</g>
	<path style="fill:#CE4C2E;" d="M281.555,61.37c0,7.084-5.744,12.826-12.827,12.826h-47.455c-7.085,0-12.827-5.743-12.827-12.826
		V20.326c0-7.084,5.742-12.826,12.827-12.826h47.455c7.083,0,12.827,5.742,12.827,12.826V61.37z"/>
	<path style="opacity:0.1;" d="M239.891,61.37V20.326c0-7.084,5.742-12.826,12.827-12.826h-31.445
		c-7.085,0-12.827,5.742-12.827,12.826V61.37c0,7.084,5.742,12.826,12.827,12.826h31.445
		C245.633,74.196,239.891,68.453,239.891,61.37z"/>
	<polygon style="fill:#FFFFFF;" points="245,435.257 170.406,340 245,245.257 319.594,340 	"/>
	<polygon style="fill:#FFFFFF;" points="195.835,340.033 245,277.588 294.165,340.033 245,402.818 	"/>
	<circle style="fill:#2E7C35;" cx="245" cy="340" r="17.754"/>
	<g>
		<path style="fill:#2E7C35;" d="M245,414.982l-58.701-74.962L245,265.464l58.701,74.557L245,414.982z M205.371,340.046L245,390.653
			l39.629-50.607L245,289.712L205.371,340.046z"/>
	</g>
	<path style="fill:#FFFFFF;" d="M266,234.931c9.491,3.931,12.679,7.118,16.609,16.609c3.931-9.491,7.118-12.678,16.609-16.609
		c-9.491-3.932-12.679-7.119-16.609-16.61C278.679,227.812,275.491,230.999,266,234.931z"/>
	<circle style="fill:#FFFFFF;" cx="298.574" cy="261.173" r="7.828"/>
	<path style="fill:#316638;" d="M286.685,71.631c0,7.084-5.743,12.826-12.826,12.826h-57.717c-7.083,0-12.826-5.742-12.826-12.826
		l0,0c0-7.084,5.743-12.826,12.826-12.826h57.717C280.941,58.805,286.685,64.547,286.685,71.631L286.685,71.631z"/>
	<g>
		<path d="M224,463.5h16c4.143,0,7.5-3.358,7.5-7.5s-3.357-7.5-7.5-7.5h-16c-4.143,0-7.5,3.358-7.5,7.5S219.857,463.5,224,463.5z"/>
		<path d="M319.594,281.5c4.142,0,7.5-3.358,7.5-7.5v-7.823c0-32.883-19.775-62.548-49.729-75.429V91.632
			c9.539-1.669,16.819-9.992,16.819-20.001c0-5.161-1.949-9.864-5.13-13.453V20.326C289.055,9.118,279.935,0,268.727,0h-47.455
			c-11.208,0-20.327,9.118-20.327,20.326v37.852c-3.181,3.589-5.13,8.292-5.13,13.453c0,10.01,7.28,18.333,16.819,20.001v99.115
			c-29.954,12.881-49.729,42.546-49.729,75.429v201.697c0,12.2,9.926,22.126,22.126,22.126h119.936
			c12.2,0,22.126-9.926,22.126-22.126V306c0-4.142-3.358-7.5-7.5-7.5c-4.143,0-7.5,3.358-7.5,7.5v12.35l-61.201-77.733
			c-1.422-1.806-3.594-2.86-5.893-2.86s-4.471,1.054-5.893,2.86l-61.201,77.733v-52.173c0-28.34,17.977-53.758,44.735-63.249
			c2.993-1.062,4.993-3.893,4.993-7.068v-15.133h34.73v15.133c0,3.176,2,6.007,4.993,7.068
			c26.758,9.491,44.735,34.909,44.735,63.249V274C312.094,278.142,315.451,281.5,319.594,281.5z M209.199,377.375l-29.257-37.362
			L245,257.381l65.058,82.632l-65.017,83.027l-19.79-25.626c-2.533-3.28-7.245-3.883-10.52-1.352
			c-3.278,2.532-3.884,7.242-1.352,10.52l25.685,33.259c1.414,1.832,3.596,2.908,5.91,2.916c0.009,0,0.017,0,0.025,0
			c2.306,0,4.483-1.06,5.905-2.876l61.189-78.138v106.131c0,3.929-3.196,7.126-7.126,7.126H185.032c-3.93,0-7.126-3.197-7.126-7.126
			V463.5H201c4.143,0,7.5-3.358,7.5-7.5s-3.357-7.5-7.5-7.5h-23.094v-86.757l19.482,24.879c2.555,3.262,7.27,3.835,10.529,1.281
			C211.179,385.35,211.753,380.636,209.199,377.375z M215.945,20.326c0-2.937,2.39-5.326,5.327-5.326h47.455
			c2.938,0,5.327,2.389,5.327,5.326v30.989c-0.066,0-0.13-0.01-0.196-0.01h-57.717c-0.066,0-0.13,0.009-0.196,0.01V20.326z
			 M210.815,71.631c0-2.937,2.39-5.326,5.326-5.326h57.717c2.937,0,5.326,2.389,5.326,5.326c0,2.937-2.39,5.326-5.326,5.326h-57.717
			C213.205,76.956,210.815,74.567,210.815,71.631z M227.635,165.727V91.956h34.73v73.771H227.635z"/>
	</g>
</g>
<g>
</g>
<g>
</g>
<g>
</g>
<g>
</g>
<g>
</g>
<g>
</g>
<g>
</g>
<g>
</g>
<g>
</g>
<g>
</g>
<g>
</g>
<g>
</g>
<g>
</g>
<g>
</g>
<g>
</g>
</svg>
