<?xml version="1.0" encoding="iso-8859-1"?>
<!-- Generator: Adobe Illustrator 19.0.0, SVG Export Plug-In . SVG Version: 6.00 Build 0)  -->
<svg version="1.1" id="Layer_1" xmlns="http://www.w3.org/2000/svg" xmlns:xlink="http://www.w3.org/1999/xlink" x="0px" y="0px"
	 viewBox="0 0 490 490" style="enable-background:new 0 0 490 490;" xml:space="preserve">
<g>
	<path style="fill:#D4EBE9;" d="M177.064,482.5c-16.344,0-29.594-13.25-29.594-29.595v-159.39c0-8.398,3.568-16.392,9.799-21.999
		c17.418-19.665,46.799-67.504,50.494-168.613c0.58-15.914,13.648-28.515,29.574-28.515h15.324
		c15.924,0,28.992,12.601,29.574,28.515c3.695,101.128,33.086,148.964,50.494,168.612c6.23,5.607,9.799,13.602,9.799,22v159.39
		c0,16.345-13.25,29.595-29.594,29.595H177.064z"/>
	<path style="fill:#F96300;" d="M332.73,271.515c-11.873-13.4-29.318-39.922-40.386-87.515h-94.69
		c-11.064,47.581-28.506,74.104-40.385,87.516c-6.23,5.607-9.799,13.601-9.799,21.999v159.39c0,16.345,13.25,29.595,29.594,29.595
		h135.871c16.344,0,29.594-13.25,29.594-29.595v-159.39C342.529,285.116,338.961,277.122,332.73,271.515z"/>
	<path style="opacity:0.1;" d="M189,452.905v-159.39c0-8.398,3.568-16.392,9.799-21.999c11.879-13.412,29.32-39.935,40.385-87.516
		h-41.529c-11.064,47.581-28.506,74.104-40.385,87.516c-6.23,5.607-9.799,13.601-9.799,21.999v159.39
		c0,16.345,13.25,29.595,29.594,29.595h41.529C202.25,482.5,189,469.25,189,452.905z"/>
	<path style="fill:#FFEA33;" d="M147.471,297.531v131.698h80.17c8.174,0,14.799-6.625,14.799-14.797V312.329
		c0-8.172-6.625-14.797-14.799-14.797H147.471z"/>
	<path style="fill:#FFEA33;" d="M342.529,429.229V297.531H321.83c-8.174,0-14.799,6.625-14.799,14.797v102.103
		c0,8.172,6.625,14.797,14.799,14.797H342.529z"/>
	<path style="fill:#FFEA92;" d="M299.75,91.846c0,8.99-7.289,16.277-16.277,16.277h-76.947c-8.99,0-16.277-7.288-16.277-16.277l0,0
		c0-8.99,7.287-16.277,16.277-16.277h76.947C292.461,75.568,299.75,82.856,299.75,91.846L299.75,91.846z"/>
	<path style="opacity:0.1;" d="M221.498,91.846c0-8.99,7.287-16.277,16.277-16.277h-31.25c-8.99,0-16.277,7.288-16.277,16.277
		s7.287,16.277,16.277,16.277h31.25C228.785,108.123,221.498,100.835,221.498,91.846z"/>
	<path style="fill:#FFEA33;" d="M203.402,75.568c-6.961,0-12.605-5.644-12.605-12.605V32.71c0-13.901,11.309-25.21,25.211-25.21
		h57.984c13.9,0,25.211,11.31,25.211,25.21v30.253c0,6.961-5.645,12.605-12.605,12.605H203.402z"/>
	<path style="opacity:0.1;" d="M222,62.963V32.71C222,18.81,233.309,7.5,247.211,7.5h-31.203c-13.902,0-25.211,11.31-25.211,25.21
		v30.253c0,6.961,5.645,12.605,12.605,12.605h31.203C227.645,75.568,222,69.925,222,62.963z"/>
	<g>
		<path d="M196.536,337.5h-24.46c-4.143,0-7.5,3.358-7.5,7.5s3.357,7.5,7.5,7.5h24.46c4.143,0,7.5-3.358,7.5-7.5
			S200.679,337.5,196.536,337.5z"/>
		<path d="M196.536,370.689h-24.46c-4.143,0-7.5,3.358-7.5,7.5c0,4.142,3.357,7.5,7.5,7.5h24.46c4.143,0,7.5-3.358,7.5-7.5
			C204.036,374.046,200.679,370.689,196.536,370.689z"/>
		<path d="M274.5,446.5h-17c-4.143,0-7.5,3.358-7.5,7.5s3.357,7.5,7.5,7.5h17c4.143,0,7.5-3.358,7.5-7.5S278.643,446.5,274.5,446.5z
			"/>
	</g>
	<path style="fill:#FFFFFF;" d="M247,221.69c12.177,5.043,16.267,9.133,21.31,21.31c5.044-12.177,9.133-16.267,21.31-21.31
		c-12.178-5.045-16.267-9.134-21.31-21.311C263.267,212.557,259.177,216.645,247,221.69z"/>
	<circle style="fill:#FFFFFF;" cx="289.599" cy="252.401" r="9.401"/>
	<path d="M338.084,266.247c-15.946-18.14-42.435-61.386-47.775-151.629c9.789-2.944,16.941-12.036,16.941-22.771
		c0-5.898-2.159-11.3-5.727-15.46c0.006-0.006,0.006-0.012,0.01-0.018c3.206-3.557,5.17-8.249,5.17-13.405V62
		c0-4.142-3.357-7.5-7.5-7.5s-7.5,3.358-7.5,7.5v0.963c0,2.815-2.29,5.105-5.105,5.105h-83.195c-2.815,0-5.105-2.29-5.105-5.105
		V32.71c0-9.766,7.945-17.71,17.711-17.71h57.984c9.766,0,17.711,7.945,17.711,17.71c0,4.142,3.357,7.5,7.5,7.5s7.5-3.358,7.5-7.5
		c0-18.037-14.674-32.71-32.711-32.71h-57.984c-18.037,0-32.711,14.674-32.711,32.71v30.253c0,5.157,1.965,9.851,5.172,13.408
		c0.004,0.005,0.004,0.01,0.008,0.014c-3.569,4.16-5.729,9.563-5.729,15.46c0,10.736,7.153,19.828,16.943,22.771
		c-5.341,90.231-31.83,133.485-47.776,151.631c-7.597,7.008-11.944,16.92-11.944,27.267v159.39
		c0,20.455,16.641,37.095,37.094,37.095h135.871c20.453,0,37.094-16.641,37.094-37.095v-159.39
		C350.029,283.167,345.682,273.255,338.084,266.247z M197.748,91.846c0-4.84,3.938-8.777,8.777-8.777h77.521
		c4.41,0.525,8.203,4.29,8.203,8.777c0,4.84-3.938,8.777-8.777,8.777h-76.947C201.686,100.623,197.748,96.686,197.748,91.846z
		 M283.053,176.5h-76.105c3.82-18.765,6.398-39.095,7.695-60.877h60.715C276.654,137.406,279.232,157.735,283.053,176.5z
		 M335.029,446.5H299c-4.143,0-7.5,3.358-7.5,7.5s3.357,7.5,7.5,7.5h34.289c-3.359,7.926-11.218,13.5-20.354,13.5H177.064
		c-12.183,0-22.094-9.912-22.094-22.095v-16.176h72.67c12.296,0,22.299-10.002,22.299-22.297V399c0-4.142-3.357-7.5-7.5-7.5
		c-4.143,0-7.5,3.358-7.5,7.5v15.432c0,4.024-3.275,7.297-7.299,7.297h-72.67V305.031h72.67c4.024,0,7.299,3.273,7.299,7.297V373
		c0,4.142,3.357,7.5,7.5,7.5c4.143,0,7.5-3.358,7.5-7.5v-60.671c0-12.295-10.003-22.297-22.299-22.297h-72.393
		c0.794-4.954,3.262-9.542,7.038-12.941c0.211-0.189,0.41-0.39,0.598-0.602c8.679-9.798,21.242-27.491,31.815-56.141
		c3.351-9.08,6.3-18.706,8.852-28.847h82.898c2.553,10.146,5.504,19.777,8.855,28.86c10.573,28.649,23.136,46.335,31.813,56.128
		c0.188,0.211,0.387,0.412,0.597,0.601c3.776,3.399,6.244,7.987,7.038,12.942H321.83c-12.296,0-22.299,10.003-22.299,22.297v102.103
		c0,12.295,10.003,22.297,22.299,22.297h13.199V446.5z M335.029,421.729H321.83c-4.024,0-7.299-3.273-7.299-7.297V312.329
		c0-4.024,3.274-7.297,7.299-7.297h13.199V421.729z"/>
</g>
<g>
</g>
<g>
</g>
<g>
</g>
<g>
</g>
<g>
</g>
<g>
</g>
<g>
</g>
<g>
</g>
<g>
</g>
<g>
</g>
<g>
</g>
<g>
</g>
<g>
</g>
<g>
</g>
<g>
</g>
</svg>
