<?xml version="1.0" encoding="iso-8859-1"?>
<!-- Generator: Adobe Illustrator 19.0.0, SVG Export Plug-In . SVG Version: 6.00 Build 0)  -->
<svg version="1.1" id="Layer_1" xmlns="http://www.w3.org/2000/svg" xmlns:xlink="http://www.w3.org/1999/xlink" x="0px" y="0px"
	 viewBox="0 0 490 490" style="enable-background:new 0 0 490 490;" xml:space="preserve">
<g>
	<path style="fill:#FFEA92;" d="M144.887,348.241c0-19.575-15.869-35.444-35.444-35.444c-8.384,0-16.082,2.917-22.15,7.783
		c-5.046-4.818-11.877-7.783-19.405-7.783c-15.525,0-28.111,12.586-28.111,28.111c0,3.74,0.737,7.307,2.063,10.571
		c-12.617,4.637-21.619,16.759-21.619,30.983c0,18.226,14.775,33,33,33c7.174,0,34.471,7.334,45.222,7.334
		c17.55,0,31.778-14.228,31.778-31.778C130.22,386.619,144.887,361.133,144.887,348.241z"/>
	<g>
		<g>
			<path style="fill:#62AF62;" d="M123.133,273.21c-4.142,0-7.5,3.358-7.5,7.5v19.5h-19.5c-4.142,0-7.5,3.358-7.5,7.5
				s3.358,7.5,7.5,7.5h27c4.142,0,7.5-3.358,7.5-7.5v-27C130.633,276.567,127.275,273.21,123.133,273.21z"/>
			<path style="fill:#62AF62;" d="M111.22,288.296v-27c0-4.142-3.358-7.5-7.5-7.5s-7.5,3.358-7.5,7.5v19.5h-19.5
				c-4.142,0-7.5,3.358-7.5,7.5c0,4.142,3.358,7.5,7.5,7.5h27C107.862,295.796,111.22,292.439,111.22,288.296z"/>
		</g>
		<g>
			<path style="fill:#519351;" d="M141.805,333.882c-1.92,0-3.839-0.732-5.303-2.197L76.11,271.294
				c-2.929-2.929-2.929-7.678,0-10.606c2.929-2.929,7.678-2.929,10.606,0l60.392,60.392c2.929,2.929,2.929,7.678,0,10.606
				C145.644,333.15,143.725,333.882,141.805,333.882z"/>
		</g>
	</g>
	<g>
		<path style="fill:#DBC877;" d="M101.498,360.911c-4.142,0-7.5-3.358-7.5-7.5c0-2.667-2.17-4.837-4.837-4.837
			s-4.837,2.17-4.837,4.837c0,4.142-3.358,7.5-7.5,7.5c-4.142,0-7.5-3.358-7.5-7.5c0-10.938,8.899-19.837,19.837-19.837
			s19.837,8.899,19.837,19.837C108.998,357.553,105.64,360.911,101.498,360.911z"/>
	</g>
	<g>
		<path style="fill:#DBC877;" d="M75.831,393.796c-4.142,0-7.5-3.358-7.5-7.5c0-2.667-2.17-4.837-4.837-4.837
			s-4.837,2.17-4.837,4.837c0,4.142-3.358,7.499-7.5,7.499h0c-4.142,0-7.5-3.358-7.5-7.5c0.001-10.938,8.9-19.836,19.837-19.836
			c10.938,0,19.837,8.899,19.837,19.837C83.331,390.439,79.974,393.796,75.831,393.796z"/>
	</g>
	<path style="fill:#9D7049;" d="M443.5,347.915c0,34.794-28.206,63-63,63h-212c-34.794,0-63-28.206-63-63v-4
		c0-34.794,28.206-63,63-63h212c34.794,0,63,28.206,63,63V347.915z"/>
	<path style="fill:#C16A73;" d="M168.5,385.915c-20.953,0-38-17.047-38-38v-4c0-20.953,17.047-38,38-38h212
		c20.953,0,38,17.047,38,38v4c0,20.953-17.047,38-38,38H168.5z"/>
	<path style="opacity:0.1;" d="M380.5,355.305h-212c-16.273,0-30.186-10.285-35.59-24.695c-1.554,4.143-2.41,8.625-2.41,13.305v4
		c0,20.953,17.047,38,38,38h212c20.953,0,38-17.047,38-38v-4c0-4.68-0.855-9.162-2.41-13.305
		C410.685,345.02,396.773,355.305,380.5,355.305z"/>
	<g>
		<g>
			<path style="fill:#FCE9C3;" d="M188.701,206.805c-4.142,0-7.5-3.358-7.5-7.5v-17.123c0-18.677,15.194-33.871,33.871-33.871
				h41.093c4.142,0,7.5,3.358,7.5,7.5c0,4.142-3.358,7.5-7.5,7.5h-41.093c-10.406,0-18.871,8.465-18.871,18.871v17.123
				C196.201,203.447,192.843,206.805,188.701,206.805z"/>
		</g>
	</g>
	<g>
		<path style="fill:#F2D8A0;" d="M309,85.365h-21.715c-4.142,0-7.5,3.358-7.5,7.5c0,4.142,3.358,7.5,7.5,7.5H309
			c13.219,0,23.973,10.754,23.973,23.973c0,13.219-10.754,23.974-23.973,23.974h-25c-4.142,0-7.5,3.358-7.5,7.5
			c0,4.142,3.358,7.5,7.5,7.5h25c21.49,0,38.973-17.483,38.973-38.974C347.973,102.848,330.49,85.365,309,85.365z"/>
		<path style="fill:#F2D8A0;" d="M252.026,109.311h-49.084c-14.029,0-25.442-11.414-25.442-25.443
			c0-14.029,11.414-25.443,25.442-25.443h17.622c4.142,0,7.5-3.358,7.5-7.5s-3.358-7.5-7.5-7.5h-17.622
			c-22.3,0-40.442,18.143-40.442,40.443c0,22.3,18.143,40.443,40.442,40.443h49.084c4.142,0,7.5-3.358,7.5-7.5
			C259.526,112.669,256.168,109.311,252.026,109.311z"/>
	</g>
	<circle style="fill:#B0CE6F;" cx="89.415" cy="397.515" r="20.085"/>
	<g>
		<g>
			<path style="fill:#AB4D4D;" d="M164.5,340.415c-6.558,0-9.924-8.183-5.303-12.803l27-27c2.929-2.929,7.678-2.929,10.606,0
				c2.929,2.929,2.929,7.678,0,10.606l-27,27C168.339,339.683,166.419,340.415,164.5,340.415z"/>
		</g>
		<g>
			<path style="fill:#AB4D4D;" d="M209.5,340.415c-6.558,0-9.924-8.183-5.303-12.803l27-27c2.929-2.929,7.678-2.929,10.606,0
				c2.929,2.929,2.929,7.678,0,10.606l-27,27C213.339,339.683,211.419,340.415,209.5,340.415z"/>
		</g>
		<g>
			<path style="fill:#AB4D4D;" d="M254.5,340.415c-6.558,0-9.924-8.183-5.303-12.803l27-27c2.929-2.929,7.678-2.929,10.606,0
				c2.929,2.929,2.929,7.678,0,10.606l-27,27C258.339,339.683,256.419,340.415,254.5,340.415z"/>
		</g>
		<g>
			<path style="fill:#AB4D4D;" d="M299.5,340.415c-6.558,0-9.924-8.183-5.303-12.803l27-27c2.929-2.929,7.678-2.929,10.606,0
				c2.929,2.929,2.929,7.678,0,10.606l-27,27C303.339,339.683,301.419,340.415,299.5,340.415z"/>
		</g>
		<g>
			<path style="fill:#AB4D4D;" d="M344.5,340.415c-6.558,0-9.924-8.183-5.303-12.803l27-27c2.929-2.929,7.678-2.929,10.606,0
				c2.929,2.929,2.929,7.678,0,10.606l-27,27C348.339,339.683,346.419,340.415,344.5,340.415z"/>
		</g>
	</g>
	<circle style="fill:#B0CE6F;" cx="154.843" cy="394.257" r="23.343"/>
	<g>
		<path style="fill:#FFCC60;" d="M322.102,262.982c0.012-0.458,0.035-0.913,0.035-1.374c0-28.851-23.388-52.239-52.239-52.239
			c-28.851,0-52.239,23.389-52.239,52.239c0,0.461,0.023,0.916,0.035,1.374H322.102z"/>
	</g>
	<path style="opacity:0.1;" d="M285.569,211.763c-4.947-1.554-10.21-2.395-15.67-2.395c-28.851,0-52.239,23.389-52.239,52.239
		c0,0.461,0.023,0.916,0.035,1.374h31.341c-0.012-0.458-0.035-0.913-0.035-1.374C249,238.217,264.375,218.42,285.569,211.763z"/>
	<path style="fill:#FFFFFF;" d="M378.5,265.793c0,8.352-6.771,15.122-15.122,15.122h-186.96c-8.352,0-15.122-6.771-15.122-15.122
		l0,0c0-8.352,6.77-15.122,15.122-15.122h186.96C371.729,250.671,378.5,257.442,378.5,265.793L378.5,265.793z"/>
	<path style="opacity:0.1;" d="M192.796,265.793c0-8.352,6.77-15.122,15.122-15.122h-31.5c-8.352,0-15.122,6.77-15.122,15.122
		c0,8.352,6.77,15.122,15.122,15.122h31.5C199.566,280.915,192.796,274.145,192.796,265.793z"/>
	<path style="fill:#F48911;" d="M457.72,380.856c0,5.522-4.477,10-10,10h-48c-5.523,0-10-4.478-10-10v-6c0-5.523,4.477-10,10-10h48
		c5.523,0,10,4.477,10,10V380.856z"/>
	<path style="fill:#FFC38D;" d="M413.72,402.856c0,5.522-4.477,10-10,10h-48c-5.523,0-10-4.478-10-10v-6c0-5.523,4.477-10,10-10h48
		c5.523,0,10,4.477,10,10V402.856z"/>
	<path style="fill:#F48911;" d="M463.72,402.856c0,5.522-4.477,10-10,10h-48c-5.523,0-10-4.478-10-10v-6c0-5.523,4.477-10,10-10h48
		c5.523,0,10,4.477,10,10V402.856z"/>
	<circle style="fill:#53B559;" cx="119.978" cy="394.257" r="23.343"/>
	<path style="fill:#EFDFBB;" d="M482.5,429.076c0,5.523-4.477,10-10,10h-455c-5.523,0-10-4.477-10-10v-10c0-5.522,4.477-10,10-10
		h455c5.523,0,10,4.478,10,10V429.076z"/>
	<path style="fill:#EFDFBB;" d="M482.5,429.076c0,5.523-4.477,10-10,10h-455c-5.523,0-10-4.477-10-10v-10c0-5.522,4.477-10,10-10
		h455c5.523,0,10,4.478,10,10V429.076z"/>
	<path style="opacity:0.1;" d="M48,429.076v-10c0-5.522,4.477-10,10-10H17.5c-5.523,0-10,4.478-10,10v10c0,5.523,4.477,10,10,10H58
		C52.477,439.076,48,434.599,48,429.076z"/>
	<path d="M472.5,401.576h-1.28v-4.72c0-5.347-2.417-10.135-6.208-13.348c0.134-0.865,0.208-1.75,0.208-2.652v-6
		c0-8.761-6.478-16.018-14.891-17.284c0.436-3.158,0.671-6.38,0.671-9.657v-4c0-37.493-29.422-68.233-66.388-70.371
		c0.887-2.421,1.388-5.027,1.388-7.751c0-12.474-10.148-22.622-22.622-22.622H361c-4.142,0-7.5,3.358-7.5,7.5s3.358,7.5,7.5,7.5
		h2.378c4.203,0,7.622,3.419,7.622,7.622c0,4.203-3.419,7.622-7.622,7.622h-186.96c-4.203,0-7.622-3.419-7.622-7.622
		c0-4.203,3.419-7.622,7.622-7.622H328c4.142,0,7.5-3.358,7.5-7.5s-3.358-7.5-7.5-7.5h-1.294
		c-7.787-23.943-30.301-41.303-56.808-41.303c-26.507,0-49.021,17.359-56.808,41.303h-36.672c-12.474,0-22.622,10.148-22.622,22.622
		c0,3.131,0.645,6.113,1.801,8.826c-19.197,3.567-35.68,14.938-46.036,30.68c-0.039,0-0.079-0.003-0.119-0.003
		c-7.683,0-15.246,2.09-21.823,5.968c-5.807-3.879-12.632-5.968-19.733-5.968c-19.636,0-35.611,15.975-35.611,35.611
		c0,2.208,0.201,4.39,0.601,6.533c-12.283,7.164-20.156,20.491-20.156,35.022c0,6.911,1.748,13.417,4.815,19.113H17.5
		c-9.649,0-17.5,7.851-17.5,17.5v10c0,9.649,7.851,17.5,17.5,17.5H68c4.142,0,7.5-3.358,7.5-7.5c0-4.142-3.358-7.5-7.5-7.5H17.5
		c-1.378,0-2.5-1.122-2.5-2.5v-10c0-1.378,1.122-2.5,2.5-2.5h455c1.378,0,2.5,1.122,2.5,2.5v10c0,1.378-1.122,2.5-2.5,2.5H102
		c-4.142,0-7.5,3.358-7.5,7.5c0,4.142,3.358,7.5,7.5,7.5h370.5c9.649,0,17.5-7.851,17.5-17.5v-10
		C490,409.426,482.149,401.576,472.5,401.576z M269.898,216.869c18.097,0,33.704,10.808,40.741,26.303h-81.482
		C236.194,227.677,251.802,216.869,269.898,216.869z M90.026,401.576H77.51c-0.437-1.275-0.681-2.639-0.681-4.061
		c0-6.94,5.646-12.586,12.585-12.586c0.387,0,0.771,0.018,1.149,0.052c-0.926,2.929-1.428,6.045-1.428,9.276
		C89.136,396.78,89.451,399.228,90.026,401.576z M99.005,371.671c-2.991-1.115-6.216-1.742-9.591-1.742
		c-15.21,0-27.585,12.375-27.585,27.586c0,1.38,0.111,2.734,0.309,4.061H36.367c-5.297-4.676-8.647-11.509-8.647-19.113
		c0-10.649,6.713-20.272,16.706-23.944c1.908-0.701,3.45-2.147,4.272-4.006c0.822-1.859,0.854-3.973,0.089-5.857
		c-1.003-2.469-1.512-5.076-1.512-7.749c0-11.365,9.246-20.611,20.611-20.611c5.319,0,10.371,2.027,14.226,5.708
		c2.718,2.596,6.938,2.778,9.871,0.427c2.928-2.348,6.216-4.028,9.72-5.035C99.311,328.472,98,336.041,98,343.915v4
		c0,7.576,1.217,14.868,3.442,21.709C100.594,370.264,99.783,370.949,99.005,371.671z M134.012,401.576h-28.068
		c-1.15-2.189-1.809-4.676-1.809-7.318c0-8.735,7.107-15.842,15.842-15.842c8.736,0,15.843,7.106,15.843,15.842
		C135.821,396.899,135.163,399.386,134.012,401.576z M123,343.915v4c0,5.663,1.049,11.082,2.95,16.085
		c-1.934-0.381-3.929-0.585-5.972-0.585c-1.578,0-3.127,0.12-4.642,0.35c-1.506-5.026-2.336-10.34-2.336-15.85v-4
		c0-30.603,24.897-55.5,55.5-55.5h212c30.603,0,55.5,24.897,55.5,55.5v4c0,3.219-0.287,6.371-0.818,9.44h-10.185
		c0.649-3.047,1.003-6.202,1.003-9.44v-4c0-25.089-20.411-45.5-45.5-45.5h-212C143.411,298.415,123,318.827,123,343.915z
		 M168.876,401.576h-18.946c0.575-2.348,0.89-4.796,0.89-7.318c0-5.039-1.222-9.794-3.374-13.998
		c2.209-1.173,4.723-1.844,7.395-1.844c8.736,0,15.843,7.106,15.843,15.842C170.685,396.899,170.027,399.386,168.876,401.576z
		 M154.842,363.415c-3.958,0-7.74,0.756-11.219,2.122c-3.54-4.979-5.623-11.061-5.623-17.622v-4c0-16.818,13.682-30.5,30.5-30.5h212
		c16.818,0,30.5,13.682,30.5,30.5v4c0,3.296-0.539,6.465-1.511,9.44h-9.769c-9.649,0-17.5,7.85-17.5,17.5v3.493
		c-0.571,0.032-1.141,0.067-1.72,0.067H181.294C175.895,369.437,166.06,363.415,154.842,363.415z M338.22,396.856v4.72H184.795
		c0.575-2.348,0.89-4.796,0.89-7.318c0-0.282-0.014-0.561-0.021-0.842h152.9C338.341,394.529,338.22,395.678,338.22,396.856z
		 M388.22,396.856v4.72h-35v-4.72c0-1.378,1.122-2.5,2.5-2.5h32.7C388.302,395.175,388.22,396.005,388.22,396.856z M397.22,374.856
		c0-1.378,1.122-2.5,2.5-2.5h48c1.378,0,2.5,1.122,2.5,2.5v4.5h-53V374.856z M456.22,401.576h-53v-4.72c0-1.378,1.122-2.5,2.5-2.5
		h48c1.378,0,2.5,1.122,2.5,2.5V401.576z"/>
</g>
<g>
</g>
<g>
</g>
<g>
</g>
<g>
</g>
<g>
</g>
<g>
</g>
<g>
</g>
<g>
</g>
<g>
</g>
<g>
</g>
<g>
</g>
<g>
</g>
<g>
</g>
<g>
</g>
<g>
</g>
</svg>
