<?xml version="1.0" encoding="iso-8859-1"?>
<!-- Generator: Adobe Illustrator 19.0.0, SVG Export Plug-In . SVG Version: 6.00 Build 0)  -->
<svg version="1.1" id="Layer_1" xmlns="http://www.w3.org/2000/svg" xmlns:xlink="http://www.w3.org/1999/xlink" x="0px" y="0px"
	 viewBox="0 0 490 490" style="enable-background:new 0 0 490 490;" xml:space="preserve">
<g>
	<g>
		<path style="fill:#FFEA92;" d="M222.023,255.36c-3.1-6.246-9.524-10.549-16.97-10.549c-2.646,0-5.165,0.545-7.453,1.525
			c-3.008-6.49-9.564-11.003-17.188-11.003c-7.625,0-14.18,4.513-17.189,11.003c-2.288-0.98-4.806-1.525-7.452-1.525
			c-7.446,0-13.871,4.304-16.97,10.549c-29.052,5.399-51.055,30.861-51.055,61.477c0,34.545,28.004,62.55,62.55,62.55h60.232
			c34.545,0,62.549-28.004,62.549-62.55C273.077,286.221,251.075,260.759,222.023,255.36z"/>
	</g>
	<g>
		<path style="fill:#FFEA92;" d="M222.023,255.36c-3.1-6.246-9.524-10.549-16.97-10.549c-2.646,0-5.165,0.545-7.453,1.525
			c-3.008-6.49-9.564-11.003-17.188-11.003c-7.625,0-14.18,4.513-17.189,11.003c-2.288-0.98-4.806-1.525-7.452-1.525
			c-7.446,0-13.871,4.304-16.97,10.549c-29.052,5.399-51.055,30.861-51.055,61.477c0,34.545,28.004,62.55,62.55,62.55h60.232
			c34.545,0,62.549-28.004,62.549-62.55C273.077,286.221,251.075,260.759,222.023,255.36z"/>
	</g>
	<path style="opacity:0.1;" d="M241.782,359H181.55c-34.545,0-62.55-28.004-62.55-62.55c0-15.131,5.381-28.998,14.324-39.811
		c-26.296,7.396-45.578,31.538-45.578,60.198c0,34.545,28.004,62.55,62.55,62.55h60.232c19.423,0,36.777-8.853,48.25-22.743
		C253.371,358.167,247.675,359,241.782,359z"/>
	<g>
		<g>
			<path style="fill:#E5D07A;" d="M160.382,274.845c-1.919,0-3.839-0.732-5.304-2.197l-3.414-3.414
				c-2.929-2.929-2.928-7.678,0.001-10.606c2.929-2.929,7.678-2.929,10.606,0.001l3.414,3.415c2.929,2.929,2.928,7.678-0.001,10.606
				C164.22,274.113,162.301,274.845,160.382,274.845z"/>
		</g>
		<g>
			<path style="fill:#E5D07A;" d="M201.441,274.388c-1.919,0-3.839-0.732-5.303-2.197c-2.929-2.929-2.929-7.678,0-10.606
				l3.111-3.111c2.929-2.929,7.678-2.929,10.606,0c2.929,2.929,2.929,7.678,0,10.606l-3.111,3.111
				C205.28,273.656,203.36,274.388,201.441,274.388z"/>
		</g>
		<g>
			<path style="fill:#E5D07A;" d="M180.977,271.222c-4.142,0-7.5-3.358-7.5-7.5v-5.796c0-4.142,3.358-7.5,7.5-7.5
				c4.142,0,7.5,3.358,7.5,7.5v5.796C188.477,267.864,185.119,271.222,180.977,271.222z"/>
		</g>
	</g>
	<g>
		<path style="fill:#F2B47C;" d="M349.266,235.353c-3.1-6.245-9.524-10.549-16.97-10.549c-2.646,0-5.165,0.545-7.452,1.525
			c-3.009-6.491-9.564-11.002-17.189-11.002s-14.18,4.512-17.189,11.002c-2.287-0.98-4.805-1.525-7.452-1.525
			c-7.446,0-13.871,4.304-16.97,10.549c-29.053,5.399-51.055,30.861-51.055,61.478c0,34.544,28.004,62.549,62.55,62.549h60.232
			c34.546,0,62.55-28.005,62.55-62.549C400.32,266.213,378.317,240.752,349.266,235.353z"/>
		<path style="opacity:0.1;" d="M368.782,339H308.55c-34.545,0-62.55-28.005-62.55-62.549c0-15.091,5.353-28.923,14.254-39.724
			c-26.135,7.501-45.265,31.558-45.265,60.103c0,34.544,28.004,62.549,62.55,62.549h60.232c19.46,0,36.842-8.887,48.315-22.823
			C380.587,338.136,374.787,339,368.782,339z"/>
	</g>
	<g>
		<g>
			<path style="fill:#D89B68;" d="M287.625,254.838c-1.919,0-3.839-0.732-5.303-2.197l-3.415-3.414
				c-2.929-2.929-2.929-7.678,0-10.607c2.929-2.929,7.678-2.929,10.607,0l3.414,3.415c2.929,2.929,2.929,7.678,0,10.606
				C291.464,254.106,289.544,254.838,287.625,254.838z"/>
		</g>
		<g>
			<path style="fill:#D89B68;" d="M328.684,254.38c-1.919,0-3.839-0.732-5.303-2.197c-2.929-2.929-2.929-7.678,0-10.607l3.111-3.111
				c2.929-2.929,7.678-2.929,10.606,0c2.929,2.929,2.929,7.678,0,10.606l-3.111,3.111
				C332.522,253.648,330.603,254.38,328.684,254.38z"/>
		</g>
		<g>
			<path style="fill:#D89B68;" d="M308.219,251.214c-4.142,0-7.5-3.358-7.5-7.5v-5.796c0-4.142,3.358-7.5,7.5-7.5
				c4.142,0,7.5,3.358,7.5,7.5v5.796C315.719,247.856,312.361,251.214,308.219,251.214z"/>
		</g>
	</g>
	<path style="fill:#FFFFFF;" d="M423.194,332.375c0,6.074-4.925,10.999-11,10.999H77.806c-6.075,0-10.999-4.925-10.999-10.999v-19.8
		c0-6.075,4.925-10.999,10.999-10.999h334.388c6.075,0,11,4.924,11,10.999V332.375z"/>
	<path style="opacity:0.1;" d="M108.612,332.375v-19.8c0-6.075,4.925-10.999,10.999-10.999H77.806
		c-6.075,0-10.999,4.924-10.999,10.999v19.8c0,6.074,4.925,10.999,10.999,10.999h41.806
		C113.537,343.374,108.612,338.449,108.612,332.375z"/>
	<g>
		<g>
			<path style="fill:#FCE9C3;" d="M217.237,209.897h-25.214c-4.142,0-7.5-3.358-7.5-7.5c0-4.142,3.358-7.5,7.5-7.5h25.214
				c15.025,0,27.249-12.224,27.249-27.25c0-15.024-12.224-27.248-27.249-27.248h-25.87c-4.142,0-7.5-3.358-7.5-7.5
				c0-4.142,3.358-7.5,7.5-7.5h25.87c23.296,0,42.249,18.953,42.249,42.248C259.485,190.943,240.533,209.897,217.237,209.897z"/>
		</g>
		<g>
			<path style="fill:#F2D8A0;" d="M166.132,140.399h-30.351c-25.55,0-46.336-20.787-46.336-46.337
				c0-25.55,20.787-46.337,46.336-46.337h34.269c4.142,0,7.5,3.358,7.5,7.5c0,4.142-3.358,7.5-7.5,7.5h-34.269
				c-17.279,0-31.336,14.058-31.336,31.337c0,17.279,14.058,31.337,31.336,31.337h30.351c4.142,0,7.5,3.358,7.5,7.5
				C173.632,137.041,170.274,140.399,166.132,140.399z"/>
		</g>
	</g>
	<g>
		<g>
			<g>
				<path style="fill:#F2D8A0;" d="M332.836,77.97h-25.009c-4.142,0-7.5-3.358-7.5-7.5c0-4.142,3.358-7.5,7.5-7.5h25.009
					c13.225,0,23.985-10.76,23.985-23.985c0-13.225-10.76-23.984-23.985-23.984h-21.723c-4.142,0-7.5-3.358-7.5-7.5
					s3.358-7.5,7.5-7.5h21.723c21.496,0,38.985,17.488,38.985,38.984C371.821,60.481,354.332,77.97,332.836,77.97z"/>
			</g>
		</g>
		<g>
			<g>
				<path style="fill:#F2D8A0;" d="M243.977,110.614c-4.142,0-7.5-3.358-7.5-7.5v-6.263c0-18.682,15.199-33.881,33.88-33.881h41.108
					c4.142,0,7.5,3.358,7.5,7.5c0,4.142-3.358,7.5-7.5,7.5h-41.108c-10.411,0-18.88,8.47-18.88,18.881v6.263
					C251.477,107.256,248.12,110.614,243.977,110.614z"/>
			</g>
		</g>
	</g>
	<path style="fill:#C69C6D;" d="M444.643,471.501c0,6.075-4.925,10.999-11,10.999H56.356c-6.075,0-10.999-4.925-10.999-10.999
		V341.705c0-6.074,4.925-10.999,10.999-10.999h377.287c6.075,0,11,4.925,11,10.999V471.501z"/>
	<path style="opacity:0.1;" d="M87,471.501V341.705c0-6.074,4.925-10.999,10.999-10.999H56.356c-6.075,0-10.999,4.925-10.999,10.999
		v129.796c0,6.075,4.925,10.999,10.999,10.999H98C91.925,482.5,87,477.575,87,471.501z"/>
	<g>
		<path style="fill:#8C6239;" d="M367,441.118h-34.582c-4.142,0-7.5,3.358-7.5,7.5c0,4.142,3.358,7.5,7.5,7.5H367
			c4.142,0,7.5-3.358,7.5-7.5C374.5,444.476,371.142,441.118,367,441.118z"/>
		<path style="fill:#8C6239;" d="M154.967,372.087h35.013c4.142,0,7.5-3.358,7.5-7.5c0-4.142-3.358-7.5-7.5-7.5h-35.013
			c-4.142,0-7.5,3.358-7.5,7.5C147.467,368.73,150.825,372.087,154.967,372.087z"/>
		<path style="fill:#8C6239;" d="M133.389,372.087c4.142,0,7.5-3.358,7.5-7.5c0-4.142-3.358-7.5-7.5-7.5H45.357v15H133.389z"/>
		<path style="fill:#8C6239;" d="M99.946,400.098c4.142,0,7.5-3.358,7.5-7.5c0-4.142-3.358-7.5-7.5-7.5H45.357v15H99.946z"/>
		<path style="fill:#8C6239;" d="M133.389,428.108c4.142,0,7.5-3.358,7.5-7.5s-3.358-7.5-7.5-7.5H45.357v15H133.389z"/>
		<path style="fill:#8C6239;" d="M305,456.118c4.142,0,7.5-3.358,7.5-7.5c0-4.142-3.358-7.5-7.5-7.5H45.357v15H305z"/>
		<path style="fill:#8C6239;" d="M444.643,455.63v-14.023c-0.823-0.31-1.711-0.488-2.643-0.488h-53c-4.142,0-7.5,3.358-7.5,7.5
			c0,4.142,3.358,7.5,7.5,7.5h53C442.932,456.118,443.82,455.94,444.643,455.63z"/>
	</g>
	<path d="M444.643,368.5c4.142,0,7.5-3.358,7.5-7.5v-19.295c0-10.2-8.299-18.499-18.5-18.499h-2.95v-10.631
		c0-10.201-8.299-18.499-18.5-18.499h-4.433c-1.223-31.393-23.25-58.146-53.732-65.379c-4.899-7.11-12.925-11.393-21.734-11.393
		c-1.39,0-2.765,0.106-4.119,0.319c-4.958-6.093-12.484-9.796-20.522-9.796s-15.564,3.703-20.522,9.796
		c-1.354-0.212-2.728-0.319-4.118-0.319c-8.809,0-16.835,4.283-21.734,11.393c-13.553,3.216-25.43,10.296-34.556,19.922
		c-4.904-7.058-12.899-11.308-21.671-11.308c-1.39,0-2.765,0.106-4.119,0.319c-4.958-6.093-12.484-9.796-20.522-9.796
		s-15.564,3.704-20.522,9.796c-1.354-0.212-2.728-0.319-4.118-0.319c-8.809,0-16.836,4.283-21.734,11.393
		c-23.732,5.63-42.332,23.098-49.986,45.372h-6.245c-10.201,0-18.499,8.299-18.499,18.499v10.631h-2.95
		c-10.201,0-18.499,8.299-18.499,18.499v129.796c0,10.201,8.299,18.499,18.499,18.499h377.287c10.201,0,18.5-8.299,18.5-18.499V393
		c0-4.142-3.358-7.5-7.5-7.5s-7.5,3.358-7.5,7.5v78.501c0,1.93-1.57,3.499-3.5,3.499H56.356c-1.93,0-3.5-1.57-3.5-3.499V341.705
		c0-1.929,1.57-3.499,3.5-3.499h377.287c1.93,0,3.5,1.57,3.5,3.499V361C437.143,365.142,440.501,368.5,444.643,368.5z
		 M267.415,242.726c2.318-0.431,4.299-1.927,5.348-4.04c1.954-3.938,5.882-6.383,10.252-6.383c1.561,0,3.074,0.309,4.498,0.919
		c3.729,1.597,8.052-0.059,9.758-3.74c1.875-4.044,5.95-6.657,10.384-6.657s8.51,2.613,10.384,6.657
		c1.707,3.681,6.031,5.336,9.758,3.74c1.424-0.61,2.938-0.919,4.499-0.919c4.37,0,8.298,2.446,10.252,6.384
		c1.049,2.112,3.029,3.608,5.348,4.039c25.125,4.67,43.595,26.03,44.852,51.349H222.563
		C223.819,268.756,242.29,247.396,267.415,242.726z M415.694,323.206H74.306v-10.631c0-1.93,1.57-3.499,3.499-3.499H109
		c4.142,0,7.5-3.358,7.5-7.5c0-4.142-3.358-7.5-7.5-7.5h-8.817c7.242-15.938,21.882-27.977,39.988-31.342
		c2.319-0.431,4.3-1.927,5.348-4.04c1.954-3.938,5.882-6.383,10.252-6.383c1.561,0,3.075,0.309,4.499,0.919
		c3.728,1.597,8.052-0.059,9.758-3.74c1.874-4.044,5.95-6.657,10.384-6.657s8.509,2.613,10.384,6.657
		c1.706,3.68,6.028,5.337,9.757,3.74c1.425-0.61,2.939-0.919,4.5-0.919c4.369,0,8.298,2.446,10.253,6.384
		c0.477,0.962,1.155,1.787,1.963,2.451c-5.787,9.767-9.256,21.011-9.72,32.93H145c-4.142,0-7.5,3.358-7.5,7.5
		c0,4.142,3.358,7.5,7.5,7.5h267.194c1.93,0,3.5,1.57,3.5,3.499V323.206z"/>
</g>
<g>
</g>
<g>
</g>
<g>
</g>
<g>
</g>
<g>
</g>
<g>
</g>
<g>
</g>
<g>
</g>
<g>
</g>
<g>
</g>
<g>
</g>
<g>
</g>
<g>
</g>
<g>
</g>
<g>
</g>
</svg>
