<?xml version="1.0" encoding="iso-8859-1"?>
<!-- Generator: Adobe Illustrator 19.0.0, SVG Export Plug-In . SVG Version: 6.00 Build 0)  -->
<svg version="1.1" id="Layer_1" xmlns="http://www.w3.org/2000/svg" xmlns:xlink="http://www.w3.org/1999/xlink" x="0px" y="0px"
	 viewBox="0 0 490 490" style="enable-background:new 0 0 490 490;" xml:space="preserve">
<g>
	<path style="fill:#DDB690;" d="M71.152,447.079c-29.92,0-55.974-21.266-61.947-50.565c-0.633-3.099,0.162-6.318,2.163-8.768
		c2.001-2.448,4.997-3.87,8.16-3.87h450.942c3.164,0,6.159,1.422,8.16,3.87c2.002,2.45,2.796,5.668,2.164,8.767
		c-5.973,29.3-32.025,50.566-61.947,50.566H71.152z"/>
	<path style="opacity:0.1;" d="M51.197,396.514c-0.633-3.099,0.162-6.318,2.163-8.768c2.001-2.448,4.997-3.87,8.16-3.87H19.528
		c-3.163,0-6.159,1.422-8.16,3.87c-2.001,2.45-2.796,5.669-2.163,8.768c5.974,29.299,32.027,50.565,61.947,50.565h41.992
		C83.224,447.079,57.171,425.813,51.197,396.514z"/>
	<g>
		<path style="fill:#E8A364;" d="M203.761,334.012c0,11.523-9.343,20.863-20.868,20.863H35.823
			c-11.525,0-20.868-9.341-20.868-20.863l0,0c0-11.522,9.343-20.863,20.868-20.863h147.07
			C194.418,313.149,203.761,322.489,203.761,334.012L203.761,334.012z"/>
		<path style="opacity:0.1;" d="M56.194,334.012c0-11.522,9.343-20.863,20.868-20.863H35.823c-11.525,0-20.868,9.34-20.868,20.863
			c0,11.523,9.343,20.863,20.868,20.863h41.239C65.537,354.875,56.194,345.534,56.194,334.012z"/>
	</g>
	<path style="fill:#E8A364;" d="M475.045,334.012c0,11.523-9.343,20.863-20.867,20.863h-147.07
		c-11.525,0-20.868-9.341-20.868-20.863l0,0c0-11.522,9.343-20.863,20.868-20.863h147.07
		C465.702,313.149,475.045,322.489,475.045,334.012L475.045,334.012z"/>
	<path style="fill:#C14616;" d="M482.5,299.549c0,8.265-6.702,14.964-14.968,14.964H22.469c-8.267,0-14.969-6.7-14.969-14.964l0,0
		c0-8.265,6.702-14.965,14.969-14.965h445.063C475.798,284.585,482.5,291.284,482.5,299.549L482.5,299.549z"/>
	<path style="fill:#E8A364;" d="M339.403,334.012c0,11.523-9.344,20.863-20.868,20.863h-147.07
		c-11.525,0-20.868-9.341-20.868-20.863l0,0c0-11.522,9.343-20.863,20.868-20.863h147.07
		C330.06,313.149,339.403,322.489,339.403,334.012L339.403,334.012z"/>
	<path style="fill:#B27419;" d="M459.315,257.108c0,8.014-6.498,14.51-14.514,14.51H45.198c-8.016,0-14.514-6.496-14.514-14.51
		v-29.988c0-8.013,6.498-14.51,14.514-14.51h399.604c8.016,0,14.514,6.497,14.514,14.51V257.108z"/>
	<path style="opacity:0.1;" d="M72.369,257.108v-29.988c0-8.013,6.498-14.51,14.514-14.51H45.198
		c-8.016,0-14.514,6.497-14.514,14.51v29.988c0,8.014,6.498,14.51,14.514,14.51h41.685
		C78.867,271.618,72.369,265.122,72.369,257.108z"/>
	<path style="fill:#61D16B;" d="M463.992,289.768c2.575-3.375,4.122-7.577,4.122-12.149c0-11.084-8.987-20.069-20.073-20.069
		c-5.32,0-10.142,2.084-13.734,5.461c-3.594-3.377-8.416-5.461-13.735-5.461c-5.319,0-10.142,2.084-13.734,5.461
		c-3.593-3.377-8.415-5.461-13.735-5.461c-5.32,0-10.143,2.084-13.734,5.461c-3.593-3.377-8.416-5.461-13.735-5.461
		c-5.319,0-10.142,2.084-13.734,5.461c-3.593-3.377-8.415-5.461-13.734-5.461c-5.32,0-10.144,2.084-13.735,5.461
		c-3.593-3.377-8.415-5.461-13.734-5.461c-5.32,0-10.143,2.084-13.734,5.461c-3.593-3.377-8.416-5.461-13.736-5.461
		c-5.319,0-10.142,2.084-13.734,5.461c-3.592-3.377-8.415-5.461-13.735-5.461c-5.318,0-10.142,2.084-13.734,5.461
		c-3.591-3.377-8.414-5.461-13.734-5.461c-5.32,0-10.142,2.084-13.735,5.461c-3.591-3.377-8.415-5.461-13.734-5.461
		c-5.32,0-10.142,2.084-13.734,5.461c-3.591-3.377-8.415-5.461-13.735-5.461c-5.32,0-10.142,2.084-13.734,5.461
		c-3.592-3.377-8.416-5.461-13.735-5.461c-5.319,0-10.142,2.084-13.734,5.461c-3.592-3.377-8.414-5.461-13.734-5.461
		c-5.32,0-10.143,2.084-13.735,5.461c-3.592-3.377-8.415-5.461-13.735-5.461c-5.32,0-10.142,2.084-13.734,5.461
		c-3.591-3.377-8.416-5.461-13.735-5.461s-10.142,2.084-13.734,5.461c-3.591-3.377-8.416-5.461-13.735-5.461
		c-11.086,0-20.073,8.986-20.073,20.069c0,4.573,1.547,8.774,4.124,12.149H463.992z"/>
	<ellipse style="fill:#FFEA92;" cx="245" cy="77.196" rx="34.283" ry="34.275"/>
	<path style="opacity:0.1;" d="M231.434,77.196c0-15.319,10.055-28.288,23.925-32.679c-3.269-1.035-6.747-1.596-10.358-1.596
		c-18.934,0-34.283,15.346-34.283,34.275c0,18.93,15.349,34.275,34.283,34.275c3.611,0,7.09-0.562,10.358-1.596
		C241.488,105.484,231.434,92.516,231.434,77.196z"/>
	<g>
		<path style="fill:#2E7C35;" d="M245,93.054c-8.746,0-15.862-7.114-15.862-15.858c0-8.744,7.116-15.858,15.862-15.858
			c8.746,0,15.861,7.114,15.861,15.858c0,2.986-2.42,5.406-5.407,5.406c-2.987,0-5.407-2.42-5.407-5.406
			c0-2.782-2.265-5.046-5.047-5.046c-2.783,0-5.047,2.264-5.047,5.046c0,2.782,2.264,5.045,5.047,5.045
			c2.986,0,5.407,2.421,5.407,5.406C250.407,90.634,247.986,93.054,245,93.054z"/>
	</g>
	<path style="fill:#DDB690;" d="M448.989,163.413c-14.288-14.114-33.218-21.886-53.304-21.886h-34.808
		c-9.703,0-19.131,1.83-27.901,5.296c-8.77-3.466-18.197-5.296-27.9-5.296h-34.81c-9.703,0-19.13,1.83-27.901,5.296
		c-8.77-3.466-18.198-5.296-27.901-5.296h-34.809c-9.704,0-19.13,1.83-27.901,5.296c-8.771-3.466-18.198-5.296-27.901-5.296H89.045
		c-20.087,0-39.018,7.772-53.304,21.886c-14.271,14.099-22.275,32.903-22.538,52.952c-0.031,2.386,0.896,4.686,2.572,6.385
		c1.678,1.7,3.965,2.655,6.353,2.655h440.475c2.387,0,4.675-0.956,6.353-2.655c1.677-1.699,2.603-3.999,2.571-6.385
		C471.265,196.316,463.26,177.512,448.989,163.413z"/>
	<path style="opacity:0.1;" d="M44.434,216.365c0.263-20.048,8.267-38.853,22.538-52.952c14.286-14.114,33.217-21.886,53.304-21.886
		h-31.23c-20.087,0-39.018,7.772-53.304,21.886c-14.271,14.099-22.275,32.903-22.538,52.952c-0.031,2.386,0.896,4.686,2.572,6.385
		c1.678,1.7,3.965,2.655,6.353,2.655h31.23c-2.388,0-4.675-0.956-6.353-2.655C45.329,221.051,44.402,218.751,44.434,216.365z"/>
	<g>
		<g>
			<g>
				<path style="fill:#B28A6B;" d="M106.34,180.148H93.179c-4.116,0-7.453-3.336-7.453-7.451c0-4.115,3.337-7.451,7.453-7.451
					h13.161c4.116,0,7.453,3.336,7.453,7.451C113.792,176.812,110.456,180.148,106.34,180.148z"/>
			</g>
			<g>
				<path style="fill:#B28A6B;" d="M75.317,201.01H62.156c-4.116,0-7.453-3.336-7.453-7.451c0-4.115,3.336-7.451,7.453-7.451h13.161
					c4.116,0,7.453,3.336,7.453,7.451C82.77,197.674,79.433,201.01,75.317,201.01z"/>
			</g>
			<g>
				<path style="fill:#B28A6B;" d="M138.303,201.01h-13.162c-4.116,0-7.453-3.336-7.453-7.451c0-4.115,3.337-7.451,7.453-7.451
					h13.162c4.116,0,7.453,3.336,7.453,7.451C145.755,197.674,142.419,201.01,138.303,201.01z"/>
			</g>
		</g>
		<g>
			<g>
				<path style="fill:#B28A6B;" d="M213.508,180.148h-13.161c-4.116,0-7.453-3.336-7.453-7.451c0-4.115,3.337-7.451,7.453-7.451
					h13.161c4.116,0,7.453,3.336,7.453,7.451C220.96,176.812,217.624,180.148,213.508,180.148z"/>
			</g>
			<g>
				<path style="fill:#B28A6B;" d="M182.485,201.01h-13.161c-4.116,0-7.453-3.336-7.453-7.451c0-4.115,3.336-7.451,7.453-7.451
					h13.161c4.116,0,7.453,3.336,7.453,7.451C189.938,197.674,186.601,201.01,182.485,201.01z"/>
			</g>
			<g>
				<path style="fill:#B28A6B;" d="M245.471,201.01h-13.162c-4.116,0-7.453-3.336-7.453-7.451c0-4.115,3.337-7.451,7.453-7.451
					h13.162c4.116,0,7.453,3.336,7.453,7.451C252.924,197.674,249.587,201.01,245.471,201.01z"/>
			</g>
		</g>
		<g>
			<g>
				<path style="fill:#B28A6B;" d="M320.676,180.148h-13.161c-4.116,0-7.453-3.336-7.453-7.451c0-4.115,3.337-7.451,7.453-7.451
					h13.161c4.116,0,7.453,3.336,7.453,7.451C328.129,176.812,324.792,180.148,320.676,180.148z"/>
			</g>
			<g>
				<path style="fill:#B28A6B;" d="M289.653,201.01h-13.161c-4.116,0-7.453-3.336-7.453-7.451c0-4.115,3.337-7.451,7.453-7.451
					h13.161c4.116,0,7.453,3.336,7.453,7.451C297.106,197.674,293.77,201.01,289.653,201.01z"/>
			</g>
			<g>
				<path style="fill:#B28A6B;" d="M352.638,201.01h-13.161c-4.116,0-7.453-3.336-7.453-7.451c0-4.115,3.337-7.451,7.453-7.451
					h13.161c4.116,0,7.453,3.336,7.453,7.451C360.091,197.674,356.754,201.01,352.638,201.01z"/>
			</g>
		</g>
		<g>
			<g>
				<path style="fill:#B28A6B;" d="M427.844,180.148h-13.161c-4.116,0-7.452-3.336-7.452-7.451c0-4.115,3.336-7.451,7.452-7.451
					h13.161c4.116,0,7.453,3.336,7.453,7.451C435.297,176.812,431.96,180.148,427.844,180.148z"/>
			</g>
			<g>
				<path style="fill:#B28A6B;" d="M396.821,201.01H383.66c-4.116,0-7.453-3.336-7.453-7.451c0-4.115,3.337-7.451,7.453-7.451
					h13.161c4.116,0,7.452,3.336,7.452,7.451C404.273,197.674,400.938,201.01,396.821,201.01z"/>
			</g>
		</g>
	</g>
	<path style="opacity:0.1;" d="M48,299.549c0-8.265,6.702-14.965,14.969-14.965h-40.5c-8.267,0-14.969,6.7-14.969,14.965
		c0,8.265,6.702,14.964,14.969,14.964h40.5C54.702,314.514,48,307.814,48,299.549z"/>
	<path style="fill:#FFE060;" d="M395.586,419.642c-2.636,0-5.163-1.047-7.027-2.91l-32.841-32.834H30.854
		c-8.219,0-14.906-6.685-14.906-14.902c0-8.217,6.688-14.902,14.906-14.902h428.291c8.22,0,14.906,6.685,14.906,14.902
		c0,8.217-6.687,14.902-14.906,14.902h-23.691l-32.842,32.834C400.748,418.595,398.222,419.642,395.586,419.642z"/>
	<g style="opacity:0.1;">
		<path d="M47,368.995c0-8.217,6.687-14.902,14.906-14.902H30.854c-8.219,0-14.906,6.685-14.906,14.902
			c0,8.217,6.688,14.902,14.906,14.902h31.052C53.687,383.897,47,377.212,47,368.995z"/>
	</g>
</g>
<path d="M479.327,378.721c1.425-2.943,2.225-6.243,2.225-9.726c0-6.155-2.497-11.737-6.529-15.79
	c4.662-5.054,7.522-11.792,7.522-19.193c0-5.417-1.536-10.478-4.184-14.787c6.932-3.83,11.639-11.212,11.639-19.675
	c0-9.554-5.998-17.728-14.424-20.97c0.011-0.321,0.038-0.638,0.038-0.96c0-7.96-3.395-15.138-8.809-20.175
	c0.002-0.112,0.01-0.223,0.01-0.335v-24.779c2.81-0.751,5.417-2.223,7.478-4.311c3.066-3.107,4.792-7.391,4.732-11.751
	c-0.287-22.03-9.082-42.695-24.766-58.189c-15.7-15.509-36.502-24.05-58.574-24.05h-34.808c-9.646,0-19.043,1.641-27.881,4.773
	c-8.85-3.139-18.264-4.773-27.921-4.773h-34.81c-6.045,0-11.992,0.646-17.766,1.898V118.29c4.187-0.763,8.25-2.157,12.006-4.142
	c3.661-1.936,5.06-6.474,3.124-10.136c-1.936-3.66-6.471-5.061-10.136-3.124c-3.871,2.047-8.075,3.085-12.494,3.085
	c-14.768,0-26.783-12.011-26.783-26.775c0-14.764,12.015-26.775,26.783-26.775c12.99,0,23.846,9.294,26.272,21.579
	c0.333,1.682,0.511,3.419,0.511,5.196c0,4.142,3.357,7.5,7.5,7.5s7.5-3.358,7.5-7.5c0-1.761-0.122-3.492-0.335-5.196
	C283.88,51.41,266.278,35.421,245,35.421c-23.04,0-41.783,18.74-41.783,41.775c0,20.475,14.813,37.543,34.283,41.088v18.973
	c-7.401-2.117-15.134-3.23-23.036-3.23h-34.809c-9.645,0-19.041,1.642-27.88,4.773c-8.85-3.138-18.265-4.773-27.922-4.773H89.045
	c-22.075,0-42.877,8.542-58.575,24.05C14.789,173.57,5.993,194.235,5.704,216.267c-0.057,4.362,1.668,8.645,4.733,11.751
	c3.065,3.105,7.327,4.887,11.691,4.887h1.057v20.313c-8.768,4.621-14.761,13.822-14.761,24.401c0,1.406,0.117,2.792,0.328,4.157
	C3.434,285.888,0,292.323,0,299.549c0,8.463,4.706,15.845,11.639,19.675c-2.648,4.309-4.184,9.37-4.184,14.788
	c0,7.402,2.861,14.14,7.522,19.193c-4.032,4.053-6.529,9.635-6.529,15.79c0,3.483,0.8,6.783,2.224,9.726
	c-1.926,1.088-3.67,2.516-5.113,4.281c-3.441,4.213-4.79,9.685-3.703,15.011c6.683,32.777,35.826,56.566,69.296,56.566H113
	c4.142,0,7.5-3.358,7.5-7.5c0-4.142-3.358-7.5-7.5-7.5H71.152c-26.372,0-49.334-18.742-54.599-44.565
	c-0.378-1.851,1.088-3.638,2.975-3.638l333.083,0.022l30.646,30.639c3.294,3.292,7.673,5.105,12.329,5.105
	c4.656,0,9.034-1.813,12.329-5.106l30.645-30.638l31.91-0.022c1.888,0,3.353,1.788,2.976,3.639
	c-5.264,25.822-28.226,44.564-54.599,44.564H150c-4.142,0-7.5,3.358-7.5,7.5c0,4.142,3.358,7.5,7.5,7.5h268.848
	c33.472,0,62.614-23.79,69.296-56.568c1.087-5.328-0.264-10.799-3.705-15.011C482.996,381.236,481.253,379.809,479.327,378.721
	C480.752,375.778,481.253,379.809,479.327,378.721C480.752,375.778,481.253,379.809,479.327,378.721z M22.128,217.905
	c-0.385,0-0.746-0.15-1.015-0.423c-0.266-0.27-0.416-0.641-0.411-1.018c0.237-18.065,7.45-35.01,20.31-47.715
	c12.872-12.717,29.931-19.721,48.033-19.721h34.808c18.101,0,35.16,7.004,48.033,19.721c2.948,2.911,7.695,2.881,10.606-0.064
	c2.911-2.947,2.882-7.695-0.064-10.606c-3.219-3.18-6.663-6.05-10.278-8.631c2.476-0.273,4.979-0.42,7.506-0.42h34.809
	c18.101,0,35.159,7.004,48.033,19.721c2.944,2.91,7.694,2.881,10.606-0.064c2.91-2.947,2.882-7.696-0.065-10.606
	c-3.219-3.18-6.663-6.05-10.278-8.631c2.477-0.273,4.98-0.42,7.506-0.42h34.81c18.101,0,35.158,7.004,48.032,19.721
	c2.944,2.91,7.693,2.881,10.607-0.064c2.91-2.947,2.882-7.695-0.065-10.606c-3.219-3.18-6.663-6.05-10.278-8.631
	c2.477-0.273,4.98-0.42,7.507-0.42h34.808c18.1,0,35.158,7.004,48.032,19.721c12.861,12.706,20.073,29.651,20.31,47.717
	c0.005,0.376-0.145,0.746-0.41,1.015c-0.266,0.27-0.636,0.424-1.015,0.424H22.128z M44.594,268.474
	c2.887,2.715,7.388,2.715,10.275,0.001c2.35-2.209,5.402-3.425,8.597-3.425c3.196,0,6.249,1.216,8.597,3.424
	c2.887,2.715,7.387,2.715,10.275,0.001c2.35-2.209,5.403-3.425,8.597-3.425c3.195,0,6.249,1.216,8.597,3.425
	c2.887,2.714,7.388,2.715,10.275,0.001c2.35-2.209,5.403-3.425,8.598-3.425c3.195,0,6.248,1.216,8.597,3.425
	c2.887,2.714,7.388,2.715,10.275,0.001c2.35-2.209,5.402-3.425,8.597-3.425c3.195,0,6.249,1.216,8.598,3.425
	c2.887,2.714,7.388,2.715,10.275,0.001c2.35-2.209,5.402-3.425,8.597-3.425c3.196,0,6.249,1.216,8.597,3.424
	c2.886,2.715,7.387,2.715,10.275,0.001c2.35-2.209,5.403-3.425,8.597-3.425c3.195,0,6.248,1.216,8.596,3.424
	c2.887,2.715,7.387,2.715,10.274,0.002c2.351-2.209,5.405-3.426,8.599-3.426c3.195,0,6.248,1.216,8.596,3.424
	c2.886,2.715,7.388,2.715,10.275,0.001c2.35-2.209,5.403-3.425,8.598-3.425c3.195,0,6.249,1.216,8.598,3.425
	c2.887,2.715,7.388,2.714,10.274,0.001c2.35-2.209,5.403-3.425,8.598-3.425c3.195,0,6.25,1.216,8.6,3.425
	c2.887,2.715,7.388,2.714,10.274-0.001c2.349-2.208,5.401-3.425,8.597-3.425c3.194,0,6.248,1.216,8.598,3.425
	c2.887,2.715,7.388,2.714,10.274-0.001c2.349-2.208,5.402-3.425,8.598-3.425c3.194,0,6.248,1.216,8.598,3.425
	c2.887,2.714,7.387,2.714,10.273,0c2.35-2.209,5.403-3.425,8.598-3.425c3.195,0,6.249,1.216,8.599,3.425
	c2.887,2.715,7.388,2.714,10.274-0.001c2.349-2.208,5.401-3.425,8.597-3.425c3.195,0,6.249,1.216,8.599,3.425
	c2.887,2.714,7.387,2.714,10.273,0c2.35-2.209,5.403-3.425,8.598-3.425c3.194,0,6.248,1.217,8.599,3.426
	c2.889,2.713,7.387,2.713,10.273-0.001c2.35-2.209,5.403-3.425,8.598-3.425c6.752,0,12.264,5.353,12.546,12.035H23.45
	c0.283-6.682,5.793-12.035,12.546-12.035C39.192,265.049,42.246,266.266,44.594,268.474z M38.185,250.145v-17.241h413.631v17.409
	c-1.235-0.169-2.493-0.265-3.774-0.265c-4.871,0-9.587,1.28-13.734,3.675c-4.148-2.396-8.864-3.675-13.735-3.675
	c-4.871,0-9.587,1.279-13.734,3.675c-4.147-2.396-8.863-3.675-13.735-3.675c-4.872,0-9.588,1.279-13.734,3.675
	c-4.148-2.396-8.863-3.675-13.735-3.675c-4.871,0-9.587,1.279-13.734,3.675c-4.147-2.396-8.863-3.675-13.734-3.675
	c-4.872,0-9.588,1.279-13.735,3.675c-4.148-2.396-8.863-3.675-13.734-3.675c-4.872,0-9.588,1.279-13.734,3.675
	c-4.149-2.396-8.864-3.675-13.736-3.675c-4.871,0-9.587,1.279-13.734,3.675c-4.147-2.396-8.863-3.675-13.735-3.675
	c-4.871,0-9.586,1.279-13.734,3.675c-4.147-2.396-8.862-3.675-13.735-3.675c-4.871,0-9.586,1.279-13.734,3.675
	c-4.147-2.396-8.863-3.675-13.735-3.675c-4.872,0-9.586,1.279-13.734,3.675c-4.148-2.396-8.863-3.675-13.736-3.675
	c-4.872,0-9.587,1.28-13.734,3.675c-4.148-2.396-8.863-3.675-13.735-3.675c-4.872,0-9.587,1.279-13.734,3.675
	c-4.147-2.396-8.862-3.675-13.734-3.675c-4.872,0-9.588,1.279-13.735,3.675c-4.147-2.396-8.863-3.675-13.735-3.675
	c-4.872,0-9.586,1.279-13.734,3.675c-4.147-2.396-8.863-3.675-13.736-3.675c-4.872,0-9.587,1.279-13.734,3.675
	C46.209,251.689,42.275,250.47,38.185,250.145z M146.051,346.593H31.361c-5.181-1.842-8.907-6.779-8.907-12.582
	c0-7.368,5.997-13.363,13.368-13.363H146.46c-2.141,3.984-3.363,8.532-3.363,13.363
	C143.097,338.529,144.164,342.799,146.051,346.593z M459.146,376.397h-23.691c-1.989,0-3.897,0.79-5.303,2.196l-32.841,32.833
	c-0.922,0.922-2.529,0.92-3.449,0.001l-32.841-32.834c-1.406-1.406-3.314-2.196-5.303-2.196H30.854
	c-4.084,0-7.406-3.321-7.406-7.402c0-4.081,3.322-7.402,7.406-7.402h428.291c4.084,0,7.406,3.32,7.406,7.402
	C466.552,373.077,463.229,376.397,459.146,376.397z M158.097,334.012c0-7.368,5.997-13.363,13.368-13.363h147.07
	c7.371,0,13.368,5.995,13.368,13.363c0,5.803-3.726,10.74-8.906,12.582H167.003C161.823,344.751,158.097,339.814,158.097,334.012z
	 M458.64,346.593h-114.69c1.887-3.794,2.954-8.064,2.954-12.582c0-4.831-1.222-9.379-3.363-13.363h110.638
	c7.371,0,13.367,5.995,13.367,13.363C467.545,339.814,463.819,344.751,458.64,346.593z M467.532,307.014H22.469
	c-4.118,0-7.469-3.349-7.469-7.464c0-4.116,3.351-7.465,7.469-7.465h445.063c4.118,0,7.468,3.349,7.468,7.465
	C475,303.665,471.65,307.014,467.532,307.014z"/>
<g>
</g>
<g>
</g>
<g>
</g>
<g>
</g>
<g>
</g>
<g>
</g>
<g>
</g>
<g>
</g>
<g>
</g>
<g>
</g>
<g>
</g>
<g>
</g>
<g>
</g>
<g>
</g>
<g>
</g>
</svg>
