<?xml version="1.0" encoding="iso-8859-1"?>
<!-- Generator: Adobe Illustrator 19.0.0, SVG Export Plug-In . SVG Version: 6.00 Build 0)  -->
<svg version="1.1" id="Layer_1" xmlns="http://www.w3.org/2000/svg" xmlns:xlink="http://www.w3.org/1999/xlink" x="0px" y="0px"
	 viewBox="0 0 490 490" style="enable-background:new 0 0 490 490;" xml:space="preserve">
<g>
	<path style="fill:#FFEA33;" d="M323.889,282.469c-5.242-5.243-5.244-13.744,0-18.989l45.891-45.891
		c5.246-5.243,13.746-5.243,18.99,0l0,0c5.245,5.244,5.245,13.747,0.001,18.989l-45.891,45.891
		C337.636,287.713,329.135,287.713,323.889,282.469L323.889,282.469z"/>
	<circle style="fill:#F96300;" cx="388.787" cy="272.415" r="30.771"/>
	<path style="fill:#7CB56B;" d="M446.903,282.144c1.771,1.772,2.867,4.219,2.867,6.922v63.635c0,3.96-2.385,7.53-6.043,9.044
		c-3.658,1.517-7.87,0.678-10.67-2.121l-63.634-63.635c-2.8-2.8-3.639-7.012-2.122-10.669c1.515-3.658,5.083-6.044,9.044-6.043
		h63.635C442.684,279.276,445.132,280.372,446.903,282.144z"/>
	<path style="fill:#FFEA33;" d="M290.877,194.647c0,7.416-6.012,13.428-13.427,13.428h-64.9c-7.415,0-13.428-6.012-13.428-13.428
		l0,0c0-7.416,6.013-13.427,13.428-13.427h64.9C284.865,181.219,290.877,187.231,290.877,194.647L290.877,194.647z"/>
	<path style="fill:#7CB56B;" d="M347.603,203.1c2.348,0.876,4.361,2.648,5.483,5.106l26.424,57.89
		c1.644,3.602,0.957,7.839-1.742,10.737c-2.698,2.898-6.878,3.884-10.587,2.501l-84.314-31.467c-3.708-1.384-6.22-4.867-6.359-8.825
		c-0.141-3.957,2.114-7.609,5.719-9.254l57.89-26.423C342.575,202.243,345.257,202.224,347.603,203.1z"/>
	<path style="fill:#FFEE60;" d="M250.595,220.383c0,7.415-6.013,13.427-13.428,13.427h-64.899c-7.416,0-13.428-6.012-13.428-13.427
		l0,0c0-7.416,6.012-13.428,13.428-13.428h64.899C244.582,206.955,250.595,212.967,250.595,220.383L250.595,220.383z"/>
	<path style="fill:#7CB56B;" d="M34.315,293.334c-1.771,1.772-2.867,4.219-2.867,6.922v63.635c0,3.96,2.385,7.53,6.043,9.045
		c3.658,1.516,7.87,0.677,10.67-2.122l63.634-63.635c2.8-2.799,3.639-7.011,2.122-10.669c-1.515-3.658-5.083-6.044-9.044-6.044
		H41.238C38.535,290.465,36.087,291.562,34.315,293.334z"/>
	<path style="fill:#FFE060;" d="M156.026,293.672c-5.243,5.243-13.745,5.244-18.99,0l-45.891-45.891
		c-5.243-5.245-5.243-13.746,0-18.99l0,0c5.244-5.245,13.747-5.245,18.99,0l45.891,45.891
		C161.27,279.926,161.27,288.428,156.026,293.672L156.026,293.672z"/>
	<circle style="fill:#E23B3B;" cx="39.391" cy="367.527" r="17.903"/>
	<circle style="fill:#E23B3B;" cx="33.236" cy="420.677" r="16.785"/>
	<circle style="fill:#E23B3B;" cx="456.764" cy="420.677" r="16.784"/>
	<circle style="fill:#E23B3B;" cx="450.609" cy="367.527" r="17.903"/>
	<path style="fill:#F96300;" d="M335.801,83.176c0.831-0.831,2.18-0.831,3.012,0c13.365,13.366,13.365,35.114,0,48.48
		c-13.365,13.365-35.114,13.365-48.479,0c-0.831-0.832-0.832-2.18,0-3.012L335.801,83.176z"/>
	<circle style="fill:#C14616;" cx="168.91" cy="133.104" r="17.903"/>
	<circle style="fill:#C14616;" cx="388" cy="162" r="13.847"/>
	<circle style="fill:#C14616;" cx="266.26" cy="59.252" r="17.904"/>
	<path style="fill:#FFBE60;" d="M316.613,220.383c0,7.416-6.012,13.428-13.428,13.428h-64.899c-7.415,0-13.428-6.012-13.428-13.428
		l0,0c0-7.416,6.013-13.428,13.428-13.428h64.899C310.602,206.955,316.613,212.967,316.613,220.383L316.613,220.383z"/>
	<circle style="fill:#F96300;" cx="92.432" cy="283.605" r="30.771"/>
	<path style="fill:#7CB56B;" d="M133.615,214.29c-2.348,0.876-4.361,2.648-5.483,5.106l-26.424,57.89
		c-1.644,3.602-0.957,7.839,1.742,10.736c2.698,2.899,6.878,3.884,10.587,2.501l84.313-31.466c3.709-1.385,6.221-4.867,6.36-8.825
		c0.141-3.957-2.114-7.609-5.719-9.254l-57.89-26.423C138.644,213.433,135.962,213.413,133.615,214.29z"/>
	<path d="M148.427,277.689l2.296,2.296c2.311,2.311,2.311,6.073,0,8.384c-1.119,1.119-2.607,1.736-4.191,1.736
		c-1.584,0-3.073-0.617-4.192-1.736l-6.123-6.123l-15.448,5.765l10.965,10.965c3.953,3.952,9.209,6.128,14.799,6.128
		c5.59,0,10.845-2.177,14.798-6.13c7.324-7.326,8.051-18.763,2.225-26.932L148.427,277.689z"/>
	<circle style="fill:#F96300;" cx="462.918" cy="395.501" r="19.582"/>
	<circle style="fill:#F96300;" cx="27.082" cy="395.501" r="19.582"/>
	<path style="fill:#FFE060;" d="M57.439,448.651c-9.661,0-17.522-7.86-17.522-17.521v-29.273
		c0-95.746,77.895-173.642,173.642-173.642h62.883c95.747,0,173.642,77.896,173.642,173.642v29.273
		c0,9.661-7.861,17.521-17.523,17.521H57.439z"/>
	<path style="opacity:0.1;" d="M81.834,431.13v-29.273c0-95.746,77.895-173.642,173.642-173.642h-41.917
		c-95.747,0-173.642,77.896-173.642,173.642v29.273c0,9.661,7.861,17.521,17.522,17.521h41.917
		C89.695,448.651,81.834,440.791,81.834,431.13z"/>
	<g>
		<path d="M285.029,136.959c7.881,7.881,18.373,12.221,29.544,12.221c11.17,0,21.662-4.34,29.543-12.221
			c16.289-16.29,16.289-42.795-0.004-59.089c-1.818-1.816-4.235-2.816-6.806-2.816c-2.571,0-4.989,1.001-6.81,2.82l-45.466,45.466
			C281.275,127.092,281.274,133.202,285.029,136.959z M336.924,92.66c6.865,10.392,5.727,24.551-3.415,33.693
			c-5.047,5.047-11.772,7.827-18.936,7.827c-5.334,0-10.424-1.54-14.759-4.41L336.924,92.66z"/>
		<path d="M168.91,158.507c14.008,0,25.403-11.396,25.403-25.403S182.918,107.7,168.91,107.7c-14.008,0-25.403,11.396-25.403,25.403
			S154.902,158.507,168.91,158.507z M168.91,122.7c5.736,0,10.403,4.667,10.403,10.403s-4.667,10.403-10.403,10.403
			c-5.736,0-10.403-4.667-10.403-10.403S163.174,122.7,168.91,122.7z"/>
		<path d="M388.153,183.347c11.771,0,21.347-9.576,21.347-21.347c0-11.771-9.576-21.347-21.347-21.347
			c-11.771,0-21.348,9.576-21.348,21.347C366.806,173.771,376.382,183.347,388.153,183.347z M388.153,155.653
			c3.5,0,6.347,2.847,6.347,6.347s-2.847,6.347-6.347,6.347s-6.348-2.847-6.348-6.347S384.653,155.653,388.153,155.653z"/>
		<path d="M266.903,84.655c14.008,0,25.404-11.396,25.404-25.403c0-14.007-11.396-25.403-25.404-25.403
			c-14.008,0-25.403,11.396-25.403,25.403C241.5,73.259,252.895,84.655,266.903,84.655z M266.903,48.849
			c5.737,0,10.404,4.667,10.404,10.403c0,5.736-4.667,10.403-10.404,10.403c-5.736,0-10.403-4.667-10.403-10.403
			C256.5,53.516,261.167,48.849,266.903,48.849z"/>
		<path d="M117.998,376.251c-10.614,0-19.25,8.635-19.25,19.249c0,4.142,3.357,7.5,7.5,7.5c4.143,0,7.5-3.358,7.5-7.5
			c0-2.343,1.906-4.249,4.25-4.249c2.343,0,4.249,1.906,4.249,4.249c0,4.142,3.357,7.5,7.5,7.5c4.143,0,7.5-3.358,7.5-7.5
			C137.247,384.886,128.612,376.251,117.998,376.251z"/>
		<path d="M203.266,395.5c0-2.343,1.906-4.249,4.249-4.249c2.343,0,4.249,1.906,4.249,4.249c0,4.142,3.357,7.5,7.5,7.5
			c4.143,0,7.5-3.358,7.5-7.5c0-10.614-8.635-19.249-19.249-19.249c-10.614,0-19.249,8.635-19.249,19.249c0,4.142,3.357,7.5,7.5,7.5
			C199.908,403,203.266,399.642,203.266,395.5z"/>
		<path d="M159.626,344.028c0-2.343,1.906-4.249,4.249-4.249s4.249,1.906,4.249,4.249c0,4.142,3.357,7.5,7.5,7.5
			c4.143,0,7.5-3.358,7.5-7.5c0-10.614-8.635-19.249-19.249-19.249s-19.249,8.635-19.249,19.249c0,4.142,3.357,7.5,7.5,7.5
			C156.269,351.528,159.626,348.17,159.626,344.028z"/>
		<path d="M300.615,306.543c0-2.343,1.906-4.249,4.249-4.249c2.343,0,4.249,1.906,4.249,4.249c0,4.142,3.357,7.5,7.5,7.5
			c4.143,0,7.5-3.358,7.5-7.5c0-10.614-8.635-19.249-19.249-19.249c-10.614,0-19.249,8.635-19.249,19.249c0,4.142,3.357,7.5,7.5,7.5
			C297.258,314.043,300.615,310.685,300.615,306.543z"/>
		<path d="M358.802,354.658c0-2.343,1.906-4.249,4.249-4.249c2.343,0,4.249,1.906,4.249,4.249c0,4.142,3.357,7.5,7.5,7.5
			s7.5-3.358,7.5-7.5c0-10.614-8.635-19.249-19.249-19.249c-10.614,0-19.249,8.635-19.249,19.249c0,4.142,3.357,7.5,7.5,7.5
			C355.444,362.158,358.802,358.8,358.802,354.658z"/>
		<path d="M490,395.501c0-10.323-5.809-19.314-14.327-23.881c0.218-1.333,0.34-2.698,0.34-4.092
			c0-11.703-7.956-21.577-18.742-24.511v-53.95c0-4.616-1.798-8.957-5.064-12.226c-3.267-3.266-7.608-5.064-12.227-5.064h-12.938
			c-0.289-17.472-12.34-32.131-28.562-36.383c1.121-2.59,1.722-5.401,1.722-8.309c0-5.59-2.178-10.846-6.131-14.798
			c-3.953-3.952-9.208-6.129-14.797-6.129s-10.845,2.176-14.8,6.129l-0.88,0.88l-3.686-8.073c-1.917-4.2-5.355-7.403-9.683-9.019
			c-4.28-1.599-9.062-1.433-13.225,0.469l-19.292,8.806c-3.768-3.641-8.884-5.894-14.525-5.894h-5.38
			c0.369-1.544,0.571-3.152,0.571-4.809c0-11.54-9.388-20.927-20.927-20.927h-64.9c-11.54,0-20.928,9.388-20.928,20.927
			c0,1.657,0.202,3.265,0.571,4.809h-19.926c-8.492,0-15.791,5.094-19.061,12.38l-8.989-4.103
			c-4.165-1.901-8.947-2.067-13.225-0.469c-4.327,1.616-7.767,4.818-9.684,9.018l-4.098,8.978l-1.771-1.771
			c-3.952-3.953-9.208-6.13-14.798-6.13c-5.591,0-10.847,2.177-14.8,6.131c-6.32,6.322-7.722,15.709-4.246,23.415
			c-15.646,4.628-27.141,19.001-27.422,36.06H41.238c-4.619,0-8.961,1.799-12.229,5.067c-3.264,3.267-5.062,7.608-5.062,12.223
			v47.12c-6.051,4.648-9.961,11.95-9.961,20.151c0,1.394,0.122,2.759,0.34,4.092C5.809,376.187,0,385.177,0,395.501
			c0,8.185,3.655,15.527,9.412,20.497c-0.298,1.515-0.461,3.078-0.461,4.679c0,13.391,10.894,24.285,24.285,24.285
			c1.094,0,2.167-0.081,3.223-0.222c4.467,6.861,12.199,11.411,20.98,11.411H109c4.143,0,7.5-3.358,7.5-7.5
			c0-4.142-3.357-7.5-7.5-7.5H57.439c-5.526,0-10.022-4.496-10.022-10.021v-29.273c0-91.611,74.531-166.142,166.142-166.142h62.883
			c91.61,0,166.142,74.531,166.142,166.142v29.273c0,5.526-4.496,10.021-10.023,10.021H144c-4.143,0-7.5,3.358-7.5,7.5
			c0,4.142,3.357,7.5,7.5,7.5h288.56c8.781,0,16.514-4.55,20.98-11.411c1.056,0.141,2.129,0.222,3.223,0.222
			c13.391,0,24.284-10.894,24.284-24.285c0-1.601-0.163-3.164-0.461-4.679C486.345,411.029,490,403.686,490,395.501z
			 M32.417,429.925c-4.155-0.365-7.529-3.48-8.297-7.508c0.974,0.106,1.961,0.165,2.962,0.165c1.827,0,3.609-0.19,5.335-0.54
			V429.925z M32.417,401.857v4.467c-1.611,0.798-3.419,1.258-5.335,1.258c-6.662,0-12.082-5.42-12.082-12.082
			c0-6.662,5.42-12.082,12.082-12.082c2.233,0,4.32,0.62,6.117,1.681C32.69,390.62,32.417,396.207,32.417,401.857z M35.274,369.713
			c-1.991-0.636-4.076-1.061-6.238-1.216c-0.029-0.32-0.049-0.643-0.049-0.97c0-5.259,3.926-9.608,8.998-10.297
			C36.941,361.338,36.032,365.499,35.274,369.713z M38.948,342.135v-41.879c0.131-1.395,0.895-2.159,2.29-2.29h15.729
			c0.989,2.435,2.225,4.744,3.671,6.899c-7.417,11.652-13.533,24.206-18.157,37.454C41.467,342.194,39.096,342.132,38.948,342.135z
			 M70.389,291.019c-0.787-2.331-1.229-4.82-1.229-7.414c0-12.832,10.439-23.272,23.271-23.272c2.398,0,4.704,0.385,6.883,1.063
			C88.587,270.138,78.877,280.08,70.389,291.019z M106.771,248.13c-2.146-0.871-4.384-1.559-6.701-2.031l-3.621-3.621
			c-2.311-2.311-2.311-6.073,0-8.384c1.119-1.12,2.608-1.737,4.192-1.737c1.583,0,3.071,0.617,4.19,1.736l5.73,5.73L106.771,248.13z
			 M125.264,243.743l9.691-21.233c0.528-1.157,1.938-1.632,3.033-1.132l18.644,8.51
			C145.677,233.523,135.185,238.181,125.264,243.743z M212.55,188.719h64.9c3.268,0,5.927,2.659,5.927,5.927
			c0,1.98-0.98,3.731-2.475,4.809h-42.616c-0.136,0-0.267,0.018-0.401,0.021c-0.239-0.008-0.477-0.021-0.718-0.021h-28.07
			c-1.495-1.077-2.475-2.829-2.475-4.809C206.622,191.378,209.281,188.719,212.55,188.719z M217.371,220.715h-3.813
			c-11.584,0-22.913,1.106-33.898,3.195l-12.84-5.861c0.908-2.111,3.007-3.594,5.447-3.594h45.959
			c-0.557,1.881-0.868,3.868-0.868,5.928C217.358,220.495,217.369,220.604,217.371,220.715z M308.213,223.508
			c-10.318-1.833-20.935-2.792-31.771-2.792h-44.066c-0.006-0.111-0.017-0.22-0.017-0.333c0-3.268,2.659-5.928,5.928-5.928h64.899
			c3.269,0,5.928,2.659,5.928,5.928C309.113,221.53,308.78,222.599,308.213,223.508z M324.041,218.947l19.191-8.759
			c1.095-0.501,2.505-0.02,3.031,1.133l13.594,29.781c-11.586-6.036-23.9-10.854-36.776-14.288
			C323.74,224.785,324.167,221.667,324.041,218.947z M374.453,236.954l-4.209-9.222l4.837-4.838c1.121-1.12,2.61-1.737,4.194-1.737
			c1.583,0,3.071,0.616,4.191,1.736c1.12,1.119,1.736,2.608,1.736,4.191c0,1.583-0.616,3.071-1.736,4.191l-4.057,4.057
			C377.71,235.763,376.055,236.303,374.453,236.954z M402.364,271.776c-6.105-5.912-12.624-11.396-19.507-16.411l-2.172-4.757
			c2.525-0.942,5.252-1.465,8.102-1.465c12.618,0,22.915,10.096,23.256,22.633H402.364z M442.271,329.008
			c-6.745-15.296-15.537-29.494-26.042-42.232h23.752c0.825,0,1.369,0.42,1.617,0.669c0.251,0.251,0.673,0.796,0.673,1.621V329.008z
			 M454.726,369.713c-0.758-4.214-1.667-8.375-2.711-12.483c5.072,0.689,8.998,5.038,8.998,10.297c0,0.328-0.02,0.65-0.049,0.97
			C458.802,368.652,456.717,369.077,454.726,369.713z M457.583,429.925v-7.883c1.726,0.35,3.508,0.54,5.335,0.54
			c1.001,0,1.987-0.059,2.961-0.165C465.11,426.446,461.736,429.56,457.583,429.925z M462.918,407.583
			c-1.916,0-3.724-0.46-5.335-1.258v-4.467c0-5.65-0.273-11.237-0.782-16.757c1.797-1.061,3.884-1.681,6.117-1.681
			c6.662,0,12.082,5.42,12.082,12.082C475,402.163,469.58,407.583,462.918,407.583z"/>
	</g>
</g>
<g>
</g>
<g>
</g>
<g>
</g>
<g>
</g>
<g>
</g>
<g>
</g>
<g>
</g>
<g>
</g>
<g>
</g>
<g>
</g>
<g>
</g>
<g>
</g>
<g>
</g>
<g>
</g>
<g>
</g>
</svg>
