<?xml version="1.0" encoding="iso-8859-1"?>
<!-- Generator: Adobe Illustrator 19.0.0, SVG Export Plug-In . SVG Version: 6.00 Build 0)  -->
<svg version="1.1" id="Layer_1" xmlns="http://www.w3.org/2000/svg" xmlns:xlink="http://www.w3.org/1999/xlink" x="0px" y="0px"
	 viewBox="0 0 490 490" style="enable-background:new 0 0 490 490;" xml:space="preserve">
<g>
	<g>
		<g>
			<path style="fill:#FFB792;" d="M426.076,212.593c6.459,6.46,2.541,19.78,5.83,27.726c3.41,8.237,15.486,14.953,15.484,23.731
				c0.003,8.773-12.077,15.493-15.484,23.731c-3.288,7.945,0.63,21.265-5.829,27.724c-6.461,6.461-19.777,2.541-27.725,5.829
				c-8.238,3.408-14.957,15.487-23.732,15.483c-8.779,0.002-15.492-12.075-23.73-15.484c-7.944-3.29-21.265,0.63-27.724-5.83
				c-6.46-6.46-2.542-19.78-5.831-27.726c-3.408-8.238-15.486-14.951-15.483-23.73c-0.003-8.775,12.075-15.494,15.484-23.731
				c3.288-7.947-0.633-21.264,5.828-27.725c6.461-6.461,19.777-2.541,27.725-5.828c8.239-3.408,14.958-15.486,23.73-15.485
				c8.778-0.001,15.495,12.074,23.731,15.483C406.296,210.052,419.616,206.133,426.076,212.593z"/>
		</g>
		<circle style="fill:#F9D9CA;" cx="374.62" cy="264.048" r="40.982"/>
		<circle style="fill:#FFFFFF;" cx="374.622" cy="264.048" r="15.303"/>
	</g>
	<g>
		<path style="fill:#FFF4BD;" d="M279.198,423.529c-32.039,0-58.012-25.973-58.012-58.012V246.012
			c0-32.04,25.973-58.012,58.012-58.012l0,0c32.041,0,58.014,25.972,58.014,58.012l-0.002,119.504
			C337.21,397.556,311.238,423.529,279.198,423.529L279.198,423.529z"/>
		<path style="fill:#FFE783;" d="M244.392,246.012c0-19.194,15.614-34.808,34.807-34.808c19.194,0,34.808,15.614,34.808,34.808
			v119.504c0,19.192-15.614,34.808-34.808,34.808c-19.192,0-34.807-15.615-34.807-34.808V246.012z"/>
		<path style="fill:#FFF4BD;" d="M267.597,246.012c0-6.398,5.203-11.603,11.602-11.603c6.397,0,11.604,5.205,11.604,11.603v119.504
			c0,6.397-5.206,11.602-11.604,11.602c-6.398,0-11.602-5.206-11.602-11.602V246.012z"/>
	</g>
	<path style="fill:#B0CE6F;" d="M176.688,212.344c0,13.444-10.899,24.343-24.345,24.343l0,0c-13.444,0-24.343-10.899-24.343-24.343
		l0,0C128,198.899,138.898,188,152.343,188l0,0C165.788,188,176.688,198.899,176.688,212.344L176.688,212.344z"/>
	<g>
		<path style="fill:#FFF4BD;" d="M157.925,295.208v-35.2c0-32.039-25.974-58.012-58.012-58.012
			c-32.041,0-58.013,25.973-58.013,58.012v35.2H157.925z"/>
		<path style="fill:#FFE783;" d="M134.72,295.208v-35.2c0-19.193-15.615-34.808-34.807-34.808
			c-19.193,0-34.809,15.615-34.809,34.808v35.2H134.72z"/>
		<path style="fill:#FFF4BD;" d="M111.515,295.208v-35.2c0-6.398-5.205-11.603-11.602-11.603c-6.399,0-11.604,5.206-11.604,11.603
			v35.2H111.515z"/>
	</g>
	<g>
		<path style="fill:#FFF4BD;" d="M192.529,446c-32.04,0-58.013-25.972-58.013-58.012V268.483c0-32.039,25.973-58.012,58.013-58.012
			l0,0c32.039,0,58.011,25.973,58.011,58.012v119.505C250.54,420.028,224.568,446,192.529,446L192.529,446z"/>
		<path style="fill:#FFE783;" d="M157.722,268.483c0-19.192,15.615-34.808,34.808-34.808s34.806,15.616,34.806,34.808v119.505
			c0,19.193-15.613,34.808-34.806,34.808s-34.808-15.615-34.808-34.808V268.483z"/>
		<path style="fill:#FFF4BD;" d="M180.926,268.483c0-6.396,5.205-11.602,11.604-11.602c6.396,0,11.601,5.206,11.601,11.602v119.505
			c0,6.398-5.204,11.602-11.601,11.602c-6.398,0-11.604-5.204-11.604-11.602V268.483z"/>
	</g>
	<path style="fill:#FF8150;" d="M84.426,267.587c0,13.444-10.899,24.344-24.345,24.344l0,0c-13.443,0-24.344-10.9-24.344-24.344l0,0
		c0-13.444,10.9-24.344,24.344-24.344l0,0C73.526,243.243,84.426,254.143,84.426,267.587L84.426,267.587z"/>
	<path style="fill:#759B84;" d="M344.135,462.673c0,10.95-8.878,19.827-19.827,19.827H165.692c-10.951,0-19.827-8.877-19.827-19.827
		v-18.506c0-10.95,8.876-19.827,19.827-19.827h158.615c10.949,0,19.827,8.878,19.827,19.827V462.673z"/>
	<path style="opacity:0.1;" d="M187.73,462.673v-18.506c0-10.95,8.876-19.827,19.827-19.827h-41.865
		c-10.951,0-19.827,8.878-19.827,19.827v18.506c0,10.95,8.876,19.827,19.827,19.827h41.865
		C196.606,482.5,187.73,473.623,187.73,462.673z"/>
	<path style="fill:#78B591;" d="M190.722,453.42c-92.688,0-168.092-75.406-168.092-168.091c0-6.448,5.226-11.673,11.674-11.673
		h421.395c6.445,0,11.672,5.226,11.672,11.673c0,92.685-75.404,168.091-168.092,168.091H190.722z"/>
	<path style="opacity:0.1;" d="M67,285.33c0-6.448,5.227-11.673,11.674-11.673h-44.37c-6.447,0-11.674,5.226-11.674,11.673
		c0,92.685,75.403,168.091,168.092,168.091h44.37C142.403,453.42,67,378.015,67,285.33z"/>
	<path style="fill:#609174;" d="M272.579,304.845H25.173c-0.475,0-0.938,0.049-1.389,0.134c0.588,5.025,1.393,9.985,2.415,14.866
		h246.38c4.143,0,7.5-3.358,7.5-7.5C280.079,308.203,276.722,304.845,272.579,304.845z"/>
	<path style="fill:#609174;" d="M111.373,340.669H35.248c-1.076,0-2.098,0.231-3.022,0.639c1.733,4.895,3.687,9.686,5.85,14.361
		h73.298c4.143,0,7.5-3.358,7.5-7.5C118.873,344.026,115.516,340.669,111.373,340.669z"/>
	<g>
		<g>
			<path style="fill:#F2D8A0;" d="M183.708,155.279h-53.586c-22.399,0-40.622-18.223-40.622-40.622
				c0-22.398,18.223-40.621,40.622-40.621h24.657c4.143,0,7.5,3.358,7.5,7.5c0,4.142-3.357,7.5-7.5,7.5h-24.657
				c-14.128,0-25.622,11.494-25.622,25.621c0,14.128,11.494,25.622,25.622,25.622h53.586c4.143,0,7.5,3.358,7.5,7.5
				C191.208,151.921,187.851,155.279,183.708,155.279z"/>
		</g>
		<g>
			<path style="fill:#F2D8A0;" d="M208.919,89.037H179.99c-4.143,0-7.5-3.358-7.5-7.5c0-4.142,3.357-7.5,7.5-7.5h28.929
				c16.276,0,29.518-13.242,29.518-29.518c0-16.276-13.241-29.519-29.518-29.519h-32.663c-4.143,0-7.5-3.358-7.5-7.5
				s3.357-7.5,7.5-7.5h32.663c24.547,0,44.518,19.971,44.518,44.519C253.436,69.066,233.466,89.037,208.919,89.037z"/>
		</g>
	</g>
	<path style="fill:#FCE9C3;" d="M368.674,98.807h-59.553c-12.412,0-22.511-10.099-22.511-22.511c0-12.412,10.099-22.51,22.511-22.51
		h20.705c4.143,0,7.5-3.358,7.5-7.5c0-4.142-3.357-7.5-7.5-7.5h-20.705c-20.684,0-37.511,16.827-37.511,37.51
		c0,20.684,16.827,37.511,37.511,37.511h59.553c9.729,0,17.646,7.916,17.646,17.645v16.327c0,4.142,3.357,7.5,7.5,7.5
		c4.143,0,7.5-3.358,7.5-7.5v-16.327C401.319,113.452,386.675,98.807,368.674,98.807z"/>
	<path d="M455.698,266.156h-6.394c0.088-0.686,0.147-1.384,0.147-2.104c0.002-7.662-5.296-13.382-9.553-17.979
		c-2.231-2.409-4.538-4.899-5.345-6.848c-0.728-1.758-0.833-5.013-0.936-8.161c-0.207-6.374-0.466-14.307-6.085-19.928
		c-5.619-5.619-13.553-5.877-19.927-6.085c-3.148-0.103-6.403-0.208-8.161-0.936c-1.949-0.807-4.44-3.113-6.849-5.343
		c-4.597-4.256-10.318-9.554-17.98-9.553c-7.654,0-13.373,5.295-17.968,9.55c-2.41,2.232-4.903,4.54-6.855,5.347
		c-1.757,0.727-5.011,0.832-8.158,0.934c-3.27,0.106-6.946,0.233-10.514,1.084c-11.987-15.572-30.799-25.633-51.925-25.633
		c-23.243,0-43.689,12.174-55.32,30.475c-9.317-5.099-19.999-8.003-31.349-8.003c-3.245,0-6.434,0.246-9.554,0.704
		c-3.784-13.358-16.078-23.175-30.633-23.175c-12.754,0-23.773,7.542-28.853,18.397c-7.318-2.837-15.267-4.4-23.577-4.4
		c-31.729,0-58.254,22.675-64.241,52.669c-4.549,5.429-7.32,12.39-7.424,19.987c-7.61,2.542-13.118,9.723-13.118,18.178
		c0,43.553,16.122,85.354,45.396,117.705c2.782,3.073,7.523,3.308,10.594,0.529c3.071-2.779,3.309-7.522,0.529-10.593
		C44.875,363.383,30.13,325.155,30.13,285.33c0-2.301,1.872-4.173,4.174-4.173h421.395c2.301,0,4.172,1.872,4.172,4.173
		c0,88.55-72.041,160.591-160.592,160.591H190.722c-35.851,0-69.784-11.603-98.134-33.556c-3.274-2.536-7.986-1.938-10.521,1.338
		c-2.536,3.275-1.938,7.986,1.338,10.522c16.748,12.969,35.28,22.627,54.961,28.774v9.674c0,15.068,12.259,27.327,27.327,27.327
		h158.615c15.068,0,27.327-12.259,27.327-27.327v-9.725c71.33-22.328,123.235-89.024,123.235-167.619
		C474.87,274.757,466.27,266.156,455.698,266.156z M342.123,220.042c4.487-0.146,9.128-0.296,13.405-2.065
		c4.437-1.835,8.089-5.217,11.312-8.201c2.533-2.345,6.001-5.557,7.78-5.557c1.781,0,5.251,3.212,7.785,5.559
		c3.221,2.982,6.871,6.362,11.303,8.196c4.278,1.772,8.921,1.923,13.41,2.069c3.734,0.122,8.382,0.273,9.809,1.699
		c1.427,1.428,1.578,6.076,1.699,9.81c0.146,4.489,0.297,9.131,2.068,13.41c1.835,4.433,5.216,8.083,8.198,11.304
		c2.347,2.533,5.559,6.002,5.559,7.788c0,0.561-0.32,1.289-0.83,2.103h-13.64c0.033-0.699,0.058-1.4,0.058-2.108
		c0-25.044-20.375-45.418-45.419-45.418c-12.259,0-23.382,4.899-31.56,12.822c-0.891-3.91-2.122-7.691-3.681-11.303
		C340.309,220.101,341.241,220.07,342.123,220.042z M368.31,266.156c-0.223-0.664-0.348-1.371-0.348-2.108
		c0-3.671,2.986-6.658,6.657-6.658c3.673,0,6.661,2.987,6.661,6.658c0,0.737-0.125,1.444-0.348,2.108H368.31z M374.62,242.391
		c-11.941,0-21.657,9.716-21.657,21.658c0,0.712,0.043,1.414,0.111,2.108h-8.363v-7.623c2.604-14.148,15.02-24.903,29.909-24.903
		c16.773,0,30.419,13.646,30.419,30.418c0,0.71-0.038,1.411-0.087,2.108h-8.782c0.068-0.694,0.111-1.396,0.111-2.108
		C396.281,252.106,386.565,242.391,374.62,242.391z M279.198,195.5c27.854,0,50.514,22.66,50.514,50.512l-0.001,20.144h-8.205
		v-20.144c0-23.329-18.979-42.308-42.308-42.308c-15.978,0-29.912,8.903-37.108,22.009c-1.854-2.146-3.838-4.174-5.952-6.064
		C245.029,205.176,261.002,195.5,279.198,195.5z M283.302,266.156h-8.205v-20.144c0-2.262,1.84-4.103,4.102-4.103
		c2.263,0,4.104,1.841,4.104,4.103V266.156z M279.198,226.909c-10.532,0-19.102,8.57-19.102,19.103v20.144h-2.116
		c-0.306-8.721-2.324-17.008-5.729-24.546c2.112-12.971,13.39-22.906,26.947-22.906c15.058,0,27.308,12.251,27.308,27.308v20.144
		h-8.204v-20.144C298.302,235.479,289.732,226.909,279.198,226.909z M242.98,266.156h-8.213
		c-1.212-22.25-19.692-39.981-42.238-39.981c-22.547,0-41.028,17.73-42.24,39.981h-8.213c1.221-26.775,23.381-48.185,50.453-48.185
		C219.601,217.971,241.76,239.381,242.98,266.156z M192.529,249.381c-9.745,0-17.794,7.338-18.947,16.775h-8.254
		c1.185-13.972,12.928-24.981,27.201-24.981c14.273,0,26.015,11.009,27.199,24.981h-8.255
		C210.32,256.719,202.273,249.381,192.529,249.381z M195.899,266.156h-6.743c0.741-1.07,1.975-1.775,3.373-1.775
		C193.926,264.381,195.159,265.086,195.899,266.156z M119.015,266.156v-6.148c0-10.533-8.569-19.103-19.102-19.103
		c-5.965,0-11.279,2.761-14.78,7.058c-1.703-2.17-3.678-4.117-5.879-5.782c5.011-5.801,12.411-9.481,20.659-9.481
		c15.057,0,27.307,12.25,27.307,27.308v3.565c-0.063,0.857-0.114,1.717-0.144,2.582H119.015z M60.081,250.743
		c8.806,0,16.042,6.794,16.772,15.413H43.31C44.04,257.537,51.275,250.743,60.081,250.743z M104.015,266.156H95.81v-6.148
		c0-2.262,1.841-4.103,4.104-4.103c2.262,0,4.102,1.841,4.102,4.103V266.156z M152.343,195.5c7.626,0,14.075,5.098,16.143,12.062
		c-6.618,2.621-12.712,6.282-18.074,10.794c-3.932-4.761-8.518-8.963-13.625-12.458C139.323,199.8,145.338,195.5,152.343,195.5z
		 M99.913,209.496c16.33,0,30.87,7.794,40.108,19.853c-1.758,2.353-3.354,4.833-4.788,7.415
		c-7.572-11.474-20.573-19.063-35.32-19.063c-14.473,0-27.263,7.311-34.894,18.428c-1.61-0.252-3.259-0.385-4.938-0.385
		c-1.573,0-3.118,0.119-4.63,0.34C63.992,220.27,80.713,209.496,99.913,209.496z M336.635,462.673
		c0,6.797-5.53,12.327-12.327,12.327H165.692c-6.797,0-12.327-5.53-12.327-12.327v-5.721c12.141,2.624,24.637,3.968,37.356,3.968
		h108.557c12.817,0,25.314-1.393,37.357-4.013V462.673z"/>
</g>
<g>
</g>
<g>
</g>
<g>
</g>
<g>
</g>
<g>
</g>
<g>
</g>
<g>
</g>
<g>
</g>
<g>
</g>
<g>
</g>
<g>
</g>
<g>
</g>
<g>
</g>
<g>
</g>
<g>
</g>
</svg>
