<?xml version="1.0" encoding="iso-8859-1"?>
<!-- Generator: Adobe Illustrator 19.0.0, SVG Export Plug-In . SVG Version: 6.00 Build 0)  -->
<svg version="1.1" id="Layer_1" xmlns="http://www.w3.org/2000/svg" xmlns:xlink="http://www.w3.org/1999/xlink" x="0px" y="0px"
	 viewBox="0 0 490 490" style="enable-background:new 0 0 490 490;" xml:space="preserve">
<g>
	<circle style="fill:#FFCC60;" cx="245" cy="62.951" r="24"/>
	<path style="fill:#A5BC79;" d="M482.5,436.049c0,8.284-6.716,15-15,15h-445c-8.284,0-15-6.716-15-15v-220c0-8.284,6.716-15,15-15
		h445c8.284,0,15,6.716,15,15V436.049z"/>
	<path style="fill:#FFFFFF;" d="M92.372,406.049c-4.253,0-8.04-2.69-9.442-6.706c-3.815-10.934-12.645-19.668-23.621-23.364
		c-4.069-1.37-6.809-5.184-6.809-9.477v-80.907c0-4.293,2.74-8.107,6.809-9.477c10.976-3.696,19.806-12.43,23.621-23.364
		c1.401-4.016,5.189-6.706,9.442-6.706h305.257c4.253,0,8.041,2.69,9.442,6.706c3.815,10.934,12.645,19.668,23.621,23.364
		c4.069,1.37,6.809,5.184,6.809,9.477v80.907c0,4.293-2.74,8.107-6.809,9.477c-10.976,3.696-19.806,12.43-23.621,23.364
		c-1.401,4.016-5.189,6.706-9.442,6.706H92.372z"/>
	<path style="opacity:0.1;" d="M113.43,399.344c-3.815-10.934-12.645-19.668-23.621-23.364C85.74,374.61,83,370.796,83,366.503
		v-80.907c0-4.293,2.74-8.107,6.809-9.477c10.976-3.696,19.806-12.43,23.621-23.364c1.401-4.016,5.189-6.706,9.442-6.706h-30.5
		c-4.253,0-8.04,2.69-9.442,6.706c-3.815,10.934-12.645,19.668-23.621,23.364c-4.069,1.37-6.809,5.184-6.809,9.477v80.907
		c0,4.293,2.74,8.107,6.809,9.477c10.976,3.696,19.806,12.43,23.621,23.364c1.401,4.016,5.189,6.706,9.442,6.706h30.5
		C118.619,406.049,114.831,403.359,113.43,399.344z"/>
	<circle style="fill:#FFFFFF;" cx="43" cy="236.05" r="12.273"/>
	<circle style="fill:#FFFFFF;" cx="448" cy="236.05" r="12.273"/>
	<circle style="fill:#FFFFFF;" cx="43" cy="413.049" r="12.273"/>
	<circle style="fill:#FFFFFF;" cx="448" cy="413.049" r="12.273"/>
	<circle style="fill:#FFCC60;" cx="245" cy="62.951" r="24"/>
	<path style="opacity:0.1;" d="M241,62.951c0-9.685,5.74-18.024,14-21.816c-3.045-1.398-6.43-2.184-10-2.184
		c-13.255,0-24,10.745-24,24s10.745,24,24,24c3.57,0,6.955-0.786,10-2.184C246.74,80.975,241,72.635,241,62.951z"/>
	<g>
		<path style="fill:#22B573;" d="M116.384,326.221v-0.172c0-17.114,13.502-31.132,32.077-31.132
			c18.576,0,31.906,13.846,31.906,30.96v0.172c0,17.113-13.502,31.132-32.078,31.132
			C129.713,357.181,116.384,343.335,116.384,326.221z M166.521,326.221v-0.172c0-10.32-7.568-18.92-18.232-18.92
			c-10.664,0-18.06,8.428-18.06,18.748v0.172c0,10.319,7.568,18.92,18.231,18.92C159.125,344.969,166.521,336.542,166.521,326.221z"
			/>
		<path style="fill:#22B573;" d="M196.452,302.572c0-3.698,2.924-6.622,6.622-6.622h17.974c14.362,0,23.048,8.514,23.048,20.811
			v0.172c0,13.932-10.836,21.156-24.338,21.156h-10.061v11.953c0,3.698-2.924,6.622-6.622,6.622c-3.698,0-6.622-2.924-6.622-6.622
			V302.572z M220.188,326.307c6.622,0,10.492-3.956,10.492-9.116v-0.172c0-5.934-4.128-9.115-10.749-9.115h-10.234v18.403H220.188z"
			/>
		<path style="fill:#22B573;" d="M258.203,349.527v-46.955c0-3.698,2.924-6.622,6.622-6.622h33.368c3.268,0,5.934,2.666,5.934,5.934
			c0,3.269-2.666,5.849-5.934,5.849h-26.832v12.211h22.961c3.268,0,5.934,2.666,5.934,5.935c0,3.268-2.666,5.848-5.934,5.848
			h-22.961v12.642h27.261c3.268,0,5.934,2.666,5.934,5.935c0,3.267-2.666,5.848-5.934,5.848h-33.797
			C261.127,356.149,258.203,353.225,258.203,349.527z"/>
		<path style="fill:#22B573;" d="M320.125,302.228c0-3.698,2.924-6.622,6.622-6.622h1.376c3.182,0,5.074,1.548,6.88,3.87
			l25.542,33.539v-31.046c0-3.611,2.924-6.535,6.536-6.535c3.612,0,6.536,2.924,6.536,6.535v47.901c0,3.698-2.924,6.622-6.622,6.622
			h-0.43c-3.182,0-5.074-1.548-6.88-3.87l-26.488-34.743v32.249c0,3.612-2.924,6.536-6.536,6.536c-3.612,0-6.536-2.924-6.536-6.536
			V302.228z"/>
	</g>
	<g>
		<path d="M448,216.277c-10.903,0-19.773,8.87-19.773,19.773c0,10.903,8.87,19.773,19.773,19.773s19.773-8.87,19.773-19.773
			C467.773,225.147,458.903,216.277,448,216.277z M448,240.823c-2.632,0-4.773-2.141-4.773-4.773c0-2.632,2.141-4.773,4.773-4.773
			s4.773,2.141,4.773,4.773C452.773,238.682,450.632,240.823,448,240.823z"/>
		<path d="M43,393.276c-10.903,0-19.773,8.87-19.773,19.773s8.87,19.773,19.773,19.773s19.773-8.87,19.773-19.773
			S53.903,393.276,43,393.276z M43,417.822c-2.632,0-4.773-2.141-4.773-4.773c0-2.632,2.141-4.773,4.773-4.773
			s4.773,2.141,4.773,4.773C47.773,415.681,45.632,417.822,43,417.822z"/>
		<path d="M448,393.276c-10.903,0-19.773,8.87-19.773,19.773s8.87,19.773,19.773,19.773s19.773-8.87,19.773-19.773
			S458.903,393.276,448,393.276z M448,417.822c-2.632,0-4.773-2.141-4.773-4.773c0-2.632,2.141-4.773,4.773-4.773
			s4.773,2.141,4.773,4.773C452.773,415.681,450.632,417.822,448,417.822z"/>
		<path d="M445,366.503V331.5h9.908c4.142,0,7.5-3.358,7.5-7.5s-3.358-7.5-7.5-7.5H445v-30.904c0-7.521-4.789-14.186-11.915-16.585
			c-8.797-2.962-15.875-9.963-18.933-18.727c-2.449-7.019-9.089-11.734-16.523-11.734H92.372c-7.434,0-14.074,4.716-16.523,11.735
			c-3.058,8.764-10.135,15.764-18.932,18.727C49.789,271.41,45,278.075,45,285.596V316.5h-9.908c-4.142,0-7.5,3.358-7.5,7.5
			s3.358,7.5,7.5,7.5H45v35.003c0,7.521,4.789,14.186,11.916,16.585c8.797,2.962,15.875,9.963,18.933,18.727
			c2.449,7.019,9.089,11.734,16.523,11.734h36.628c4.142,0,7.5-3.358,7.5-7.5c0-4.142-3.358-7.5-7.5-7.5H92.372
			c-1.062,0-2.011-0.674-2.36-1.676c-4.572-13.104-15.155-23.572-28.31-28.001c-1.018-0.343-1.702-1.295-1.702-2.369v-80.907
			c0-1.074,0.684-2.026,1.703-2.369c13.154-4.429,23.736-14.897,28.308-28c0.35-1.003,1.299-1.677,2.361-1.677h305.257
			c1.062,0,2.011,0.674,2.36,1.676c4.572,13.104,15.155,23.572,28.31,28.001c1.018,0.343,1.702,1.295,1.702,2.369v80.907
			c0,1.074-0.684,2.026-1.703,2.369c-13.154,4.429-23.736,14.897-28.308,28c-0.35,1.003-1.299,1.677-2.361,1.677H165
			c-4.142,0-7.5,3.358-7.5,7.5c0,4.142,3.358,7.5,7.5,7.5h232.628c7.434,0,14.074-4.716,16.523-11.735
			c3.058-8.764,10.135-15.764,18.932-18.727C440.211,380.689,445,374.024,445,366.503z"/>
		<path d="M43,255.823c10.903,0,19.773-8.87,19.773-19.773c0-10.903-8.87-19.773-19.773-19.773s-19.773,8.87-19.773,19.773
			C23.228,246.953,32.098,255.823,43,255.823z M43,231.277c2.632,0,4.773,2.141,4.773,4.773c0,2.632-2.141,4.773-4.773,4.773
			s-4.773-2.141-4.773-4.773C38.228,233.418,40.369,231.277,43,231.277z"/>
		<path d="M467.5,193.549h-61.082L276.483,63.614c0.004-0.221,0.017-0.441,0.017-0.663c0-17.369-14.131-31.5-31.5-31.5
			s-31.5,14.131-31.5,31.5c0,0.223,0.012,0.442,0.017,0.664L83.581,193.549H22.5c-12.407,0-22.5,10.093-22.5,22.5v220
			c0,12.407,10.093,22.5,22.5,22.5h445c12.407,0,22.5-10.093,22.5-22.5v-220C490,203.643,479.907,193.549,467.5,193.549z
			 M245,46.451c9.098,0,16.5,7.402,16.5,16.5c0,9.098-7.402,16.5-16.5,16.5s-16.5-7.402-16.5-16.5
			C228.5,53.853,235.902,46.451,245,46.451z M475,436.049c0,4.136-3.364,7.5-7.5,7.5h-445c-4.136,0-7.5-3.364-7.5-7.5v-220
			c0-4.136,3.364-7.5,7.5-7.5H331c4.142,0,7.5-3.358,7.5-7.5s-3.358-7.5-7.5-7.5H104.794L218.46,79.885
			c5.602,8.75,15.401,14.566,26.54,14.566s20.938-5.816,26.54-14.566l113.665,113.665H361c-4.142,0-7.5,3.358-7.5,7.5
			s3.358,7.5,7.5,7.5h106.5c4.136,0,7.5,3.364,7.5,7.5V436.049z"/>
	</g>
</g>
<g>
</g>
<g>
</g>
<g>
</g>
<g>
</g>
<g>
</g>
<g>
</g>
<g>
</g>
<g>
</g>
<g>
</g>
<g>
</g>
<g>
</g>
<g>
</g>
<g>
</g>
<g>
</g>
<g>
</g>
</svg>
