<?xml version="1.0" encoding="iso-8859-1"?>
<!-- Generator: Adobe Illustrator 19.0.0, SVG Export Plug-In . SVG Version: 6.00 Build 0)  -->
<svg version="1.1" id="Layer_1" xmlns="http://www.w3.org/2000/svg" xmlns:xlink="http://www.w3.org/1999/xlink" x="0px" y="0px"
	 viewBox="0 0 490 490" style="enable-background:new 0 0 490 490;" xml:space="preserve">
<g>
	<circle style="fill:#FFCC60;" cx="245" cy="62.951" r="24"/>
	<path style="opacity:0.1;" d="M241,62.951c0-9.685,5.74-18.024,14-21.816c-3.045-1.398-6.43-2.184-10-2.184
		c-13.255,0-24,10.745-24,24s10.745,24,24,24c3.57,0,6.955-0.786,10-2.184C246.74,80.975,241,72.635,241,62.951z"/>
	<path style="fill:#EF645E;" d="M482.5,436.049c0,8.284-6.716,15-15,15h-445c-8.284,0-15-6.716-15-15v-220c0-8.284,6.716-15,15-15
		h445c8.284,0,15,6.716,15,15V436.049z"/>
	<path style="fill:#FFFFFF;" d="M92.372,406.049c-4.253,0-8.04-2.69-9.442-6.706c-3.815-10.934-12.645-19.668-23.621-23.364
		c-4.069-1.37-6.809-5.184-6.809-9.477v-80.907c0-4.293,2.74-8.107,6.809-9.477c10.976-3.696,19.806-12.43,23.621-23.364
		c1.401-4.016,5.189-6.706,9.442-6.706h305.257c4.253,0,8.04,2.69,9.442,6.706c3.815,10.934,12.645,19.668,23.621,23.364
		c4.069,1.37,6.809,5.184,6.809,9.477v80.907c0,4.293-2.74,8.107-6.809,9.477c-10.976,3.696-19.806,12.43-23.621,23.364
		c-1.401,4.016-5.189,6.706-9.442,6.706H92.372z"/>
	<path style="opacity:0.1;" d="M113.43,399.344c-3.815-10.934-12.645-19.668-23.621-23.364C85.74,374.61,83,370.796,83,366.503
		v-80.907c0-4.293,2.74-8.107,6.809-9.477c10.976-3.696,19.806-12.43,23.621-23.364c1.401-4.016,5.189-6.706,9.442-6.706h-30.5
		c-4.253,0-8.04,2.69-9.442,6.706c-3.815,10.934-12.645,19.668-23.621,23.364c-4.069,1.37-6.809,5.184-6.809,9.477v80.907
		c0,4.293,2.74,8.107,6.809,9.477c10.976,3.696,19.806,12.43,23.621,23.364c1.401,4.016,5.189,6.706,9.442,6.706h30.5
		C118.619,406.049,114.831,403.359,113.43,399.344z"/>
	<circle style="fill:#FFFFFF;" cx="43" cy="236.05" r="12.273"/>
	<circle style="fill:#FFFFFF;" cx="448" cy="236.05" r="12.273"/>
	<circle style="fill:#FFFFFF;" cx="43" cy="413.049" r="12.273"/>
	<circle style="fill:#FFFFFF;" cx="448" cy="413.049" r="12.273"/>
	<g>
		<path style="fill:#E23B3B;" d="M80.416,323.246v-0.148c0-14.727,11.101-26.79,27.012-26.79c7.771,0,13.025,2.072,17.317,5.254
			c1.184,0.888,2.22,2.517,2.22,4.515c0,3.108-2.516,5.55-5.624,5.55c-1.554,0-2.59-0.592-3.404-1.11
			c-3.182-2.368-6.513-3.7-10.583-3.7c-8.733,0-15.023,7.253-15.023,16.133v0.148c0,8.881,6.143,16.281,15.023,16.281
			c4.81,0,7.992-1.48,11.249-4.07c0.888-0.74,2.072-1.258,3.404-1.258c2.886,0,5.328,2.368,5.328,5.254
			c0,1.776-0.888,3.183-1.924,4.07c-4.663,4.07-10.139,6.513-18.427,6.513C91.739,349.888,80.416,338.121,80.416,323.246z"/>
		<path style="fill:#E23B3B;" d="M141.025,302.451c0-3.182,2.516-5.698,5.699-5.698c3.182,0,5.698,2.516,5.698,5.698v36.188h21.091
			c2.886,0,5.181,2.294,5.181,5.181c0,2.886-2.294,5.18-5.181,5.18h-26.79c-3.183,0-5.699-2.516-5.699-5.698V302.451z"/>
		<path style="fill:#E23B3B;" d="M185.279,323.246v-0.148c0-14.727,11.619-26.79,27.604-26.79c15.985,0,27.456,11.915,27.456,26.642
			v0.148c0,14.727-11.619,26.79-27.604,26.79C196.749,349.888,185.279,337.973,185.279,323.246z M228.424,323.246v-0.148
			c0-8.88-6.513-16.281-15.689-16.281c-9.177,0-15.542,7.253-15.542,16.133v0.148c0,8.881,6.513,16.281,15.689,16.281
			C222.059,339.379,228.424,332.127,228.424,323.246z"/>
		<path style="fill:#E23B3B;" d="M252.77,343.523c-1.258-0.888-2.146-2.516-2.146-4.292c0-2.96,2.368-5.254,5.329-5.254
			c1.48,0,2.516,0.518,3.256,1.036c3.922,2.886,8.215,4.662,13.247,4.662c4.662,0,7.475-1.85,7.475-4.884v-0.148
			c0-2.886-1.776-4.366-10.435-6.586c-10.435-2.664-17.169-5.55-17.169-15.837v-0.148c0-9.398,7.548-15.615,18.131-15.615
			c6.29,0,11.767,1.628,16.429,4.588c1.258,0.74,2.516,2.294,2.516,4.515c0,2.96-2.368,5.254-5.329,5.254
			c-1.11,0-1.998-0.296-2.886-0.814c-3.774-2.22-7.326-3.479-10.878-3.479c-4.367,0-6.661,1.998-6.661,4.514v0.148
			c0,3.404,2.22,4.514,11.175,6.808c10.509,2.738,16.429,6.513,16.429,15.541v0.149c0,10.287-7.845,16.059-19.02,16.059
			C265.425,349.74,258.542,347.668,252.77,343.523z"/>
		<path style="fill:#E23B3B;" d="M304.869,343.302v-40.407c0-3.183,2.516-5.699,5.699-5.699h28.714c2.812,0,5.106,2.294,5.106,5.106
			c0,2.812-2.294,5.032-5.106,5.032h-23.09v10.509h19.759c2.813,0,5.106,2.294,5.106,5.107s-2.294,5.032-5.106,5.032h-19.759v10.879
			h23.46c2.812,0,5.106,2.294,5.106,5.107c0,2.812-2.294,5.032-5.106,5.032h-29.084C307.385,349,304.869,346.484,304.869,343.302z"
			/>
		<path style="fill:#E23B3B;" d="M358.151,302.895c0-3.183,2.516-5.699,5.699-5.699h14.505c16.281,0,27.53,11.175,27.53,25.754
			v0.148c0,14.579-11.249,25.902-27.53,25.902H363.85c-3.183,0-5.699-2.516-5.699-5.698V302.895z M378.354,338.713
			c9.325,0,15.615-6.29,15.615-15.467v-0.148c0-9.177-6.29-15.615-15.615-15.615h-8.807v31.23H378.354z"/>
	</g>
	<g>
		<path d="M43,255.823c10.903,0,19.773-8.87,19.773-19.773c0-10.903-8.87-19.773-19.773-19.773s-19.773,8.87-19.773,19.773
			C23.227,246.953,32.098,255.823,43,255.823z M43,231.277c2.632,0,4.773,2.141,4.773,4.773c0,2.632-2.141,4.773-4.773,4.773
			c-2.632,0-4.773-2.141-4.773-4.773C38.227,233.418,40.369,231.277,43,231.277z"/>
		<path d="M448,216.277c-10.903,0-19.773,8.87-19.773,19.773c0,10.903,8.87,19.773,19.773,19.773
			c10.903,0,19.773-8.87,19.773-19.773C467.773,225.147,458.903,216.277,448,216.277z M448,240.823
			c-2.632,0-4.773-2.141-4.773-4.773c0-2.632,2.141-4.773,4.773-4.773c2.632,0,4.773,2.141,4.773,4.773
			C452.773,238.682,450.632,240.823,448,240.823z"/>
		<path d="M43,393.276c-10.903,0-19.773,8.87-19.773,19.773s8.87,19.773,19.773,19.773s19.773-8.87,19.773-19.773
			S53.903,393.276,43,393.276z M43,417.822c-2.632,0-4.773-2.141-4.773-4.773c0-2.632,2.141-4.773,4.773-4.773
			c2.632,0,4.773,2.141,4.773,4.773C47.773,415.681,45.632,417.822,43,417.822z"/>
		<path d="M448,393.276c-10.903,0-19.773,8.87-19.773,19.773s8.87,19.773,19.773,19.773c10.903,0,19.773-8.87,19.773-19.773
			S458.903,393.276,448,393.276z M448,417.822c-2.632,0-4.773-2.141-4.773-4.773c0-2.632,2.141-4.773,4.773-4.773
			c2.632,0,4.773,2.141,4.773,4.773C452.773,415.681,450.632,417.822,448,417.822z"/>
		<path d="M445,366.503V331.5h9.908c4.142,0,7.5-3.358,7.5-7.5s-3.358-7.5-7.5-7.5H445v-30.904c0-7.521-4.789-14.186-11.916-16.585
			c-8.797-2.962-15.875-9.963-18.933-18.727c-2.449-7.019-9.089-11.734-16.523-11.734H92.372c-7.434,0-14.074,4.716-16.523,11.735
			c-3.058,8.764-10.135,15.764-18.932,18.727C49.789,271.41,45,278.075,45,285.596V316.5h-9.908c-4.142,0-7.5,3.358-7.5,7.5
			s3.358,7.5,7.5,7.5H45v35.003c0,7.521,4.789,14.186,11.915,16.585c8.797,2.962,15.875,9.963,18.933,18.727
			c2.449,7.019,9.089,11.734,16.523,11.734H143c4.142,0,7.5-3.358,7.5-7.5c0-4.142-3.358-7.5-7.5-7.5H92.372
			c-1.062,0-2.011-0.674-2.36-1.676c-4.572-13.104-15.155-23.572-28.309-28.001c-1.018-0.343-1.702-1.295-1.702-2.369v-80.907
			c0-1.074,0.684-2.026,1.703-2.369c13.154-4.429,23.736-14.897,28.308-28c0.35-1.003,1.299-1.677,2.361-1.677h305.257
			c1.062,0,2.011,0.674,2.36,1.676c4.572,13.104,15.155,23.572,28.309,28.001c1.018,0.343,1.702,1.295,1.702,2.369v80.907
			c0,1.074-0.684,2.026-1.703,2.369c-13.154,4.429-23.736,14.897-28.308,28c-0.35,1.003-1.299,1.677-2.361,1.677H177
			c-4.142,0-7.5,3.358-7.5,7.5c0,4.142,3.358,7.5,7.5,7.5h220.628c7.434,0,14.074-4.716,16.523-11.735
			c3.058-8.764,10.135-15.764,18.932-18.727C440.211,380.689,445,374.024,445,366.503z"/>
		<path d="M467.5,193.549h-61.082L276.483,63.614c0.004-0.221,0.017-0.441,0.017-0.663c0-17.369-14.131-31.5-31.5-31.5
			c-17.369,0-31.5,14.131-31.5,31.5c0,0.223,0.012,0.442,0.017,0.664L83.581,193.549H22.5c-12.407,0-22.5,10.093-22.5,22.5v220
			c0,12.407,10.093,22.5,22.5,22.5h445c12.407,0,22.5-10.093,22.5-22.5v-220C490,203.643,479.907,193.549,467.5,193.549z
			 M245,46.451c9.098,0,16.5,7.402,16.5,16.5c0,9.098-7.402,16.5-16.5,16.5c-9.098,0-16.5-7.402-16.5-16.5
			C228.5,53.853,235.902,46.451,245,46.451z M475,436.049c0,4.136-3.364,7.5-7.5,7.5h-445c-4.136,0-7.5-3.364-7.5-7.5v-220
			c0-4.136,3.364-7.5,7.5-7.5H317c4.142,0,7.5-3.358,7.5-7.5s-3.358-7.5-7.5-7.5H104.794L218.46,79.885
			c5.602,8.75,15.401,14.566,26.54,14.566c11.139,0,20.938-5.816,26.54-14.566l113.665,113.665H349c-4.142,0-7.5,3.358-7.5,7.5
			s3.358,7.5,7.5,7.5h118.5c4.136,0,7.5,3.364,7.5,7.5V436.049z"/>
	</g>
</g>
<g>
</g>
<g>
</g>
<g>
</g>
<g>
</g>
<g>
</g>
<g>
</g>
<g>
</g>
<g>
</g>
<g>
</g>
<g>
</g>
<g>
</g>
<g>
</g>
<g>
</g>
<g>
</g>
<g>
</g>
</svg>
