<?xml version="1.0" encoding="iso-8859-1"?>
<!-- Generator: Adobe Illustrator 19.0.0, SVG Export Plug-In . SVG Version: 6.00 Build 0)  -->
<svg version="1.1" id="Layer_1" xmlns="http://www.w3.org/2000/svg" xmlns:xlink="http://www.w3.org/1999/xlink" x="0px" y="0px"
	 viewBox="0 0 490 490" style="enable-background:new 0 0 490 490;" xml:space="preserve">
<g>
	<path style="fill:#F48911;" d="M131,7.5H76.557c-9.921,0-17.963,7.975-17.963,17.813v439.375c0,9.837,8.042,17.813,17.963,17.813
		H131V7.5z"/>
	<path style="fill:#FFAB5F;" d="M431.406,464.688c0,9.837-8.043,17.813-17.963,17.813H114.057c-9.921,0-17.963-7.975-17.963-17.813
		V25.313c0-9.837,8.042-17.813,17.963-17.813h299.386c9.92,0,17.963,7.975,17.963,17.813V464.688z"/>
	<path style="opacity:0.1;" d="M138,464.688V25.313c0-9.837,8.042-17.813,17.963-17.813h-41.906
		c-9.921,0-17.963,7.975-17.963,17.813v439.375c0,9.837,8.042,17.813,17.963,17.813h41.906C146.042,482.5,138,474.525,138,464.688z"
		/>
	<rect x="96.094" y="174.023" style="fill:#E0D9AF;" width="335.313" height="141.954"/>
	<path style="fill:#FFE060;" d="M186.452,440.938c-9.516,0-17.381-7.359-17.933-16.78c-0.385-6.572-5.896-11.72-12.547-11.72
		c-9.921,0-17.963-7.975-17.963-17.813V95.375c0-9.837,8.042-17.812,17.963-17.812c6.651,0,12.163-5.148,12.547-11.72
		c0.552-9.42,8.417-16.78,17.933-16.78h154.597c9.518,0,17.383,7.36,17.934,16.781c0.384,6.571,5.896,11.719,12.547,11.719
		c9.92,0,17.963,7.975,17.963,17.812v299.25c0,9.837-8.043,17.813-17.963,17.813c-6.65,0-12.163,5.148-12.547,11.719
		c-0.551,9.421-8.416,16.781-17.934,16.781H186.452z"/>
	<path style="opacity:0.1;" d="M200.075,424.158c-0.385-6.572-5.896-11.72-12.547-11.72c-9.921,0-17.963-7.975-17.963-17.813V95.375
		c0-9.837,8.042-17.812,17.963-17.812c6.651,0,12.163-5.148,12.547-11.72c0.552-9.42,8.417-16.78,17.933-16.78h-31.557
		c-9.516,0-17.381,7.359-17.933,16.78c-0.385,6.572-5.896,11.72-12.547,11.72c-9.921,0-17.963,7.975-17.963,17.812v299.25
		c0,9.837,8.042,17.813,17.963,17.813c6.651,0,12.163,5.148,12.547,11.72c0.552,9.42,8.417,16.78,17.933,16.78h31.557
		C208.492,440.938,200.627,433.578,200.075,424.158z"/>
	<g>
		<g>
			<g>
				<path style="fill:#E0D9AF;" d="M206.321,406c0-31.717,25.712-57.428,57.429-57.428c31.716,0,57.429,25.711,57.429,57.428
					H206.321z"/>
			</g>
		</g>
	</g>
	<path style="opacity:0.1;" d="M274.16,349.531c-3.378-0.619-6.854-0.959-10.41-0.959c-31.717,0-57.429,25.711-57.429,57.428h20.821
		C227.143,377.84,247.417,354.431,274.16,349.531z"/>
	<ellipse style="fill:#FFFFFF;" cx="263.75" cy="144.813" rx="58.377" ry="39.187"/>
	<path style="opacity:0.1;" d="M226,144.813c0-19.26,20.706-35.264,47.985-38.556c-3.326-0.399-6.738-0.631-10.235-0.631
		c-32.24,0-58.377,17.545-58.377,39.188S231.51,184,263.75,184c3.497,0,6.909-0.232,10.235-0.631
		C246.706,180.076,226,164.073,226,144.813z"/>
	<g>
		<g>
			<path style="fill:#736357;" d="M320.257,225.5H207.243c-4.142,0-7.5-3.358-7.5-7.5c0-4.142,3.358-7.5,7.5-7.5h113.014
				c4.143,0,7.5,3.358,7.5,7.5C327.757,222.142,324.399,225.5,320.257,225.5z"/>
		</g>
		<g>
			<path style="fill:#736357;" d="M295.429,257.562h-63.357c-4.142,0-7.5-3.358-7.5-7.5c0-4.142,3.358-7.5,7.5-7.5h63.357
				c4.143,0,7.5,3.358,7.5,7.5C302.929,254.204,299.571,257.562,295.429,257.562z"/>
		</g>
	</g>
	<g>
		<path d="M431.406,63.5c4.143,0,7.5-3.358,7.5-7.5V25.313C438.906,11.355,427.483,0,413.443,0H76.557
			c-14.04,0-25.463,11.355-25.463,25.313v439.375c0,13.957,11.423,25.313,25.463,25.313h336.886
			c14.04,0,25.463-11.355,25.463-25.313V91c0-4.142-3.357-7.5-7.5-7.5c-4.143,0-7.5,3.358-7.5,7.5v75.523h-26.914V95.375
			c0-13.957-11.423-25.312-25.463-25.312c-2.685,0-4.907-2.045-5.06-4.656c-0.781-13.371-11.948-23.844-25.421-23.844H186.452
			c-13.471,0-24.637,10.472-25.42,23.841c-0.153,2.612-2.376,4.659-5.06,4.659c-14.04,0-25.463,11.355-25.463,25.312v71.148h-26.914
			V25.313c0-5.687,4.694-10.313,10.463-10.313h299.386c5.77,0,10.463,4.626,10.463,10.313V56
			C423.906,60.142,427.264,63.5,431.406,63.5z M396.992,181.523h26.914v126.954h-26.914V181.523z M145.508,95.375
			c0-5.686,4.694-10.312,10.463-10.312c10.618,0,19.418-8.25,20.035-18.782c0.319-5.449,4.908-9.718,10.446-9.718h154.597
			c5.539,0,10.128,4.269,10.446,9.718c0.615,10.532,9.415,18.782,20.034,18.782c5.77,0,10.463,4.626,10.463,10.312v299.25
			c0,5.686-4.693,10.313-10.463,10.313c-10.619,0-19.419,8.25-20.034,18.781c-0.318,5.45-4.907,9.719-10.446,9.719H186.452
			c-5.538,0-10.127-4.269-10.446-9.718c-0.617-10.532-9.417-18.782-20.035-18.782c-5.769,0-10.463-4.626-10.463-10.313V95.375z
			 M155.971,419.938c2.685,0,4.907,2.046,5.06,4.659c0.783,13.369,11.949,23.841,25.42,23.841h154.597
			c13.473,0,24.64-10.473,25.421-23.844c0.152-2.611,2.375-4.656,5.06-4.656c14.04,0,25.463-11.355,25.463-25.313v-71.148h26.914
			v141.21c0,5.686-4.693,10.313-10.463,10.313H114.057c-5.77,0-10.463-4.626-10.463-10.313V424c0-4.142-3.358-7.5-7.5-7.5
			c-4.142,0-7.5,3.358-7.5,7.5v40.688c0,3.672,0.797,7.16,2.218,10.313H76.557c-5.77,0-10.463-4.626-10.463-10.313V25.313
			C66.094,19.626,70.788,15,76.557,15h14.254c-1.421,3.152-2.218,6.641-2.218,10.313V389c0,4.142,3.358,7.5,7.5,7.5
			c4.142,0,7.5-3.358,7.5-7.5v-65.523h26.914v71.148C130.508,408.582,141.931,419.938,155.971,419.938z M130.508,181.523v126.954
			h-26.914V181.523H130.508z"/>
		<path d="M218.291,178.749c12.249,8.223,28.393,12.751,45.459,12.751c17.065,0,33.209-4.528,45.458-12.75
			c13.167-8.839,20.419-20.891,20.419-33.937s-7.252-25.098-20.419-33.937c-12.249-8.222-28.393-12.751-45.458-12.751
			c-17.065,0-33.21,4.528-45.459,12.751c-13.166,8.838-20.418,20.891-20.418,33.937S205.125,169.911,218.291,178.749z
			 M263.75,113.125c27.578,0,50.877,14.511,50.877,31.688S291.328,176.5,263.75,176.5c-27.578,0-50.877-14.511-50.877-31.687
			S236.172,113.125,263.75,113.125z"/>
		<path d="M192.931,413.5h141.639c4.143,0,7.5-3.358,7.5-7.5s-3.357-7.5-7.5-7.5h-6.337c-3.447-29.817-27.165-53.534-56.982-56.981
			v-3.413c0-4.142-3.357-7.5-7.5-7.5c-4.143,0-7.5,3.358-7.5,7.5v3.413c-29.817,3.447-53.535,27.164-56.982,56.981h-6.337
			c-4.142,0-7.5,3.358-7.5,7.5S188.789,413.5,192.931,413.5z M263.75,356.072c24.982,0,45.735,18.443,49.364,42.428h-98.729
			C218.015,374.515,238.768,356.072,263.75,356.072z"/>
	</g>
</g>
<g>
</g>
<g>
</g>
<g>
</g>
<g>
</g>
<g>
</g>
<g>
</g>
<g>
</g>
<g>
</g>
<g>
</g>
<g>
</g>
<g>
</g>
<g>
</g>
<g>
</g>
<g>
</g>
<g>
</g>
</svg>
