<?xml version="1.0" encoding="iso-8859-1"?>
<!-- Generator: Adobe Illustrator 19.0.0, SVG Export Plug-In . SVG Version: 6.00 Build 0)  -->
<svg version="1.1" id="Layer_1" xmlns="http://www.w3.org/2000/svg" xmlns:xlink="http://www.w3.org/1999/xlink" x="0px" y="0px"
	 viewBox="0 0 490 490" style="enable-background:new 0 0 490 490;" xml:space="preserve">
<g>
	<path style="fill:#78B591;" d="M42.986,52.126C42.986,27.52,63.393,7.5,88.479,7.5C113.563,7.5,154,17.394,154,42v162.155
		c0,8.355,3.516,15.127-5,15.127h-17.752c-3.461,4.674-8.999,7.717-15.262,7.717c-5.281,0-10.057-2.158-13.5-5.637
		c-3.443,3.479-8.219,5.637-13.5,5.637c-5.281,0-10.057-2.158-13.5-5.637c-3.443,3.479-8.219,5.637-13.5,5.637
		c-10.493,0-19-8.507-19-19c0-0.697,0-3.24,0-3.845V52.126z"/>
	<path style="opacity:0.1;" d="M63.268,73.126c0-24.606,20.406-44.626,45.492-44.626c13.389,0,31.151,2.82,44.805,9.19
		C149.154,16.232,112.043,7.5,88.479,7.5c-25.086,0-45.492,20.02-45.492,44.626v152.029c0,0.605,0,3.147,0,3.845
		c0,10.493,8.507,19,19,19c0.472,0,0.934-0.037,1.396-0.071C63.313,226.346,63.268,73.126,63.268,73.126z"/>
	<g>
		<path style="fill:#8CC63F;" d="M87.707,7.5h0.771c-0.564,0-1.123,0.022-1.682,0.042C87.033,7.515,87.329,7.5,87.707,7.5z"/>
		<path style="fill:#E1F4F2;" d="M133.969,52.126c0-24.606-20.406-44.626-45.49-44.626h313.045c25.084,0,45.49,20.019,45.49,44.626
			v415.247c0,8.355-6.904,15.127-15.42,15.127H149.391c-8.516,0-15.422-6.772-15.422-15.127V204.155V52.126z"/>
		<path style="opacity:0.1;" d="M165.49,467.373V204.155V52.126C165.49,27.52,145.084,7.5,120,7.5H88.479
			c25.084,0,45.49,20.02,45.49,44.626v152.029v263.217c0,8.355,6.906,15.127,15.422,15.127h31.521
			C172.396,482.5,165.49,475.728,165.49,467.373z"/>
	</g>
	<ellipse style="fill:#FFFFFF;" cx="294.215" cy="84.279" rx="47.956" ry="32.281"/>
	<path style="opacity:0.1;" d="M267.088,84.279c0-15.419,16.066-28.304,37.541-31.507C301.274,52.272,297.793,52,294.215,52
		c-26.485,0-47.956,14.453-47.956,32.279c0,17.829,21.471,32.281,47.956,32.281c3.578,0,7.06-0.272,10.414-0.772
		C283.154,112.585,267.088,99.699,267.088,84.279z"/>
	<g>
		<g>
			<path style="fill:#78B591;" d="M390,212.5h-92.5c-4.143,0-7.5-3.358-7.5-7.5c0-4.142,3.357-7.5,7.5-7.5H390
				c4.143,0,7.5,3.358,7.5,7.5C397.5,209.142,394.143,212.5,390,212.5z"/>
		</g>
		<g>
			<path style="fill:#78B591;" d="M390,257.5h-92.5c-4.143,0-7.5-3.358-7.5-7.5c0-4.142,3.357-7.5,7.5-7.5H390
				c4.143,0,7.5,3.358,7.5,7.5C397.5,254.142,394.143,257.5,390,257.5z"/>
		</g>
		<g>
			<path style="fill:#78B591;" d="M390,302.499h-92.5c-4.143,0-7.5-3.358-7.5-7.5c0-4.142,3.357-7.5,7.5-7.5H390
				c4.143,0,7.5,3.358,7.5,7.5C397.5,299.141,394.143,302.499,390,302.499z"/>
		</g>
	</g>
	<g>
		<g>
			<path style="fill:#78B591;" d="M243.75,212.5H195c-4.143,0-7.5-3.358-7.5-7.5c0-4.142,3.357-7.5,7.5-7.5h48.75
				c4.143,0,7.5,3.358,7.5,7.5C251.25,209.142,247.893,212.5,243.75,212.5z"/>
		</g>
		<g>
			<path style="fill:#78B591;" d="M243.75,257.5H195c-4.143,0-7.5-3.358-7.5-7.5c0-4.142,3.357-7.5,7.5-7.5h48.75
				c4.143,0,7.5,3.358,7.5,7.5C251.25,254.142,247.893,257.5,243.75,257.5z"/>
		</g>
		<g>
			<path style="fill:#78B591;" d="M243.75,302.499H195c-4.143,0-7.5-3.358-7.5-7.5c0-4.142,3.357-7.5,7.5-7.5h48.75
				c4.143,0,7.5,3.358,7.5,7.5C251.25,299.141,247.893,302.499,243.75,302.499z"/>
		</g>
		<g>
			<path style="fill:#78B591;" d="M243.75,347.499H195c-4.143,0-7.5-3.358-7.5-7.5s3.357-7.5,7.5-7.5h48.75
				c4.143,0,7.5,3.358,7.5,7.5S247.893,347.499,243.75,347.499z"/>
		</g>
	</g>
	<g>
		<path style="fill:#78B591;" d="M390,162.5H195c-4.143,0-7.5-3.358-7.5-7.5c0-4.142,3.357-7.5,7.5-7.5h195
			c4.143,0,7.5,3.358,7.5,7.5C397.5,159.142,394.143,162.5,390,162.5z"/>
	</g>
	<g>
		<path style="fill:#78B591;" d="M390,394.5H195c-4.143,0-7.5-3.358-7.5-7.5s3.357-7.5,7.5-7.5h195c4.143,0,7.5,3.358,7.5,7.5
			S394.143,394.5,390,394.5z"/>
	</g>
	<g>
		<path style="fill:#78B591;" d="M243.75,432.5H195c-4.143,0-7.5-3.358-7.5-7.5s3.357-7.5,7.5-7.5h48.75c4.143,0,7.5,3.358,7.5,7.5
			S247.893,432.5,243.75,432.5z"/>
	</g>
	<g>
		<path d="M238.759,84.279c0,22.307,24.359,39.781,55.456,39.781c31.097,0,55.456-17.474,55.456-39.781
			c0-22.306-24.359-39.779-55.456-39.779C263.118,44.5,238.759,61.973,238.759,84.279z M334.671,84.279
			c0,13.433-18.526,24.781-40.456,24.781c-21.93,0-40.456-11.349-40.456-24.781c0-13.432,18.526-24.779,40.456-24.779
			C316.145,59.5,334.671,70.848,334.671,84.279z"/>
		<path d="M447.014,411.5c4.143,0,7.5-3.358,7.5-7.5V52.126C454.514,23.384,430.742,0,401.523,0H88.479
			c-29.22,0-52.992,23.384-52.992,52.126V69c0,4.142,3.357,7.5,7.5,7.5c4.143,0,7.5-3.358,7.5-7.5V52.126
			C50.486,31.655,67.529,15,88.479,15c20.948,0,37.99,16.655,37.99,37.126v161.38c-0.463,0.382-0.884,0.82-1.248,1.313
			c-2.203,2.975-5.568,4.681-9.234,4.681c-3.09,0-5.991-1.212-8.17-3.413c-1.408-1.423-3.328-2.224-5.33-2.224
			c-2.002,0-3.922,0.801-5.33,2.224c-2.179,2.201-5.08,3.413-8.17,3.413c-2.154,0-4.21-0.601-6-1.704v-40.683
			c0-4.142-3.357-7.5-7.5-7.5c-4.142,0-7.5,3.358-7.5,7.5v40.683c-1.79,1.103-3.846,1.704-6,1.704c-6.341,0-11.5-5.159-11.5-11.5
			V104c0-4.142-3.357-7.5-7.5-7.5c-4.143,0-7.5,3.358-7.5,7.5v104c0,14.612,11.888,26.5,26.5,26.5c4.829,0,9.457-1.282,13.5-3.686
			c4.043,2.404,8.671,3.686,13.5,3.686c4.829,0,9.457-1.282,13.5-3.686c4.043,2.404,8.671,3.686,13.5,3.686
			c3.641,0,7.204-0.772,10.483-2.196v235.069c0,12.477,10.283,22.627,22.922,22.627h282.203c12.638,0,22.92-10.15,22.92-22.627V434
			c0-4.142-3.357-7.5-7.5-7.5s-7.5,3.358-7.5,7.5v33.373c0,4.206-3.553,7.627-7.92,7.627H149.391c-4.368,0-7.922-3.422-7.922-7.627
			V52.126c0-14.517-6.063-27.666-15.829-37.126h275.884c20.948,0,37.99,16.655,37.99,37.126V404
			C439.514,408.142,442.871,411.5,447.014,411.5z"/>
	</g>
</g>
<g>
</g>
<g>
</g>
<g>
</g>
<g>
</g>
<g>
</g>
<g>
</g>
<g>
</g>
<g>
</g>
<g>
</g>
<g>
</g>
<g>
</g>
<g>
</g>
<g>
</g>
<g>
</g>
<g>
</g>
</svg>
