<?xml version="1.0" encoding="iso-8859-1"?>
<!-- Generator: Adobe Illustrator 19.0.0, SVG Export Plug-In . SVG Version: 6.00 Build 0)  -->
<svg version="1.1" id="Layer_1" xmlns="http://www.w3.org/2000/svg" xmlns:xlink="http://www.w3.org/1999/xlink" x="0px" y="0px"
	 viewBox="0 0 490 490" style="enable-background:new 0 0 490 490;" xml:space="preserve">
<g>
	<path style="fill:#EFDFBB;" d="M120.779,471.505c0,6.072-4.944,10.995-11.043,10.995H78.819c-6.098,0-11.042-4.923-11.042-10.995
		v-118.75c0-6.073,4.944-10.996,11.042-10.996h30.917c6.099,0,11.043,4.923,11.043,10.996V471.505z"/>
	<path style="opacity:0.1;" d="M98.998,471.505v-118.75c0-6.022,4.863-10.906,10.891-10.988c-0.052-0.001-0.102-0.008-0.152-0.008
		H78.819c-6.098,0-11.042,4.923-11.042,10.996v118.75c0,6.072,4.944,10.995,11.042,10.995h30.917c0.051,0,0.101-0.007,0.152-0.008
		C103.861,482.411,98.998,477.526,98.998,471.505z"/>
	<path style="fill:#EFDFBB;" d="M422.223,471.505c0,6.072-4.944,10.995-11.043,10.995h-30.917c-6.098,0-11.042-4.923-11.042-10.995
		v-118.75c0-6.073,4.944-10.996,11.042-10.996h30.917c6.099,0,11.043,4.923,11.043,10.996V471.505z"/>
	<path style="fill:#C69C6D;" d="M422.223,403.333c0,9.108-7.416,16.493-16.563,16.493H84.341c-9.147,0-16.563-7.384-16.563-16.493
		V23.993c0-9.109,7.416-16.493,16.563-16.493h321.318c9.147,0,16.563,7.384,16.563,16.493V403.333z"/>
	<path style="opacity:0.1;" d="M99,403.333V23.993C99,14.884,106.416,7.5,115.563,7.5H84.341c-9.147,0-16.563,7.384-16.563,16.493
		v379.34c0,9.108,7.416,16.493,16.563,16.493h31.223C106.416,419.826,99,412.442,99,403.333z"/>
	<path style="fill:#FFFFFF;" d="M152.291,375.845c-4.288,0-8.189-2.473-10.004-6.342c-4.136-8.817-12.295-15.413-21.826-17.643
		c-4.989-1.168-8.516-5.601-8.516-10.704V86.17c0-5.104,3.526-9.536,8.516-10.704c9.531-2.23,17.69-8.826,21.826-17.643
		c1.814-3.869,5.716-6.342,10.004-6.342h185.418c4.288,0,8.189,2.473,10.004,6.342c4.136,8.817,12.295,15.413,21.826,17.643
		c4.989,1.167,8.516,5.6,8.516,10.704v254.985c0,5.104-3.526,9.536-8.516,10.704c-9.531,2.23-17.69,8.826-21.826,17.643
		c-1.814,3.869-5.716,6.342-10.004,6.342H152.291z"/>
	<path style="opacity:0.1;" d="M173.342,369.503c-4.136-8.817-12.295-15.413-21.826-17.643c-4.989-1.168-8.516-5.601-8.516-10.704
		V86.17c0-5.104,3.526-9.536,8.516-10.704c9.531-2.23,17.691-8.826,21.826-17.643c1.814-3.869,5.716-6.342,10.004-6.342h-31.055
		c-4.288,0-8.189,2.473-10.004,6.342c-4.136,8.817-12.295,15.413-21.826,17.643c-4.989,1.167-8.516,5.6-8.516,10.704v254.985
		c0,5.104,3.526,9.536,8.516,10.704c9.531,2.23,17.69,8.826,21.826,17.643c1.814,3.869,5.716,6.342,10.004,6.342h31.055
		C179.058,375.845,175.156,373.372,173.342,369.503z"/>
	<ellipse style="fill:#FFE060;" cx="245" cy="135.072" rx="57.609" ry="38.509"/>
	<g>
		<path style="fill:#78B591;" d="M189.236,214.016h111.527c4.143,0,7.5-3.358,7.5-7.5c0-4.142-3.357-7.5-7.5-7.5H189.236
			c-4.143,0-7.5,3.358-7.5,7.5C181.736,210.658,185.094,214.016,189.236,214.016z"/>
		<path style="fill:#78B591;" d="M283.762,238.024c0-4.142-3.357-7.5-7.5-7.5h-62.523c-4.143,0-7.5,3.358-7.5,7.5
			c0,4.142,3.357,7.5,7.5,7.5h62.523C280.404,245.524,283.762,242.166,283.762,238.024z"/>
		<path style="fill:#78B591;" d="M308.288,316.667H181.713c-4.143,0-7.5,3.358-7.5,7.5s3.357,7.5,7.5,7.5h126.575
			c4.143,0,7.5-3.358,7.5-7.5S312.431,316.667,308.288,316.667z"/>
		<path style="fill:#78B591;" d="M187.5,294.643c4.143,0,7.5-3.358,7.5-7.5v-9.286c0-4.142-3.357-7.5-7.5-7.5s-7.5,3.358-7.5,7.5
			v9.286C180,291.285,183.357,294.643,187.5,294.643z"/>
		<path style="fill:#78B591;" d="M203,277.857v9.286c0,4.142,3.357,7.5,7.5,7.5s7.5-3.358,7.5-7.5v-9.286c0-4.142-3.357-7.5-7.5-7.5
			S203,273.715,203,277.857z"/>
		<path style="fill:#78B591;" d="M226,277.857v9.286c0,4.142,3.357,7.5,7.5,7.5s7.5-3.358,7.5-7.5v-9.286c0-4.142-3.357-7.5-7.5-7.5
			S226,273.715,226,277.857z"/>
		<path style="fill:#78B591;" d="M249,277.857v9.286c0,4.142,3.357,7.5,7.5,7.5c4.143,0,7.5-3.358,7.5-7.5v-9.286
			c0-4.142-3.357-7.5-7.5-7.5C252.357,270.357,249,273.715,249,277.857z"/>
		<path style="fill:#78B591;" d="M279.5,294.643c4.143,0,7.5-3.358,7.5-7.5v-9.286c0-4.142-3.357-7.5-7.5-7.5s-7.5,3.358-7.5,7.5
			v9.286C272,291.285,275.357,294.643,279.5,294.643z"/>
		<path style="fill:#78B591;" d="M302.5,270.357c-4.143,0-7.5,3.358-7.5,7.5v9.286c0,4.142,3.357,7.5,7.5,7.5s7.5-3.358,7.5-7.5
			v-9.286C310,273.715,306.643,270.357,302.5,270.357z"/>
	</g>
	<g>
		<path style="fill:#FFE060;" d="M316.721,53.5c0,6.842-5.547,12.388-12.389,12.388H185.668c-6.842,0-12.389-5.546-12.389-12.388
			l0,0c0-6.842,5.547-12.388,12.389-12.388h118.664C311.174,41.112,316.721,46.658,316.721,53.5L316.721,53.5z"/>
		<path style="fill:#FFE060;" d="M316.721,375.612c0,6.842-5.547,12.388-12.389,12.388H185.668c-6.842,0-12.389-5.546-12.389-12.388
			l0,0c0-6.842,5.547-12.388,12.389-12.388h118.664C311.174,363.224,316.721,368.77,316.721,375.612L316.721,375.612z"/>
	</g>
	<g>
		<path d="M200.097,168.538c12.101,8.089,28.048,12.544,44.903,12.544s32.802-4.455,44.903-12.544
			c13.03-8.71,20.206-20.595,20.206-33.465c0-12.871-7.176-24.756-20.206-33.466C277.802,93.518,261.855,89.063,245,89.063
			s-32.803,4.455-44.904,12.544c-13.029,8.71-20.205,20.595-20.205,33.466C179.891,147.943,187.066,159.828,200.097,168.538z
			 M245,104.063c27.162,0,50.109,14.201,50.109,31.01c0,16.809-22.947,31.009-50.109,31.009s-50.109-14.201-50.109-31.009
			C194.891,118.263,217.838,104.063,245,104.063z"/>
		<path d="M111.945,309.5c-4.143,0-7.5,3.358-7.5,7.5v24.156c0,8.63,5.883,16.035,14.307,18.007
			c7.315,1.711,13.575,6.768,16.745,13.525c3.036,6.474,9.628,10.657,16.794,10.657h15.054c3.023,7.136,10.098,12.155,18.323,12.155
			h118.664c8.226,0,15.301-5.019,18.324-12.155h15.053c7.166,0,13.758-4.183,16.794-10.657c3.17-6.758,9.43-11.814,16.746-13.525
			c8.423-1.972,14.306-9.376,14.306-18.007V86.17c0-8.631-5.883-16.035-14.307-18.006c-7.315-1.712-13.575-6.768-16.745-13.525
			c-3.036-6.474-9.628-10.658-16.794-10.658h-15.92c-3.381-6.173-9.937-10.37-17.457-10.37H185.668
			c-7.52,0-14.077,4.197-17.456,10.37h-15.921c-7.166,0-13.758,4.184-16.794,10.657c-3.17,6.757-9.43,11.813-16.745,13.525
			c-8.424,1.971-14.307,9.376-14.307,18.006V283c0,4.142,3.357,7.5,7.5,7.5s7.5-3.358,7.5-7.5V86.17c0-1.627,1.12-3.025,2.725-3.401
			c11.747-2.749,21.806-10.884,26.907-21.761c0.578-1.231,1.839-2.027,3.214-2.027h14.274c2.388,8.306,10.038,14.407,19.103,14.407
			h118.664c9.065,0,16.715-6.101,19.103-14.407h14.274c1.375,0,2.636,0.796,3.214,2.027c5.102,10.877,15.16,19.012,26.907,21.761
			c1.604,0.375,2.725,1.774,2.725,3.401v254.985c0,1.627-1.121,3.026-2.725,3.401c-11.746,2.748-21.806,10.883-26.907,21.761
			c-0.577,1.231-1.839,2.026-3.214,2.026h-14.883c-2.91-7.378-10.094-12.621-18.494-12.621H185.668
			c-8.4,0-15.584,5.243-18.494,12.621h-14.883c-1.375,0-2.637-0.795-3.214-2.027c-5.102-10.878-15.161-19.013-26.906-21.761
			c-1.604-0.375-2.726-1.774-2.726-3.401V317C119.445,312.858,116.088,309.5,111.945,309.5z M304.332,58.388H185.668
			c-2.695,0-4.889-2.193-4.889-4.888c0-2.695,2.193-4.888,4.889-4.888h118.664c2.695,0,4.889,2.193,4.889,4.888
			C309.221,56.195,307.027,58.388,304.332,58.388z M185.668,370.724h118.664c2.695,0,4.889,2.193,4.889,4.888
			c0,2.695-2.193,4.888-4.889,4.888H185.668c-2.695,0-4.889-2.193-4.889-4.888C180.779,372.917,182.973,370.724,185.668,370.724z"/>
		<path d="M422.223,90.5c4.143,0,7.5-3.358,7.5-7.5V23.993C429.723,10.763,418.928,0,405.659,0H84.341
			C71.072,0,60.277,10.763,60.277,23.993v447.512c0,10.198,8.318,18.495,18.542,18.495h30.917c10.225,0,18.543-8.297,18.543-18.495
			v-44.179h233.441v44.179c0,10.198,8.318,18.495,18.542,18.495h30.917c10.225,0,18.543-8.297,18.543-18.495V117
			c0-4.142-3.357-7.5-7.5-7.5c-4.143,0-7.5,3.358-7.5,7.5v286.333c0,4.958-4.065,8.993-9.063,8.993H84.341
			c-4.998,0-9.063-4.034-9.063-8.993V23.993c0-4.959,4.065-8.993,9.063-8.993h321.318c4.998,0,9.063,4.034,9.063,8.993V83
			C414.723,87.142,418.08,90.5,422.223,90.5z M376.721,427.326h11.501v15.115c0,4.142,3.357,7.5,7.5,7.5c4.143,0,7.5-3.358,7.5-7.5
			v-15.115h2.438c3.206,0,6.265-0.633,9.063-1.772v45.951c0,1.927-1.59,3.495-3.543,3.495h-30.917c-1.953,0-3.542-1.568-3.542-3.495
			V427.326z M84.341,427.326h2.438v15.115c0,4.142,3.357,7.5,7.5,7.5s7.5-3.358,7.5-7.5v-15.115h11.501v44.179
			c0,1.927-1.59,3.495-3.543,3.495H78.819c-1.953,0-3.542-1.568-3.542-3.495v-45.951C78.077,426.693,81.135,427.326,84.341,427.326z
			"/>
	</g>
</g>
<g>
</g>
<g>
</g>
<g>
</g>
<g>
</g>
<g>
</g>
<g>
</g>
<g>
</g>
<g>
</g>
<g>
</g>
<g>
</g>
<g>
</g>
<g>
</g>
<g>
</g>
<g>
</g>
<g>
</g>
</svg>
