<?xml version="1.0" encoding="iso-8859-1"?>
<!-- Generator: Adobe Illustrator 19.0.0, SVG Export Plug-In . SVG Version: 6.00 Build 0)  -->
<svg version="1.1" id="Layer_1" xmlns="http://www.w3.org/2000/svg" xmlns:xlink="http://www.w3.org/1999/xlink" x="0px" y="0px"
	 viewBox="0 0 490 490" style="enable-background:new 0 0 490 490;" xml:space="preserve">
<g>
	<g>
		<ellipse style="fill:#FFE7CC;" cx="150.517" cy="254.771" rx="32.742" ry="32.63"/>
		<ellipse style="fill:#FFE7CC;" cx="339.483" cy="254.771" rx="32.742" ry="32.63"/>
	</g>
	<path style="fill:#808080;" d="M78.442,482.5c-6.132,0-11.104-4.954-11.104-11.066v-38.731c0-35.391,28.891-64.183,64.403-64.183
		h226.519c35.512,0,64.403,28.792,64.403,64.183v38.731c0,6.112-4.972,11.066-11.104,11.066H78.442z"/>
	<path style="opacity:0.1;" d="M109,471.434v-38.731c0-35.391,28.891-64.183,64.403-64.183h-41.662
		c-35.512,0-64.403,28.792-64.403,64.183v38.731c0,6.112,4.972,11.066,11.104,11.066h41.662C113.972,482.5,109,477.546,109,471.434z
		"/>
	<circle style="fill:#EF645E;" cx="245" cy="426" r="12.5"/>
	<path style="fill:#EF645E;" d="M257.5,475c0-6.904-5.597-12.5-12.5-12.5s-12.5,5.596-12.5,12.5c0,2.818,0.944,5.409,2.517,7.5
		h19.966C256.556,480.409,257.5,477.818,257.5,475z"/>
	<path style="fill:#EF645E;" d="M331.226,353.261c0,12.835-10.44,23.239-23.319,23.239H182.093
		c-12.879,0-23.319-10.405-23.319-23.239l0,0c0-12.835,10.441-23.24,23.319-23.24h125.813
		C320.786,330.021,331.226,340.426,331.226,353.261L331.226,353.261z"/>
	<path style="opacity:0.1;" d="M179.548,353.261c0-12.835,10.44-23.24,23.319-23.24h-20.774c-12.879,0-23.319,10.405-23.319,23.24
		c0,12.835,10.441,23.239,23.319,23.239h20.774C189.988,376.5,179.548,366.095,179.548,353.261z"/>
	<g>
		<g>
			<path style="fill:#EF645E;" d="M289.357,369.279c15.54,15.486,22.201,33.957,14.878,41.256
				c-7.324,7.298-25.858,0.661-41.398-14.827c-15.539-15.487-22.201-33.957-14.877-41.257
				C255.283,347.153,273.817,353.792,289.357,369.279z"/>
		</g>
		<g>
			<path style="fill:#EF645E;" d="M227.164,395.708c-15.541,15.487-34.075,22.125-41.398,14.827
				c-7.324-7.298-0.663-25.77,14.877-41.256c15.54-15.487,34.074-22.126,41.398-14.828
				C249.364,361.751,242.703,380.221,227.164,395.708z"/>
		</g>
	</g>
	<path style="fill:#FFE7CC;" d="M350.749,264.754c0,50.742-52.664,91.876-103.579,91.876h-4.339
		c-50.916,0-103.579-41.134-103.579-91.876v-62.692c0-50.742,41.275-91.876,92.191-91.876h27.115
		c50.916,0,92.191,41.134,92.191,91.876V264.754z"/>
	<path style="fill:#C69C6D;" d="M350.749,240.5v-38.439c0-50.742-41.275-91.876-92.191-91.876h-10.055v38.438
		c0,50.742,41.275,91.876,92.191,91.876H350.749z"/>
	<path style="opacity:0.1;" d="M170.503,264.754v-62.692c0-50.053,40.162-90.753,90.123-91.85c-0.688-0.015-1.377-0.026-2.068-0.026
		h-27.115c-50.916,0-92.191,41.134-92.191,91.876v62.692c0,50.742,52.663,91.876,103.579,91.876h4.339
		c4.484,0,8.982-0.326,13.457-0.942C214.299,349.304,170.503,311.027,170.503,264.754z"/>
	<path style="fill:#C69C6D;" d="M308,148.624v-24.118c-14.288-9.066-31.249-14.32-49.442-14.32h-27.115
		c-50.916,0-92.191,41.134-92.191,91.876v24.118c14.288,9.066,31.249,14.32,49.442,14.32h27.115
		C266.725,240.5,308,199.366,308,148.624z"/>
	<path style="fill:#808080;" d="M382.745,77.758c0-23.281-18.938-42.155-42.3-42.155c-5.878,0-11.475,1.197-16.562,3.356
		c-4.75-18.102-21.27-31.46-40.922-31.46c-16.236,0-30.329,9.122-37.419,22.499C238.452,16.622,224.36,7.5,208.124,7.5
		c-19.811,0-36.435,13.575-41.032,31.899c-5.344-2.43-11.278-3.795-17.536-3.795c-23.361,0-42.3,18.874-42.3,42.155
		c0,19.739,13.616,36.304,31.996,40.89v84.929h211.497v-84.929C369.129,114.062,382.745,97.498,382.745,77.758z"/>
	<rect x="139.251" y="176.5" style="fill:#EF645E;" width="211.497" height="27.077"/>
	<g>
		<path style="opacity:0.1;" d="M138.511,77.758c0-17.777,11.047-32.973,26.669-39.169c-4.835-1.92-10.103-2.985-15.624-2.985
			c-23.361,0-42.3,18.874-42.3,42.155c0,19.739,13.616,36.304,31.996,40.89v84.929h31.255v-84.929
			C152.126,114.062,138.511,97.498,138.511,77.758z"/>
	</g>
	<rect x="139.251" y="176.5" style="opacity:0.1;" width="31.251" height="27.077"/>
	<g>
		<path d="M200.531,286.905c4.142,0,7.5-3.358,7.5-7.5V269.5c0-4.142-3.358-7.5-7.5-7.5c-4.142,0-7.5,3.358-7.5,7.5v9.905
			C193.031,283.547,196.389,286.905,200.531,286.905z"/>
		<path d="M289.469,286.905c4.142,0,7.5-3.358,7.5-7.5V269.5c0-4.142-3.358-7.5-7.5-7.5c-4.142,0-7.5,3.358-7.5,7.5v9.905
			C281.969,283.547,285.327,286.905,289.469,286.905z"/>
		<path d="M245,322.955C245.001,322.955,245,322.955,245,322.955c8.509,0,16.51-3.314,22.526-9.331
			c2.929-2.929,2.929-7.678,0-10.606c-2.929-2.93-7.678-2.929-10.607,0c-3.184,3.184-7.417,4.937-11.919,4.937
			s-8.735-1.753-11.919-4.937c-2.929-2.929-7.678-2.929-10.606,0c-2.929,2.929-2.929,7.678,0,10.606
			C228.491,319.642,236.491,322.955,245,322.955z"/>
		<path d="M225,426c0,11.028,8.972,20,20,20s20-8.972,20-20s-8.972-20-20-20S225,414.972,225,426z M250,426c0,2.757-2.243,5-5,5
			s-5-2.243-5-5s2.243-5,5-5S250,423.243,250,426z"/>
		<path d="M422.662,453.5c-4.142,0-7.5,3.358-7.5,7.5v10.434c0,1.966-1.617,3.566-3.604,3.566H287.5v-55.232
			c2.941,0.798,5.774,1.232,8.418,1.232c5.522,0,10.228-1.781,13.612-5.152c3.389-3.378,5.181-8.081,5.181-13.601
			c0-5.511-1.845-11.831-5.164-18.291c7.31-0.384,13.948-3.326,19.042-7.936h29.671c31.376,0,56.903,25.428,56.903,56.683
			c0,4.142,3.358,7.5,7.5,7.5c4.142,0,7.5-3.358,7.5-7.5c0-39.526-32.255-71.683-71.903-71.683h-20.534
			c0.649-2.48,1.001-5.079,1.001-7.759c0-9.076-3.976-17.232-10.269-22.862c11.69-11.295,20.159-24.229,25.013-38.011
			c15.314-5.677,26.255-20.393,26.255-37.617c0-15.373-8.716-28.746-21.477-35.481v-95.146
			c19.103-7.257,31.996-25.566,31.996-46.386c0-27.38-22.34-49.655-49.8-49.655c-4.065,0-8.058,0.481-11.94,1.437
			C320.642,11.819,302.898,0,282.961,0c-14.546,0-28.085,6.269-37.419,16.883C236.209,6.269,222.67,0,208.124,0
			c-20.1,0-37.866,11.912-45.658,29.794c-4.187-1.124-8.504-1.69-12.91-1.69c-27.46,0-49.8,22.275-49.8,49.655
			c0,20.82,12.893,39.129,31.996,46.386v14.857c0,4.142,3.358,7.5,7.5,7.5c4.142,0,7.5-3.358,7.5-7.5v-12.853h17.247
			c4.142,0,7.5-3.358,7.5-7.5c0-4.142-3.358-7.5-7.5-7.5h-23.752c-15.05-4.143-25.491-17.748-25.491-33.39
			c0-19.109,15.611-34.655,34.8-34.655c3.094,0,6.126,0.402,9.064,1.194c-0.191,1.773-0.295,3.56-0.295,5.357
			c0,4.142,3.358,7.5,7.5,7.5c4.142,0,7.5-3.358,7.5-7.5c0-2.942,0.383-5.842,1.109-8.655h-0.006c3.952-15.319,17.772-26,33.696-26
			c12.941,0,24.74,7.093,30.791,18.511c1.301,2.454,3.85,3.988,6.627,3.988c2.777,0,5.326-1.534,6.626-3.988
			C258.221,22.093,270.02,15,282.961,15c15.827,0,29.671,10.636,33.668,25.864c0.012,0.046,0.036,0.136,0.036,0.136
			c0.725,2.808,1.096,5.703,1.096,8.655c0,4.142,3.358,7.5,7.5,7.5c4.142,0,7.5-3.358,7.5-7.5c0-1.891-0.117-3.764-0.327-5.621
			c2.606-0.612,5.283-0.931,8.011-0.931c19.188,0,34.8,15.546,34.8,34.655c0,15.642-10.441,29.247-25.491,33.39H309
			c-4.142,0-7.5,3.358-7.5,7.5c0,4.142,3.358,7.5,7.5,7.5h34.249V169H294.5v-16.285c0-4.142-3.358-7.5-7.5-7.5
			c-4.142,0-7.5,3.358-7.5,7.5V169h-27v-16.285c0-4.142-3.358-7.5-7.5-7.5s-7.5,3.358-7.5,7.5V169h-26.999v-16.285
			c0-4.142-3.358-7.5-7.5-7.5c-4.142,0-7.5,3.358-7.5,7.5V169h-48.749v-3c0-4.142-3.358-7.5-7.5-7.5c-4.142,0-7.5,3.358-7.5,7.5v37
			v0.577v15.712c-12.76,6.735-21.477,20.109-21.477,35.481c0,17.225,10.941,31.94,26.255,37.617
			c4.854,13.782,13.323,26.715,25.013,38.011c-6.293,5.63-10.269,13.786-10.269,22.862c0,2.68,0.352,5.279,1.001,7.759h-20.534
			c-39.647,0-71.903,32.157-71.903,71.683v38.731c0,10.237,8.346,18.566,18.604,18.566h333.116c10.258,0,18.604-8.329,18.604-18.566
			V461C430.162,456.858,426.804,453.5,422.662,453.5z M358.249,264.754v-26.746c4.018,4.451,6.477,10.321,6.477,16.763
			c0,6.608-2.586,12.618-6.79,17.107C358.142,269.515,358.249,267.139,358.249,264.754z M125.275,254.771
			c0-6.441,2.458-12.312,6.477-16.763v26.746c0,2.385,0.107,4.761,0.313,7.124C127.86,267.389,125.275,261.379,125.275,254.771z
			 M298.941,405.222c-0.496,0.495-1.598,0.778-3.023,0.778c-6.038,0-16.971-4.825-27.787-15.603
			c-6.503-6.481-10.829-12.992-13.257-18.465l14.959,14.907c1.463,1.458,3.378,2.188,5.294,2.188c1.923,0,3.847-0.736,5.313-2.206
			c2.924-2.934,2.915-7.683-0.019-10.606l-13.916-13.868c0.259-0.047,0.518-0.089,0.777-0.139
			c5.109,2.525,10.956,6.58,16.781,12.385c10.809,10.772,15.647,21.651,15.647,27.655
			C299.71,403.651,299.43,404.735,298.941,405.222z M307.907,369h-8.581c-1.473-1.71-3.029-3.393-4.675-5.033
			c-2.621-2.612-5.349-5.004-8.125-7.164c10.715-4.006,20.985-9.576,30.306-16.526c4.159,2.839,6.895,7.598,6.895,12.983
			C323.726,361.94,316.629,369,307.907,369z M343.249,233h-2.555c-19.3,0-37.09-6.489-51.342-17.366
			c1.357-1.479,2.669-2.998,3.936-4.557h49.961V233z M146.751,184h196.497v12.077H146.751V184z M146.751,211.077h125.905
			C257.619,224.685,237.677,233,215.809,233h-27.115c-14.79,0-29.206-3.812-41.942-11.06V211.077z M146.751,264.754v-25.967
			c13.073,6.05,27.353,9.213,41.942,9.213h27.115c23.624,0,45.35-8.24,62.45-21.981C295.357,239.757,317.073,248,340.694,248h2.555
			v16.754c0,21.71-10.675,42.755-30.058,59.256c-18.753,15.964-42.816,25.121-66.021,25.121h-4.339
			c-23.205,0-47.268-9.156-66.021-25.121C157.426,307.509,146.751,286.464,146.751,264.754z M205.937,374.592
			c5.825-5.806,11.671-9.86,16.78-12.385c0.259,0.049,0.518,0.092,0.778,0.139l-13.916,13.868
			c-2.934,2.924-2.942,7.673-0.019,10.606c1.465,1.471,3.389,2.206,5.313,2.206c1.915,0,3.831-0.729,5.294-2.188l14.959-14.908
			c-2.427,5.473-6.754,11.985-13.257,18.465C211.053,401.175,200.12,406,194.082,406c-1.425,0-2.527-0.283-3.023-0.777
			c-0.489-0.487-0.77-1.572-0.77-2.976C190.29,396.243,195.128,385.363,205.937,374.592z M182.093,369
			c-8.723,0-15.819-7.06-15.819-15.739c0-5.386,2.736-10.145,6.895-12.983c9.32,6.95,19.59,12.52,30.305,16.526
			c-2.776,2.16-5.504,4.551-8.125,7.164c-1.646,1.64-3.202,3.324-4.675,5.033H182.093z M240,475c0-2.757,2.243-5,5-5s5,2.243,5,5
			H240z M272.5,475H265c0-11.028-8.972-20-20-20s-20,8.972-20,20H78.442c-1.987,0-3.604-1.6-3.604-3.566v-38.731
			c0-31.255,25.526-56.683,56.903-56.683h29.671c5.095,4.609,11.732,7.551,19.041,7.936c-3.318,6.46-5.163,12.78-5.163,18.291
			c0,5.52,1.792,10.223,5.182,13.601c3.383,3.371,8.089,5.152,13.611,5.152c11.305,0,26.01-7.655,38.376-19.979
			c5.027-5.01,9.263-10.407,12.542-15.805c3.278,5.398,7.515,10.795,12.542,15.805c4.75,4.733,9.844,8.769,14.958,11.956V475z"/>
	</g>
</g>
<g>
</g>
<g>
</g>
<g>
</g>
<g>
</g>
<g>
</g>
<g>
</g>
<g>
</g>
<g>
</g>
<g>
</g>
<g>
</g>
<g>
</g>
<g>
</g>
<g>
</g>
<g>
</g>
<g>
</g>
</svg>
