<?xml version="1.0" encoding="iso-8859-1"?>
<!-- Generator: Adobe Illustrator 19.0.0, SVG Export Plug-In . SVG Version: 6.00 Build 0)  -->
<svg version="1.1" id="Layer_1" xmlns="http://www.w3.org/2000/svg" xmlns:xlink="http://www.w3.org/1999/xlink" x="0px" y="0px"
	 viewBox="0 0 490 490" style="enable-background:new 0 0 490 490;" xml:space="preserve">
<g>
	<path style="fill:#E6E6E6;" d="M357.765,319.207h-43.07v-16.949c0-11.549-9.361-20.912-20.908-20.912h-97.572
		c-11.548,0-20.909,9.362-20.909,20.912v16.949h-43.07c-35.357,0-64.122,28.671-64.122,63.914v88.424
		c0,6.086,4.95,10.954,11.056,10.954h331.66c6.105,0,11.056-4.868,11.056-10.954v-88.424
		C421.886,347.879,393.121,319.207,357.765,319.207z"/>
	<g style="opacity:0.1;">
		<path d="M110,471.546v-88.424c0-35.243,28.764-63.914,64.122-63.914h-41.886c-35.357,0-64.122,28.671-64.122,63.914v88.424
			c0,6.086,4.95,10.954,11.056,10.954h41.886C114.95,482.5,110,477.632,110,471.546z"/>
	</g>
	<polygon style="fill:#294D73;" points="317.397,319.207 255.344,482.5 344.896,482.5 344.896,319.207 	"/>
	<polygon style="fill:#294D73;" points="172.603,319.207 145.105,319.207 145.105,482.5 234.656,482.5 	"/>
	<path style="fill:#B3B3B3;" d="M252.5,479.513V339c0-4.142-3.358-7.5-7.5-7.5c-4.142,0-7.5,3.358-7.5,7.5v140.513
		c0,1.063,0.224,2.071,0.622,2.987h13.756C252.276,481.584,252.5,480.575,252.5,479.513z"/>
	<g>
		<path style="fill:#EF645E;" d="M295.265,304.672c-3.273-1.892-7.308-1.892-10.582,0L245,327.587l-39.684-22.915
			c-3.273-1.892-7.309-1.892-10.582,0c-3.274,1.891-5.291,5.384-5.291,9.167v46.698c0,3.782,2.018,7.276,5.291,9.168
			c3.273,1.89,7.308,1.89,10.582,0L245,346.788l39.684,22.918c3.273,1.89,7.309,1.89,10.582,0c3.274-1.892,5.292-5.386,5.292-9.168
			v-46.698C300.557,310.057,298.539,306.564,295.265,304.672z"/>
	</g>
	<g>
		<ellipse style="fill:#FFE7CC;" cx="150.93" cy="195.848" rx="32.599" ry="32.493"/>
		<ellipse style="fill:#FFE7CC;" cx="339.07" cy="195.848" rx="32.599" ry="32.493"/>
	</g>
	<path style="fill:#FFE7CC;" d="M350.286,205.789c0,50.529-52.433,91.491-103.126,91.491h-4.32
		c-50.693,0-103.126-40.962-103.126-91.491v-62.43c0-50.529,41.095-91.491,91.788-91.491h26.997
		c50.693,0,91.788,40.962,91.788,91.491V205.789z"/>
	<path style="opacity:0.1;" d="M171,205.789v-62.43c0-49.814,39.941-90.327,89.644-91.463c-0.713-0.017-1.428-0.027-2.145-0.027
		h-26.997c-50.693,0-91.788,40.962-91.788,91.491v62.43c0,50.529,52.434,91.491,103.126,91.491h4.32c4.494,0,9-0.328,13.483-0.95
		C214.551,289.936,171,251.839,171,205.789z"/>
	<path style="fill:#C69C6D;" d="M158.214,167.828h5.067c44.891,0,90.938-27.391,110.81-66.319
		c20.184,19.949,47.869,33.589,76.194,36.943V98.991c0-50.529-41.094-91.491-91.788-91.491h-26.997
		c-50.693,0-91.788,40.962-91.788,91.491v62.43c0,1.643,0.059,3.275,0.167,4.897C145.968,167.3,152.101,167.828,158.214,167.828z"/>
	<path style="opacity:0.1;" d="M171,98.991c0-49.814,39.941-90.327,89.644-91.463c-0.713-0.017-1.428-0.027-2.145-0.027h-26.997
		c-50.693,0-91.788,40.962-91.788,91.491v62.43c0,1.643,0.059,3.275,0.167,4.897c6.087,0.982,12.22,1.51,18.333,1.51h5.067
		c2.599,0,5.201-0.102,7.802-0.282C171.029,141.616,171,98.991,171,98.991z"/>
	<g>
		<g>
			<path d="M286.286,442.668c0,4.142,3.358,7.5,7.5,7.5h29.869c4.142,0,7.5-3.358,7.5-7.5s-3.358-7.5-7.5-7.5h-29.869
				C289.644,435.168,286.286,438.526,286.286,442.668z"/>
			<path d="M421.886,426.5c4.142,0,7.5-3.358,7.5-7.5v-35.879c0-39.378-32.129-71.414-71.621-71.414h-35.57v-9.448
				c0-7.603-3.013-14.506-7.893-19.608c2.852-2.027,5.622-4.181,8.294-6.457c14.52-12.363,24.858-27.055,30.427-42.863
				c15.251-5.662,26.147-20.323,26.147-37.483c0-15.313-8.677-28.635-21.383-35.351V98.99c0-54.583-44.54-98.99-99.288-98.99
				h-26.997c-33.115,0-63.934,16.376-82.438,43.806c-2.317,3.434-1.411,8.095,2.023,10.412c3.433,2.317,8.095,1.411,10.412-2.023
				C177.21,28.904,203.38,15,231.501,15h26.997c46.477,0,84.288,37.678,84.288,83.99v30.701
				c-23.491-4.576-46.229-16.523-63.422-33.516c-1.702-1.682-4.103-2.451-6.464-2.071c-2.361,0.38-4.4,1.864-5.488,3.995
				c-8.964,17.561-24.302,33.446-43.189,44.729c-18.889,11.285-40.532,17.5-60.94,17.5h-5.067c-3.593,0-7.275-0.199-11.001-0.594
				v-9.313h17.391c0.038,0,0.076-0.001,0.114-0.001c18.418-0.28,37.915-6.078,54.899-16.326
				c17.066-10.297,30.911-24.679,38.985-40.496c1.883-3.689,0.419-8.207-3.27-10.09c-3.688-1.882-8.206-0.419-10.09,3.27
				c-14.127,27.675-48.056,48.126-80.696,48.644h-17.333v-9.895h17.185c0.045,0,0.09,0,0.135-0.001
				c13.305-0.239,27.647-4.383,40.384-11.668c3.595-2.057,4.843-6.639,2.786-10.234c-2.057-3.596-6.639-4.844-10.234-2.786
				c-10.563,6.043-22.331,9.483-33.14,9.69h-17.115V98.99c0-8.778,1.351-17.422,4.014-25.691c1.27-3.942-0.896-8.168-4.839-9.438
				c-3.942-1.27-8.169,0.896-9.438,4.839c-3.143,9.757-4.736,19.948-4.736,30.289v61.507c-12.705,6.715-21.382,20.038-21.382,35.35
				c0,17.16,10.895,31.82,26.146,37.482c5.569,15.809,15.907,30.5,30.427,42.863c2.673,2.276,5.442,4.43,8.295,6.457
				c-4.881,5.103-7.894,12.006-7.894,19.608v9.448h-35.57c-39.492,0-71.622,32.036-71.622,71.414v88.425
				c0,10.176,8.324,18.454,18.556,18.454h331.66c10.231,0,18.556-8.278,18.556-18.454V448c0-4.142-3.358-7.5-7.5-7.5
				c-4.142,0-7.5,3.358-7.5,7.5v23.546c0,1.937-1.562,3.454-3.556,3.454h-58.435V326.707h5.369
				c31.221,0,56.621,25.307,56.621,56.414V419C414.386,423.142,417.744,426.5,421.886,426.5z M357.786,205.789V179.24
				c3.961,4.419,6.383,10.232,6.383,16.608c0,6.54-2.544,12.49-6.688,16.948C357.681,210.471,357.786,208.134,357.786,205.789z
				 M125.831,195.848c0-6.376,2.421-12.189,6.382-16.607v26.549c0,2.345,0.105,4.681,0.305,7.006
				C128.375,208.337,125.831,202.387,125.831,195.848z M147.213,205.789v-31c3.713,0.346,7.394,0.539,11.001,0.539h5.067
				c44.668,0,89.594-25.056,112.677-61.927c18.951,16.187,42.608,27.346,66.827,31.515v60.873c0,21.61-10.624,42.558-29.915,58.983
				c-18.665,15.892-42.615,25.007-65.71,25.007h-4.32c-23.095,0-47.046-9.115-65.711-25.007
				C157.837,248.347,147.213,227.399,147.213,205.789z M272.68,329.689h-16.32l32.075-18.522c0.935-0.54,2.146-0.539,3.079-0.001
				c0.952,0.55,1.543,1.575,1.543,2.674v46.697c0,1.099-0.591,2.124-1.542,2.673c-0.935,0.54-2.148,0.538-3.081,0l-32.072-18.522
				h16.317c4.142,0,7.5-3.358,7.5-7.5C280.18,333.046,276.822,329.689,272.68,329.689z M217.32,344.689h16.317l-32.07,18.521
				c-0.935,0.539-2.149,0.539-3.08,0.001c-0.952-0.55-1.543-1.575-1.543-2.674V313.84c0-1.099,0.591-2.124,1.543-2.674
				c0.934-0.539,2.144-0.54,3.08,0.001l32.074,18.522h-16.32c-4.142,0-7.5,3.358-7.5,7.5
				C209.82,341.331,213.178,344.689,217.32,344.689z M190.983,298.178c-3.946,2.28-6.826,5.955-8.177,10.189v-6.107
				c0-4.774,2.515-8.962,6.281-11.339c3.351,1.783,6.778,3.401,10.258,4.857C196.409,295.888,193.531,296.706,190.983,298.178z
				 M213.332,300.64c9.721,2.712,19.675,4.139,29.508,4.139h4.32c9.834,0,19.788-1.428,29.509-4.14L245,318.927L213.332,300.64z
				 M290.655,295.776c3.48-1.456,6.907-3.073,10.258-4.857c3.766,2.377,6.281,6.565,6.281,11.339v6.107
				c-1.352-4.234-4.232-7.909-8.178-10.189C296.469,296.706,293.591,295.888,290.655,295.776z M137.605,475H79.17
				c-1.994,0-3.556-1.517-3.556-3.454v-88.425c0-31.107,25.4-56.414,56.622-56.414h5.369V475z M152.605,475V326.707h14.826
				L223.783,475H152.605z M239.829,475l-36.728-96.651c2.092-0.362,4.117-1.081,5.967-2.149L245,355.448l35.934,20.753
				c1.849,1.067,3.873,1.787,5.965,2.148L250.171,475H239.829z M337.396,475h-71.178l56.353-148.293h14.826V475z"/>
		</g>
		<path d="M200.726,217.787c4.142,0,7.5-3.358,7.5-7.5v-9.863c0-4.142-3.358-7.5-7.5-7.5s-7.5,3.358-7.5,7.5v9.863
			C193.226,214.429,196.583,217.787,200.726,217.787z"/>
		<path d="M289.274,217.787c4.142,0,7.5-3.358,7.5-7.5v-9.863c0-4.142-3.358-7.5-7.5-7.5c-4.142,0-7.5,3.358-7.5,7.5v9.863
			C281.774,214.429,285.132,217.787,289.274,217.787z"/>
		<path d="M245,263.5L245,263.5c8.481,0,16.455-3.303,22.451-9.301c2.929-2.929,2.928-7.678-0.001-10.606
			c-2.929-2.929-7.678-2.929-10.606,0.001c-3.164,3.163-7.37,4.906-11.844,4.906c-4.474,0-8.68-1.743-11.844-4.907
			c-2.928-2.929-7.677-2.929-10.607,0c-2.929,2.929-2.929,7.677,0,10.606C228.546,260.197,236.519,263.5,245,263.5z"/>
	</g>
</g>
<g>
</g>
<g>
</g>
<g>
</g>
<g>
</g>
<g>
</g>
<g>
</g>
<g>
</g>
<g>
</g>
<g>
</g>
<g>
</g>
<g>
</g>
<g>
</g>
<g>
</g>
<g>
</g>
<g>
</g>
</svg>
