<?xml version="1.0" encoding="iso-8859-1"?>
<!-- Generator: Adobe Illustrator 19.0.0, SVG Export Plug-In . SVG Version: 6.00 Build 0)  -->
<svg version="1.1" id="Layer_1" xmlns="http://www.w3.org/2000/svg" xmlns:xlink="http://www.w3.org/1999/xlink" x="0px" y="0px"
	 viewBox="0 0 490 490" style="enable-background:new 0 0 490 490;" xml:space="preserve">
<g>
	<path style="fill:#E1F4F2;" d="M132.852,299.578c-35.165,0-63.771,28.521-63.771,63.579v108.4c0,6.055,4.923,10.942,10.995,10.942
		h329.85c6.072,0,10.995-4.887,10.995-10.942v-108.4c0-35.058-28.607-63.579-63.771-63.579H132.852z"/>
	<path style="opacity:0.1;" d="M100.16,471.558v-108.4c0-35.058,28.606-63.579,63.771-63.579h-31.08
		c-35.165,0-63.771,28.521-63.771,63.579v108.4c0,6.055,4.923,10.942,10.995,10.942h31.08
		C105.083,482.5,100.16,477.613,100.16,471.558z"/>
	<g>
		<rect x="134.606" y="299.578" style="fill:#58A35D;" width="32.819" height="84.355"/>
		<rect x="134.606" y="299.578" style="opacity:0.1;" width="10.394" height="84.355"/>
		<rect x="322.574" y="299.578" style="fill:#58A35D;" width="32.82" height="84.355"/>
	</g>
	<path style="fill:#407C46;" d="M376.279,482.5v-83.652c0-8.241-6.679-14.921-14.918-14.921H128.639
		c-8.239,0-14.918,6.681-14.918,14.921V482.5H376.279z"/>
	<path style="opacity:0.1;" d="M159.918,383.927h-31.279c-8.239,0-14.918,6.681-14.918,14.921V482.5H145v-83.652
		C145,390.607,151.679,383.927,159.918,383.927z"/>
	<circle style="fill:#736357;" cx="152.508" cy="419.574" r="12.929"/>
	<circle style="fill:#736357;" cx="338.487" cy="419.574" r="12.929"/>
	<path style="fill:#736357;" d="M290.134,482.5c-3.503-21.777-22.373-38.415-45.134-38.415c-22.761,0-41.63,16.637-45.134,38.415
		H290.134z"/>
	<path style="fill:#E1F4F2;" d="M314.315,282.718c0-11.489-9.311-20.802-20.795-20.802h-48.256h-0.527H196.48
		c-11.484,0-20.794,9.313-20.794,20.802v30.691l22.246,22.251c3.342,3.344,8.762,3.344,12.105,0L245,300.689l34.963,34.971
		c3.343,3.344,8.763,3.344,12.106,0l22.384-22.389L314.315,282.718z"/>
	<g>
		<ellipse style="fill:#FFE7CC;" cx="151.443" cy="187.309" rx="32.421" ry="32.323"/>
		<ellipse style="fill:#FFE7CC;" cx="338.557" cy="187.309" rx="32.421" ry="32.323"/>
	</g>
	<path style="fill:#FFE7CC;" d="M349.711,197.198c0,50.265-52.146,91.012-102.563,91.012h-4.297
		c-50.416,0-102.564-40.748-102.564-91.012v-62.103c0-50.265,40.87-91.012,91.287-91.012h26.851
		c50.416,0,91.285,40.747,91.285,91.012V197.198z"/>
	<path style="opacity:0.1;" d="M171.577,197.198v-62.103c0-49.525,39.676-89.809,89.067-90.984
		c-0.737-0.018-1.476-0.028-2.219-0.028h-26.851c-50.417,0-91.287,40.747-91.287,91.012v62.103
		c0,50.265,52.147,91.012,102.564,91.012h4.297c4.498,0,9.009-0.33,13.496-0.957C214.835,280.858,171.577,242.978,171.577,197.198z"
		/>
	<path style="fill:#736357;" d="M316.409,126.514c0,22.332,13.784,41.433,33.302,49.286v-40.705
		c0-18.109-5.305-34.981-14.449-49.159C323.736,95.68,316.409,110.238,316.409,126.514z"/>
	<path style="fill:#736357;" d="M173.59,126.514c0-16.276-7.325-30.834-18.852-40.578c-9.145,14.178-14.45,31.05-14.45,49.159
		v40.706C159.806,167.947,173.59,148.846,173.59,126.514z"/>
	<path style="fill:#58A35D;" d="M336.603,100.994V40.223c0-18.072-14.647-32.723-32.715-32.723H186.112
		c-18.069,0-32.717,14.65-32.717,32.723v60.771H336.603z"/>
	<path style="opacity:0.1;" d="M217.51,7.5h-31.397c-18.069,0-32.717,14.65-32.717,32.723v60.771h31.398V40.223
		C184.793,22.15,199.44,7.5,217.51,7.5z"/>
	<path style="fill:#407C46;" d="M141.151,118.211c-2.815,0-5.484-1.252-7.285-3.417c-1.801-2.165-2.545-5.018-2.032-7.787
		l9.476-51.181c0.832-4.493,4.749-7.752,9.317-7.752h85.283c3.441,0,6.612,1.866,8.283,4.875l28.427,51.181
		c1.632,2.936,1.589,6.515-0.115,9.41c-1.701,2.894-4.81,4.671-8.168,4.671H141.151z"/>
	<path style="opacity:0.1;" d="M165.052,114.794c-1.801-2.165-2.545-5.018-2.032-7.787l9.476-51.181
		c0.832-4.493,4.749-7.752,9.317-7.752h-31.186c-4.568,0-8.485,3.259-9.317,7.752l-9.476,51.181
		c-0.513,2.77,0.231,5.623,2.032,7.787c1.801,2.165,4.47,3.417,7.285,3.417h31.186C169.522,118.211,166.853,116.96,165.052,114.794z
		"/>
	<path style="fill:#407C46;" d="M349.621,118.211c2.814,0,4.833-1.252,6.634-3.417c1.801-2.165,2.406-5.018,1.896-7.787
		l-18.952-51.181c-0.834-4.493-3.961-7.752-8.528-7.752h-37.904c-3.442,0-6.612,1.866-8.283,4.875l-28.428,51.181
		c-1.632,2.936-1.587,6.515,0.116,9.41c1.702,2.894,4.81,4.671,8.166,4.671H349.621z"/>
	<g>
		<path d="M152.508,399.142c-11.265,0-20.429,9.165-20.429,20.432s9.164,20.432,20.429,20.432c11.265,0,20.429-9.166,20.429-20.432
			S163.772,399.142,152.508,399.142z M152.508,425.006c-2.994,0-5.429-2.437-5.429-5.432s2.435-5.432,5.429-5.432
			c2.994,0,5.429,2.437,5.429,5.432S155.501,425.006,152.508,425.006z"/>
		<path d="M338.487,399.142c-11.265,0-20.43,9.165-20.43,20.432s9.165,20.432,20.43,20.432c11.265,0,20.429-9.166,20.429-20.432
			S349.752,399.142,338.487,399.142z M338.487,425.006c-2.994,0-5.43-2.437-5.43-5.432s2.436-5.432,5.43-5.432
			c2.993,0,5.429,2.437,5.429,5.432S341.48,425.006,338.487,425.006z"/>
		<path d="M420.92,425.5c4.143,0,7.5-3.358,7.5-7.5v-54.843c0-39.193-31.972-71.079-71.271-71.079h-35.293l-0.042-9.36
			c0-4.558-1.085-8.865-3.007-12.681c1.146-0.905,2.278-1.826,3.391-2.773c14.441-12.299,24.724-26.913,30.267-42.639
			c15.174-5.643,26.013-20.235,26.013-37.315c0-15.239-8.629-28.498-21.267-35.188v-17.025c0-3.733-0.219-7.415-0.627-11.041
			c1.986-1.021,3.807-2.503,5.436-4.463c3.161-3.8,4.44-8.882,3.506-13.944c-0.078-0.424-20.369-55.925-21.424-57.612v-7.813
			C344.103,18.044,326.063,0,303.888,0H186.112c-22.176,0-40.217,18.044-40.217,40.223v1.033
			c-6.034,1.752-10.768,6.767-11.96,13.205l-2.994,16.174c-0.754,4.073,1.937,7.986,6.009,8.74c4.069,0.752,7.986-1.936,8.74-6.009
			l2.994-16.173c0.174-0.938,0.991-1.618,1.943-1.618h85.283c0.717,0,1.378,0.389,1.727,1.017l18.121,32.627l-6.259,11.269
			c-1.75,3.149-2.41,6.739-2.005,10.225H141.151c-1.216,0-2.164-1.143-1.943-2.338l2.409-13.006c0.754-4.073-1.936-7.986-6.009-8.74
			c-4.072-0.756-7.987,1.935-8.74,6.009l-2.409,13.007c-0.921,4.976,0.406,10.06,3.641,13.948c1.493,1.795,3.318,3.217,5.339,4.248
			c-0.425,3.695-0.651,7.45-0.651,11.257v17.026c-12.637,6.69-21.266,19.949-21.266,35.188c0,17.08,10.838,31.672,26.012,37.315
			c5.542,15.726,15.825,30.34,30.267,42.639c1.113,0.948,2.246,1.869,3.392,2.774c-1.921,3.816-3.006,8.124-3.006,12.68v9.36
			h-35.335c-39.299,0-71.271,31.886-71.271,71.079v108.4c0,10.17,8.297,18.442,18.495,18.442h329.85
			c10.198,0,18.495-8.273,18.495-18.442V450c0-4.142-3.357-7.5-7.5-7.5c-4.143,0-7.5,3.358-7.5,7.5v21.558
			c0,1.898-1.568,3.442-3.495,3.442h-26.146v-76.152c0-11.847-9.236-21.572-20.885-22.363v-69.117
			c28.339,2.877,50.525,26.8,50.525,55.789V418C413.42,422.142,416.777,425.5,420.92,425.5z M357.211,197.198v-26.304
			c3.891,4.378,6.267,10.121,6.267,16.415c0,6.454-2.493,12.332-6.563,16.749C357.108,201.782,357.211,199.494,357.211,197.198z
			 M126.522,187.309c0-6.294,2.375-12.037,6.266-16.415v26.304c0,2.296,0.103,4.583,0.295,6.86
			C129.016,199.64,126.522,193.762,126.522,187.309z M330.074,307.078h17.82v69.349h-17.82V307.078z M342.211,163.076
			c-11.382-8.464-18.302-21.863-18.302-36.562c0-0.269,0.015-0.535,0.018-0.803h17.739c0.349,3.082,0.544,6.21,0.544,9.384V163.076z
			 M350.823,108.817c0.062,2.111-1.489,1.894-2.86,1.894c-1.99,0-80.529,0.218-83.624,0c-1.444-0.102-2.486-1.576-1.728-2.939
			l28.428-51.182c0.349-0.626,1.01-1.016,1.727-1.016h35.941c1.182,0,2.241,0.731,2.659,1.837L350.823,108.817z M250.75,49.308
			c-2.991-5.387-8.678-8.734-14.84-8.734h-75.015v-0.352c0-13.908,11.312-25.223,25.217-25.223h117.775
			c13.903,0,25.215,11.315,25.215,25.223v0.352h-36.337c-6.162,0-11.849,3.347-14.84,8.733l-13.589,24.464L250.75,49.308z
			 M147.788,135.095c0-3.174,0.196-6.301,0.544-9.384h17.739c0.005,0.268,0.019,0.534,0.019,0.803
			c0,14.699-6.92,28.099-18.302,36.563V135.095z M147.788,197.198v-16.57c20.387-10.255,33.302-30.969,33.302-54.114
			c0-0.268-0.011-0.535-0.015-0.803h127.849c-0.004,0.268-0.015,0.535-0.015,0.803c0,23.145,12.915,43.858,33.302,54.113v16.57
			c0,21.486-10.561,42.313-29.738,58.646c-18.556,15.803-42.365,24.867-65.324,24.867h-4.297c-22.959,0-46.769-9.063-65.325-24.867
			C158.35,239.511,147.788,218.684,147.788,197.198z M192.628,340.961c3.033,3.035,7.066,4.706,11.357,4.706
			c4.29,0,8.323-1.671,11.357-4.705L245,311.297l29.659,29.665c3.033,3.034,7.066,4.705,11.356,4.705
			c4.29,0,8.323-1.671,11.356-4.705l17.702-17.707v53.171H174.926v-53.171L192.628,340.961z M183.186,310.303v-27.585
			c0-1.381,0.228-2.706,0.62-3.959c13.815,8.313,29.14,13.801,44.599,15.939l5.989,5.991l-29.66,29.667
			c-0.408,0.407-1.09,0.41-1.499,0L183.186,310.303z M250.563,295.646c19.113-0.638,38.527-6.597,55.626-16.885
			c0.396,1.262,0.625,2.598,0.625,3.991l0.124,27.427l-20.174,20.179c-0.407,0.407-1.09,0.409-1.498,0L250.563,295.646z
			 M142.106,307.078h17.819v69.349h-17.819V307.078z M106.221,398.848V475H80.075c-1.927,0-3.495-1.544-3.495-3.442v-108.4
			c0-28.989,22.186-52.912,50.526-55.789v69.117C115.458,377.276,106.221,387,106.221,398.848z M209.733,475
			c5.808-13.972,19.488-23.415,35.267-23.415c15.779,0,29.46,9.443,35.267,23.415H209.733z M368.779,398.848V475h-72.656
			c-6.47-22.6-27.035-38.415-51.123-38.415c-24.087,0-44.652,15.815-51.123,38.415h-72.657v-76.152c0-4.092,3.328-7.421,7.418-7.421
			h232.723C365.451,391.427,368.779,394.756,368.779,398.848z"/>
		<path d="M246.989,344.507c4.143,0,7.5-3.358,7.5-7.5v-1.658c0-4.142-3.357-7.5-7.5-7.5c-4.142,0-7.5,3.358-7.5,7.5v1.658
			C239.489,341.149,242.847,344.507,246.989,344.507z"/>
		<path d="M246.989,370.537c4.143,0,7.5-3.358,7.5-7.5v-1.658c0-4.142-3.357-7.5-7.5-7.5c-4.142,0-7.5,3.358-7.5,7.5v1.658
			C239.489,367.179,242.847,370.537,246.989,370.537z"/>
		<path d="M200.968,209.173c4.142,0,7.5-3.358,7.5-7.5v-9.812c0-4.142-3.358-7.5-7.5-7.5s-7.5,3.358-7.5,7.5v9.812
			C193.468,205.815,196.826,209.173,200.968,209.173z"/>
		<path d="M289.033,209.173c4.143,0,7.5-3.358,7.5-7.5v-9.812c0-4.142-3.357-7.5-7.5-7.5s-7.5,3.358-7.5,7.5v9.812
			C281.533,205.815,284.891,209.173,289.033,209.173z"/>
		<path d="M245,254.98L245,254.98c8.445,0,16.387-3.291,22.358-9.265c2.928-2.93,2.927-7.678-0.003-10.606
			c-2.93-2.929-7.679-2.927-10.606,0.002c-3.139,3.14-7.311,4.869-11.749,4.869c-4.438,0-8.611-1.73-11.75-4.869
			c-2.928-2.93-7.677-2.931-10.606-0.002c-2.93,2.928-2.93,7.677-0.002,10.606C228.614,251.689,236.554,254.98,245,254.98z"/>
	</g>
</g>
<g>
</g>
<g>
</g>
<g>
</g>
<g>
</g>
<g>
</g>
<g>
</g>
<g>
</g>
<g>
</g>
<g>
</g>
<g>
</g>
<g>
</g>
<g>
</g>
<g>
</g>
<g>
</g>
<g>
</g>
</svg>
