<?xml version="1.0" encoding="iso-8859-1"?>
<!-- Generator: Adobe Illustrator 19.0.0, SVG Export Plug-In . SVG Version: 6.00 Build 0)  -->
<svg version="1.1" id="Layer_1" xmlns="http://www.w3.org/2000/svg" xmlns:xlink="http://www.w3.org/1999/xlink" x="0px" y="0px"
	 viewBox="0 0 490 490" style="enable-background:new 0 0 490 490;" xml:space="preserve">
<g>
	<path style="fill:#E6E6E6;" d="M141.563,482.5h206.875V304.656C336.31,296.924,321.692,292.5,305,292.5H185
		c-16.692,0-31.31,4.424-43.438,12.156V482.5z"/>
	<path style="fill:#294D73;" d="M339.586,299.174L257.99,440.5c-2.68,4.641-7.631,7.5-12.99,7.5s-10.311-2.859-12.99-7.5
		l-81.595-141.326C116.212,312.926,102,346.436,102,385.5v87c0,5.522,4.478,10,10,10h266c5.522,0,10-4.478,10-10v-87
		C388,346.436,373.788,312.926,339.586,299.174z"/>
	<g style="opacity:0.1;">
		<path d="M132,472.5v-87c0-29.284,7.987-55.446,26.395-72.504l-7.98-13.822C116.212,312.926,102,346.436,102,385.5v87
			c0,5.522,4.478,10,10,10h30C136.477,482.5,132,478.022,132,472.5z"/>
	</g>
	<path style="fill:#E6E6E6;" d="M307.94,289.379c0-10.443-8.463-18.908-18.901-18.908h-43.862h-0.48h-43.862
		c-10.439,0-18.9,8.465-18.9,18.908v27.896l20.221,20.226c3.037,3.039,7.964,3.039,11.003,0l31.778-31.787l31.78,31.787
		c3.038,3.039,7.965,3.039,11.003,0l20.346-20.351L307.94,289.379z"/>
	<path style="fill:#FFAB5F;" d="M98,260c-5.522,0-10-4.477-10-10V133.5c0-69.477,56.523-126,126-126h62c69.477,0,126,56.523,126,126
		V250c0,5.523-4.478,10-10,10H98z"/>
	<path style="opacity:0.1;" d="M118,250V133.5c0-69.477,56.523-126,126-126h-30c-69.477,0-126,56.523-126,126V250
		c0,5.523,4.478,10,10,10h30C122.478,260,118,255.523,118,250z"/>
	<g>
		<ellipse style="fill:#FFE7CC;" cx="150.93" cy="206.493" rx="32.599" ry="32.493"/>
		<ellipse style="fill:#FFE7CC;" cx="339.07" cy="206.493" rx="32.599" ry="32.493"/>
	</g>
	<path style="fill:#FFE7CC;" d="M350.286,205.789c0,50.529-52.433,91.49-103.126,91.49h-4.32
		c-50.693,0-103.127-40.961-103.127-91.49v-62.43c0-50.529,41.096-91.491,91.789-91.491h26.996
		c50.693,0,91.788,40.962,91.788,91.491V205.789z"/>
	<path style="opacity:0.1;" d="M171,205.789v-62.43c0-49.815,39.941-90.327,89.644-91.464c-0.714-0.017-1.429-0.027-2.146-0.027
		h-26.996c-50.693,0-91.789,40.962-91.789,91.491v62.43c0,50.529,52.434,91.49,103.127,91.49h4.32c4.493,0,9-0.328,13.483-0.95
		C214.551,289.936,171,251.839,171,205.789z"/>
	<g>
		<path style="fill:#FFAB5F;" d="M310.417,171.211c-3.869,0-7.301-2.484-8.51-6.16l-11.318-34.432l-11.318,34.432
			c-1.208,3.676-4.641,6.16-8.51,6.16H136.835c-4.947,0-8.957-4.011-8.957-8.958v-29.058C127.878,75.466,174.97,39,232.855,39
			h24.288c57.885,0,104.979,36.466,104.979,94.195v29.058c0,4.947-4.011,8.958-8.958,8.958H310.417z"/>
	</g>
	<g>
		<path style="fill:#EF645E;" d="M295.266,312.55c-3.273-1.891-7.309-1.891-10.582,0L245,335.466l-39.684-22.916
			c-3.273-1.891-7.309-1.891-10.582,0c-3.273,1.892-5.291,5.385-5.291,9.168v46.697c0,3.781,2.018,7.276,5.291,9.168
			c3.273,1.89,7.309,1.89,10.582,0L245,354.665l39.684,22.918c3.273,1.89,7.309,1.89,10.582,0c3.273-1.892,5.291-5.387,5.291-9.168
			v-46.697C300.557,317.935,298.539,314.441,295.266,312.55z"/>
	</g>
	<g>
		<path d="M276,0h-62C140.388,0,80.5,59.888,80.5,133.5V173c0,4.142,3.357,7.5,7.5,7.5s7.5-3.358,7.5-7.5v-39.5
			C95.5,68.159,148.659,15,214,15h62c65.341,0,118.5,53.159,118.5,118.5V250c0,1.378-1.121,2.5-2.5,2.5h-48.436
			c1.471-2.278,2.838-4.593,4.088-6.945c17.999-3.931,31.518-19.947,31.518-39.062c0-12.719-5.99-24.059-15.299-31.386
			c3.515-3.021,5.752-7.487,5.752-12.474v-29.058c0-4.142-3.358-7.5-7.5-7.5c-4.143,0-7.5,3.358-7.5,7.5v29.058
			c0,0.804-0.654,1.458-1.458,1.458h-42.747c-0.631,0-1.188-0.403-1.385-1.002l-11.318-34.432c-1.012-3.078-3.886-5.158-7.125-5.158
			c-3.239,0-6.113,2.08-7.125,5.158l-11.318,34.432c-0.197,0.6-0.754,1.002-1.385,1.002h-16.799l9.902-30.124
			c1.293-3.935-0.848-8.174-4.783-9.467c-3.935-1.291-8.173,0.848-9.467,4.783l-11.442,34.809h-20.937l9.902-30.124
			c1.293-3.935-0.848-8.174-4.783-9.467c-3.933-1.291-8.173,0.848-9.467,4.783l-11.442,34.809h-64.61
			c-0.804,0-1.457-0.654-1.457-1.458v-29.058c0-4.142-3.357-7.5-7.5-7.5c-4.143,0-7.5,3.358-7.5,7.5v29.058
			c0,4.987,2.237,9.453,5.752,12.474c-9.309,7.327-15.299,18.667-15.299,31.385c0,19.114,13.518,35.13,31.517,39.062
			c1.25,2.352,2.617,4.667,4.088,6.945H98c-1.379,0-2.5-1.122-2.5-2.5v-49c0-4.142-3.357-7.5-7.5-7.5s-7.5,3.358-7.5,7.5v49
			c0,9.649,7.851,17.5,17.5,17.5h60.24c2.839,3.006,5.895,5.909,9.164,8.693c2.572,2.19,5.236,4.265,7.975,6.225
			c-0.271,0.993-0.493,2.006-0.648,3.041C150.547,287.747,130.314,298.374,117,314c-15.864,18.618-22.5,44.334-22.5,71.5v87
			c0,9.649,7.851,17.5,17.5,17.5h266c9.649,0,17.5-7.851,17.5-17.5V455c0-4.142-3.357-7.5-7.5-7.5s-7.5,3.358-7.5,7.5v17.5
			c0,1.378-1.121,2.5-2.5,2.5H112c-1.379,0-2.5-1.122-2.5-2.5v-87c0-19.266,3.542-35.813,10.528-49.181
			c6.369-12.187,15.535-21.412,27.299-27.493l34.629,59.979c0.135,6.161,3.43,11.869,8.7,15.069l34.858,60.376
			c4.007,6.939,11.474,11.25,19.485,11.25s15.478-4.31,19.485-11.25l34.858-60.376c5.27-3.197,8.565-8.906,8.699-15.067
			l34.631-59.98c11.764,6.081,20.929,15.306,27.298,27.493c6.986,13.368,10.528,29.915,10.528,49.181V426c0,4.142,3.357,7.5,7.5,7.5
			s7.5-3.358,7.5-7.5v-40.5c0-43.362-16.489-75.136-46.623-90.345l0.01-0.012c-10.282-5.733-21.626-9.196-33.863-10.357
			c-0.137-0.775-0.311-1.537-0.513-2.287c2.778-1.983,5.478-4.085,8.085-6.305c3.27-2.784,6.324-5.687,9.163-8.693H392
			c9.649,0,17.5-7.851,17.5-17.5V133.5C409.5,59.888,349.612,0,276,0z M357.786,205.789v-15.904
			c3.961,4.418,6.383,10.232,6.383,16.608c0,7.578-3.418,14.364-8.784,18.949C356.97,219.011,357.786,212.436,357.786,205.789z
			 M125.831,206.493c0-6.375,2.421-12.189,6.382-16.607v15.903c0,6.646,0.816,13.222,2.401,19.652
			C129.248,220.856,125.831,214.071,125.831,206.493z M181.943,338.783l-20.513-35.529c4.168-1.272,8.509-2.164,13.004-2.689v16.71
			c0,1.989,0.79,3.896,2.196,5.303l5.313,5.314V338.783z M189.435,307.071v-15.971c14.484,7.649,30.331,12.307,46.093,13.418
			l-10.659,10.662l-15.801-9.124c-2.745-1.586-5.872-2.423-9.042-2.423c-3.171,0-6.297,0.838-9.044,2.424
			C190.443,306.367,189.932,306.711,189.435,307.071z M244.938,316.321l6.668,6.669L245,326.805l-6.685-3.86L244.938,316.321z
			 M198.487,371.089c-0.952-0.55-1.544-1.575-1.544-2.674v-46.697c0-1.099,0.592-2.124,1.542-2.673c0.936-0.54,2.145-0.54,3.08,0
			l32.074,18.522H217.32c-4.143,0-7.5,3.358-7.5,7.5c0,4.142,3.357,7.5,7.5,7.5h16.316l-32.07,18.521
			C200.633,371.627,199.415,371.625,198.487,371.089z M251.495,436.75c-1.336,2.313-3.824,3.75-6.495,3.75s-5.159-1.437-6.495-3.75
			l-30.181-52.275c0.249-0.129,0.499-0.256,0.743-0.397L245,363.326l35.934,20.752c0.243,0.141,0.493,0.268,0.742,0.396
			L251.495,436.75z M293.057,368.415c0,1.1-0.592,2.124-1.541,2.672c-0.934,0.54-2.149,0.539-3.081,0.001l-32.071-18.522h16.316
			c4.143,0,7.5-3.358,7.5-7.5c0-4.142-3.357-7.5-7.5-7.5H256.36l32.074-18.522c0.935-0.54,2.146-0.539,3.078-0.001
			c0.952,0.55,1.544,1.575,1.544,2.674V368.415z M315.488,299.926c4.623,0.556,9.083,1.501,13.358,2.849l-20.79,36.009v-11.017
			l5.313-5.314c1.415-1.415,2.205-3.336,2.196-5.336L315.488,299.926z M300.52,307.039c-0.483-0.349-0.98-0.682-1.503-0.984
			c-2.745-1.586-5.871-2.423-9.042-2.423c-3.17,0-6.297,0.838-9.042,2.423l-15.881,9.17l-9.51-9.512l1.398-1.399
			c14.901-1.398,29.811-5.939,43.508-13.153L300.52,307.039z M342.786,205.789c0,21.61-10.624,42.558-29.915,58.983
			c-18.665,15.892-42.616,25.007-65.711,25.007h-4.32c-23.096,0-47.046-9.115-65.711-25.007
			c-19.292-16.425-29.916-37.373-29.916-58.983v-26.697h123.548c7.127,0,13.41-4.549,15.635-11.318l4.193-12.757l4.193,12.758
			c2.227,6.769,8.51,11.317,15.635,11.317h32.369V205.789z"/>
		<path d="M200.726,192.924c-4.143,0-7.5,3.358-7.5,7.5v9.863c0,4.142,3.357,7.5,7.5,7.5c4.143,0,7.5-3.358,7.5-7.5v-9.863
			C208.226,196.282,204.868,192.924,200.726,192.924z"/>
		<path d="M289.274,192.924c-4.143,0-7.5,3.358-7.5,7.5v9.863c0,4.142,3.357,7.5,7.5,7.5c4.143,0,7.5-3.358,7.5-7.5v-9.863
			C296.774,196.282,293.417,192.924,289.274,192.924z"/>
		<path d="M256.844,243.594c-3.163,3.164-7.369,4.906-11.844,4.906c-4.474,0-8.681-1.743-11.844-4.907
			c-2.929-2.928-7.678-2.929-10.606-0.001c-2.93,2.929-2.93,7.678-0.001,10.607c5.997,5.997,13.97,9.3,22.451,9.3c0,0,0,0,0.001,0
			c8.48,0,16.454-3.303,22.45-9.301c2.929-2.929,2.929-7.678-0.001-10.606C264.52,240.663,259.772,240.664,256.844,243.594z"/>
		<path d="M245,395.5c-4.143,0-7.5,3.358-7.5,7.5v1.658c0,4.142,3.357,7.5,7.5,7.5s7.5-3.358,7.5-7.5V403
			C252.5,398.858,249.143,395.5,245,395.5z"/>
		<path d="M300,412.5c-4.143,0-7.5,3.358-7.5,7.5s3.357,7.5,7.5,7.5h58c4.143,0,7.5-3.358,7.5-7.5s-3.357-7.5-7.5-7.5H300z"/>
	</g>
</g>
<g>
</g>
<g>
</g>
<g>
</g>
<g>
</g>
<g>
</g>
<g>
</g>
<g>
</g>
<g>
</g>
<g>
</g>
<g>
</g>
<g>
</g>
<g>
</g>
<g>
</g>
<g>
</g>
<g>
</g>
</svg>
