<?xml version="1.0" encoding="iso-8859-1"?>
<!-- Generator: Adobe Illustrator 19.0.0, SVG Export Plug-In . SVG Version: 6.00 Build 0)  -->
<svg version="1.1" id="Layer_1" xmlns="http://www.w3.org/2000/svg" xmlns:xlink="http://www.w3.org/1999/xlink" x="0px" y="0px"
	 viewBox="0 0 490 490" style="enable-background:new 0 0 490 490;" xml:space="preserve">
<g>
	<path style="fill:#998675;" d="M257.251,469.799c0,7.014-5.821,12.701-13,12.701H231.25c-7.18,0-13.001-5.686-13.001-12.701V241.19
		c0-7.015,5.821-12.701,13.001-12.701h13.001c7.179,0,13,5.686,13,12.701V469.799z"/>
	<rect x="218.249" y="308.503" style="fill:#998675;" width="39.002" height="38.101"/>
	<path style="fill:#998675;" d="M121.25,469.799c0,7.014-5.822,12.701-13.002,12.701h-13c-7.18,0-13-5.686-13-12.701V241.19
		c0-7.015,5.82-12.701,13-12.701h13c7.18,0,13.002,5.686,13.002,12.701V469.799z"/>
	<g>
		<path style="fill:#C5CCCC;" d="M56.749,113.347v32c0,5.523,4.478,10,10,10h70c5.523,0,10-4.477,10-10v-32H56.749z"/>
	</g>
	<path style="fill:#998675;" d="M387.752,469.799c0,7.014-5.822,12.701-13.002,12.701h-13c-7.18,0-13-5.686-13-12.701V241.19
		c0-7.015,5.82-12.701,13-12.701h13c7.18,0,13.002,5.686,13.002,12.701V469.799z"/>
	<path style="opacity:0.1;" d="M239.001,469.799V241.19c0-5.696,3.838-10.515,9.125-12.126c-1.224-0.373-2.525-0.575-3.875-0.575
		H231.25c-7.18,0-13.001,5.686-13.001,12.701v228.609c0,7.014,5.821,12.701,13.001,12.701h13.001c1.35,0,2.651-0.202,3.875-0.575
		C242.839,480.315,239.001,475.495,239.001,469.799z"/>
	<path style="opacity:0.1;" d="M103,469.799V241.19c0-5.696,3.838-10.515,9.124-12.126c-1.224-0.373-2.526-0.575-3.876-0.575h-13
		c-7.18,0-13,5.686-13,12.701v228.609c0,7.014,5.82,12.701,13,12.701h13c1.35,0,2.652-0.202,3.876-0.575
		C106.838,480.314,103,475.495,103,469.799z"/>
	<path style="opacity:0.1;" d="M369.502,469.799V241.19c0-5.696,3.838-10.515,9.124-12.126c-1.224-0.373-2.526-0.575-3.876-0.575
		h-13c-7.18,0-13,5.686-13,12.701v228.609c0,7.014,5.82,12.701,13,12.701h13c1.35,0,2.652-0.202,3.876-0.575
		C373.34,480.314,369.502,475.495,369.502,469.799z"/>
	<ellipse style="fill:#C5CCCC;" cx="368.251" cy="90" rx="65" ry="82.5"/>
	<path style="fill:#C5CCCC;" d="M194.849,99v203.152c0,7.015,5.82,12.701,13,12.701h49.402V7.5C222.786,7.5,194.849,44,194.849,99z"
		/>
	<path style="opacity:0.1;" d="M324,90c0-41.08,23.66-75.135,54.625-81.441C375.246,7.87,371.783,7.5,368.251,7.5
		c-35.898,0-65,36.937-65,82.5s29.102,82.5,65,82.5c3.532,0,6.995-0.37,10.374-1.059C347.66,165.135,324,131.08,324,90z"/>
	<path style="opacity:0.1;" d="M215.598,302.152V99c0-43.388,17.393-75.246,41.653-86.771V7.5c-34.465,0-62.402,36.5-62.402,91.5
		v203.152c0,7.015,5.82,12.701,13,12.701h20.749C221.418,314.853,215.598,309.167,215.598,302.152z"/>
	<path style="opacity:0.1;" d="M77.498,145.347v-32H56.749v32c0,5.523,4.478,10,10,10h20.749
		C81.976,155.347,77.498,150.87,77.498,145.347z"/>
	<g>
		<path d="M440.751,90c0-49.626-32.523-90-72.5-90c-39.977,0-72.5,40.374-72.5,90c0,46.482,28.534,84.847,65,89.52v41.519
			c-10.839,0.519-19.501,9.345-19.501,20.151v228.609c0,11.139,9.196,20.201,20.5,20.201h13c11.305,0,20.502-9.062,20.502-20.201
			V428c0-4.142-3.358-7.5-7.5-7.5c-4.143,0-7.5,3.358-7.5,7.5v41.799c0,2.868-2.468,5.201-5.502,5.201h-13
			c-3.033,0-5.5-2.333-5.5-5.201V241.19c0-2.868,2.467-5.201,5.5-5.201h13c3.034,0,5.502,2.333,5.502,5.201V398
			c0,4.142,3.357,7.5,7.5,7.5c4.142,0,7.5-3.358,7.5-7.5V241.19c0-10.806-8.662-19.631-19.501-20.151V179.52
			C412.217,174.847,440.751,136.482,440.751,90z M368.251,165c-31.706,0-57.5-33.645-57.5-75s25.794-75,57.5-75
			c31.706,0,57.5,33.645,57.5,75S399.957,165,368.251,165z"/>
		<path d="M146.749,0c-4.143,0-7.5,3.358-7.5,7.5v98.347h-15.294V7.5c0-4.142-3.357-7.5-7.5-7.5s-7.5,3.358-7.5,7.5v98.347H94.543
			V7.5c0-4.142-3.357-7.5-7.5-7.5c-4.143,0-7.5,3.358-7.5,7.5v98.347H64.249V7.5c0-4.142-3.357-7.5-7.5-7.5s-7.5,3.358-7.5,7.5
			v137.847c0,9.649,7.851,17.5,17.5,17.5h27.5v58.192c-10.839,0.519-19.501,9.345-19.501,20.151v228.609
			c0,11.139,9.196,20.201,20.5,20.201h13c11.305,0,20.502-9.062,20.502-20.201V317c0-4.142-3.357-7.5-7.5-7.5s-7.5,3.358-7.5,7.5
			v152.8c0,2.868-2.468,5.201-5.502,5.201h-13c-3.033,0-5.5-2.333-5.5-5.201V241.19c0-2.868,2.467-5.201,5.5-5.201h13
			c3.034,0,5.502,2.333,5.502,5.201V289c0,4.142,3.357,7.5,7.5,7.5s7.5-3.358,7.5-7.5v-47.81c0-10.806-8.662-19.631-19.501-20.151
			v-58.192h27.5c9.649,0,17.5-7.851,17.5-17.5V7.5C154.249,3.358,150.892,0,146.749,0z M139.249,145.347c0,1.378-1.121,2.5-2.5,2.5
			h-70c-1.379,0-2.5-1.122-2.5-2.5v-24.5h75V145.347z"/>
		<path d="M257.251,156.5c4.143,0,7.5-3.358,7.5-7.5V7.5c0-4.142-3.357-7.5-7.5-7.5c-19.526,0-37.373,10.051-50.253,28.3
			c-12.854,18.213-19.649,42.661-19.649,70.7v203.152c0,11.139,9.196,20.201,20.5,20.201h2.9v24.251v123.195
			c0,11.139,9.196,20.201,20.501,20.201h13.001c11.304,0,20.5-9.062,20.5-20.201V181c0-4.142-3.357-7.5-7.5-7.5
			c-4.143,0-7.5,3.358-7.5,7.5v126.353h-41.902c-3.033,0-5.5-2.333-5.5-5.201V99c0-24.568,6.004-46.605,16.904-62.05
			c8.245-11.682,18.876-19.032,30.498-21.244V149C249.751,153.142,253.108,156.5,257.251,156.5z M249.751,322.353v16.751h-24.002
			v-16.751H249.751z M244.251,475H231.25c-3.033,0-5.501-2.333-5.501-5.201V354.104h24.002v115.695
			C249.751,472.667,247.284,475,244.251,475z"/>
	</g>
	<g>
		<path style="fill:#FFFFFF;" d="M410.889,54.444c-12.824-5.312-17.131-9.619-22.444-22.444
			c-5.313,12.825-9.619,17.132-22.444,22.444c12.825,5.313,17.132,9.619,22.444,22.445
			C393.758,64.063,398.065,59.756,410.889,54.444z"/>
		<circle style="fill:#FFFFFF;" cx="405.671" cy="87.976" r="10.473"/>
	</g>
</g>
<g>
</g>
<g>
</g>
<g>
</g>
<g>
</g>
<g>
</g>
<g>
</g>
<g>
</g>
<g>
</g>
<g>
</g>
<g>
</g>
<g>
</g>
<g>
</g>
<g>
</g>
<g>
</g>
<g>
</g>
</svg>
