<?xml version="1.0" encoding="iso-8859-1"?>
<!-- Generator: Adobe Illustrator 19.0.0, SVG Export Plug-In . SVG Version: 6.00 Build 0)  -->
<svg version="1.1" id="Layer_1" xmlns="http://www.w3.org/2000/svg" xmlns:xlink="http://www.w3.org/1999/xlink" x="0px" y="0px"
	 viewBox="0 0 490 490" style="enable-background:new 0 0 490 490;" xml:space="preserve">
<g>
	<path style="fill:#E6E6E6;" d="M433.978,98.367h-55.8c-26.798,0-48.522,21.768-48.522,48.617v94.809
		c0,26.854,21.724,48.619,48.522,48.619h55.8c26.798,0,48.522-21.766,48.522-48.619v-94.809
		C482.5,120.135,460.775,98.367,433.978,98.367z M452.5,241.793c0,10.267-8.31,18.619-18.522,18.619h-55.8
		c-10.213,0-18.521-8.353-18.521-18.619v-94.809c0-10.266,8.309-18.617,18.521-18.617h55.8c10.213,0,18.522,8.352,18.522,18.617
		V241.793z"/>
	<g>
		<path style="fill:#F9EBCF;" d="M419.119,112.678c0.638-3.545-0.327-7.189-2.631-9.951c-2.305-2.764-5.714-4.359-9.308-4.359
			H287.848l-28.054-25.951c-2.242-2.074-5.181-3.223-8.229-3.223h-83.701c-3.593,0-6.999,1.596-9.306,4.357
			c-2.305,2.764-3.268,6.41-2.632,9.953L166.448,142h247.396L419.119,112.678z"/>
	</g>
	<g>
		<path style="fill:#FFCC60;" d="M166,142l42.195,234.572c1.041,5.787,6.069,9.428,11.939,9.428h139.512
			c5.87,0,10.898-3.641,11.939-9.428L413.779,142H166z"/>
		<path style="opacity:0.1;" d="M239.681,376.474L186.988,83.549c-0.639-3.554,0.328-7.212,2.64-9.985
			c2.314-2.77,5.731-4.371,9.335-4.371h-31.365c-3.604,0-7.021,1.601-9.335,4.371c-2.312,2.772-3.279,6.43-2.64,9.985
			l52.692,292.925c1.044,5.805,6.089,10.03,11.976,10.03h31.365C245.769,386.504,240.725,382.28,239.681,376.474z"/>
	</g>
	<g>
		<path style="fill:#E2AC4D;" d="M252.836,229.896h-1.028c-4.142,0-7.5,3.357-7.5,7.5s3.358,7.5,7.5,7.5h1.028
			c4.142,0,7.5-3.357,7.5-7.5S256.978,229.896,252.836,229.896z"/>
		<path style="fill:#FFFFFF;" d="M280.58,186.324c4.142,0,7.5-3.357,7.5-7.5c0-4.143-3.358-7.5-7.5-7.5h-1.027
			c-4.142,0-7.5,3.357-7.5,7.5c0,4.143,3.358,7.5,7.5,7.5H280.58z"/>
		<path style="fill:#E2AC4D;" d="M329.904,226.814h-1.027c-4.142,0-7.5,3.357-7.5,7.5c0,4.143,3.358,7.5,7.5,7.5h1.027
			c4.142,0,7.5-3.357,7.5-7.5C337.404,230.172,334.046,226.814,329.904,226.814z"/>
		<path style="fill:#FFFFFF;" d="M235.5,192h-1.028c-4.142,0-7.5,3.357-7.5,7.5s3.358,7.5,7.5,7.5h1.028c4.142,0,7.5-3.357,7.5-7.5
			S239.642,192,235.5,192z"/>
		<path style="fill:#FFFFFF;" d="M293.218,279.527c0-4.143-3.358-7.5-7.5-7.5h-1.027c-4.142,0-7.5,3.357-7.5,7.5
			c0,4.143,3.358,7.5,7.5,7.5h1.027C289.86,287.027,293.218,283.67,293.218,279.527z"/>
		<path style="fill:#FFFFFF;" d="M326.821,290.523h-1.028c-4.142,0-7.5,3.357-7.5,7.5c0,4.143,3.358,7.5,7.5,7.5h1.028
			c4.142,0,7.5-3.357,7.5-7.5C334.321,293.881,330.963,290.523,326.821,290.523z"/>
		<path style="fill:#FFFFFF;" d="M323.738,335.738h-1.027c-4.142,0-7.5,3.357-7.5,7.5c0,4.143,3.358,7.5,7.5,7.5h1.027
			c4.142,0,7.5-3.357,7.5-7.5C331.238,339.096,327.88,335.738,323.738,335.738z"/>
		<path style="fill:#E2AC4D;" d="M294.966,313.131h-1.026c-4.142,0-7.5,3.357-7.5,7.5c0,4.143,3.358,7.5,7.5,7.5h1.026
			c4.142,0,7.5-3.357,7.5-7.5C302.466,316.488,299.108,313.131,294.966,313.131z"/>
	</g>
	<path style="fill:#F9EBCF;" d="M386.221,75.039H262.63l25.218,23.328h73.911v6.986c0,6.525,5.29,11.816,11.817,11.816
		c6.526,0,11.817-5.291,11.817-11.816v-6.986h21.787c0.651,0,1.292,0.068,1.925,0.172v-0.613
		C409.105,85.285,398.859,75.039,386.221,75.039z"/>
	<path style="fill:#E6E6E6;" d="M190.621,420.807c-5.359,0-9.703-4.352-9.703-9.723c0-14.836,12.046-26.906,26.852-26.906h159.504
		c14.807,0,26.853,12.07,26.853,26.906c0,5.371-4.346,9.723-9.702,9.723H190.621z"/>
	<path style="opacity:0.1;" d="M212,411.084c0-14.836,12.046-26.906,26.852-26.906H207.77c-14.807,0-26.852,12.07-26.852,26.906
		c0,5.371,4.344,9.723,9.703,9.723h31.082C216.344,420.807,212,416.455,212,411.084z"/>
	<path d="M482.5,199.5c4.142,0,7.5-3.357,7.5-7.5v-45.016c0-30.943-25.131-56.117-56.022-56.117h-18.208
		c-3.191-13.361-15.224-23.328-29.548-23.328H265.487c-0.187-0.218-0.384-0.43-0.6-0.629c-3.637-3.364-8.368-5.217-13.323-5.217
		h-83.701c-5.83,0-11.32,2.569-15.065,7.054c-3.735,4.479-5.286,10.342-4.253,16.085l52.526,292.002
		c0.03,0.165,0.081,0.321,0.115,0.485c-15.802,3.086-27.768,17.049-27.768,33.765c0,9.497,7.717,17.223,17.203,17.223h193.805
		c9.485,0,17.202-7.726,17.202-17.223c0-14.928-9.543-27.659-22.838-32.412c0.169-0.601,0.32-1.211,0.433-1.838l14.197-78.922
		h40.559c30.891,0,56.022-25.175,56.022-56.119V224c0-4.143-3.358-7.5-7.5-7.5s-7.5,3.357-7.5,7.5v17.793
		c0,22.673-18.402,41.119-41.022,41.119h-37.86l2.698-15h35.162c14.349,0,26.022-11.717,26.022-26.119v-94.809
		c0-14.401-11.674-26.117-26.022-26.117h-8.711l1.234-6.861c0.493-2.741,0.391-5.507-0.249-8.139h7.726
		c22.62,0,41.022,18.445,41.022,41.117V192C475,196.143,478.358,199.5,482.5,199.5z M386.221,82.539
		c5.941,0,11.106,3.385,13.668,8.328h-14.496c-4.142,0-7.5,3.357-7.5,7.5v6.986c0,2.38-1.937,4.316-4.317,4.316
		c-2.38,0-4.317-1.937-4.317-4.316v-6.986c0-4.143-3.358-7.5-7.5-7.5h-70.974l-9.003-8.328H386.221z M386.628,411.084
		c0,1.226-0.988,2.223-2.202,2.223H190.621c-1.215,0-2.203-0.997-2.203-2.223c0-10.7,8.682-19.406,19.352-19.406h159.504
		C377.946,391.678,386.628,400.384,386.628,411.084z M364.459,374.18c-0.177,0.986-0.667,1.841-1.341,2.498H217.176
		c-0.674-0.658-1.165-1.513-1.342-2.5l-40.607-225.744H332c4.142,0,7.5-3.357,7.5-7.5c0-4.143-3.358-7.5-7.5-7.5H172.528
		l-4.959-27.566h39.46c4.142,0,7.5-3.357,7.5-7.5s-3.358-7.5-7.5-7.5h-42.158l-1.563-8.69c-0.246-1.366,0.123-2.76,1.006-3.819
		c0.884-1.059,2.178-1.665,3.549-1.665h83.701c1.167,0,2.28,0.437,3.136,1.229c0.497,0.459,28.054,25.951,28.054,25.951
		c1.386,1.282,3.205,1.994,5.093,1.994h66.418c0.273,10.415,8.831,18.803,19.311,18.803s19.038-8.388,19.31-18.803h14.294
		c0.176,0,0.416,0.024,0.714,0.073c0.065,0.011,0.129,0.012,0.194,0.021c1.024,0.204,1.956,0.749,2.641,1.568
		c0.886,1.064,1.254,2.455,1.009,3.819l-3.973,22.084H368c-4.142,0-7.5,3.357-7.5,7.5c0,4.143,3.358,7.5,7.5,7.5h37.067
		L364.459,374.18z M433.978,135.867c6.078,0,11.022,4.987,11.022,11.117v94.809c0,6.131-4.945,11.119-11.022,11.119h-32.464
		l21.054-117.045H433.978z"/>
	<g>
		<path style="fill:#FFFFFF;" d="M353.044,151c-5.822,14.054-10.541,18.773-24.595,24.595c14.054,5.821,18.773,10.541,24.595,24.595
			c5.821-14.054,10.541-18.773,24.594-24.595C363.585,169.773,358.865,165.054,353.044,151z"/>
		<circle style="fill:#FFFFFF;" cx="372.149" cy="207.293" r="10.851"/>
	</g>
	<path style="fill:#FFCC60;" d="M7.5,234.736c7.375,56.881,18.329,113.563,20.076,170.748c0.271,8.455,7.099,15.322,15.574,15.322
		c25.898,0,51.799,0,77.699,0c8.472,0,15.301-6.867,15.574-15.322c1.746-57.186,12.697-113.867,20.076-170.748H7.5z"/>
	<path style="fill:#F9EBCF;" d="M14.804,286.193h134.393c2.525-17.146,5.077-34.293,7.304-51.457H7.5
		C9.726,251.9,12.277,269.047,14.804,286.193z"/>
	<path style="opacity:0.1;" d="M58.076,405.484C56.329,348.299,45.375,291.617,38,234.736H7.5
		c7.375,56.881,18.329,113.563,20.076,170.748c0.271,8.455,7.099,15.322,15.574,15.322c10.166,0,20.333,0,30.5,0
		C65.175,420.807,58.347,413.94,58.076,405.484z"/>
	<g>
		<path style="fill:#FFFFFF;" d="M51.686,325.848h-1.027c-4.142,0-7.5,3.357-7.5,7.5c0,4.143,3.358,7.5,7.5,7.5h1.027
			c4.142,0,7.5-3.357,7.5-7.5C59.186,329.205,55.828,325.848,51.686,325.848z"/>
		<path style="fill:#E2AC4D;" d="M81.486,341.262h-1.027c-4.142,0-7.5,3.357-7.5,7.5c0,4.143,3.358,7.5,7.5,7.5h1.027
			c4.142,0,7.5-3.357,7.5-7.5C88.986,344.619,85.628,341.262,81.486,341.262z"/>
		<path style="fill:#FFFFFF;" d="M75.32,373.117h-1.027c-4.142,0-7.5,3.357-7.5,7.5c0,4.143,3.358,7.5,7.5,7.5h1.027
			c4.142,0,7.5-3.357,7.5-7.5C82.82,376.475,79.462,373.117,75.32,373.117z"/>
		<path style="fill:#E2AC4D;" d="M99.982,388.529h-1.027c-4.142,0-7.5,3.357-7.5,7.5s3.358,7.5,7.5,7.5h1.027
			c4.142,0,7.5-3.357,7.5-7.5S104.124,388.529,99.982,388.529z"/>
		<path style="fill:#FFFFFF;" d="M73.265,314.131h1.028c4.142,0,7.5-3.357,7.5-7.5c0-4.143-3.358-7.5-7.5-7.5h-1.028
			c-4.142,0-7.5,3.357-7.5,7.5C65.765,310.773,69.123,314.131,73.265,314.131z"/>
	</g>
	<path style="fill:#F9EBCF;" d="M127.924,199.525h-18.608c-2.291-6.506-13.644-11.451-27.315-11.451s-25.024,4.945-27.315,11.451
		H36.076C20.292,199.525,7.5,212.32,7.5,228.1v1.021c0,1.924,0.193,3.801,0.555,5.615h77.607v8.26
		c0,5.959,4.831,10.791,10.79,10.791c5.959,0,10.79-4.832,10.79-10.791v-8.26h3.136c-0.035,0.352-0.054,0.707-0.054,1.066v25.691
		c0,5.957,4.831,10.789,10.79,10.789c5.958,0,10.789-4.832,10.789-10.789v-25.691c0-0.359-0.019-0.715-0.054-1.066h24.095
		c0.362-1.814,0.556-3.691,0.556-5.615V228.1C156.5,212.32,143.705,199.525,127.924,199.525z"/>
	<path d="M164,228.1c0-19.892-16.184-36.074-36.076-36.074h-14.393c-5.72-7.015-17.525-11.451-31.531-11.451
		s-25.812,4.436-31.531,11.451H36.076C16.184,192.025,0,208.208,0,228.1c0,1.637,0.039,3.266,0.215,4.896
		c-0.21,0.877,4.309,34.901,6.62,50.574c5.899,40.021,12,81.402,13.245,122.155c0.405,12.663,10.539,22.582,23.07,22.582h77.699
		c12.527,0,22.661-9.918,23.071-22.594c1.245-40.761,7.348-82.162,13.252-122.201c2.308-15.654,4.694-31.842,6.766-47.81
		C164.056,234.787,164,228.1,164,228.1z M36.076,207.025h18.608c3.182,0,6.017-2.008,7.074-5.009
		c0.646-1.834,7.615-6.442,20.241-6.442s19.596,4.608,20.241,6.442c1.057,3.001,3.893,5.009,7.074,5.009h18.608
		c11.332,0,20.604,8.989,21.059,20.211H131.85c-2.119,0-4.139,0.896-5.561,2.468c-1.422,1.57-2.113,3.67-1.902,5.778
		c0.011,0.105,0.017,0.213,0.017,0.32v25.691c0,1.813-1.476,3.289-3.289,3.289c-1.814,0-3.29-1.476-3.29-3.289v-25.691
		c0-0.107,0.006-0.215,0.017-0.32c0.211-2.108-0.48-4.208-1.902-5.778c-1.422-1.571-3.442-2.468-5.561-2.468h-3.136
		c-4.142,0-7.5,3.357-7.5,7.5v8.26c0,1.814-1.476,3.291-3.29,3.291c-1.814,0-3.29-1.477-3.29-3.291v-8.26c0-4.143-3.358-7.5-7.5-7.5
		H15.018C15.472,216.015,24.744,207.025,36.076,207.025z M128.928,405.242c-0.146,4.522-3.694,8.064-8.078,8.064H43.15
		c-4.385,0-7.934-3.541-8.078-8.052c-1.143-37.403-6.24-74.972-11.589-111.562H102c4.142,0,7.5-3.357,7.5-7.5
		c0-4.143-3.358-7.5-7.5-7.5H21.279c-1.768-11.994-3.564-24.259-5.216-36.457h62.099v0.76c0,10.086,8.205,18.291,18.29,18.291
		c2.24,0,4.387-0.404,6.372-1.145v1.352c0,10.085,8.205,18.289,18.29,18.289c10.084,0,18.289-8.204,18.289-18.289v-19.258h8.534
		c-1.653,12.197-3.45,24.464-5.218,36.457H134c-4.142,0-7.5,3.357-7.5,7.5c0,4.143,3.358,7.5,7.5,7.5h6.515
		C135.165,330.283,130.069,367.851,128.928,405.242z"/>
</g>
<g>
</g>
<g>
</g>
<g>
</g>
<g>
</g>
<g>
</g>
<g>
</g>
<g>
</g>
<g>
</g>
<g>
</g>
<g>
</g>
<g>
</g>
<g>
</g>
<g>
</g>
<g>
</g>
<g>
</g>
</svg>
