<?xml version="1.0" encoding="iso-8859-1"?>
<!-- Generator: Adobe Illustrator 19.0.0, SVG Export Plug-In . SVG Version: 6.00 Build 0)  -->
<svg version="1.1" id="Layer_1" xmlns="http://www.w3.org/2000/svg" xmlns:xlink="http://www.w3.org/1999/xlink" x="0px" y="0px"
	 viewBox="0 0 490 490" style="enable-background:new 0 0 490 490;" xml:space="preserve">
<g>
	<path style="fill:#6C384A;" d="M172.062,170.175V50.211c0-15.341-12.832-27.819-28.606-27.819s-28.607,12.478-28.607,27.819
		v119.964c-30.797,11.315-52.77,40.333-52.77,74.274V465.25c0,9.527,7.92,17.25,17.691,17.25h127.372
		c9.77,0,17.69-7.723,17.69-17.25V244.449C224.832,210.508,202.859,181.49,172.062,170.175z"/>
	<path style="opacity:0.1;" d="M114.848,92v78.175c-31.563,11.598-52.77,41.445-52.77,74.274V465.25
		c0,9.512,7.936,17.25,17.691,17.25h3.477c5.523,0,10-4.478,10-10V265.058c0-30.602,18.422-58.813,46.933-71.87
		c3.556-1.628,5.836-5.181,5.836-9.092V92H114.848z"/>
	<rect x="62.078" y="267.927" style="fill:#EFDFBB;" width="162.754" height="115.871"/>
	<line style="fill:#D9E021;" x1="120.42" y1="34.903" x2="164.222" y2="34.903"/>
	<path style="fill:#ACEBE9;" d="M341.206,392.12c-47.815,0-86.716-38.9-86.716-86.716c0-18.536,6.096-36.931,17.164-51.792
		c1.653-2.219,4.257-3.526,7.023-3.526h125.057c2.767,0,5.37,1.308,7.023,3.526c11.068,14.861,17.164,33.256,17.164,51.792
		C427.922,353.22,389.021,392.12,341.206,392.12z"/>
	<path style="opacity:0.1;" d="M285.568,305.404c0-18.536,6.096-36.931,17.164-51.792c1.653-2.219,4.257-3.526,7.023-3.526h-31.078
		c-2.767,0-5.37,1.308-7.023,3.526c-11.068,14.861-17.164,33.256-17.164,51.792c0,47.815,38.9,86.716,86.716,86.716
		c5.303,0,10.496-0.48,15.539-1.397C316.319,383.379,285.568,347.916,285.568,305.404z"/>
	<path style="fill:#6C384A;" d="M341.206,371.624c-29.57,0-55.779-19.854-63.737-48.283c-0.421-1.506-0.114-3.123,0.831-4.369
		c0.946-1.246,2.419-1.979,3.984-1.979h117.844c1.564,0,3.038,0.732,3.984,1.979c0.945,1.246,1.253,2.863,0.831,4.369
		C396.985,351.77,370.776,371.624,341.206,371.624z"/>
	<path style="fill:#FFE060;" d="M172.062,95.117c0,5.376-4.744,9.733-10.595,9.733h-36.023c-5.853,0-10.596-4.357-10.596-9.733
		V17.234c0-5.375,4.743-9.734,10.596-9.734h36.023c5.851,0,10.595,4.359,10.595,9.734V95.117z"/>
	<path style="opacity:0.1;" d="M146,95.117V17.234c0-5.375,4.743-9.734,10.596-9.734h-31.152c-5.853,0-10.596,4.359-10.596,9.734
		v77.883c0,5.376,4.743,9.733,10.596,9.733h31.152C150.743,104.851,146,100.493,146,95.117z"/>
	<path style="fill:#ACEBE9;" d="M302.851,482.5c-1.822,0-3.509-0.969-4.426-2.543c-0.919-1.575-0.931-3.52-0.033-5.105
		c4.525-7.99,21.73-13.36,42.814-13.36c21.084,0,38.289,5.37,42.814,13.36c0.897,1.586,0.886,3.53-0.033,5.105
		c-0.917,1.574-2.604,2.543-4.426,2.543H302.851z"/>
	<g>
		<path style="fill:#FFFFFF;" d="M409.364,277.183c-9.247-3.831-12.352-6.935-16.182-16.183
			c-3.831,9.247-6.935,12.352-16.183,16.183c9.247,3.829,12.352,6.935,16.183,16.182
			C397.013,284.117,400.118,281.012,409.364,277.183z"/>
		<circle style="fill:#FFFFFF;" cx="405.236" cy="298.878" r="7.139"/>
	</g>
	<g>
		<path style="fill:#FFFFFF;" d="M178.749,188.717c-4.437,10.714-8.035,14.312-18.748,18.75
			c10.714,4.438,14.311,8.035,18.748,18.749c4.438-10.714,8.036-14.312,18.75-18.749
			C186.784,203.028,183.187,199.431,178.749,188.717z"/>
		<circle style="fill:#FFFFFF;" cx="198.728" cy="231.728" r="8.272"/>
	</g>
	<g>
		<path d="M179.562,165.107V150c0-4.143-3.358-7.5-7.5-7.5c-4.142,0-7.5,3.357-7.5,7.5v25.409l4.914,1.806
			c28.624,10.517,47.857,37.536,47.857,67.234v15.978H69.578v-15.978c0-29.698,19.232-56.718,47.856-67.234l4.914-1.806v-63.33
			c1.008,0.167,2.038,0.271,3.096,0.271h36.023c1.057,0,2.087-0.104,3.095-0.271V116c0,4.143,3.358,7.5,7.5,7.5
			c4.142,0,7.5-3.357,7.5-7.5V17.234C179.562,7.731,171.444,0,161.467,0h-36.023c-9.978,0-18.096,7.731-18.096,17.234v147.873
			c-31.773,13.864-52.77,45.116-52.77,79.342V465.25c0,13.647,11.301,24.75,25.191,24.75h127.372c13.89,0,25.19-11.103,25.19-24.75
			V244.449C232.332,210.223,211.335,178.972,179.562,165.107z M164.562,95.117c0,1.057-1.271,2.233-3.095,2.233h-36.023
			c-1.824,0-3.096-1.177-3.096-2.233V50.211v-7.808h41.874c0.115,0,0.227-0.012,0.34-0.018v7.825V95.117z M125.443,15h36.023
			c1.824,0,3.095,1.178,3.095,2.234v10.187c-0.113-0.006-0.225-0.018-0.34-0.018h-41.874V17.234
			C122.348,16.178,123.619,15,125.443,15z M217.332,465.25c0,5.376-4.571,9.75-10.19,9.75H79.77c-5.62,0-10.191-4.374-10.191-9.75
			v-12.651h67.69c4.142,0,7.5-3.357,7.5-7.5c0-4.143-3.358-7.5-7.5-7.5h-67.69v-46.301h147.754V465.25z M217.332,376.298H69.578
			V275.427h147.754V376.298z"/>
		<path d="M111.436,312.5H177c4.142,0,7.5-3.357,7.5-7.5s-3.358-7.5-7.5-7.5h-65.565c-4.142,0-7.5,3.357-7.5,7.5
			S107.294,312.5,111.436,312.5z"/>
		<path d="M164.793,329.5h-41.15c-4.142,0-7.5,3.357-7.5,7.5s3.358,7.5,7.5,7.5h41.15c4.142,0,7.5-3.357,7.5-7.5
			S168.935,329.5,164.793,329.5z"/>
		<path d="M157.483,452.599h17.971c4.142,0,7.5-3.357,7.5-7.5c0-4.143-3.358-7.5-7.5-7.5h-17.971c-4.142,0-7.5,3.357-7.5,7.5
			C149.983,449.241,153.341,452.599,157.483,452.599z"/>
		<path d="M435.422,305.404c0-20.141-6.623-40.125-18.65-56.273c-3.054-4.099-7.928-6.545-13.038-6.545H385
			c-4.142,0-7.5,3.357-7.5,7.5c0,4.143,3.358,7.5,7.5,7.5h18.734c0.395,0,0.772,0.189,1.008,0.506
			c10.111,13.576,15.679,30.379,15.679,47.313c0,43.68-35.536,79.216-79.216,79.216c-43.68,0-79.216-35.536-79.216-79.216
			c0-16.934,5.568-33.736,15.678-47.31c0.237-0.318,0.614-0.508,1.009-0.508H351c4.142,0,7.5-3.357,7.5-7.5
			c0-4.143-3.358-7.5-7.5-7.5h-72.322c-5.11,0-9.983,2.446-13.039,6.547c-12.026,16.146-18.649,36.131-18.649,56.271
			c0,49.427,38.258,90.083,86.716,93.917v54.9c-17.284,1.058-35.59,5.897-41.842,16.936c-2.204,3.894-2.172,8.714,0.08,12.574
			c2.252,3.866,6.431,6.268,10.906,6.268h76.711c4.475,0,8.654-2.401,10.904-6.264c2.255-3.864,2.286-8.685,0.081-12.581
			c-6.25-11.036-24.556-15.876-41.84-16.934v-54.9C397.164,395.487,435.422,354.831,435.422,305.404z M373.197,475h-63.981
			c5.736-3.106,16.643-6.009,31.99-6.009C356.555,468.991,367.461,471.894,373.197,475z"/>
		<path d="M272.325,314.439c-2.349,3.097-3.126,7.18-2.078,10.924c8.86,31.654,38.039,53.762,70.959,53.762
			c32.919,0,62.099-22.107,70.959-53.762c1.047-3.744,0.271-7.827-2.08-10.925c-2.35-3.096-6.072-4.944-9.958-4.944H282.284
			C278.398,309.493,274.676,311.342,272.325,314.439z M396.733,324.493c-8.05,23.494-30.422,39.631-55.527,39.631
			c-25.105,0-47.478-16.137-55.527-39.631H396.733z"/>
	</g>
</g>
<g>
</g>
<g>
</g>
<g>
</g>
<g>
</g>
<g>
</g>
<g>
</g>
<g>
</g>
<g>
</g>
<g>
</g>
<g>
</g>
<g>
</g>
<g>
</g>
<g>
</g>
<g>
</g>
<g>
</g>
</svg>
