<?xml version="1.0" encoding="iso-8859-1"?>
<!-- Generator: Adobe Illustrator 19.0.0, SVG Export Plug-In . SVG Version: 6.00 Build 0)  -->
<svg version="1.1" id="Layer_1" xmlns="http://www.w3.org/2000/svg" xmlns:xlink="http://www.w3.org/1999/xlink" x="0px" y="0px"
	 viewBox="0 0 490 490" style="enable-background:new 0 0 490 490;" xml:space="preserve">
<g>
	<path style="fill:#78B591;" d="M173.013,153.882c0,6.476-5.225,11.724-11.669,11.724h-53.162c-6.444,0-11.669-5.248-11.669-11.724
		l0,0c0-6.476,5.225-11.723,11.669-11.723h53.162C167.789,142.159,173.013,147.406,173.013,153.882L173.013,153.882z"/>
	<path style="fill:#78B591;" d="M164.084,166.917c44.463,0,80.636,36.782,80.636,81.995v81.995c0,8.233-6.565,14.908-14.662,14.908
		H39.47c-8.098,0-14.661-6.675-14.661-14.908v-81.995c0-45.213,36.171-81.995,80.633-81.995H164.084z"/>
	<path style="opacity:0.1;" d="M55.917,330.907v-81.995c0-45.213,36.171-81.995,80.633-81.995h-31.108
		c-44.462,0-80.633,36.782-80.633,81.995v81.995c0,8.233,6.564,14.908,14.661,14.908h31.108
		C62.48,345.815,55.917,339.141,55.917,330.907z"/>
	<path style="fill:#A5BC79;" d="M248.156,314.771c-2.855,0-5.613-1.087-7.712-3.06c-2.281-2.145-3.576-5.143-3.576-8.281v-34.602
		c0-5.336,3.702-9.949,8.892-11.082c19.67-4.292,37.186-14.702,50.652-30.104c2.144-2.449,5.231-3.856,8.48-3.856h19.585
		c3.37,0,6.563,1.513,8.706,4.123c2.143,2.61,3.018,6.048,2.378,9.371c-8.227,42.749-43.862,74.603-86.655,77.466
		C248.656,314.764,248.406,314.771,248.156,314.771z"/>
	<path style="fill:#A5BC79;" d="M415.333,438.755c0,7.81-6.226,14.142-13.907,14.142h-44.5c-7.68,0-13.907-6.331-13.907-14.142
		v-19.799c0-7.81,6.228-14.143,13.907-14.143h44.5c7.682,0,13.907,6.333,13.907,14.143V438.755z"/>
	<path style="fill:#78B591;" d="M329.109,320.179v76.377c0,17.963,14.321,32.525,31.986,32.525h36.158
		c17.666,0,31.987-14.563,31.987-32.525v-76.377H329.109z"/>
	<path style="opacity:0.1;" d="M355.868,396.556v-76.377h-26.759v76.377c0,17.963,14.321,32.525,31.986,32.525h26.759
		C370.19,429.081,355.868,414.519,355.868,396.556z"/>
	<g>
		<path style="fill:#578C6D;" d="M360.004,351.712h-29.553c-4.565,0-8.264-3.713-8.264-8.295c0-4.579,3.699-8.292,8.264-8.292
			h29.553c4.564,0,8.264,3.713,8.264,8.292C368.268,347.999,364.568,351.712,360.004,351.712z"/>
	</g>
	<g>
		<path style="fill:#578C6D;" d="M360.004,378.252h-29.553c-4.565,0-8.264-3.713-8.264-8.295c0-4.58,3.699-8.292,8.264-8.292h29.553
			c4.564,0,8.264,3.712,8.264,8.292C368.268,374.539,364.568,378.252,360.004,378.252z"/>
	</g>
	<g>
		<path style="fill:#578C6D;" d="M360.004,404.791h-29.553c-4.565,0-8.264-3.713-8.264-8.294c0-4.58,3.699-8.293,8.264-8.293h29.553
			c4.564,0,8.264,3.713,8.264,8.293C368.268,401.078,364.568,404.791,360.004,404.791z"/>
	</g>
	<path style="fill:#A5BC79;" d="M100.931,436.982c-51.302,0-93.039-42.438-93.039-94.607v-94.608
		c0-9.501,7.574-17.203,16.916-17.203h219.911c9.34,0,16.917,7.702,16.917,17.203v94.608c0,52.17-41.739,94.607-93.04,94.607
		H100.931z"/>
	<path style="opacity:0.1;" d="M49.256,342.375v-94.608c0-9.501,7.574-17.203,16.916-17.203H24.808
		c-9.342,0-16.916,7.702-16.916,17.203v94.608c0,52.17,41.737,94.607,93.039,94.607h41.364
		C90.993,436.982,49.256,394.545,49.256,342.375z"/>
	<path style="fill:#FCE9C3;" d="M457.411,199.313H440.1c-4.143,0-7.5,3.357-7.5,7.5s3.357,7.5,7.5,7.5h17.311
		c9.698,0,17.589,7.943,17.589,17.706c0,9.764-7.891,17.707-17.589,17.707h-49.786c-15.727,0-28.522,12.839-28.522,28.62v13.713
		c0,4.143,3.357,7.5,7.5,7.5c4.143,0,7.5-3.357,7.5-7.5v-13.713c0-7.51,6.065-13.62,13.522-13.62h49.786
		c17.97,0,32.589-14.672,32.589-32.707C490,213.984,475.381,199.313,457.411,199.313z"/>
	<g>
		<g>
			<path style="fill:#F2D8A0;" d="M420.742,233.491h-39.127c-18.614,0-33.759-15.2-33.759-33.883s15.145-33.882,33.759-33.882
				h14.049c4.143,0,7.5,3.357,7.5,7.5c0,4.143-3.357,7.5-7.5,7.5h-14.049c-10.344,0-18.759,8.471-18.759,18.882
				c0,10.412,8.415,18.883,18.759,18.883h39.127c4.143,0,7.5,3.357,7.5,7.5C428.242,230.134,424.885,233.491,420.742,233.491z"/>
		</g>
	</g>
	<g>
		<path style="fill:#7E8E51;" d="M76.827,280.942H8.263C3.7,280.942,0,277.229,0,272.648c0-4.58,3.7-8.293,8.263-8.293h68.563
			c4.564,0,8.263,3.713,8.263,8.293C85.09,277.229,81.391,280.942,76.827,280.942z"/>
	</g>
	<g>
		<path style="fill:#7E8E51;" d="M37.92,319.707H15.929c-4.563,0-8.264-3.713-8.264-8.294c0-4.581,3.7-8.294,8.264-8.294H37.92
			c4.563,0,8.263,3.713,8.263,8.294C46.183,315.994,42.483,319.707,37.92,319.707z"/>
	</g>
	<path style="fill:#316638;" d="M260.573,441.557c0,6.263-5.056,11.34-11.289,11.34H23.532c-6.234,0-11.288-5.077-11.288-11.34
		v-5.671c0-6.262,5.054-11.34,11.288-11.34h225.752c6.233,0,11.289,5.078,11.289,11.34V441.557z"/>
	<path style="opacity:0.1;" d="M54,441.557v-5.671c0-6.262,5.054-11.34,11.288-11.34H23.532c-6.234,0-11.288,5.078-11.288,11.34
		v5.671c0,6.263,5.054,11.34,11.288,11.34h41.756C59.054,452.897,54,447.819,54,441.557z"/>
	<g>
		<path d="M429.241,312.679H414c-4.143,0-7.5,3.357-7.5,7.5c0,4.143,3.357,7.5,7.5,7.5h7.741v68.877
			c0,13.799-10.985,25.025-24.487,25.025h-36.158c-13.502,0-24.486-11.227-24.486-25.025v-68.877H379c4.143,0,7.5-3.357,7.5-7.5
			c0-4.143-3.357-7.5-7.5-7.5h-49.891c-4.143,0-7.5,3.357-7.5,7.5v76.377c0,12.186,5.407,23.11,13.909,30.457v11.742
			c0,11.934,9.604,21.642,21.407,21.642h44.5c11.804,0,21.407-9.708,21.407-21.642v-11.743c8.502-7.347,13.908-18.27,13.908-30.456
			v-76.377C436.741,316.036,433.384,312.679,429.241,312.679z M407.833,438.755c0,3.662-2.874,6.642-6.407,6.642h-44.5
			c-3.533,0-6.407-2.98-6.407-6.642v-3.644c3.369,0.95,6.913,1.47,10.577,1.47h36.158c3.664,0,7.21-0.52,10.579-1.471V438.755z"/>
		<path d="M338.979,223.148c-3.581-4.361-8.867-6.863-14.502-6.863h-19.585c-5.407,0-10.555,2.339-14.127,6.42
			c-6.309,7.215-13.585,13.225-21.588,17.919l0.01-23.624c0-4.143-3.357-7.5-7.5-7.5s-7.5,3.357-7.5,7.5v7.997
			c-1.789-0.764-3.686-1.317-5.661-1.632c-9.449-32.148-36.225-56.781-69.298-62.621c0.817-2.135,1.285-4.442,1.285-6.862
			c0-10.6-8.599-19.223-19.169-19.223h-53.162c-10.57,0-19.169,8.623-19.169,19.223c0,2.42,0.467,4.728,1.284,6.861
			c-33.071,5.841-59.847,30.473-69.296,62.622c-1.976,0.314-3.873,0.867-5.663,1.632v-58.826
			c0-67.032,53.574-121.567,119.424-121.567s119.424,54.535,119.424,121.567V182c0,4.143,3.357,7.5,7.5,7.5s7.5-3.357,7.5-7.5
			v-15.829c0-75.304-60.302-136.567-134.424-136.567S0.339,90.867,0.339,166.171l0.052,176.204c0,29.447,12.34,56.019,32.042,74.671
			h-8.901c-10.36,0-18.788,8.451-18.788,18.84v5.671c0,10.389,8.428,18.84,18.788,18.84h225.752c10.36,0,18.789-8.451,18.789-18.84
			v-5.671c0-10.389-8.429-18.84-18.789-18.84h-12.191c19.703-18.652,32.042-45.224,32.042-74.671l0.01-23.468
			c37.087-10.099,66.21-40.874,73.781-80.21C343.99,233.168,342.553,227.501,338.979,223.148z M108.183,149.659h53.162
			c2.299,0,4.169,1.895,4.169,4.223c0,2.329-1.87,4.224-4.169,4.224h-53.162c-2.299,0-4.169-1.895-4.169-4.224
			C104.014,151.554,105.884,149.659,108.183,149.659z M105.442,174.417h58.642c31.406,0,58.233,20.277,68.573,48.646H36.871
			C47.211,194.694,74.037,174.417,105.442,174.417z M249.284,432.046c2.089,0,3.789,1.723,3.789,3.84v5.671
			c0,2.117-1.7,3.84-3.789,3.84H23.532c-2.089,0-3.788-1.723-3.788-3.84v-5.671c0-2.117,1.699-3.84,3.788-3.84H249.284z
			 M254.136,342.375c0,4.556-0.354,9.027-1.019,13.397H99c-4.142,0-7.5,3.357-7.5,7.5c0,4.143,3.358,7.5,7.5,7.5h150.452
			c-6.611,19.462-19.813,35.813-36.882,46.274H56.956c-17.069-10.462-30.27-26.813-36.881-46.274H61c4.142,0,7.5-3.357,7.5-7.5
			c0-4.143-3.358-7.5-7.5-7.5H16.411c-0.665-4.369-1.019-8.841-1.019-13.397v-94.608c0-5.351,4.224-9.703,9.416-9.703h219.911
			c5.192,0,9.417,4.352,9.417,9.703V342.375z M328.196,235.862c-6.2,32.215-29.274,57.691-59.044,67.364l0.019-45.636
			c12.406-5.907,23.554-14.338,32.885-25.01c0.721-0.823,1.755-1.296,2.837-1.296h19.585c1.128,0,2.188,0.504,2.909,1.382
			C328.12,233.561,328.415,234.726,328.196,235.862z"/>
	</g>
</g>
<g>
</g>
<g>
</g>
<g>
</g>
<g>
</g>
<g>
</g>
<g>
</g>
<g>
</g>
<g>
</g>
<g>
</g>
<g>
</g>
<g>
</g>
<g>
</g>
<g>
</g>
<g>
</g>
<g>
</g>
</svg>
