<?xml version="1.0" encoding="iso-8859-1"?>
<!-- Generator: Adobe Illustrator 19.0.0, SVG Export Plug-In . SVG Version: 6.00 Build 0)  -->
<svg version="1.1" id="Layer_1" xmlns="http://www.w3.org/2000/svg" xmlns:xlink="http://www.w3.org/1999/xlink" x="0px" y="0px"
	 viewBox="0 0 490 490" style="enable-background:new 0 0 490 490;" xml:space="preserve">
<g>
	<g>
		<path style="fill:#CCCCCC;" d="M106.948,236.701c0,9.396-7.618,17.013-17.017,17.013H45.482c-9.398,0-17.017-7.616-17.017-17.013
			l0,0c0-9.395,7.618-17.011,17.017-17.011h44.449C99.33,219.69,106.948,227.307,106.948,236.701L106.948,236.701z"/>
		<path style="fill:#CCCCCC;" d="M417.134,236.701c0,9.396-7.618,17.013-17.017,17.013h-44.45c-9.398,0-17.016-7.616-17.016-17.013
			l0,0c0-9.395,7.617-17.011,17.016-17.011h44.45C409.515,219.69,417.134,227.307,417.134,236.701L417.134,236.701z"/>
	</g>
	<path style="fill:#D4EBE9;" d="M186.349,167.782c7.442,0,13.482,6.136,13.483,13.705l0.016,36.998
		c0,7.574-6.034,13.705-13.477,13.703l-36.401-0.011c-7.442-0.003-13.484-6.141-13.489-13.713l-0.014-37.001
		c-0.001-7.565,6.037-13.698,13.483-13.698L186.349,167.782z"/>
	<line style="fill:#8CC63F;" x1="413.039" y1="25.623" x2="442.367" y2="54.987"/>
	<path style="fill:#316638;" d="M357.045,150.932l80.321-80.425c10.272-10.284,10.034-27.254-0.527-37.828
		c-10.56-10.575-27.509-10.813-37.78-0.528l-80.319,80.426c-28.197-13.061-62.337-8.338-85.061,14.416L85.843,275.02
		c-6.38,6.387-6.247,16.875,0.295,23.426l85.28,85.391c6.542,6.551,17.016,6.685,23.396,0.296l147.833-148.027
		C365.373,213.35,370.09,179.165,357.045,150.932z"/>
	<path style="opacity:0.1;" d="M359.634,71.627l-40.895,40.95c-10.143-4.699-21.389-7.183-32.523-7.183
		c-19.97,0-38.628,7.67-52.537,21.598L85.844,275.019c-3.155,3.158-4.864,7.565-4.688,12.091c0.155,3.972,2.647,7.475,6.35,8.922
		c1.183,0.463,2.417,0.688,3.641,0.688c2.607,0,5.166-1.02,7.077-2.934l135.453-135.631c13.91-13.928,32.568-21.598,52.538-21.598
		c8.962,0,18.202,1.652,26.722,4.778c1.123,0.412,2.287,0.612,3.442,0.612c2.609,0,5.168-1.021,7.078-2.934l51.746-51.816
		L359.634,71.627z"/>
	<polygon style="fill:#FFE060;" points="140.378,220.413 249.348,329.525 326.928,251.844 217.96,142.731 	"/>
	<path style="fill:#ACEBE9;" d="M151.714,214.442c5.265,5.263,5.193,13.871-0.16,19.224l-26.156,26.172
		c-5.354,5.357-13.959,5.424-19.219,0.161l-25.734-25.741c-5.261-5.264-5.189-13.873,0.161-19.23l26.159-26.173
		c5.35-5.352,13.957-5.419,19.223-0.155L151.714,214.442z"/>
	<path style="fill:#B3B3B3;" d="M119.72,482.5c-4.523,0-8.417-3.205-9.29-7.65L62.489,231.002c-0.549-2.781,0.179-5.663,1.977-7.853
		c1.8-2.19,4.481-3.459,7.313-3.459h302.04c2.832,0,5.517,1.269,7.314,3.459c1.8,2.189,2.524,5.071,1.977,7.853L335.166,474.85
		c-0.873,4.445-4.766,7.65-9.289,7.65H119.72z"/>
	<path d="M74.879,294.022l-1.132-5.759C73.891,290.21,74.266,292.143,74.879,294.022z"/>
	<polygon style="fill:#CCCCCC;" points="341.306,443.628 350.253,398.12 95.345,398.12 104.294,443.628 	"/>
	<path style="opacity:0.1;" d="M152.149,474.85l-47.941-243.848c-0.549-2.781,0.179-5.663,1.977-7.853
		c1.8-2.19,4.481-3.459,7.313-3.459H71.778c-2.831,0-5.513,1.269-7.313,3.459c-1.798,2.189-2.525,5.071-1.977,7.853L110.43,474.85
		c0.873,4.445,4.767,7.65,9.29,7.65h41.719C156.916,482.5,153.022,479.295,152.149,474.85z"/>
	<path style="fill:#FFE060;" d="M407.3,100.612c-3.6,3.604-9.694,3.345-13.612-0.578l-24.117-24.149
		c-3.919-3.924-4.179-10.024-0.578-13.629l52.145-52.213c3.6-3.604,9.694-3.348,13.612,0.577l24.119,24.149
		c3.917,3.924,4.175,10.026,0.576,13.63L407.3,100.612z"/>
	<g>
		<path style="fill:#FFFFFF;" d="M349.089,178.165c-6.504-7.799-7.831-12.052-6.917-22.165c-7.797,6.505-12.051,7.832-22.165,6.918
			c6.506,7.796,7.834,12.051,6.918,22.164C334.722,178.577,338.975,177.249,349.089,178.165z"/>
		<circle style="fill:#FFFFFF;" cx="336.831" cy="198.029" r="7.244"/>
	</g>
	<path d="M384.634,123.307c1.464,1.463,3.382,2.193,5.3,2.193c1.921,0,3.842-0.733,5.307-2.2l69.512-69.601
		c6.511-6.52,6.253-17.389-0.576-24.229L440.057,5.321C436.681,1.939,432.074,0,427.416,0c-4.415,0-8.529,1.685-11.585,4.743
		l-98.82,98.95c-30.646-11.931-65.674-4.998-88.639,17.999l-38.801,38.851c-1.049-0.166-2.122-0.261-3.218-0.261l-36.403-0.017
		c-5.627,0-10.911,2.22-14.879,6.251c-3.927,3.988-6.092,9.279-6.103,14.904c-3.576-2.663-7.893-4.125-12.452-4.125
		c-5.676,0-11.023,2.222-15.057,6.257l-26.161,26.175c-0.776,0.777-1.474,1.604-2.103,2.463H45.482
		c-13.519,0-24.517,10.995-24.517,24.511c0,7.231,3.15,13.739,8.147,18.229c-5.399,7.723-8.584,17.1-8.584,27.217
		c0,26.285,21.391,47.669,47.684,47.669c2.027,0,4.023-0.137,5.983-0.387l28.875,146.865c1.56,7.941,8.562,13.705,16.649,13.705
		h206.156c8.087,0,15.089-5.764,16.648-13.703L371.4,329.43c1.962,0.25,3.958,0.387,5.986,0.387
		c26.293,0,47.685-21.384,47.685-47.669c0-10.117-3.185-19.494-8.585-27.217c4.998-4.49,8.147-10.998,8.147-18.229
		c0-13.516-10.998-24.511-24.517-24.511h-33.57c6.908-18.806,6.942-40.055-0.625-59.535l6.869-6.88
		c2.927-2.931,2.923-7.68-0.009-10.607c-2.93-2.926-7.679-2.925-10.607,0.009l-14.132,14.154l2.192,4.745
		c8.726,18.885,8.414,40.245,0.086,58.113h-52.395l-69.367-69.459l10.426-10.439c19.764-19.791,50.549-24.976,76.602-12.91
		l4.756,2.202l42.132-42.188l27.71,27.739l-5.558,5.565C381.7,115.631,381.703,120.38,384.634,123.307z M145.76,177.039
		c1.126-1.144,2.613-1.773,4.187-1.773l24.909,0.012l-25.831,25.865l-5.054-5.058l-0.005-14.622
		C143.967,179.785,144.603,178.215,145.76,177.039z M112.069,194.157c1.199-1.2,2.779-1.861,4.447-1.861
		c1.586,0,3.066,0.606,4.166,1.705l18.177,18.189H94.045L112.069,194.157z M45.482,227.19h9.453
		c-0.202,1.732-0.152,3.503,0.194,5.259l2.706,13.765H45.482c-5.247,0-9.517-4.268-9.517-9.513
		C35.966,231.457,40.235,227.19,45.482,227.19z M68.213,314.816c-18.022,0-32.684-14.655-32.684-32.669
		c0-8.016,2.918-15.351,7.729-21.039c0.733,0.066,1.474,0.105,2.224,0.105h15.303l10.509,53.451
		C70.279,314.762,69.253,314.816,68.213,314.816z M325.877,475H119.72c-0.938,0-1.749-0.671-1.931-1.598l-4.379-22.274h218.775
		l-4.38,22.276C327.625,474.329,326.813,475,325.877,475z M390.467,232.451c0.347-1.758,0.397-3.529,0.194-5.261h9.455
		c5.247,0,9.517,4.267,9.517,9.511c0,5.245-4.27,9.513-9.517,9.513h-12.355L390.467,232.451z M400.117,261.214
		c0.75,0,1.491-0.039,2.225-0.105c4.811,5.688,7.729,13.023,7.729,21.039c0,18.014-14.662,32.669-32.685,32.669
		c-1.04,0-2.067-0.055-3.083-0.151l10.509-53.451H400.117z M373.818,227.19c1.226,0,2.169,1.166,1.932,2.364L344.083,390.62H192.007
		c-4.143,0-7.5,3.357-7.5,7.5c0,4.143,3.357,7.5,7.5,7.5h149.127l-5.998,30.508H110.462l-5.998-30.508h50.542
		c4.143,0,7.5-3.357,7.5-7.5c0-4.143-3.357-7.5-7.5-7.5h-53.491L69.847,229.55c-0.237-1.195,0.709-2.359,1.931-2.359H373.818z
		 M276.727,212.19H159.509c-0.043-0.063-0.078-0.133-0.122-0.196l58.573-58.649L276.727,212.19z M426.444,15.344
		c0.832-0.836,2.331-0.093,2.999,0.576l24.118,24.149c1.031,1.033,1.155,2.452,0.577,3.031l-6.522,6.53l-27.708-27.742
		L426.444,15.344z M374.878,70.585c-1.031-1.032-1.156-2.45-0.578-3.029l35.009-35.055l27.708,27.742l-35.027,35.072
		c-0.832,0.829-2.328,0.086-2.994-0.581L374.878,70.585z"/>
</g>
<g>
</g>
<g>
</g>
<g>
</g>
<g>
</g>
<g>
</g>
<g>
</g>
<g>
</g>
<g>
</g>
<g>
</g>
<g>
</g>
<g>
</g>
<g>
</g>
<g>
</g>
<g>
</g>
<g>
</g>
</svg>
