<?xml version="1.0" encoding="iso-8859-1"?>
<!-- Generator: Adobe Illustrator 19.0.0, SVG Export Plug-In . SVG Version: 6.00 Build 0)  -->
<svg version="1.1" id="Layer_1" xmlns="http://www.w3.org/2000/svg" xmlns:xlink="http://www.w3.org/1999/xlink" x="0px" y="0px"
	 viewBox="0 0 489.933 489.933" style="enable-background:new 0 0 489.933 489.933;" xml:space="preserve">
<g>
	<path style="fill:#D4F4F1;" d="M235.77,363.252V253.294c13.652-16.956,21.806-38.384,21.806-61.684
		c0-44.626-29.897-82.389-71.081-95.002V42.164c0-5.642-4.577-10.216-10.224-10.216h-39.873c-5.645,0-10.224,4.574-10.224,10.216
		v54.443c-41.183,12.613-71.081,50.376-71.081,95.002c0,23.302,8.155,44.729,21.808,61.686v109.957
		c-11.43,1.497-20.25,11.108-20.25,22.75v73.471c0,12.68,10.461,22.96,23.365,22.96h152.639c12.903,0,23.363-10.28,23.363-22.96
		v-73.471C256.018,374.36,247.2,364.749,235.77,363.252z"/>
	<path style="fill:#D4F4F1;" d="M424.616,466.089c0,5.641-4.576,10.215-10.224,10.215H314.2c-5.648,0-10.225-4.574-10.225-10.215
		v-16.345c0-5.641,4.577-10.215,10.225-10.215h100.192c5.647,0,10.224,4.574,10.224,10.215V466.089z"/>
	<path style="fill:#FFAB5F;" d="M87.322,462.003c-5.646,0-10.224-4.574-10.224-10.216v-59.716c0-4.299,2.694-8.139,6.737-9.603
		c8.083-2.928,13.513-10.65,13.513-19.216V253.295c0-4.642-1.604-9.189-4.515-12.806c-2.941-3.652-5.556-7.55-7.77-11.584
		c-1.739-3.164-1.676-7.011,0.163-10.117c1.842-3.107,5.187-5.012,8.799-5.012h124.617c3.614,0,6.959,1.905,8.798,5.012
		c1.842,3.106,1.903,6.953,0.166,10.117c-2.217,4.035-4.83,7.934-7.77,11.583c-2.911,3.617-4.515,8.165-4.515,12.806v109.958
		c0,8.565,5.429,16.287,13.51,19.216c4.044,1.465,6.738,5.304,6.738,9.603v59.717c0,5.642-4.579,10.216-10.225,10.216H87.322z"/>
	<path style="opacity:0.1;" d="M80.016,482.433c-12.884,0-23.365-10.3-23.365-22.96v-73.471c0-11.458,8.706-21.238,20.251-22.75
		l-0.001-109.957c-14.267-17.719-21.808-39.05-21.808-61.686c0-21.643,6.949-42.22,20.098-59.506
		c12.712-16.714,30.818-29.32,50.983-35.496V42.164c0-5.633,4.586-10.216,10.224-10.216h27.558c1.63,0,3.157,0.794,4.093,2.128
		c0.937,1.334,1.163,3.04,0.609,4.572c-0.405,1.12-0.61,2.303-0.61,3.516v50.815c0,2.132-1.352,4.029-3.366,4.726
		c-18.772,6.49-35.684,18.707-47.618,34.398c-13.148,17.287-20.097,37.863-20.097,59.506c0,22.04,7.177,42.91,20.753,60.354
		c0.684,0.878,1.055,1.959,1.055,3.071v104.179c0,2.218-1.46,4.17-3.588,4.796c-9.81,2.89-16.662,11.934-16.662,21.993v73.471
		c0,5.369,1.935,10.596,5.447,14.717c1.265,1.483,1.552,3.568,0.734,5.339c-0.817,1.771-2.59,2.904-4.54,2.904H80.016z"/>
	<path style="fill:#D4F4F1;" d="M309.087,458.938c-8.457,0-15.336-6.873-15.336-15.322V261.787c0-5.641,4.578-10.215,10.224-10.215
		h120.641c5.647,0,10.224,4.574,10.224,10.215v181.828c0,8.449-6.879,15.322-15.335,15.322H309.087z"/>
	<path style="fill:#FFAB5F;" d="M293.751,324.1v119.516c0,8.449,6.879,15.322,15.336,15.322h110.417
		c8.456,0,15.335-6.873,15.335-15.322V324.1H293.751z"/>
	<path style="fill:#FFFFFF;" d="M350.604,360.228c2.428,2.425,2.395,6.391-0.074,8.857l-12.064,12.056
		c-2.47,2.467-6.439,2.499-8.865,0.074l-11.869-11.857c-2.426-2.425-2.395-6.391,0.074-8.858l12.066-12.057
		c2.467-2.465,6.438-2.496,8.865-0.071L350.604,360.228z"/>
	<path style="fill:#FFFFFF;" d="M406.124,382.7c2.428,2.425,2.395,6.392-0.073,8.857l-12.065,12.056
		c-2.47,2.467-6.439,2.499-8.865,0.073l-11.868-11.856c-2.427-2.425-2.396-6.392,0.073-8.858l12.066-12.057
		c2.467-2.465,6.438-2.497,8.865-0.072L406.124,382.7z"/>
	<path style="opacity:0.1;" d="M324.878,443.615V261.787c0-5.641,4.578-10.215,10.224-10.215h-31.127
		c-5.646,0-10.224,4.574-10.224,10.215v181.828c0,8.449,6.879,15.322,15.336,15.322h31.127
		C331.757,458.938,324.878,452.064,324.878,443.615z"/>
	<path style="fill:#FFFFFF;" d="M347.938,413.991c2.731,0,4.945,2.251,4.945,5.026v13.565c0,2.776-2.214,5.026-4.945,5.026h-13.355
		c-2.731,0.001-4.947-2.25-4.947-5.026v-13.566c0-2.773,2.216-5.023,4.947-5.023L347.938,413.991z"/>
	<rect x="76.901" y="266.869" style="fill:#7C3673;" width="158.869" height="86.222"/>
	<rect x="76.901" y="266.869" style="opacity:0.1;" width="42.065" height="86.222"/>
	<path style="fill:#7C3673;" d="M200.726,56.48c0,8.454-6.974,15.307-15.575,15.307H127.52c-8.601,0-15.575-6.853-15.575-15.307
		V22.807c0-8.453,6.975-15.307,15.575-15.307h57.631c8.602,0,15.575,6.854,15.575,15.307V56.48z"/>
	<g>
		<rect x="173.827" y="7.5" style="fill:#60265C;" width="10" height="64.287"/>
		<rect x="151.335" y="7.5" style="fill:#60265C;" width="10" height="64.287"/>
		<rect x="128.842" y="7.5" style="fill:#60265C;" width="10" height="64.287"/>
	</g>
	<g>
		<path d="M265.076,191.609c0-23.297-7.479-45.444-21.627-64.046c-12.531-16.477-29.938-29.234-49.454-36.35V77.542
			c8.347-3.437,14.232-11.582,14.232-21.062V22.807C208.226,10.231,197.874,0,185.151,0H127.52
			c-12.724,0-23.075,10.231-23.075,22.807V56.48c0,9.479,5.883,17.624,14.229,21.062v13.672
			c-19.516,7.115-36.922,19.874-49.453,36.35c-14.149,18.603-21.628,40.749-21.628,64.046c0,23.474,7.53,45.639,21.808,64.277
			v101.517c-11.903,4.315-20.25,15.648-20.25,28.599v73.471c0,16.796,13.846,30.46,30.865,30.46h152.639
			c17.018,0,30.863-13.664,30.863-30.46v-73.471c0-12.951-8.346-24.284-20.248-28.599V255.886
			C257.546,237.248,265.076,215.084,265.076,191.609z M119.445,22.807c0-4.305,3.622-7.807,8.075-7.807h57.631
			c4.453,0,8.075,3.502,8.075,7.807V56.48c0,4.305-3.622,7.807-8.075,7.807H127.52c-4.453,0-8.075-3.502-8.075-7.807V22.807z
			 M178.995,79.287v4.409h-45.32v-4.409H178.995z M248.518,386.002v73.471c0,8.525-7.116,15.46-15.863,15.46H80.016
			c-8.748,0-15.865-6.935-15.865-15.46v-73.471c0-7.705,5.9-14.289,13.724-15.313c3.734-0.489,6.526-3.671,6.526-7.437v-2.661h5.447
			v2.661c0,5.42-3.442,10.309-8.567,12.164c-6.987,2.532-11.683,9.226-11.683,16.655v59.716c0,9.768,7.951,17.716,17.724,17.716
			h138.024c9.773,0,17.725-7.947,17.725-17.716V392.07c0-7.43-4.695-14.123-11.683-16.653c-5.123-1.857-8.566-6.746-8.566-12.165
			v-2.661h5.447v2.661c0,3.766,2.792,6.947,6.526,7.437C242.619,371.713,248.518,378.297,248.518,386.002z M226.278,389.52
			c1.072,0.389,1.793,1.413,1.793,2.551v59.717c0,1.497-1.223,2.716-2.725,2.716H87.322c-1.502,0-2.724-1.219-2.724-2.716v-59.716
			c0-1.138,0.721-2.164,1.791-2.552c11.041-3.999,18.459-14.556,18.459-26.268v-2.661h102.975v2.661
			C207.823,374.963,215.239,385.518,226.278,389.52z M84.401,345.591v-71.222H228.27v71.222H84.401z M229.928,248.591
			c-1.073,1.332-1.658,2.992-1.658,4.703v6.075h-5.447v-6.075c0-2.936,1.015-5.813,2.856-8.101c3.21-3.985,6.07-8.25,8.503-12.679
			c3.001-5.465,2.89-12.19-0.286-17.547c-3.174-5.361-9.018-8.691-15.252-8.691h-15.677c-4.143,0-7.5,3.357-7.5,7.5
			c0,4.143,3.357,7.5,7.5,7.5h15.677c0.959,0,1.857,0.511,2.347,1.337c0.485,0.818,0.502,1.847,0.044,2.681
			c-2.01,3.658-4.378,7.188-7.039,10.492c-3.98,4.945-6.172,11.163-6.172,17.508v6.075H104.848v-6.074
			c0-6.345-2.191-12.563-6.174-17.51c-2.666-3.311-5.033-6.84-7.038-10.493c-0.458-0.834-0.441-1.862,0.042-2.679
			c0.489-0.825,1.389-1.337,2.348-1.337h73.94c4.143,0,7.5-3.357,7.5-7.5c0-4.143-3.357-7.5-7.5-7.5h-73.94
			c-6.229,0-12.073,3.328-15.253,8.691c-3.176,5.364-3.283,12.089-0.284,17.546c2.425,4.418,5.286,8.684,8.502,12.678
			c1.843,2.29,2.857,5.168,2.857,8.104v6.074h-5.447v-6.074c0-1.711-0.585-3.371-1.658-4.703
			c-13.182-16.372-20.149-36.076-20.149-56.982c0-19.989,6.42-38.996,18.566-54.965c11.77-15.475,28.536-27.146,47.211-32.866
			c2.461-0.754,4.296-2.699,4.989-5.082h45.949c0.693,2.383,2.528,4.328,4.989,5.082c18.676,5.72,35.442,17.392,47.212,32.865
			c12.146,15.97,18.566,34.977,18.566,54.966C250.076,212.517,243.109,232.221,229.928,248.591z"/>
		<path d="M187.93,285.954h-63.193c-4.143,0-7.5,3.357-7.5,7.5s3.357,7.5,7.5,7.5h63.193c4.142,0,7.5-3.357,7.5-7.5
			S192.073,285.954,187.93,285.954z"/>
		<path d="M174.048,318.706h-35.428c-4.143,0-7.5,3.358-7.5,7.5c0,4.143,3.357,7.5,7.5,7.5h35.428c4.143,0,7.5-3.357,7.5-7.5
			C181.548,322.064,178.191,318.706,174.048,318.706z"/>
		<path d="M424.616,244.072h-18.65c-4.143,0-7.5,3.357-7.5,7.5c0,4.143,3.357,7.5,7.5,7.5h18.65c1.502,0,2.724,1.218,2.724,2.715
			V316.6H301.251v-54.813c0-1.497,1.222-2.715,2.724-2.715h65.991c4.143,0,7.5-3.357,7.5-7.5c0-4.143-3.357-7.5-7.5-7.5h-65.991
			c-9.772,0-17.724,7.947-17.724,17.715v181.828c0,7.927,4.067,14.921,10.224,19.014v3.46c0,9.768,7.951,17.715,17.725,17.715
			h100.192c9.772,0,17.724-7.947,17.724-17.715v-3.46c6.156-4.093,10.224-11.086,10.224-19.014V261.787
			C442.339,252.02,434.388,244.072,424.616,244.072z M414.392,468.804H314.2c-1.382,0-2.515-1.035-2.69-2.366h105.57
			C416.907,467.768,415.775,468.804,414.392,468.804z M427.339,443.615c0,4.314-3.515,7.822-7.835,7.822H309.087
			c-4.32,0-7.836-3.509-7.836-7.822V331.6h126.088V443.615z"/>
		<path d="M324.299,386.52c2.576,2.574,6.009,3.992,9.665,3.992c3.695,0,7.177-1.444,9.803-4.066l12.063-12.055
			c2.627-2.624,4.073-6.105,4.073-9.803c0-3.658-1.42-7.091-3.998-9.666l-11.868-11.858c-2.577-2.574-6.01-3.991-9.667-3.991
			c-3.696,0-7.177,1.443-9.799,4.064l-12.067,12.058c-2.595,2.594-4.04,6.034-4.07,9.689c-0.03,3.7,1.389,7.173,3.997,9.78
			L324.299,386.52z M334.34,354.579l10.048,10.04l-10.393,10.385l-10.05-10.04L334.34,354.579z"/>
		<path d="M379.818,408.991c2.576,2.575,6.009,3.993,9.666,3.993c3.696,0,7.177-1.443,9.802-4.065l12.065-12.056
			c2.626-2.624,4.072-6.105,4.072-9.804c-0.001-3.657-1.421-7.091-3.999-9.665l-11.868-11.858c-2.576-2.573-6.01-3.991-9.666-3.991
			c-3.696,0-7.177,1.443-9.8,4.065l-12.066,12.057c-2.596,2.594-4.042,6.035-4.071,9.69c-0.03,3.701,1.39,7.174,3.998,9.78
			L379.818,408.991z M389.86,377.052l10.049,10.041l-10.394,10.384l-10.049-10.039L389.86,377.052z"/>
		<path d="M347.937,406.491l-13.355,0.002c-6.863,0-12.447,5.618-12.447,12.523v13.566c0,6.907,5.583,12.526,12.445,12.526h13.357
			c6.862,0,12.445-5.619,12.445-12.526v-13.565C360.383,412.11,354.8,406.491,347.937,406.491z M345.383,430.109h-8.248v-8.616
			l8.248-0.002V430.109z"/>
	</g>
	<g>
		<path style="fill:#FFFFFF;" d="M393.619,258.933c-4.179,10.087-7.565,13.475-17.652,17.652
			c10.087,4.178,13.474,7.565,17.652,17.651c4.178-10.087,7.565-13.474,17.651-17.651
			C401.183,272.407,397.796,269.02,393.619,258.933z"/>
		<circle style="fill:#FFFFFF;" cx="413.039" cy="300.873" r="9.111"/>
	</g>
	<g>
		<path style="fill:#FFFFFF;" d="M199.498,122.388c-6.044,14.589-10.942,19.488-25.531,25.531
			c14.589,6.043,19.487,10.942,25.531,25.531c6.042-14.589,10.941-19.488,25.53-25.531
			C210.439,141.876,205.54,136.977,199.498,122.388z"/>
		<circle style="fill:#FFFFFF;" cx="226.703" cy="180.956" r="11.264"/>
	</g>
</g>
<g>
</g>
<g>
</g>
<g>
</g>
<g>
</g>
<g>
</g>
<g>
</g>
<g>
</g>
<g>
</g>
<g>
</g>
<g>
</g>
<g>
</g>
<g>
</g>
<g>
</g>
<g>
</g>
<g>
</g>
</svg>
