<?xml version="1.0" encoding="iso-8859-1"?>
<!-- Generator: Adobe Illustrator 19.0.0, SVG Export Plug-In . SVG Version: 6.00 Build 0)  -->
<svg version="1.1" id="Layer_1" xmlns="http://www.w3.org/2000/svg" xmlns:xlink="http://www.w3.org/1999/xlink" x="0px" y="0px"
	 viewBox="0 0 490 490" style="enable-background:new 0 0 490 490;" xml:space="preserve">
<g>
	<g>
		<path style="fill:#F9EBCF;" d="M138.413,247.635c-22.483-22.367-22.483-58.764,0-81.131c5.117-5.093,13.415-5.093,18.533,0
			l63.016,62.69c5.118,5.094,5.117,13.35,0,18.44C197.479,270.002,160.895,270.004,138.413,247.635z"/>
		<path style="fill:#FFCC60;" d="M167.141,181.253c-10.494,10.441-10.492,27.363,0,37.802c10.49,10.438,27.502,10.438,37.993,0
			c0.786-0.782,1.493-1.61,2.162-2.461l-37.684-37.49C168.758,179.77,167.925,180.473,167.141,181.253z"/>
	</g>
	<g>
		<path style="fill:#78B591;" d="M150.419,247.577c-7.062-7.099-18.735-8.114-31.552-3.995c4.101-12.884,3.09-24.617-3.974-31.72
			c-7.942-7.982-21.717-8.273-36.392-2.212c-13.513-9.436-32.211-8.109-44.256,3.998c-12.046,12.108-13.365,30.904-3.979,44.49
			c-6.029,14.752-5.742,28.599,2.201,36.584c7.063,7.1,18.737,8.115,31.554,3.994c-4.098,12.885-3.089,24.621,3.974,31.72
			c7.063,7.101,18.736,8.115,31.554,3.995c-4.1,12.885-3.089,24.619,3.976,31.721c13.146,13.215,42.254,5.381,65.014-17.502
			c22.762-22.881,30.557-52.143,17.41-65.355c-7.063-7.102-18.736-8.118-31.554-3.997
			C158.494,266.413,157.483,254.679,150.419,247.577z"/>
	</g>
	<g>
		<path style="fill:#EF645E;" d="M181.895,282.721c-12.909,25.111-43.785,34.935-68.83,21.896c-5.7-2.969-7.94-10.009-5.001-15.725
			l36.177-70.386c2.939-5.718,9.943-7.944,15.644-4.977C184.928,226.569,194.803,257.609,181.895,282.721z"/>
	</g>
	<ellipse style="fill:#EF645E;" cx="354.876" cy="229.757" rx="34.885" ry="34.706"/>
	<g>
		<path style="fill:#78B591;" d="M430.602,347.641c6.949-6.913,7.943-18.339,3.911-30.886c12.61,4.015,24.094,3.024,31.043-3.889
			c7.815-7.774,8.098-21.256,2.167-35.621c9.233-13.227,7.936-31.529-3.914-43.319c-11.85-11.788-30.246-13.08-43.541-3.894
			c-14.44-5.901-27.99-5.619-35.804,2.154c-6.95,6.914-7.944,18.34-3.91,30.887c-12.612-4.013-24.096-3.024-31.045,3.889
			c-6.949,6.914-7.943,18.34-3.91,30.886c-12.61-4.013-24.094-3.023-31.044,3.891c-12.934,12.868-5.266,41.359,17.128,63.638
			c22.393,22.277,51.032,29.909,63.965,17.041c6.95-6.914,7.943-18.339,3.909-30.886
			C412.168,355.544,423.652,354.554,430.602,347.641z"/>
	</g>
	<ellipse style="fill:#FFAB5F;" cx="109.854" cy="314.496" rx="34.885" ry="34.706"/>
	<g>
		<path style="fill:#A5BC79;" d="M336.99,218.082c-7.469-7.432-19.815-8.494-33.37-4.182c4.337-13.486,3.269-25.768-4.203-33.198
			c-8.399-8.356-22.964-8.66-38.485-2.316c-14.291-9.876-34.064-8.487-46.802,4.187c-12.738,12.671-14.132,32.345-4.207,46.563
			c-6.376,15.441-6.072,29.932,2.328,38.289c7.47,7.431,19.814,8.493,33.369,4.18c-4.335,13.486-3.267,25.769,4.202,33.199
			c7.47,7.431,19.815,8.494,33.371,4.181c-4.336,13.487-3.268,25.77,4.203,33.199c13.901,13.832,44.685,5.631,68.754-18.314
			c24.07-23.95,32.314-54.576,18.412-68.405c-7.47-7.433-19.814-8.495-33.37-4.182C345.529,237.794,344.459,225.513,336.99,218.082z
			"/>
	</g>
	<g>
		<path style="fill:#EF645E;" d="M219.325,119.612c-20.018,19.914-52.587,19.914-72.604-0.001c-4.556-4.533-4.556-11.883,0-16.414
			l56.102-55.816c4.558-4.534,11.945-4.533,16.501,0C239.34,67.295,239.342,99.697,219.325,119.612z"/>
	</g>
	<ellipse style="fill:#FFAB5F;" cx="302.375" cy="120.401" rx="24.624" ry="24.498"/>
	<path style="fill:#C14616;" d="M358.034,24.785c3.409,3.393,3.409,8.892,0,12.286l-14.818,14.742c-3.41,3.392-8.938,3.391-12.349,0
		l-14.817-14.742c-3.41-3.394-3.41-8.893,0-12.286l14.817-14.741c3.411-3.392,8.939-3.392,12.349,0L358.034,24.785z"/>
	<path style="fill:#A5BC79;" d="M100.668,136.09c2.756,2.742,2.756,7.189,0,9.93l-11.976,11.915c-2.755,2.742-7.223,2.74-9.979,0
		L66.738,146.02c-2.756-2.741-2.756-7.188,0-9.93l11.976-11.912c2.756-2.742,7.224-2.741,9.979,0L100.668,136.09z"/>
	<path style="fill:#C14616;" d="M412.41,158.564c2.756,2.742,2.756,7.188,0,9.929l-11.975,11.915c-2.755,2.742-7.223,2.74-9.979,0
		l-11.975-11.915c-2.756-2.741-2.756-7.187,0-9.929l11.975-11.913c2.757-2.742,7.225-2.741,9.979,0L412.41,158.564z"/>
	<g>
		<path style="fill:#C14616;" d="M207.662,324.742c-20.017,19.914-52.586,19.914-72.604-0.001c-4.556-4.532-4.556-11.882,0-16.414
			l56.102-55.816c4.558-4.533,11.946-4.532,16.501,0C227.677,272.425,227.68,304.829,207.662,324.742z"/>
	</g>
	<path style="fill:#EF645E;" d="M81.603,314.428c4.278,4.256,4.278,11.155,0,15.412l-18.588,18.492
		c-4.278,4.256-11.213,4.254-15.49,0L28.936,329.84c-4.277-4.257-4.277-11.156,0-15.412l18.588-18.493
		c4.279-4.258,11.212-4.254,15.49,0L81.603,314.428z"/>
	<ellipse style="fill:#FFAB5F;" cx="300.71" cy="286.27" rx="29.953" ry="29.799"/>
	<ellipse style="fill:#FFAB5F;" cx="403.859" cy="314.819" rx="24.624" ry="24.497"/>
	<path style="fill:#EF645E;" d="M366.086,307.264c5.12,5.094,5.12,13.353,0,18.448l-22.251,22.136
		c-5.12,5.096-13.421,5.094-18.542,0l-22.25-22.136c-5.12-5.095-5.12-13.355,0-18.448l22.25-22.138
		c5.122-5.094,13.422-5.092,18.542,0L366.086,307.264z"/>
	<g>
		<path style="fill:#FFFFFF;" d="M227.279,338.448c-22.483-22.368-22.483-58.763,0-81.132c5.117-5.092,13.416-5.092,18.533,0
			l63.016,62.691c5.118,5.094,5.117,13.35,0,18.44C286.345,360.815,249.761,360.817,227.279,338.448z"/>
		<path style="fill:#FFCC60;" d="M256.007,272.066c-10.493,10.44-10.492,27.363,0,37.802c10.49,10.438,27.502,10.438,37.994,0
			c0.785-0.782,1.493-1.61,2.162-2.462l-37.684-37.489C257.624,270.583,256.792,271.286,256.007,272.066z"/>
	</g>
	<path style="fill:#F9EBCF;" d="M148.955,454.836c-32.22,0-63.371-11.512-87.712-32.414c-24.18-20.764-40.134-49.443-44.924-80.76
		c-0.513-3.344,0.469-6.745,2.685-9.312c2.217-2.567,5.448-4.043,8.849-4.043h428.888c3.401,0,6.632,1.476,8.849,4.043
		c2.216,2.566,3.197,5.968,2.685,9.312c-4.79,31.316-20.744,59.996-44.924,80.76c-24.341,20.902-55.493,32.414-87.713,32.414
		H148.955z"/>
	<path style="opacity:0.1;" d="M58.191,341.662c-0.513-3.344,0.469-6.745,2.685-9.312c2.217-2.567,5.448-4.043,8.849-4.043H27.854
		c-3.401,0-6.632,1.476-8.849,4.043c-2.217,2.566-3.198,5.968-2.685,9.312c4.79,31.316,20.744,59.996,44.924,80.76
		c24.341,20.902,55.492,32.414,87.712,32.414h41.872c-32.22,0-63.371-11.512-87.712-32.414
		C78.935,401.658,62.981,372.978,58.191,341.662z"/>
	<path style="fill:#DDB690;" d="M130.368,353.325H21.698c-1.029,0-2.008,0.208-2.9,0.584c1.23,4.888,2.739,9.69,4.51,14.386h107.06
		c4.134,0,7.485-3.352,7.485-7.484C137.853,356.677,134.502,353.325,130.368,353.325z"/>
	<path style="fill:#DDB690;" d="M104.738,388.149H37.992c-1.647,0-3.166,0.539-4.402,1.441c2.801,4.685,5.885,9.206,9.251,13.528
		h61.896c4.133,0,7.484-3.35,7.484-7.484C112.222,391.501,108.871,388.149,104.738,388.149z"/>
	<path style="fill:#A5BC79;" d="M369.557,472.594c0,5.471-4.434,9.906-9.903,9.906H124.94c-5.469,0-9.903-4.435-9.903-9.906v-8.915
		c0-5.471,4.434-9.906,9.903-9.906h234.714c5.469,0,9.903,4.436,9.903,9.906V472.594z"/>
	<path style="opacity:0.1;" d="M156.76,472.594v-8.915c0-5.471,4.434-9.906,9.903-9.906H124.94c-5.469,0-9.903,4.436-9.903,9.906
		v8.915c0,5.471,4.434,9.906,9.903,9.906h41.723C161.194,482.5,156.76,478.065,156.76,472.594z"/>
	<g>
		<path d="M302.374,152.399c17.713,0,32.125-14.354,32.125-31.998c0-17.645-14.411-31.999-32.125-31.999
			c-17.713,0-32.124,14.354-32.124,31.999C270.251,138.045,284.661,152.399,302.374,152.399z M302.374,103.402
			c9.442,0,17.125,7.626,17.125,16.999c0,9.373-7.682,16.998-17.125,16.998c-9.442,0-17.124-7.625-17.124-16.998
			C285.251,111.028,292.932,103.402,302.374,103.402z"/>
		<path d="M325.58,57.133c3.065,3.046,7.135,4.724,11.463,4.724c4.328,0,8.399-1.678,11.463-4.726l14.819-14.743
			c3.073-3.06,4.766-7.129,4.766-11.458c0-4.33-1.693-8.399-4.767-11.461L348.505,4.727C345.441,1.679,341.37,0,337.042,0
			s-8.399,1.679-11.464,4.727L310.76,19.469c-3.074,3.059-4.767,7.129-4.767,11.46c0,4.33,1.693,8.399,4.768,11.459L325.58,57.133z
			 M321.34,30.102l14.816-14.74c0.3-0.299,0.647-0.361,0.885-0.361c0.238,0,0.585,0.063,0.885,0.361l14.816,14.739
			c0.288,0.286,0.348,0.608,0.348,0.828c0,0.219-0.061,0.541-0.347,0.826l-14.817,14.741c-0.3,0.298-0.646,0.36-0.884,0.36
			c-0.239,0-0.586-0.063-0.885-0.359l-14.816-14.742c-0.288-0.286-0.348-0.607-0.348-0.826
			C320.993,30.709,321.054,30.388,321.34,30.102z"/>
		<path d="M73.426,163.253c2.748,2.732,6.398,4.237,10.279,4.237c3.881,0,7.532-1.506,10.278-4.239l11.974-11.913
			c2.759-2.744,4.278-6.396,4.279-10.281c0-3.887-1.519-7.539-4.278-10.284l-11.975-11.911c-2.748-2.734-6.398-4.24-10.279-4.24
			c-3.881,0-7.532,1.506-10.279,4.239l-11.976,11.912c-2.759,2.745-4.278,6.397-4.278,10.284c0,3.886,1.52,7.537,4.277,10.279
			L73.426,163.253z M83.703,129.793l11.321,11.262l-11.322,11.265l-11.321-11.265L83.703,129.793z"/>
		<path d="M385.168,185.727c2.749,2.733,6.399,4.236,10.278,4.236c3.882,0,7.532-1.506,10.278-4.239l11.974-11.913
			c2.759-2.744,4.278-6.395,4.279-10.281c0-3.887-1.519-7.538-4.278-10.283l-11.975-11.912c-2.747-2.734-6.398-4.24-10.28-4.24
			c-3.88,0-7.531,1.506-10.279,4.239l-11.975,11.913c-2.759,2.745-4.278,6.396-4.278,10.283c0.001,3.886,1.52,7.537,4.277,10.279
			L385.168,185.727z M395.445,152.267l11.321,11.263l-11.321,11.264l-11.321-11.264L395.445,152.267z"/>
		<path d="M157.408,263.995l1.032,0.536c1.105,0.574,2.288,0.847,3.452,0.847c2.71,0,5.326-1.474,6.662-4.044
			c1.91-3.675,0.479-8.203-3.197-10.113l-1.032-0.536c-3.678-1.91-8.204-0.478-10.114,3.197
			C152.302,257.557,153.733,262.085,157.408,263.995z"/>
		<path d="M183.024,142.041c15.061-0.002,30.126-5.705,41.591-17.112c11.106-11.049,17.223-25.763,17.222-41.432
			c0-15.669-6.117-30.383-17.223-41.433c-7.465-7.429-19.613-7.429-27.081,0L168.99,70.463c-2.936,2.921-2.948,7.67-0.027,10.606
			c2.921,2.936,7.67,2.947,10.607,0.026l28.542-28.398c1.633-1.625,4.289-1.625,5.922,0c1.347,1.34,2.584,2.759,3.73,4.234
			c-4.606,1.229-7.735,6.647-5.734,11.124c1.106,2.476,3.537,4.195,6.24,4.413c2.53,0.204,4.628-0.896,6.374-2.634
			c1.435,4.35,2.193,8.945,2.193,13.662c0,11.646-4.546,22.584-12.801,30.797c-11.926,11.865-29.064,15.444-44.146,10.76
			c2.973-3.743,1.468-8.603-2.025-11.34c-4.2-3.291-10.62-1.205-11.94,4.022c-1.354-1.06-2.665-2.2-3.914-3.442
			c-0.778-0.774-1.207-1.802-1.207-2.892c0.001-1.09,0.429-2.115,1.207-2.889l6.559-6.525c2.936-2.922,2.949-7.671,0.027-10.608
			c-2.922-2.936-7.67-2.947-10.607-0.027l-6.559,6.525c-3.628,3.609-5.627,8.411-5.628,13.521
			c-0.001,5.111,1.998,9.915,5.628,13.526C152.899,136.338,167.959,142.042,183.024,142.041
			C198.084,142.039,167.959,142.042,183.024,142.041C198.084,142.039,167.959,142.042,183.024,142.041z"/>
		<path d="M187.113,116.407c1.927,0,3.854-0.738,5.319-2.213c2.92-2.938,2.906-7.686-0.031-10.606l-0.825-0.82
			c-2.938-2.919-7.687-2.905-10.606,0.032c-2.92,2.938-2.906,7.686,0.031,10.607l0.825,0.82
			C183.289,115.681,185.201,116.407,187.113,116.407z"/>
		<path d="M207.739,97.529c1.924,0,3.848-0.735,5.313-2.206c2.924-2.934,2.915-7.683-0.019-10.606l-0.825-0.822
			c-2.934-2.925-7.684-2.916-10.606,0.019c-2.924,2.935-2.915,7.683,0.019,10.606l0.825,0.822
			C203.909,96.801,205.824,97.529,207.739,97.529z"/>
		<path d="M469.098,228.608c-7.854-7.813-18.293-12.115-29.395-12.115c-7.154,0-14.076,1.794-20.239,5.219
			c-6.242-2.173-12.25-3.271-17.908-3.271c-1.993,0-3.916,0.148-5.77,0.425c-2.501-9.291-8.136-17.608-16.129-23.353
			c-3.365-2.417-8.051-1.65-10.467,1.714c-2.418,3.364-1.65,8.05,1.713,10.468c5.691,4.09,9.54,10.19,10.853,16.925
			c-0.904,0.696-1.77,1.441-2.582,2.25c-4.521,4.498-7.248,10.436-8.136,17.3c-4.376-1.927-9.379-2.923-14.853-2.923
			c-1.711,0-3.459,0.097-5.24,0.288c1.249-11.727-1.72-21.858-8.666-28.769c-1.489-1.481-3.13-2.783-4.907-3.903
			c4.75-3.935,10.849-6.312,17.502-6.312c4.142,0,7.5-3.357,7.5-7.5c0-4.143-3.358-7.5-7.5-7.5c-13.623,0-25.764,6.434-33.523,16.41
			c-0.901-0.058-1.812-0.095-2.74-0.095c-1.711,0-3.458,0.097-5.238,0.288c1.25-11.729-1.719-21.859-8.667-28.769
			c-5.851-5.821-14.033-8.898-23.663-8.898c-6.09,0-12.568,1.199-19.302,3.568c-6.597-3.715-14.022-5.662-21.701-5.662
			c-11.784,0-22.865,4.568-31.2,12.861c-5.495,5.467-9.268,12.063-11.273,19.081l-35.331-35.148
			c-3.89-3.871-9.06-6.003-14.557-6.003c-5.498,0-10.667,2.132-14.556,6.002c-11.103,11.046-17.683,25.403-18.862,40.856
			c-4.751-2.693-10.421-4.094-16.743-4.094c-5.753,0-11.862,1.13-18.207,3.364c-6.26-3.521-13.293-5.365-20.566-5.365
			c-11.266,0-21.855,4.408-29.817,12.412c-13.455,13.524-16.125,34.217-6.983,50.589c-5.802,16.711-3.942,31.868,5.205,41.064
			c0.943,0.947,1.954,1.814,3.019,2.609l-6.523,6.489c-3.494,3.476-5.418,8.101-5.418,13.022c0,0.418,0.016,0.832,0.044,1.245
			c-1.843,1.062-3.522,2.424-4.943,4.07c-3.658,4.234-5.269,9.829-4.423,15.348c5.061,33.086,21.913,63.386,47.452,85.316
			c15.414,13.235,33.417,22.884,52.692,28.502c-0.965,2.161-1.513,4.548-1.513,7.064v8.915c0,9.598,7.807,17.406,17.403,17.406
			h234.714c9.596,0,17.403-7.809,17.403-17.406v-8.915c0-2.516-0.548-4.902-1.512-7.064c9.059-2.636,17.857-6.16,26.217-10.543
			c3.669-1.923,5.084-6.456,3.161-10.125c-1.923-3.668-6.457-5.085-10.125-3.16c-13.34,6.992-27.921,11.553-42.865,13.486H132.549
			c-30.788-3.99-61.587-19.737-80.928-44.387c-11.721-14.938-19.278-30.62-25.228-48.56c-1.104-4.204-1.998-8.474-2.66-12.8
			c-0.38-2.478,1.642-4.718,4.121-4.718h428.888c2.482,0,4.5,2.241,4.121,4.721c-4.247,27.762-17.986,53.648-38.688,72.89
			c-3.034,2.819-3.207,7.565-0.388,10.6c2.819,3.031,7.565,3.207,10.6,0.387c23.169-21.534,38.548-50.517,43.303-81.607
			c0.845-5.521-0.767-11.114-4.422-15.348c-1.776-2.057-3.948-3.677-6.35-4.807c2.179-1.218,4.165-2.706,5.927-4.459
			c9.043-8.996,10.904-23.8,5.21-40.124C485.039,262.037,482.383,241.827,469.098,228.608
			C461.244,220.796,482.383,241.827,469.098,228.608z M122.537,463.679c0-1.327,1.078-2.406,2.403-2.406h234.714
			c1.325,0,2.403,1.079,2.403,2.406v8.915c0,1.327-1.078,2.406-2.403,2.406H124.94c-1.325,0-2.403-1.079-2.403-2.406V463.679z
			 M201.272,230.886c-1.241,3.68-2.119,7.28-2.636,10.761c-2.059,0.086-4.06,0.486-5.946,1.189
			c-0.853-2.949-1.941-5.829-3.238-8.616C193.602,233.825,197.591,232.689,201.272,230.886z M169.778,189.85l26.705,26.567
			c-3.066,1.932-6.626,2.966-10.347,2.966c-9.998,0-19.366-9.208-19.366-19.229C166.771,196.448,167.82,192.901,169.778,189.85z
			 M143.704,171.82c1.06-1.055,2.472-1.636,3.976-1.636c1.504,0,2.915,0.581,3.977,1.637l7.358,7.32
			c-4.691,5.983-7.244,13.3-7.244,21.013c0,1.594,0.111,3.171,0.327,4.723c-6.189,0.789-11.619,4.543-14.527,10.201l-5.149,10.019
			c-2.207-5.67-3.371-11.756-3.371-18.027C129.051,193.738,134.254,181.221,143.704,171.82z M33.503,320.808
			c0.15-0.351,0.375-0.718,0.723-1.063l18.588-18.493c0.882-0.877,1.915-1.008,2.454-1.008c0.539,0,1.574,0.131,2.457,1.009
			l18.588,18.493c0.347,0.345,0.573,0.712,0.723,1.063H33.503z M72.427,294.72l-4.125-4.103c-3.485-3.465-8.114-5.373-13.035-5.373
			c-4.921,0-9.55,1.908-13.033,5.375l-1.173,1.167c-1.233-0.629-2.335-1.404-3.277-2.352c-5.417-5.446-5.632-16.085-0.576-28.457
			c0.958-2.346,0.669-5.017-0.772-7.101c-7.512-10.873-6.198-25.567,3.125-34.939c5.126-5.152,11.939-7.99,19.184-7.99
			c5.569,0,10.916,1.678,15.461,4.853c2.096,1.464,4.794,1.759,7.157,0.782c5.757-2.377,11.343-3.634,16.155-3.634
			c5.225,0,9.282,1.414,12.056,4.203c4.734,4.76,5.516,13.564,2.145,24.156c-0.852,2.676-0.137,5.603,1.851,7.585
			c1.477,1.472,3.473,2.236,5.498,2.183l-10.921,21.249c-1.53,0.061-3.031,0.225-4.516,0.443L66.25,235.189
			c-2.921-2.936-7.669-2.948-10.607-0.028c-2.937,2.922-2.949,7.67-0.028,10.606l32.416,32.586
			C81.465,282.303,76.044,287.958,72.427,294.72z M129.769,303.01c-3.629,3.61-5.628,8.413-5.628,13.524
			c0,1.458,0.178,2.887,0.497,4.273H92.246c-0.314-4.421-2.176-8.535-5.354-11.697l-3.068-3.053
			c3.583-10.883,13.894-18.768,26.029-18.768c9.685,0,18.19,5.034,23.058,12.594L129.769,303.01z M123.81,274.664l27.101-52.729
			c1.022-1.987,3.524-2.786,5.509-1.753c1.728,0.899,3.366,1.905,4.921,2.995c-3.949,2.502-5.345,8.495-2.266,12.175
			c3.638,4.348,10.343,3.026,12.676-1.88c4.232,5.898,6.932,12.76,7.899,19.908l-25.109,24.98c-1.851-3.128-6.254-4.97-9.74-3.868
			c-4.601,1.455-6.654,7.066-4.072,11.157C136.105,280.74,130.32,276.935,123.81,274.664z M178.663,320.808
			c7.698-3.648,3.743-15.1-4.055-15.08c-8.869,0.022-9.456,11.722-2.37,15.08h-14.083c-0.41-0.504-0.871-0.971-1.342-1.418
			c-2.938-2.919-7.687-2.905-10.606,0.032c-1.004,1.011-0.753,1.13-1.922,1.386c-0.539,0.118-1.867,0.18-2.397,0
			c-2.818-0.956-3.511-5.202-1.539-7.164l56.101-55.815c1.611-1.603,4.311-1.604,5.922,0c1.347,1.34,2.585,2.758,3.73,4.233
			c-3.09,0.824-5.907,3.912-6.322,7.088c-0.526,4.03,2.365,7.837,6.4,8.395c-1.603,4.859-2.627,9.925-3.038,15.119
			c-2.606-7.39-14.468-7.852-15.343,0.929c-0.818,8.197,11.461,12.853,15.124,4.614c0.038,7.848,1.464,15.474,4.16,22.602H178.663z
			 M223.512,320.808c-3.648-6.994-5.595-14.805-5.595-22.925c0-13.33,5.203-25.849,14.652-35.25c1.06-1.055,2.472-1.635,3.977-1.635
			c1.504,0,2.916,0.58,3.977,1.636l7.359,7.321c-4.692,5.982-7.244,13.3-7.244,21.013c0,9.149,3.58,17.75,10.079,24.217
			c2.245,2.233,4.75,4.11,7.441,5.623H223.512z M275.003,310.196c-5.181,0-10.048-2.005-13.707-5.645
			c-3.649-3.631-5.659-8.455-5.659-13.584c0-3.706,1.049-7.253,3.007-10.306l26.705,26.568
			C282.284,309.162,278.725,310.196,275.003,310.196z M291.849,320.808c1.49-0.837,2.921-1.789,4.283-2.851l2.866,2.851H291.849z
			 M279.185,279.938c2.755-9.221,11.36-15.968,21.526-15.968c9.561,0,17.74,5.97,20.972,14.351c-0.581,0.465-1.145,0.957-1.68,1.489
			l-20.472,20.368L279.185,279.938z M360.796,320.395l-0.415,0.413h-42.033c-1.009-2.25-2.426-4.322-4.23-6.117l-3.954-3.933
			l20.417-20.314c2.166-2.155,5.797-2.156,7.964-0.002l22.251,22.139C362.937,314.71,362.937,318.265,360.796,320.395z
			 M366.844,297.439l-17.72-17.63c-3.545-3.526-8.157-5.589-13.105-5.932c-5.141-14.491-19.019-24.907-35.308-24.907
			c-2.844,0-5.613,0.324-8.276,0.925l-44.79-44.561c-2.937-2.922-7.685-2.909-10.606,0.026c-2.921,2.937-2.909,7.686,0.027,10.606
			l40.901,40.692c-4.188,3.2-7.673,7.265-10.201,11.918l-3.998-3.977c-0.002-0.002-0.004-0.004-0.006-0.006L251.102,252
			c-3.89-3.871-9.06-6.002-14.556-6.002c-5.497,0-10.667,2.131-14.556,6.002c-0.906,0.901-1.772,1.831-2.618,2.775
			c-1.88-2.637-3.984-5.142-6.321-7.478c0.268-4.597,1.526-9.784,3.804-15.301c0.976-2.362,0.681-5.06-0.782-7.155
			c-8.027-11.498-6.619-27.039,3.347-36.953c5.506-5.479,12.829-8.495,20.621-8.495c5.991,0,11.74,1.785,16.628,5.162
			c2.085,1.44,4.756,1.732,7.101,0.772c6.148-2.513,12.121-3.841,17.275-3.841c5.659,0,10.061,1.524,13.084,4.532
			c5.094,5.067,5.952,14.392,2.352,25.585c-0.86,2.673-0.154,5.602,1.828,7.591c1.982,1.988,4.909,2.704,7.585,1.853
			c4.549-1.448,8.828-2.182,12.718-2.182c5.662,0,10.066,1.525,13.088,4.532c5.093,5.068,5.951,14.394,2.352,25.587
			c-0.859,2.674-0.154,5.603,1.829,7.591c1.981,1.988,4.91,2.706,7.585,1.852c4.55-1.447,8.829-2.182,12.719-2.182
			c5.661,0,10.064,1.525,13.088,4.534c3.015,2.999,4.544,7.363,4.544,12.972C373.818,280.959,371.311,289.19,366.844,297.439z
			 M419.877,320.808h-32.035c-0.713-1.862-1.106-3.88-1.106-5.988c0-9.373,7.682-16.999,17.124-16.999
			c9.442,0,17.124,7.626,17.124,16.999C420.983,316.928,420.589,318.945,419.877,320.808z M461.572,272.952
			c-1.463,2.096-1.758,4.792-0.783,7.154c4.933,11.95,4.737,22.209-0.525,27.443c-2.711,2.696-6.682,4.064-11.805,4.064
			c-3.565,0-7.492-0.675-11.672-2.006c-0.424-0.136-0.855-0.218-1.287-0.275c-1.607-9.224-7.185-17.106-14.918-21.823l22.256-22.143
			c2.936-2.921,2.949-7.67,0.027-10.606c-2.923-2.936-7.671-2.949-10.606-0.026l-28.234,28.09c-0.056,0-0.111-0.004-0.167-0.004
			c-6.23,0-12.047,1.781-16.977,4.852c1.267-4.764,1.936-9.441,1.935-13.921c0-3.129-0.691-11.628-1.124-12.974
			c-3.287-10.22-2.536-18.702,2.059-23.273c2.71-2.696,6.681-4.064,11.803-4.064c4.727,0,10.216,1.223,15.874,3.534
			c2.345,0.96,5.016,0.668,7.101-0.772c4.458-3.08,9.705-4.709,15.172-4.709c7.11,0,13.792,2.752,18.815,7.749
			C467.609,248.287,468.894,262.464,461.572,272.952z"/>
	</g>
</g>
<g>
</g>
<g>
</g>
<g>
</g>
<g>
</g>
<g>
</g>
<g>
</g>
<g>
</g>
<g>
</g>
<g>
</g>
<g>
</g>
<g>
</g>
<g>
</g>
<g>
</g>
<g>
</g>
<g>
</g>
</svg>
