<?xml version="1.0" encoding="iso-8859-1"?>
<!-- Generator: Adobe Illustrator 19.0.0, SVG Export Plug-In . SVG Version: 6.00 Build 0)  -->
<svg version="1.1" id="Layer_1" xmlns="http://www.w3.org/2000/svg" xmlns:xlink="http://www.w3.org/1999/xlink" x="0px" y="0px"
	 viewBox="0 0 490 490" style="enable-background:new 0 0 490 490;" xml:space="preserve">
<g>
	<g>
		<g>
			<path style="fill:#F77B3E;" d="M372.407,207.838c-7.811-7.811-29.338,1.055-48.083,19.799
				c-18.745,18.746-27.609,40.273-19.799,48.084c0.377,0.377,0.794,0.703,1.233,1.002c6.267,5.783,21.557,8.646,38.89,6.596
				c22.035-2.604,39.019-12.158,37.934-21.34c-0.776-6.568-10.594-11.166-24.186-12.295
				C373.088,232.623,379.362,214.793,372.407,207.838z"/>
		</g>
		<g>
			<path style="fill:#F7573E;" d="M314.634,271.502c-2.949,0-5.746-1.75-6.938-4.647c-1.577-3.83,0.25-8.214,4.08-9.791l17-7
				c3.829-1.574,8.213,0.249,9.79,4.08c1.577,3.83-0.249,8.214-4.08,9.791l-17,7C316.553,271.319,315.585,271.502,314.634,271.502z"
				/>
		</g>
		<path style="fill:#F7C677;" d="M312.537,268.518c0-16.711-8.986-26.707-22.385-31.551c-2.978-4.934-8.375-8.244-14.558-8.244
			c-4.43,0-8.453,1.707-11.479,4.482l-1.853-0.109c-2.939-6.283-9.298-10.643-16.691-10.643c-6.331,0-11.913,3.191-15.232,8.053
			c-2.889-6.408-9.319-10.877-16.805-10.877c-6.331,0-11.913,3.193-15.233,8.053c-2.888-6.408-9.319-10.877-16.805-10.877
			c-6.227,0-11.721,3.094-15.06,7.822c-3.028-7.645-10.47-13.057-19.19-13.057c-8.868,0-16.408,5.6-19.334,13.449
			c-3.176-7.318-10.459-12.441-18.945-12.441c-7.642,0-14.296,4.16-17.868,10.328l-0.458-0.027
			C65.433,222.879,45,243.313,45,268.518c0,24.621,19.5,44.678,43.898,45.594c3.74,5.291,9.891,8.756,16.863,8.756
			c7.791,0,14.569-4.318,18.086-10.688l1.563-0.094c3.319,6.965,10.402,11.789,18.631,11.789c8.721,0,16.163-5.414,19.191-13.057
			c3.338,4.727,8.833,7.822,15.06,7.822c7.414,0,13.789-4.387,16.717-10.697l0.213-0.014c3.334,4.764,8.852,7.887,15.107,7.887
			c7.042,0,13.157-3.951,16.263-9.752l1.325-0.08c3.377,4.264,8.588,7.008,14.45,7.008c6.646,0,12.454-3.529,15.698-8.803
			l4.943-0.293c2.69,1.781,5.913,2.826,9.382,2.826c4.675,0,8.908-1.889,11.982-4.941
			C300.905,297.855,312.537,287.533,312.537,268.518z"/>
		<path style="opacity:0.1;" d="M305.372,280.906c-3.075,3.053-7.307,4.941-11.982,4.941c-3.469,0-6.692-1.045-9.382-2.826
			l-4.943,0.293c-3.244,5.273-9.051,8.803-15.698,8.803c-5.862,0-11.073-2.744-14.45-7.008l-1.325,0.08
			c-3.106,5.801-9.221,9.752-16.263,9.752c-6.255,0-11.773-3.123-15.107-7.887l-0.213,0.014
			c-2.928,6.311-9.303,10.697-16.717,10.697c-6.227,0-11.722-3.096-15.06-7.822C181.203,297.586,173.761,303,165.04,303
			c-8.229,0-15.312-4.824-18.631-11.789l-1.563,0.094c-3.517,6.369-10.295,10.688-18.086,10.688c-6.972,0-13.123-3.465-16.863-8.756
			C85.5,292.32,66,272.264,66,247.643c0-7.25,1.698-14.101,4.706-20.188C55.49,234.855,45,250.46,45,268.518
			c0,24.621,19.5,44.678,43.898,45.594c3.74,5.291,9.891,8.756,16.863,8.756c7.791,0,14.569-4.318,18.086-10.688l1.563-0.094
			c3.319,6.965,10.402,11.789,18.631,11.789c8.721,0,16.163-5.414,19.191-13.057c3.338,4.727,8.833,7.822,15.06,7.822
			c7.414,0,13.789-4.387,16.717-10.697l0.213-0.014c3.334,4.764,8.852,7.887,15.107,7.887c7.042,0,13.157-3.951,16.263-9.752
			l1.325-0.08c3.377,4.264,8.588,7.008,14.45,7.008c6.646,0,12.454-3.529,15.698-8.803l4.943-0.293
			c2.69,1.781,5.913,2.826,9.382,2.826c4.675,0,8.908-1.889,11.982-4.941c13.116-3.114,23.14-10.26,26.726-22.571
			C309.267,279.869,307.355,280.435,305.372,280.906z"/>
		<g>
			<g>
				<path style="fill:#E2AA59;" d="M114.631,249h-9c-4.142,0-7.5-3.357-7.5-7.5s3.358-7.5,7.5-7.5h9c4.142,0,7.5,3.357,7.5,7.5
					S118.773,249,114.631,249z"/>
			</g>
			<g>
				<path style="fill:#E2AA59;" d="M85.631,271.48h-8c-4.142,0-7.5-3.358-7.5-7.5c0-4.143,3.358-7.5,7.5-7.5h8
					c4.142,0,7.5,3.357,7.5,7.5C93.131,268.123,89.773,271.48,85.631,271.48z"/>
			</g>
		</g>
	</g>
	<g>
		<path style="fill:#EF645E;" d="M245,291.361c-45.215,0-82-34.99-82-78c0-5.523,4.477-10,10-10h144c5.523,0,10,4.477,10,10
			C327,256.371,290.215,291.361,245,291.361z"/>
	</g>
	<g>
		<path style="fill:#C14616;" d="M209,216.861h-45c-0.307,0-0.608,0.023-0.905,0.06c0.244,5.125,1.017,10.118,2.255,14.94H209
			c4.142,0,7.5-3.357,7.5-7.5C216.5,220.219,213.143,216.861,209,216.861z"/>
		<path style="fill:#C14616;" d="M200,238.861h-27c-1.837,0-3.518,0.662-4.822,1.759c1.824,4.637,4.092,9.069,6.768,13.241H200
			c4.142,0,7.5-3.357,7.5-7.5C207.5,242.219,204.143,238.861,200,238.861z"/>
	</g>
	<path style="opacity:0.1;" d="M193,213.361c0-5.523,4.477-10,10-10h-30c-5.523,0-10,4.477-10,10c0,43.01,36.785,78,82,78
		c5.124,0,10.133-0.472,15-1.331C221.927,283.305,193,251.496,193,213.361z"/>
	<g>
		<path style="fill:#F7C677;" d="M300.537,365.004c0-16.711-8.986-26.707-22.385-31.551c-2.978-4.934-8.375-8.244-14.558-8.244
			c-4.43,0-8.453,1.707-11.479,4.482l-1.854-0.109c-2.939-6.283-9.298-10.642-16.691-10.642c-6.331,0-11.913,3.191-15.232,8.053
			c-2.889-6.408-9.319-10.877-16.805-10.877c-6.331,0-11.913,3.193-15.233,8.053c-2.888-6.408-9.319-10.877-16.805-10.877
			c-6.227,0-11.721,3.094-15.06,7.822c-3.028-7.645-10.47-13.057-19.19-13.057c-8.868,0-16.408,5.6-19.334,13.449
			c-3.176-7.318-10.459-12.441-18.945-12.441c-7.642,0-14.296,4.16-17.868,10.328l-0.458-0.027
			C53.433,319.365,33,339.799,33,365.004c0,24.621,19.5,44.678,43.898,45.594c3.74,5.291,9.891,8.756,16.863,8.756
			c7.791,0,14.569-4.318,18.086-10.688l1.563-0.094c3.319,6.965,10.402,11.789,18.631,11.789c8.721,0,16.163-5.414,19.191-13.057
			c3.338,4.727,8.833,7.822,15.06,7.822c7.414,0,13.789-4.387,16.717-10.697l0.213-0.014c3.334,4.764,8.852,7.887,15.107,7.887
			c7.042,0,13.157-3.951,16.263-9.752l1.325-0.08c3.377,4.264,8.588,7.008,14.45,7.008c6.646,0,12.454-3.529,15.698-8.803
			l4.943-0.293c2.69,1.781,5.913,2.826,9.382,2.826c4.675,0,8.908-1.889,11.982-4.941
			C288.905,394.342,300.537,384.02,300.537,365.004z"/>
		<path style="opacity:0.1;" d="M293.372,367.211c-3.075,3.053-7.307,4.941-11.982,4.941c-3.469,0-6.692-1.045-9.382-2.826
			l-4.943,0.293c-3.244,5.273-9.051,8.803-15.698,8.803c-5.862,0-11.073-2.744-14.45-7.008l-1.325,0.08
			c-3.106,5.801-9.221,9.752-16.263,9.752c-6.255,0-11.773-3.123-15.107-7.887l-0.213,0.014
			c-2.928,6.311-9.303,10.697-16.717,10.697c-6.227,0-11.722-3.096-15.06-7.822c-3.028,7.643-10.47,13.057-19.191,13.057
			c-8.229,0-15.312-4.824-18.631-11.789l-1.563,0.094c-3.517,6.369-10.295,10.688-18.086,10.688c-6.972,0-13.123-3.465-16.863-8.756
			C73.5,378.625,54,358.568,54,333.947c0-2.655,0.239-5.252,0.675-7.783C41.669,334.206,33,348.59,33,365.004
			c0,24.621,19.5,44.678,43.898,45.594c3.74,5.291,9.891,8.756,16.863,8.756c7.791,0,14.569-4.318,18.086-10.688l1.563-0.094
			c3.319,6.965,10.402,11.789,18.631,11.789c8.721,0,16.163-5.414,19.191-13.057c3.338,4.727,8.833,7.822,15.06,7.822
			c7.414,0,13.789-4.387,16.717-10.697l0.213-0.014c3.334,4.764,8.852,7.887,15.107,7.887c7.042,0,13.157-3.951,16.263-9.752
			l1.325-0.08c3.377,4.264,8.588,7.008,14.45,7.008c6.646,0,12.454-3.529,15.698-8.803l4.943-0.293
			c2.69,1.781,5.913,2.826,9.382,2.826c4.675,0,8.908-1.889,11.982-4.941c16.534-3.926,28.165-14.248,28.165-33.264
			c0-0.012-0.001-0.022-0.001-0.033C298.275,365.869,295.881,366.615,293.372,367.211z"/>
	</g>
	<g>
		<path style="fill:#E2AA59;" d="M105.631,375.967h-6c-4.142,0-7.5,3.357-7.5,7.5s3.358,7.5,7.5,7.5h6c4.142,0,7.5-3.357,7.5-7.5
			S109.773,375.967,105.631,375.967z"/>
		<path style="fill:#E2AA59;" d="M73.631,352.967h-8c-4.142,0-7.5,3.357-7.5,7.5s3.358,7.5,7.5,7.5h8c4.142,0,7.5-3.357,7.5-7.5
			S77.773,352.967,73.631,352.967z"/>
	</g>
	<path style="fill:#ACEBE9;" d="M35.269,414.361c6.358,34.293,36.407,60.272,72.543,60.272h274.375
		c36.136,0,66.186-25.979,72.543-60.272H35.269z"/>
	<path style="opacity:0.1;" d="M87.539,414.361h-52.27c6.358,34.293,36.407,60.272,72.543,60.272h52.27
		C123.946,474.633,93.897,448.654,87.539,414.361z"/>
	<g>
		<path style="fill:#F78D3E;" d="M424.905,250.256c-8.032-8.032-30.17,1.085-49.447,20.36
			c-19.276,19.278-28.393,41.416-20.36,49.447c0.388,0.388,0.816,0.724,1.268,1.03c6.444,5.947,22.168,8.892,39.992,6.783
			c22.66-2.678,40.125-12.503,39.01-21.945c-0.799-6.754-10.895-11.482-24.872-12.644
			C425.604,275.744,432.057,257.408,424.905,250.256z"/>
	</g>
	<g>
		<path style="fill:#F7573E;" d="M365.493,315.726c-3.033,0-5.908-1.8-7.135-4.778c-1.622-3.939,0.257-8.447,4.195-10.068
			l17.482-7.199c3.939-1.617,8.446,0.258,10.068,4.196c1.622,3.939-0.256,8.446-4.195,10.068l-17.482,7.198
			C367.466,315.538,366.472,315.726,365.493,315.726z"/>
	</g>
	<path style="fill:#F2B549;" d="M363.336,312.656c0-17.185-9.24-27.464-23.02-32.445c-3.061-5.073-8.612-8.478-14.971-8.478
		c-4.556,0-8.692,1.755-11.805,4.609l-1.906-0.112c-3.023-6.462-9.562-10.944-17.165-10.944c-6.51,0-12.251,3.281-15.664,8.28
		c-2.971-6.59-9.584-11.185-17.282-11.185c-6.511,0-12.251,3.283-15.665,8.28c-2.97-6.59-9.583-11.185-17.282-11.185
		c-6.403,0-12.054,3.181-15.487,8.044c-3.114-7.861-10.767-13.427-19.734-13.427c-9.12,0-16.873,5.758-19.882,13.83
		c-3.266-7.525-10.756-12.794-19.482-12.794c-7.858,0-14.702,4.278-18.375,10.621l-0.472-0.028
		c-25.92,0-46.933,21.013-46.933,46.933c0,25.319,20.053,45.945,45.143,46.887c3.846,5.441,10.172,9.004,17.341,9.004
		c8.012,0,14.982-4.44,18.599-10.99l1.607-0.097c3.413,7.163,10.697,12.124,19.159,12.124c8.968,0,16.621-5.568,19.734-13.427
		c3.433,4.86,9.083,8.044,15.487,8.044c7.624,0,14.18-4.512,17.191-11.001l0.219-0.014c3.429,4.898,9.103,8.11,15.536,8.11
		c7.241,0,13.53-4.064,16.724-10.028l1.362-0.083c3.473,4.385,8.832,7.207,14.86,7.207c6.835,0,12.807-3.63,16.143-9.053
		l5.083-0.301c2.766,1.831,6.08,2.906,9.648,2.906c4.808,0,9.16-1.942,12.322-5.082
		C351.375,342.826,363.336,332.211,363.336,312.656z"/>
	<path style="opacity:0.1;" d="M353.714,320.851c-3.568,0-6.882-1.075-9.648-2.906l-5.083,0.301
		c-3.336,5.423-9.308,9.053-16.143,9.053c-6.028,0-11.387-2.822-14.86-7.207l-1.362,0.083c-3.194,5.965-9.483,10.028-16.724,10.028
		c-6.433,0-12.107-3.212-15.536-8.11l-0.219,0.014c-3.011,6.489-9.567,11.001-17.191,11.001c-6.404,0-12.054-3.184-15.487-8.044
		c-3.114,7.858-10.767,13.427-19.734,13.427c-8.462,0-15.747-4.961-19.159-12.124l-1.607,0.097
		c-3.617,6.55-10.587,10.99-18.599,10.99c-7.169,0-13.495-3.563-17.341-9.004c-25.089-0.941-45.142-21.567-45.142-46.887
		c0-4.859,0.739-9.546,2.109-13.954c-19.512,5.691-33.773,23.699-33.773,45.049c0,25.319,20.053,45.945,45.143,46.887
		c3.846,5.441,10.172,9.004,17.341,9.004c8.012,0,14.982-4.44,18.599-10.99l1.607-0.097c3.413,7.163,10.697,12.124,19.159,12.124
		c8.968,0,16.621-5.568,19.734-13.427c3.433,4.86,9.083,8.044,15.487,8.044c7.624,0,14.18-4.512,17.191-11.001l0.219-0.014
		c3.429,4.898,9.103,8.11,15.536,8.11c7.241,0,13.53-4.064,16.724-10.028l1.362-0.083c3.473,4.385,8.832,7.207,14.86,7.207
		c6.835,0,12.807-3.63,16.143-9.053l5.083-0.301c2.766,1.831,6.08,2.906,9.648,2.906c4.808,0,9.16-1.942,12.322-5.082
		c15.33-3.64,26.557-12.631,28.619-28.697C360.3,319.857,357.127,320.851,353.714,320.851z"/>
	<g>
		<g>
			<path style="fill:#F7C677;" d="M159.819,298.222h-9.255c-4.26,0-7.713-3.453-7.713-7.713c0-4.261,3.453-7.713,7.713-7.713h9.255
				c4.259,0,7.713,3.452,7.713,7.713C167.531,294.769,164.078,298.222,159.819,298.222z"/>
		</g>
		<g>
			<path style="fill:#CE953A;" d="M203.563,311.996h-8.266c-4.259,0-7.712-3.453-7.712-7.713s3.453-7.713,7.712-7.713h8.266
				c4.26,0,7.713,3.453,7.713,7.713S207.823,311.996,203.563,311.996z"/>
		</g>
		<g>
			<path style="fill:#CE953A;" d="M309.287,304h-8.266c-4.259,0-7.712-3.453-7.712-7.713s3.453-7.713,7.712-7.713h8.266
				c4.26,0,7.713,3.453,7.713,7.713S313.547,304,309.287,304z"/>
		</g>
		<g>
			<path style="fill:#F7C677;" d="M258.541,298.222h-9.255c-4.259,0-7.712-3.453-7.712-7.713c0-4.261,3.453-7.713,7.712-7.713h9.255
				c4.26,0,7.713,3.452,7.713,7.713C266.254,294.769,262.801,298.222,258.541,298.222z"/>
		</g>
		<g>
			<path style="fill:#CE953A;" d="M129.996,315.703h-8.227c-4.26,0-7.713-3.452-7.713-7.713c0-4.26,3.453-7.712,7.713-7.712h8.227
				c4.26,0,7.713,3.452,7.713,7.712C137.709,312.251,134.256,315.703,129.996,315.703z"/>
		</g>
	</g>
	<g>
		<path style="fill:#F78D3E;" d="M460.983,304.465c-8.16-8.16-30.65,1.102-50.233,20.685
			c-19.584,19.584-28.844,42.074-20.684,50.234c0.394,0.394,0.83,0.732,1.289,1.046c6.547,6.042,22.521,9.033,40.629,6.891
			c23.02-2.722,40.763-12.704,39.63-22.296c-0.811-6.862-11.068-11.663-25.268-12.845
			C461.694,330.358,468.249,311.73,460.983,304.465z"/>
	</g>
	<g>
		<path style="fill:#F7573E;" d="M400.627,370.976c-3.081,0-6.003-1.828-7.249-4.853c-1.647-4.002,0.261-8.582,4.262-10.229
			l17.76-7.313c4.001-1.644,8.581,0.26,10.228,4.262c1.648,4.002-0.261,8.582-4.262,10.229l-17.76,7.313
			C402.631,370.785,401.621,370.976,400.627,370.976z"/>
	</g>
	<path style="fill:#F7C677;" d="M398.435,367.856c0-17.459-9.388-27.899-23.386-32.96c-3.11-5.156-8.749-8.615-15.209-8.615
		c-4.628,0-8.831,1.786-11.992,4.683l-1.936-0.113c-3.071-6.563-9.714-11.119-17.438-11.119c-6.614,0-12.445,3.336-15.914,8.415
		c-3.018-6.694-9.736-11.365-17.557-11.365c-6.614,0-12.445,3.336-15.914,8.415c-3.017-6.697-9.735-11.365-17.557-11.365
		c-6.505,0-12.246,3.233-15.733,8.172c-3.164-7.984-10.938-13.641-20.049-13.641c-9.265,0-17.142,5.85-20.199,14.051
		c-3.317-7.646-10.927-12.998-19.792-12.998c-7.983,0-14.936,4.346-18.667,10.792l-0.479-0.03c-26.333,0-47.68,21.347-47.68,47.68
		c0,25.724,20.373,46.678,45.861,47.635c3.907,5.527,10.333,9.145,17.617,9.145c8.139,0,15.22-4.509,18.894-11.165l1.633-0.096
		c3.467,7.274,10.868,12.314,19.464,12.314c9.11,0,16.885-5.653,20.048-13.64c3.488,4.94,9.228,8.172,15.734,8.172
		c7.745,0,14.405-4.581,17.465-11.176l0.222-0.013c3.483,4.977,9.248,8.238,15.783,8.238c7.357,0,13.745-4.126,16.99-10.189
		L310.03,407c3.528,4.455,8.973,7.319,15.097,7.319c6.944,0,13.01-3.685,16.399-9.194l5.164-0.308
		c2.811,1.862,6.177,2.952,9.801,2.952c4.885,0,9.306-1.971,12.518-5.16C386.284,398.508,398.435,387.722,398.435,367.856z"/>
	<path style="fill:#F7C677;" d="M398.435,367.856c0-17.459-9.388-27.899-23.386-32.96c-3.11-5.156-8.749-8.615-15.209-8.615
		c-4.628,0-8.831,1.786-11.992,4.683l-1.936-0.113c-3.071-6.563-9.714-11.119-17.438-11.119c-6.614,0-12.445,3.336-15.914,8.415
		c-3.018-6.694-9.736-11.365-17.557-11.365c-6.614,0-12.445,3.336-15.914,8.415c-3.017-6.697-9.735-11.365-17.557-11.365
		c-6.505,0-12.246,3.233-15.733,8.172c-3.164-7.984-10.938-13.641-20.049-13.641c-9.265,0-17.142,5.85-20.199,14.051
		c-3.317-7.646-10.927-12.998-19.792-12.998c-7.983,0-14.936,4.346-18.667,10.792l-0.479-0.03c-26.333,0-47.68,21.347-47.68,47.68
		c0,25.724,20.373,46.678,45.861,47.635c3.907,5.527,10.333,9.145,17.617,9.145c8.139,0,15.22-4.509,18.894-11.165l1.633-0.096
		c3.467,7.274,10.868,12.314,19.464,12.314c9.11,0,16.885-5.653,20.048-13.64c3.488,4.94,9.228,8.172,15.734,8.172
		c7.745,0,14.405-4.581,17.465-11.176l0.222-0.013c3.483,4.977,9.248,8.238,15.783,8.238c7.357,0,13.745-4.126,16.99-10.189
		L310.03,407c3.528,4.455,8.973,7.319,15.097,7.319c6.944,0,13.01-3.685,16.399-9.194l5.164-0.308
		c2.811,1.862,6.177,2.952,9.801,2.952c4.885,0,9.306-1.971,12.518-5.16C386.284,398.508,398.435,387.722,398.435,367.856z"/>
	<path style="opacity:0.1;" d="M387.558,376.432c-3.624,0-6.991-1.09-9.801-2.952l-5.164,0.308
		c-3.389,5.51-9.456,9.194-16.399,9.194c-6.124,0-11.568-2.864-15.097-7.319l-1.384,0.082c-3.245,6.063-9.633,10.188-16.99,10.188
		c-6.535,0-12.3-3.262-15.783-8.238l-0.222,0.013c-3.06,6.595-9.72,11.176-17.465,11.176c-6.506,0-12.246-3.232-15.734-8.172
		c-3.163,7.986-10.938,13.64-20.048,13.64c-8.597,0-15.997-5.039-19.464-12.313l-1.633,0.096
		c-3.674,6.656-10.755,11.165-18.895,11.165c-7.284,0-13.71-3.617-17.617-9.145C170.373,383.196,150,362.242,150,336.519
		c0-4.905,0.743-9.637,2.119-14.091c-19.244,6.136-33.184,24.151-33.184,45.429c0,25.724,20.373,46.678,45.861,47.635
		c3.907,5.527,10.333,9.145,17.617,9.145c8.139,0,15.22-4.509,18.894-11.165l1.633-0.096c3.467,7.274,10.868,12.314,19.464,12.314
		c9.11,0,16.885-5.653,20.048-13.64c3.488,4.94,9.228,8.172,15.734,8.172c7.745,0,14.405-4.581,17.465-11.176l0.222-0.013
		c3.483,4.977,9.248,8.238,15.783,8.238c7.357,0,13.745-4.126,16.99-10.189L310.03,407c3.528,4.455,8.973,7.319,15.097,7.319
		c6.944,0,13.01-3.685,16.399-9.194l5.164-0.308c2.811,1.862,6.177,2.952,9.801,2.952c4.885,0,9.306-1.971,12.518-5.16
		c15.748-3.739,27.234-13.039,29.141-29.706C395.191,375.109,391.534,376.432,387.558,376.432z"/>
	<g>
		<g>
			<path style="fill:#F9E3C2;" d="M191.68,349.425h-9.402c-4.327,0-7.835-3.508-7.835-7.836c0-4.328,3.508-7.835,7.835-7.835h9.402
				c4.327,0,7.835,3.507,7.835,7.835C199.515,345.917,196.007,349.425,191.68,349.425z"/>
		</g>
		<g>
			<path style="fill:#E2AA59;" d="M228.265,371.363h-8.397c-4.327,0-7.835-3.507-7.835-7.835c0-4.328,3.508-7.836,7.835-7.836h8.397
				c4.328,0,7.835,3.508,7.835,7.836C236.1,367.856,232.592,371.363,228.265,371.363z"/>
		</g>
		<g>
			<path style="fill:#E2AA59;" d="M282.088,352.203h-8.397c-4.328,0-7.835-3.507-7.835-7.835c0-4.328,3.508-7.836,7.835-7.836h8.397
				c4.327,0,7.835,3.508,7.835,7.836C289.923,348.696,286.415,352.203,282.088,352.203z"/>
		</g>
		<g>
			<path style="fill:#E2AA59;" d="M194.814,391.213h-6.269c-4.327,0-7.835-3.507-7.835-7.835c0-4.328,3.508-7.836,7.835-7.836h6.269
				c4.327,0,7.835,3.508,7.835,7.836C202.649,387.706,199.141,391.213,194.814,391.213z"/>
		</g>
		<g>
			<path style="fill:#F9E3C2;" d="M266.899,381.81h-7.313c-4.327,0-7.835-3.507-7.835-7.835c0-4.328,3.508-7.836,7.835-7.836h7.313
				c4.328,0,7.836,3.508,7.836,7.836C274.735,378.304,271.227,381.81,266.899,381.81z"/>
		</g>
		<g>
			<path style="fill:#F9E3C2;" d="M324.359,374.498h-8.358c-4.328,0-7.836-3.508-7.836-7.836c0-4.327,3.508-7.835,7.836-7.835h8.358
				c4.327,0,7.835,3.508,7.835,7.835C332.194,370.99,328.686,374.498,324.359,374.498z"/>
		</g>
		<g>
			<path style="fill:#E2AA59;" d="M159.333,371.363h-8.398c-4.327,0-7.835-3.507-7.835-7.835c0-4.328,3.508-7.836,7.835-7.836h8.398
				c4.328,0,7.835,3.508,7.835,7.836C167.168,367.856,163.661,371.363,159.333,371.363z"/>
		</g>
	</g>
	<g>
		<path style="fill:#FCE9C3;" d="M293.277,60.061h-21.715c-4.142,0-7.5,3.357-7.5,7.5c0,4.143,3.358,7.5,7.5,7.5h21.715
			c13.219,0,23.973,10.754,23.973,23.973c0,13.219-10.754,23.973-23.973,23.973h-62.455c-18.677,0-33.871,15.194-33.871,33.871V174
			c0,4.143,3.358,7.5,7.5,7.5c4.142,0,7.5-3.357,7.5-7.5v-17.123c0-10.405,8.465-18.871,18.871-18.871h62.455
			c21.49,0,38.973-17.483,38.973-38.973S314.767,60.061,293.277,60.061z"/>
		<path style="fill:#FCE9C3;" d="M247.277,88.754c4.142,0,7.5-3.357,7.5-7.5s-3.358-7.5-7.5-7.5h-49.084
			c-14.029,0-25.442-11.414-25.442-25.443c0-14.029,11.414-25.443,25.442-25.443h17.622c4.142,0,7.5-3.357,7.5-7.5
			s-3.358-7.5-7.5-7.5h-17.622c-22.3,0-40.442,18.143-40.442,40.443c0,22.301,18.143,40.443,40.442,40.443H247.277z"/>
	</g>
	<path style="fill:#ACEBE9;" d="M482.5,415.285c0,5.242-4.34,9.494-9.694,9.494H17.194c-5.354,0-9.694-4.252-9.694-9.494v-2.848
		c0-5.244,4.34-9.494,9.694-9.494h455.612c5.354,0,9.694,4.25,9.694,9.494V415.285z"/>
	<path style="opacity:0.1;" d="M58,415.285v-2.848c0-5.244,4.34-9.494,9.694-9.494h-50.5c-5.354,0-9.694,4.25-9.694,9.494v2.848
		c0,5.242,4.34,9.494,9.694,9.494h50.5C62.34,424.779,58,420.527,58,415.285z"/>
	<g>
		<path d="M472.806,395.443h-76.385c1.676-1.941,3.155-4.025,4.397-6.27c5.698,1.522,12.376,2.337,19.685,2.337h0.001
			c4.036,0,8.194-0.249,12.359-0.742c24.415-2.887,48.123-14.333,46.198-30.625c-0.938-7.931-7.887-13.995-19.213-17.204
			c12.439-18.222,15.174-35.042,6.438-43.778c-2.354-2.354-6.642-5.161-13.695-5.161c-4.093,0-8.665,0.962-13.502,2.769
			c-3.214-3.793-8.36-6.772-15.113-8.708c12.198-17.934,14.851-34.489,6.232-43.108c-2.334-2.333-6.581-5.114-13.564-5.114
			c-8.807,0-19.854,4.511-30.961,12.329c-3.131-3.305-7.833-5.923-13.85-7.686c11.78-17.438,14.292-33.532,5.877-41.947
			c-2.297-2.296-6.475-5.034-13.335-5.034c-8.622,0-19.434,4.433-30.294,12.095c-1.729-7.844-8.725-13.733-17.081-13.733h-22.001
			c-4.142,0-7.5,3.357-7.5,7.5c0,4.143,3.358,7.5,7.5,7.5H317c1.378,0,2.5,1.121,2.5,2.5c0,17.33-6.663,33.201-17.666,45.49
			c-2.363-0.692-4.837-1.065-7.363-1.065c-5.299,0-10.386,1.584-14.672,4.441c-4.84-4.623-11.355-7.346-18.274-7.346
			c-5.298,0-10.385,1.585-14.671,4.441c-4.84-4.624-11.354-7.346-18.275-7.346c-4.995,0-9.823,1.423-13.962,4
			c-5.329-5.886-12.958-9.383-21.259-9.383c-4.352,0-8.555,1.003-12.342,2.819c-6.668-10.557-10.515-22.885-10.515-36.053
			c0-1.379,1.122-2.5,2.5-2.5h91c4.142,0,7.5-3.357,7.5-7.5c0-4.143-3.358-7.5-7.5-7.5h-91c-6.976,0-12.993,4.112-15.802,10.031
			c-3.116-1.173-6.469-1.822-9.953-1.822c-7.469,0-14.494,3.012-19.657,8.05c-5.044-4.451-11.623-7.042-18.623-7.042
			c-8.509,0-16.536,3.904-21.836,10.415C59.457,217.306,37.5,240.395,37.5,268.518c0,19.408,10.281,36.346,25.799,45.616
			c-21.844,6.6-37.799,26.901-37.799,50.87c0,11.336,3.518,21.823,9.528,30.439H17.194C7.713,395.443,0,403.066,0,412.438v2.848
			c0,9.371,7.713,16.994,17.194,16.994h15.669c12.418,29.672,41.661,49.854,74.949,49.854h37.187c4.142,0,7.5-3.357,7.5-7.5
			c0-4.143-3.358-7.5-7.5-7.5h-37.187c-24.922,0-47.067-13.865-58.368-34.854H347c4.142,0,7.5-3.357,7.5-7.5s-3.358-7.5-7.5-7.5
			H17.194c-1.209,0-2.194-0.895-2.194-1.994v-2.848c0-1.1,0.984-1.994,2.194-1.994h455.612c1.209,0,2.194,0.895,2.194,1.994v2.848
			c0,1.1-0.984,1.994-2.194,1.994h-89.807c-4.142,0-7.5,3.357-7.5,7.5s3.358,7.5,7.5,7.5h57.556
			c-11.3,20.988-33.446,34.854-58.368,34.854H185c-4.142,0-7.5,3.357-7.5,7.5c0,4.143,3.358,7.5,7.5,7.5h197.187
			c33.289,0,62.531-20.182,74.95-49.854h15.669c9.48,0,17.194-7.623,17.194-16.994v-2.848
			C490,403.066,482.287,395.443,472.806,395.443z M452.591,309c1.475,0,2.601,0.28,3.089,0.769c0.73,0.729,1.535,3.795-0.636,10.182
			c-2.403,7.07-7.511,15.358-14.381,23.335c-1.84,2.137-2.327,5.125-1.259,7.734c1.068,2.61,3.509,4.4,6.319,4.635
			c13.141,1.093,18.186,5.194,18.441,6.244c0.001,2.344-10.304,11.283-33.063,13.974c-3.583,0.424-7.148,0.639-10.597,0.639
			c-0.001,0-0.001,0-0.002,0c-5.967,0-11.047-0.647-15.053-1.629c0.31-2.257,0.485-4.594,0.485-7.025
			c0-7.276-1.468-13.822-4.259-19.523c3.35-5.442,8.036-11.539,14.377-17.88C430.793,315.713,445.326,309,452.591,309z
			 M332.814,229.892c12.912-11.913,25.193-17.392,31.561-17.392c1.307,0,2.327,0.239,2.729,0.642
			c1.903,1.903,0.361,14.518-14.391,31.647c-1.84,2.138-2.326,5.126-1.258,7.735c1.068,2.61,3.51,4.4,6.32,4.634
			c9.036,0.75,14.054,2.961,16.174,4.518c-1.276,1.175-2.543,2.385-3.795,3.638c-1.557,1.558-3.052,3.145-4.496,4.749
			c-4.449,2.052-10.417,4.006-17.779,5.223c-0.876-0.426-1.762-0.844-2.687-1.227c-4.711-6.198-11.948-9.825-19.847-9.825
			c-3.569,0-7.05,0.771-10.245,2.214C323.813,255.971,330.01,243.507,332.814,229.892z M173.672,275.422
			c3.059-0.08,5.762-2.011,6.831-4.877c1.995-5.353,7.161-8.95,12.854-8.95c5.662,0,10.671,3.41,12.761,8.689
			c1.014,2.561,3.35,4.359,6.084,4.686c2.736,0.324,5.428-0.872,7.016-3.122c2.152-3.049,5.651-4.869,9.36-4.869
			c4.492,0,8.591,2.656,10.444,6.767c1.114,2.473,3.477,4.15,6.178,4.389c2.709,0.237,5.322-1.001,6.852-3.239
			c2.145-3.139,5.686-5.012,9.473-5.012c4.491,0,8.591,2.656,10.444,6.768c1.115,2.473,3.478,4.15,6.18,4.388
			c2.697,0.238,5.321-1.002,6.851-3.241c2.142-3.137,5.682-5.01,9.47-5.01c4.418,0,8.489,2.6,10.371,6.622
			c1.167,2.493,3.604,4.147,6.352,4.31l1.906,0.112c2.025,0.119,4.015-0.588,5.511-1.96c1.854-1.7,4.246-2.637,6.735-2.637
			c3.52,0,6.716,1.815,8.549,4.853c0.888,1.472,2.255,2.594,3.872,3.179c12.159,4.396,18.069,12.701,18.069,25.392
			c0,2.332-0.203,4.515-0.603,6.555c-2.298,0.428-4.522,1.167-6.61,2.207c-5.014-5.73-12.347-9.187-20.148-9.187
			c-5.392,0-10.567,1.623-14.919,4.547c-4.902-4.717-11.52-7.497-18.551-7.497c-5.392,0-10.567,1.623-14.918,4.547
			c-4.902-4.717-11.52-7.497-18.552-7.497c-5.086,0-10,1.459-14.206,4.1c-5.395-6.001-13.143-9.568-21.576-9.568
			c-7.822,0-15.172,3.198-20.524,8.534c-5.239-4.725-12.129-7.482-19.467-7.482c-8.837,0-17.171,4.078-22.644,10.871
			c-21.509,1.353-39.71,15.087-47.551,34.138c-11.912-6.778-19.852-19.57-19.852-34.267c0-21.672,17.573-39.316,39.217-39.432
			l0.238,0.014c2.831,0.16,5.518-1.273,6.939-3.728c2.458-4.244,7.011-6.88,11.885-6.88c5.473,0,10.419,3.25,12.603,8.28
			C167.813,273.717,170.642,275.518,173.672,275.422z M52.5,268.518c0-20.959,16.992-38.024,37.925-38.138l0.226,0.013
			c2.827,0.179,5.515-1.274,6.936-3.728c2.353-4.063,6.712-6.587,11.378-6.587c5.24,0,9.976,3.111,12.065,7.927
			c1.218,2.808,4.043,4.63,7.077,4.512c3.059-0.08,5.762-2.011,6.831-4.877c1.911-5.126,6.856-8.569,12.306-8.569
			c3.33,0,6.42,1.236,8.775,3.357c1.058,9.539,3.762,18.61,7.839,26.957c-3.107-1.138-6.436-1.754-9.867-1.754
			c-8.717,0-16.939,4.015-22.349,10.704c-25.99,1.657-47.052,21.646-50.431,47.138C64.6,301.301,52.5,286.361,52.5,268.518z
			 M55.599,395.443c-9.206-6.952-15.099-17.988-15.099-30.439c0-20.959,16.992-38.023,37.925-38.138l0.226,0.013
			c1.313,0.088,2.59-0.193,3.729-0.752c3.996,15.83,14.885,28.867,29.39,35.72c-0.215,1.976-0.336,3.978-0.336,6.01
			c0,10.058,2.666,19.475,7.33,27.587H55.599z M367.278,395.313c-0.143,0.034-0.28,0.089-0.42,0.131H137.349
			c-6.782-7.189-10.914-16.891-10.914-27.587c0-22.079,17.902-40.057,39.953-40.179l0.233,0.015
			c2.838,0.173,5.538-1.265,6.963-3.729c2.517-4.348,7.183-7.049,12.176-7.049c5.608,0,10.676,3.33,12.912,8.483
			c1.218,2.808,4.041,4.595,7.077,4.512c3.059-0.08,5.762-2.011,6.831-4.878c2.044-5.484,7.337-9.17,13.171-9.17
			c5.801,0,10.933,3.495,13.076,8.903c1.014,2.56,3.35,4.358,6.083,4.685c2.735,0.32,5.427-0.872,7.016-3.121
			c2.21-3.13,5.801-4.998,9.606-4.998c4.61,0,8.817,2.727,10.719,6.946c1.114,2.473,3.477,4.151,6.179,4.39
			c2.701,0.239,5.322-1.001,6.852-3.241c2.2-3.222,5.834-5.145,9.721-5.145c4.609,0,8.816,2.727,10.719,6.947
			c1.115,2.473,3.478,4.151,6.18,4.389c2.704,0.238,5.322-1.002,6.852-3.241c2.2-3.222,5.833-5.145,9.72-5.145
			c4.534,0,8.712,2.668,10.645,6.798c1.167,2.494,3.606,4.147,6.355,4.309l1.937,0.113c2.019,0.125,4.009-0.588,5.504-1.957
			c1.909-1.75,4.369-2.713,6.926-2.713c3.618,0,6.902,1.865,8.787,4.989c0.888,1.473,2.255,2.595,3.872,3.18
			c12.406,4.484,18.436,12.958,18.436,25.906C390.935,382.552,383.197,391.532,367.278,395.313z M385.061,321.057
			c-0.001,0-0.001,0-0.002,0c-5.811,0-10.763-0.624-14.678-1.571c0.297-2.194,0.456-4.469,0.456-6.829
			c0-7.156-1.438-13.597-4.172-19.209c3.655-5.868,8.514-11.942,14.098-17.527c14.486-14.485,28.755-21.082,35.883-21.082
			c1.4,0,2.505,0.27,2.957,0.721c2.46,2.46-0.53,16.279-14.788,32.835c-1.84,2.138-2.326,5.126-1.258,7.735
			c1.068,2.61,3.51,4.4,6.32,4.634c7.13,0.592,11.864,2.084,14.691,3.474c-5.888,3.802-11.854,8.555-17.58,14.096
			c-3.396,0.861-7.223,1.59-11.51,2.097C391.955,320.846,388.45,321.057,385.061,321.057z"/>
	</g>
</g>
<g>
</g>
<g>
</g>
<g>
</g>
<g>
</g>
<g>
</g>
<g>
</g>
<g>
</g>
<g>
</g>
<g>
</g>
<g>
</g>
<g>
</g>
<g>
</g>
<g>
</g>
<g>
</g>
<g>
</g>
</svg>
