<?xml version="1.0" encoding="iso-8859-1"?>
<!-- Generator: Adobe Illustrator 19.0.0, SVG Export Plug-In . SVG Version: 6.00 Build 0)  -->
<svg version="1.1" id="Layer_1" xmlns="http://www.w3.org/2000/svg" xmlns:xlink="http://www.w3.org/1999/xlink" x="0px" y="0px"
	 viewBox="0 0 490 490" style="enable-background:new 0 0 490 490;" xml:space="preserve">
<g>
	<path style="fill:#FFE060;" d="M417.393,247.767c0,3.525,2.909,6.386,6.5,6.386h26.004c3.591,0,6.502-2.86,6.502-6.386V127.711
		c0-3.525-2.911-6.385-6.502-6.385h-26.004c-3.591,0-6.5,2.859-6.5,6.385V247.767z"/>
	<path style="fill:#FFE060;" d="M382.286,217.848c0,3.526,2.911,6.387,6.501,6.387h26.004c3.59,0,6.502-2.86,6.502-6.387V97.793
		c0-3.528-2.912-6.385-6.502-6.385h-26.004c-3.59,0-6.501,2.856-6.501,6.385V217.848z"/>
	<path style="fill:#FFE060;" d="M235.358,247.767c0,3.525-2.912,6.386-6.501,6.386h-26.005c-3.59,0-6.501-2.86-6.501-6.386V127.711
		c0-3.525,2.911-6.385,6.501-6.385h26.005c3.59,0,6.501,2.859,6.501,6.385V247.767z"/>
	<path style="fill:#FFE060;" d="M270.464,217.848c0,3.526-2.911,6.387-6.501,6.387h-26.005c-3.591,0-6.5-2.86-6.5-6.387V97.793
		c0-3.528,2.909-6.385,6.5-6.385h26.005c3.59,0,6.501,2.856,6.501,6.385V217.848z"/>
	<path style="fill:#FFE060;" d="M344.579,217.848c0,3.526,2.909,6.387,6.501,6.387h26.004c3.592,0,6.502-2.86,6.502-6.387V77.357
		c0-3.526-2.91-6.386-6.502-6.386H351.08c-3.592,0-6.501,2.859-6.501,6.386V217.848z"/>
	<path style="fill:#FFE060;" d="M308.172,209.589c0,3.525-2.913,6.386-6.502,6.386h-26.005c-3.591,0-6.501-2.86-6.501-6.386V69.099
		c0-3.526,2.91-6.387,6.501-6.387h26.005c3.589,0,6.502,2.86,6.502,6.387V209.589z"/>
	<path style="fill:#FFE060;" d="M345.879,263.981c0,3.526-2.91,6.386-6.502,6.386h-26.004c-3.592,0-6.501-2.859-6.501-6.386V85.178
		c0-3.528,2.909-6.386,6.501-6.386h26.004c3.592,0,6.502,2.857,6.502,6.386V263.981z"/>
	<path style="fill:#C14616;" d="M136.33,326.616h-13.18l-20.681-20.861c-3.3-3.327-8.65-3.327-11.951,0l-20.682,20.861H56.657
		c-11.668,0-21.126,9.541-21.126,21.308c0,11.769,9.458,21.308,21.126,21.308h79.673c11.668,0,21.126-9.539,21.126-21.308
		C157.455,336.157,147.997,326.616,136.33,326.616z"/>
	<path style="fill:#FFE060;" d="M24.449,367.445v45.594c0,7.868,6.323,14.249,14.126,14.249h115.836
		c7.803,0,14.126-6.381,14.126-14.249v-45.594H24.449z"/>
	<path style="opacity:0.1;" d="M55.819,413.039v-45.594h-31.37v45.594c0,7.868,6.323,14.249,14.126,14.249h31.371
		C62.143,427.288,55.819,420.907,55.819,413.039z"/>
	<g>
		<path style="fill:#FFEA92;" d="M409.034,276.759c0,3.709,3.061,6.719,6.839,6.719h27.353c3.779,0,6.843-3.01,6.843-6.719V150.468
			c0-3.708-3.063-6.718-6.843-6.718h-27.353c-3.777,0-6.839,3.01-6.839,6.718V276.759z"/>
		<path style="fill:#FFEA92;" d="M244.163,276.759c0,3.709-3.061,6.719-6.839,6.719h-27.355c-3.776,0-6.838-3.01-6.838-6.719
			V150.468c0-3.708,3.062-6.718,6.838-6.718h27.355c3.778,0,6.839,3.01,6.839,6.718V276.759z"/>
		<path style="fill:#FFEA92;" d="M285.145,263.324c0,3.711-3.064,6.717-6.839,6.717H250.95c-3.776,0-6.838-3.006-6.838-6.717
			V137.032c0-3.709,3.062-6.718,6.838-6.718h27.355c3.775,0,6.839,3.009,6.839,6.718V263.324z"/>
		<path style="fill:#FFEA92;" d="M368.033,263.324c0,3.711,3.062,6.717,6.84,6.717h27.355c3.777,0,6.839-3.006,6.839-6.717V137.032
			c0-3.709-3.062-6.718-6.839-6.718h-27.355c-3.778,0-6.84,3.009-6.84,6.718V263.324z"/>
		<path style="fill:#FFEA92;" d="M326.533,305.208c0,3.712-3.063,6.718-6.838,6.718h-27.357c-3.778,0-6.841-3.006-6.841-6.718
			V157.422c0-3.71,3.063-6.718,6.841-6.718h27.357c3.774,0,6.838,3.008,6.838,6.718V305.208z"/>
		<path style="fill:#FFEA92;" d="M327.021,297.185c0,3.71,3.062,6.719,6.838,6.719h27.357c3.775,0,6.838-3.009,6.838-6.719V149.398
			c0-3.71-3.063-6.718-6.838-6.718h-27.357c-3.776,0-6.838,3.008-6.838,6.718V297.185z"/>
	</g>
	<path style="fill:#EF645E;" d="M234.585,427.288c-6.428,0-12.085-4.478-13.45-10.648L170.79,189.025
		c-0.888-4.016,0.108-8.153,2.732-11.352c2.588-3.155,6.594-5.036,10.715-5.036h43.917c4.073,0,7.49,3.098,7.925,7.182
		c2.188,20.541,11.725,39.851,26.851,54.365c17.059,16.37,39.591,25.387,63.443,25.387c23.853,0,46.385-9.017,63.443-25.387
		c15.129-14.515,24.665-33.824,26.854-54.365c0.434-4.084,3.852-7.182,7.924-7.182h43.915c4.173,0,8.073,1.827,10.699,5.017
		c2.624,3.185,3.631,7.313,2.762,11.324l-49.466,227.614c-1.346,6.197-7.006,10.695-13.459,10.695H234.585z"/>
	<g style="opacity:0.1;">
		<path d="M252.568,416.64l-50.345-227.614c-0.888-4.016,0.108-8.153,2.732-11.352c2.588-3.155,6.594-5.036,10.716-5.036h-31.434
			c-4.122,0-8.128,1.881-10.715,5.036c-2.624,3.198-3.62,7.336-2.732,11.352l50.345,227.614c1.365,6.17,7.021,10.648,13.45,10.648
			h31.433C259.591,427.288,253.934,422.81,252.568,416.64z"/>
	</g>
	<polygon style="fill:#FFAB5F;" points="209.093,362.193 444.328,362.193 453.141,321.64 200.124,321.64 	"/>
	<path style="fill:#FFE060;" d="M380.223,339.258c0,29.997-24.109,54.315-53.848,54.315c-29.739,0-53.848-24.317-53.848-54.315
		c0-29.994,24.108-54.31,53.848-54.31C356.113,284.948,380.223,309.264,380.223,339.258z"/>
	<path style="opacity:0.1;" d="M303.859,339.258c0-24.497,16.084-45.199,38.182-51.967c-4.957-1.518-10.216-2.343-15.666-2.343
		c-29.739,0-53.848,24.316-53.848,54.31c0,29.997,24.108,54.315,53.848,54.315c5.45,0,10.709-0.824,15.666-2.343
		C319.943,384.461,303.859,363.758,303.859,339.258z"/>
	<path style="fill:#E5C74A;" d="M185.49,371.719c0,7.868-6.325,14.248-14.126,14.248H21.623c-7.802,0-14.126-6.38-14.126-14.248
		v-2.851c0-7.866,6.325-14.247,14.126-14.247h149.741c7.801,0,14.126,6.381,14.126,14.247V371.719z"/>
	<path style="opacity:0.1;" d="M48.977,371.719v-2.851c0-7.866,6.325-14.247,14.127-14.247H21.623
		c-7.802,0-14.126,6.381-14.126,14.247v2.851c0,7.868,6.325,14.248,14.126,14.248h41.481
		C55.302,385.967,48.977,379.587,48.977,371.719z"/>
	<g>
		<path d="M171.364,347.125h-6.432c-0.424-15.514-13.086-28.005-28.602-28.005h-10.056l-18.482-18.643
			c-3.015-3.04-7.027-4.714-11.298-4.714c-4.271,0-8.283,1.674-11.299,4.715L66.711,319.12H56.657
			c-15.516,0-28.178,12.491-28.602,28.005h-6.432C9.7,347.125,0,356.879,0,368.868v2.851c0,10.378,7.268,19.075,16.953,21.229
			v20.092c0,11.991,9.7,21.745,21.623,21.745h115.836c11.923,0,21.623-9.754,21.623-21.745v-20.092
			c9.684-2.153,16.953-10.851,16.953-21.229v-2.851C192.986,356.879,183.286,347.125,171.364,347.125z M56.657,334.113h30.6
			c4.14,0,7.497-3.356,7.497-7.497c0-3.958-3.069-7.19-6.956-7.469l8.043-8.112c0.367-0.371,0.94-0.369,1.305-0.002l20.681,20.861
			c1.408,1.42,3.324,2.219,5.324,2.219h13.18c7.249,0,13.176,5.769,13.589,13.012H43.068
			C43.48,339.882,49.408,334.113,56.657,334.113z M177.993,371.719c0,3.723-2.974,6.752-6.629,6.752h-26.431
			c-4.14,0-7.497,3.355-7.497,7.496s3.357,7.497,7.497,7.497h16.108v19.575c0,3.724-2.975,6.752-6.63,6.752H38.575
			c-3.655,0-6.629-3.028-6.629-6.752v-19.575h77.004c4.14,0,7.497-3.357,7.497-7.497s-3.356-7.496-7.497-7.496H21.623
			c-3.656,0-6.63-3.029-6.63-6.752v-2.851c0-3.723,2.974-6.751,6.63-6.751h149.741c3.655,0,6.629,3.028,6.629,6.751V371.719z"/>
		<path d="M485.221,172.889c-4.055-4.924-10.063-7.747-16.486-7.747h-4.84v-37.431c0-7.654-6.279-13.882-13.998-13.882h-21.107
			V97.793c0-7.654-6.279-13.882-13.998-13.882h-23.708v-6.554c0-7.654-6.279-13.882-13.999-13.882H351.08
			c-5.525,0-10.298,3.198-12.572,7.819h-22.84v-2.196c0-7.655-6.279-13.883-13.998-13.883h-26.005
			c-7.719,0-13.998,6.228-13.998,13.883v14.813h-23.709c-7.718,0-13.997,6.228-13.997,13.882v16.036h-21.11
			c-7.718,0-13.998,6.228-13.998,13.882v37.431h-4.392c-6.344,0-12.516,2.907-16.511,7.777c-4.092,4.988-5.644,11.449-4.256,17.727
			l50.345,227.613c2.119,9.575,10.854,16.525,20.77,16.525h184.462c9.954,0,18.695-6.981,20.783-16.6l32.295-148.604
			c0.88-4.046-1.688-8.038-5.733-8.917c-4.05-0.875-8.038,1.688-8.918,5.733l-10.376,47.745h-64.693
			c-9.574-21.596-31.078-36.69-56.03-36.69c-24.951,0-46.456,15.095-56.03,36.69h-64.202l-28.032-126.735
			c-0.394-1.781,0.035-3.549,1.208-4.979c1.161-1.416,3.046-2.294,4.92-2.294h43.917c0.239,0,0.441,0.205,0.47,0.477
			c2.375,22.298,12.714,43.244,29.114,58.982c18.463,17.717,42.839,27.475,68.635,27.475c25.797,0,50.171-9.758,68.634-27.475
			c16.4-15.734,26.741-36.682,29.117-58.982c0.029-0.271,0.23-0.477,0.47-0.477h43.915c1.926,0,3.716,0.832,4.913,2.286
			c1.173,1.424,1.607,3.188,1.222,4.965l-11.307,52.024c-0.879,4.046,1.688,8.038,5.734,8.917c4.052,0.875,8.039-1.688,8.918-5.733
			l11.307-52.026C490.881,184.3,489.313,177.856,485.221,172.889z M387.106,329.136h56.958l-5.556,25.562H386
			c1.279-5.014,1.942-10.195,1.942-15.44C387.942,335.81,387.648,332.432,387.106,329.136z M273.237,369.69
			c9.979,17.694,28.364,29.972,49.649,31.259v0.082c1.168,0.067,2.342,0.109,3.526,0.109c6.824,0,13.527-1.121,19.926-3.334
			c3.914-1.353,5.99-5.624,4.637-9.539c-1.353-3.913-5.62-5.993-9.539-4.637c-2.779,0.961-5.64,1.639-8.55,2.049v-0.046
			c-2.078,0.286-4.178,0.441-6.288,0.441c-25.559,0-46.352-21.002-46.352-46.817c0-25.813,20.793-46.813,46.352-46.813
			c25.558,0,46.351,21,46.351,46.813c0,8.781-2.418,17.338-6.994,24.746c-2.176,3.521-1.085,8.142,2.438,10.317
			c3.522,2.174,8.142,1.084,10.318-2.439c0.445-0.723,0.871-1.455,1.286-2.192h55.254l-9.847,45.311
			c-0.594,2.73-3.23,4.79-6.133,4.79H234.81c-2.894,0-5.529-2.051-6.131-4.771l-10.026-45.329H273.237z M266.091,329.136
			c-0.542,3.296-0.837,6.674-0.837,10.122c0,5.329,0.673,10.502,1.938,15.44h-51.855l-5.654-25.562H266.091z M203.847,137.634
			v-8.811h20.114v7.431h-13.993C207.777,136.253,205.706,136.758,203.847,137.634z M236.666,167.558
			c-2.403-1.531-5.246-2.416-8.287-2.416h-17.753v-13.895h26.04V167.558z M238.955,129.31V98.904h22.712v23.914H250.95
			C245.921,122.818,241.508,125.411,238.955,129.31z M277.648,236.498c-3.262-2.331-6.37-4.909-9.304-7.723
			c-6.926-6.645-12.571-14.385-16.735-22.811v-68.153h26.039V236.498z M278.306,122.818h-1.646V70.209h24.016v72.998h-8.035v-6.175
			C292.641,129.194,286.211,122.818,278.306,122.818z M319.036,251.731c-9.071-0.798-17.842-3.037-26.042-6.585V158.2h26.042
			V251.731z M320.976,143.207h-5.308V86.288h22.715v48.896h-4.524C328.195,135.185,323.302,138.467,320.976,143.207z
			 M360.557,244.995c-8.194,3.59-16.964,5.875-26.039,6.712V150.178h26.039V244.995z M360.672,135.185h-7.296V85.178
			c0-2.074-0.475-4.037-1.301-5.807v-0.902h24.015v44.35h-1.217C367.602,122.818,361.591,128.218,360.672,135.185z M401.571,205.999
			c-4.163,8.413-9.804,16.141-16.72,22.777c-2.938,2.819-6.054,5.401-9.322,7.735v-98.7h26.042V205.999z M413.796,128.67
			c-2.605-3.543-6.815-5.852-11.567-5.852h-11.146V98.904h22.713V128.67z M442.572,165.142h-17.753
			c-3.042,0-5.886,0.885-8.288,2.417v-16.313h26.041V165.142z M448.902,137.42c-1.743-0.748-3.661-1.167-5.677-1.167h-14.437v-7.431
			h20.113V137.42z"/>
	</g>
</g>
<g>
</g>
<g>
</g>
<g>
</g>
<g>
</g>
<g>
</g>
<g>
</g>
<g>
</g>
<g>
</g>
<g>
</g>
<g>
</g>
<g>
</g>
<g>
</g>
<g>
</g>
<g>
</g>
<g>
</g>
</svg>
