<?xml version="1.0" encoding="iso-8859-1"?>
<!-- Generator: Adobe Illustrator 19.0.0, SVG Export Plug-In . SVG Version: 6.00 Build 0)  -->
<svg version="1.1" id="Layer_1" xmlns="http://www.w3.org/2000/svg" xmlns:xlink="http://www.w3.org/1999/xlink" x="0px" y="0px"
	 viewBox="0 0 490 490" style="enable-background:new 0 0 490 490;" xml:space="preserve">
<g>
	<circle style="fill:#FFAB5F;" cx="142.23" cy="275.948" r="28.77"/>
	<circle style="fill:#FFAB5F;" cx="340.77" cy="275.948" r="28.77"/>
	<g>
		<g>
			<path style="fill:#B0CE6F;" d="M219.639,178.917c5.207-12.805,16.986-21.869,30.74-23.65c3.67-0.477,7.32,1.007,9.617,3.91
				c8.604,10.875,10.717,25.585,5.508,38.392c-5.207,12.806-16.986,21.87-30.74,23.652c-3.67,0.476-7.318-1.009-9.613-3.909
				C216.541,206.436,214.43,191.723,219.639,178.917z"/>
		</g>
		<g>
			<path style="fill:#B0CE6F;" d="M178.234,226.159c-12.805-5.211-21.867-16.99-23.65-30.743c-0.477-3.671,1.008-7.319,3.91-9.616
				c10.875-8.605,25.584-10.717,38.393-5.51c12.805,5.21,21.869,16.987,23.65,30.742c0.477,3.67-1.008,7.318-3.908,9.613
				C205.752,229.253,191.041,231.365,178.234,226.159z"/>
		</g>
	</g>
	<path style="fill:#EF645E;" d="M296.459,252.834c0-15.694-12.723-28.417-28.416-28.417c-1.443,0-2.859,0.108-4.244,0.316
		c-4.205-10.436-14.418-17.805-26.359-17.805c-11.854,0-22.01,7.262-26.271,17.576c-0.709-0.052-1.424-0.088-2.146-0.088
		c-15.693,0-28.416,12.723-28.416,28.417c0,0.134,0.008,0.268,0.01,0.402c-11.195,2.052-19.684,11.853-19.684,23.643
		c0,13.279,10.766,24.045,24.045,24.045c11.791,0,99.559,0,111.482,0c13.279,0,24.045-10.766,24.045-24.045
		C320.504,263.599,309.738,252.834,296.459,252.834z"/>
	<g>
		<path style="fill:#C14616;" d="M270.228,253.119h-3.813c-4.143,0-7.5-3.357-7.5-7.5c0-4.143,3.357-7.5,7.5-7.5h3.813
			c4.143,0,7.5,3.357,7.5,7.5C277.728,249.762,274.371,253.119,270.228,253.119z"/>
	</g>
	<path style="opacity:0.1;" d="M192,287.129c0-11.79,8.488-21.591,19.684-23.643c-0.002-0.135-0.01-0.268-0.01-0.402
		c0-15.694,12.723-28.417,28.416-28.417c0.723,0,1.438,0.036,2.146,0.088c3.226-7.808,9.832-13.859,17.993-16.343
		c-5.177-6.961-13.447-11.483-22.79-11.483c-11.854,0-22.01,7.262-26.271,17.576c-0.709-0.052-1.424-0.088-2.146-0.088
		c-15.693,0-28.416,12.723-28.416,28.417c0,0.134,0.008,0.268,0.01,0.402c-11.195,2.052-19.684,11.853-19.684,23.643
		c0,13.279,10.766,24.045,24.045,24.045c1.947,0,5.974,0,11.38,0C193.614,297.019,192,292.264,192,287.129z"/>
	<g>
		<path style="fill:#FFAB5F;" d="M237.973,236.725h-3.813c-4.143,0-7.5-3.357-7.5-7.5c0-4.143,3.357-7.5,7.5-7.5h3.813
			c4.143,0,7.5,3.357,7.5,7.5C245.473,233.367,242.115,236.725,237.973,236.725z"/>
	</g>
	<g>
		<path style="fill:#C14616;" d="M226.51,259.677h-3.813c-4.143,0-7.5-3.357-7.5-7.5c0-4.143,3.357-7.5,7.5-7.5h3.813
			c4.143,0,7.5,3.357,7.5,7.5C234.01,256.319,230.652,259.677,226.51,259.677z"/>
	</g>
	<g>
		<path style="fill:#FFAB5F;" d="M259.832,276.071h-3.813c-4.143,0-7.5-3.357-7.5-7.5c0-4.143,3.357-7.5,7.5-7.5h3.813
			c4.143,0,7.5,3.357,7.5,7.5C267.332,272.714,263.975,276.071,259.832,276.071z"/>
	</g>
	<g>
		<path style="fill:#FFAB5F;" d="M197,276.071h-3.813c-4.143,0-7.5-3.357-7.5-7.5c0-4.143,3.357-7.5,7.5-7.5H197
			c4.143,0,7.5,3.357,7.5,7.5C204.5,272.714,201.143,276.071,197,276.071z"/>
	</g>
	<g>
		<path style="fill:#FFE783;" d="M442,347.179c0,33.137-26.863,60-60,60H160c-33.137,0-60-26.863-60-60l0,0
			c0-33.137,26.863-60,60-60h222C415.137,287.179,442,314.042,442,347.179L442,347.179z"/>
		<path style="fill:#FFF4BD;" d="M160,387.179c-22.056,0-40-17.944-40-40c0-22.056,17.944-40,40-40h222c22.056,0,40,17.944,40,40
			c0,22.056-17.944,40-40,40H160z"/>
		<path style="fill:#FFE783;" d="M160,367.179c-11.028,0-20-8.972-20-20c0-11.028,8.972-20,20-20h222c11.028,0,20,8.972,20,20
			c0,11.028-8.972,20-20,20H160z"/>
	</g>
	<g>
		<path style="fill:#FFE783;" d="M360,358.179c0,27.614-22.386,50-50,50h-74c-27.614,0-50-22.386-50-50l0,0
			c0-27.614,22.386-50,50-50h74C337.614,308.179,360,330.565,360,358.179L360,358.179z"/>
		<path style="fill:#FFF4BD;" d="M236,388.179c-16.542,0-30-13.458-30-30c0-16.542,13.458-30,30-30h74c16.542,0,30,13.458,30,30
			c0,16.542-13.458,30-30,30H236z"/>
		<path style="fill:#FFE783;" d="M236,368.179c-5.514,0-10-4.486-10-10s4.486-10,10-10h74c5.514,0,10,4.486,10,10s-4.486,10-10,10
			H236z"/>
	</g>
	<g>
		<path style="fill:#FFE783;" d="M222,337.179c0,27.614-22.386,50-50,50H98c-27.614,0-50-22.386-50-50l0,0c0-27.614,22.386-50,50-50
			h74C199.614,287.179,222,309.565,222,337.179L222,337.179z"/>
		<path style="fill:#FFF4BD;" d="M98,367.179c-16.542,0-30-13.458-30-30c0-16.542,13.458-30,30-30h74c16.542,0,30,13.458,30,30
			c0,16.542-13.458,30-30,30H98z"/>
		<path style="fill:#FFE783;" d="M98,347.179c-5.514,0-10-4.486-10-10s4.486-10,10-10h74c5.514,0,10,4.486,10,10s-4.486,10-10,10H98
			z"/>
	</g>
	<g>
		<g>
			<path style="fill:#F2D8A0;" d="M98,206.679H72.127c-22.398,0-40.621-18.223-40.621-40.621c0-22.398,18.223-40.621,40.621-40.621
				h24.658c4.142,0,7.5,3.357,7.5,7.5c0,4.143-3.358,7.5-7.5,7.5H72.127c-14.128,0-25.621,11.493-25.621,25.621
				s11.493,25.621,25.621,25.621H98c4.143,0,7.5,3.357,7.5,7.5C105.5,203.321,102.143,206.679,98,206.679z"/>
		</g>
		<g>
			<path style="fill:#FCE9C3;" d="M160.982,140.436h-28.93c-4.143,0-7.5-3.357-7.5-7.5c0-4.143,3.358-7.5,7.5-7.5h28.93
				c16.276,0,29.518-13.242,29.518-29.519c0-16.276-13.241-29.519-29.518-29.519h-32.664c-4.143,0-7.5-3.357-7.5-7.5
				s3.357-7.5,7.5-7.5h32.664c24.547,0,44.518,19.971,44.518,44.519C205.5,120.466,185.529,140.436,160.982,140.436z"/>
		</g>
	</g>
	<path style="fill:#F2D8A0;" d="M404.565,175.679h-59.553c-12.413,0-22.512-10.099-22.512-22.511s10.099-22.51,22.512-22.51h20.705
		c4.143,0,7.5-3.357,7.5-7.5c0-4.143-3.357-7.5-7.5-7.5h-20.705c-20.684,0-37.512,16.827-37.512,37.51
		c0,20.684,16.828,37.511,37.512,37.511h59.553c9.729,0,17.645,7.916,17.645,17.646v16.327c0,4.143,3.357,7.5,7.5,7.5
		c4.143,0,7.5-3.357,7.5-7.5v-16.327C437.209,190.323,422.565,175.679,404.565,175.679z"/>
	<path style="fill:#B3B3B3;" d="M73.77,392.034c7.898,22.737,29.492,39.066,54.92,39.066h232.62
		c25.429,0,47.021-16.329,54.921-39.066H73.77z"/>
	<path style="opacity:0.1;" d="M114.27,392.034h-40.5c7.898,22.737,29.492,39.066,54.92,39.066h40.5
		C143.762,431.101,122.168,414.772,114.27,392.034z"/>
	<path style="fill:#CCCCCC;" d="M482.5,386.511c0,8.766-7.105,15.871-15.872,15.871H23.371c-8.766,0-15.871-7.105-15.871-15.871l0,0
		c0-8.766,7.106-15.871,15.871-15.871h443.257C475.395,370.64,482.5,377.745,482.5,386.511L482.5,386.511z"/>
	<path style="opacity:0.1;" d="M48,386.511c0-8.766,7.105-15.871,15.871-15.871h-40.5c-8.766,0-15.871,7.105-15.871,15.871
		c0,8.766,7.106,15.871,15.871,15.871h40.5C55.105,402.382,48,395.276,48,386.511z"/>
	<path d="M172,319.679H98c-9.649,0-17.5,7.851-17.5,17.5c0,9.649,7.851,17.5,17.5,17.5h74c9.649,0,17.5-7.851,17.5-17.5
		C189.5,327.529,181.649,319.679,172,319.679z M172,339.679H98c-1.379,0-2.5-1.121-2.5-2.5c0-1.379,1.121-2.5,2.5-2.5h74
		c1.379,0,2.5,1.121,2.5,2.5C174.5,338.558,173.379,339.679,172,339.679z"/>
	<path d="M466.628,363.14h-19.054c1.248-5.12,1.926-10.461,1.926-15.961c0-37.22-30.28-67.5-67.5-67.5h-5.16
		c0.127-1.228,0.199-2.47,0.199-3.73c0-19.999-16.271-36.27-36.27-36.27c-10.342,0-19.674,4.362-26.285,11.331
		c-3.315-2.316-7.09-4.017-11.161-4.924c-3.152-16.516-17.653-29.058-35.049-29.168c-0.933-1.567-1.985-3.038-3.125-4.426
		c3.005-3.587,5.491-7.646,7.302-12.098c6.224-15.303,3.705-32.879-6.573-45.871c-3.441-4.35-8.596-6.845-14.141-6.845
		c-0.774,0-1.556,0.051-2.321,0.15c-16.429,2.127-30.501,12.957-36.725,28.262c-0.551,1.354-1.014,2.728-1.429,4.112
		c-3.453-2.804-7.323-5.141-11.552-6.861c-5.499-2.235-11.305-3.368-17.257-3.368c-10.348,0-20.509,3.531-28.614,9.945
		c-4.939,3.909-7.504,10.217-6.693,16.462c2.13,16.426,12.959,30.498,28.264,36.727c0.97,0.395,1.951,0.745,2.938,1.07
		c-2.438,3.995-4.125,8.497-4.847,13.313c-1.985,0.772-3.854,1.753-5.611,2.885c-6.568-6.596-15.638-10.696-25.66-10.696
		c-19.999,0-36.27,16.271-36.27,36.27c0,1.261,0.072,2.503,0.199,3.73H98c-31.706,0-57.5,25.794-57.5,57.5
		c0,9.339,2.246,18.159,6.217,25.961H23.371C10.484,363.14,0,373.624,0,386.511c0,12.887,10.484,23.371,23.371,23.371h51.07
		c12.021,17.65,32.191,28.719,54.248,28.719H280c4.143,0,7.5-3.357,7.5-7.5c0-4.143-3.357-7.5-7.5-7.5H128.689
		c-13.152,0-25.425-5.115-34.609-13.719H139c4.143,0,7.5-3.357,7.5-7.5c0-4.143-3.357-7.5-7.5-7.5H23.371
		c-4.616,0-8.371-3.755-8.371-8.371c0-4.616,3.755-8.371,8.371-8.371h443.257c4.616,0,8.372,3.755,8.372,8.371
		c0,4.616-3.756,8.371-8.372,8.371H170c-4.143,0-7.5,3.357-7.5,7.5c0,4.143,3.357,7.5,7.5,7.5h225.92
		c-9.185,8.604-21.458,13.719-34.61,13.719H317c-4.143,0-7.5,3.357-7.5,7.5c0,4.143,3.357,7.5,7.5,7.5h44.31
		c22.056,0,42.227-11.068,54.248-28.719h51.07c12.888,0,23.372-10.484,23.372-23.371C490,373.624,479.516,363.14,466.628,363.14z
		 M340.77,254.679c11.728,0,21.27,9.541,21.27,21.27c0,1.274-0.127,2.519-0.346,3.73h-33.816c0.082-0.923,0.127-1.856,0.127-2.8
		c0-5.239-1.287-10.182-3.557-14.534C328.353,257.668,334.215,254.679,340.77,254.679z M226.586,181.742
		c4.192-10.309,13.678-17.603,24.759-19.038c0.13-0.017,0.262-0.025,0.393-0.025c0.932,0,1.798,0.42,2.377,1.151
		c6.932,8.762,8.634,20.607,4.442,30.913c-1.264,3.108-3.025,5.925-5.152,8.402c-2.427-1.2-5.004-2.115-7.681-2.743l3.597-8.847
		c1.561-3.837-0.285-8.213-4.122-9.772c-3.841-1.564-8.213,0.286-9.772,4.122l-5.856,14.404c-1.243,0.277-2.471,0.604-3.666,1.007
		c-0.363-1.074-0.755-2.137-1.192-3.177C223.855,192.684,224.441,187.014,226.586,181.742z M162.021,194.45
		c-0.137-1.05,0.296-2.111,1.127-2.769c5.466-4.326,12.322-6.708,19.306-6.708c4.006,0,7.911,0.762,11.606,2.264
		c7.193,2.927,12.9,8.441,16.189,15.267c0.138,0.681,0.287,1.359,0.456,2.034l-19.832-8.064c-3.836-1.563-8.213,0.285-9.772,4.122
		c-1.561,3.837,0.285,8.212,4.122,9.772l17.488,7.112c-3.974,0.707-7.722,2.066-11.131,3.969c-3.626-0.125-7.161-0.872-10.52-2.237
		C170.754,215.018,163.458,205.53,162.021,194.45z M181.967,260.613c3.603-0.66,6.201-3.824,6.148-7.486l-0.009-0.293
		c0-11.533,9.383-20.917,20.916-20.917c0.456,0,0.965,0.021,1.601,0.068c3.21,0.217,6.241-1.625,7.477-4.616
		c3.248-7.861,10.839-12.94,19.34-12.94c8.578,0,16.194,5.146,19.403,13.107c1.298,3.222,4.637,5.126,8.07,4.614
		c1.03-0.155,2.083-0.233,3.13-0.233c11.533,0,20.916,9.384,20.916,20.917c0,4.143,3.357,7.5,7.5,7.5
		c9.123,0,16.545,7.422,16.545,16.545c0,0.955-0.084,1.89-0.24,2.8H172h-3.328c-0.156-0.91-0.24-1.845-0.24-2.8
		C168.432,268.892,174.124,262.051,181.967,260.613z M142.23,254.679c6.035,0,11.471,2.54,15.339,6.593
		c-2.638,4.63-4.138,9.966-4.138,15.607c0,0.943,0.045,1.877,0.127,2.8h-32.252c-0.219-1.212-0.346-2.456-0.346-3.73
		C120.961,264.22,130.502,254.679,142.23,254.679z M172,359.679H98c-12.406,0-22.5-10.094-22.5-22.5c0-12.406,10.094-22.5,22.5-22.5
		h74c12.406,0,22.5,10.094,22.5,22.5C194.5,349.585,184.406,359.679,172,359.679z M205.596,363.14h-6.574
		c6.483-6.741,10.479-15.891,10.479-25.961c0-20.678-16.822-37.5-37.5-37.5H98c-20.678,0-37.5,16.822-37.5,37.5
		c0,10.07,3.995,19.22,10.479,25.961h-6.574c-5.57-7.185-8.904-16.185-8.904-25.961c0-23.435,19.065-42.5,42.5-42.5h74
		c23.435,0,42.5,19.065,42.5,42.5C214.5,346.954,211.166,355.954,205.596,363.14z M310,360.679h-74c-1.379,0-2.5-1.121-2.5-2.5
		c0-1.379,1.121-2.5,2.5-2.5h74c1.379,0,2.5,1.121,2.5,2.5C312.5,359.558,311.379,360.679,310,360.679z M331.945,363.14h-5.176
		c0.468-1.574,0.73-3.236,0.73-4.961c0-9.649-7.851-17.5-17.5-17.5h-74c-2.378,0-4.641,0.487-6.707,1.351
		c0.135-1.6,0.207-3.217,0.207-4.851c0-0.174-0.012-0.345-0.014-0.518c2.066-0.627,4.246-0.982,6.514-0.982h74
		c12.406,0,22.5,10.094,22.5,22.5C332.5,359.883,332.307,361.543,331.945,363.14z M352.208,363.14h-5.04
		c0.217-1.624,0.332-3.278,0.332-4.961c0-20.678-16.822-37.5-37.5-37.5h-74c-2.973,0-5.861,0.359-8.635,1.019
		c-0.452-1.616-0.968-3.206-1.555-4.762c3.267-0.811,6.676-1.257,10.189-1.257h74c23.435,0,42.5,19.065,42.5,42.5
		C352.5,359.857,352.399,361.512,352.208,363.14z M382,359.679h-14.542c0.013-0.5,0.042-0.997,0.042-1.5
		c0-1.176-0.047-2.341-0.116-3.5H381c4.143,0,7.5-3.357,7.5-7.5c0-4.143-3.357-7.5-7.5-7.5h-16.57c-0.581-1.704-1.239-3.372-1.972-5
		H382c6.893,0,12.5,5.607,12.5,12.5C394.5,354.071,388.893,359.679,382,359.679z M410.295,363.14h-5.931
		c3.226-4.505,5.136-10.011,5.136-15.961c0-15.163-12.337-27.5-27.5-27.5h-29.332c-1.602-1.773-3.32-3.438-5.129-5H382
		c17.921,0,32.5,14.579,32.5,32.5C414.5,352.978,412.969,358.423,410.295,363.14z M431.991,363.14h-5.279
		c1.792-4.992,2.788-10.358,2.788-15.961c0-26.191-21.309-47.5-47.5-47.5H215.534c-1.518-1.759-3.128-3.436-4.846-5H382
		c28.948,0,52.5,23.552,52.5,52.5C434.5,352.746,433.607,358.103,431.991,363.14z"/>
</g>
<g>
</g>
<g>
</g>
<g>
</g>
<g>
</g>
<g>
</g>
<g>
</g>
<g>
</g>
<g>
</g>
<g>
</g>
<g>
</g>
<g>
</g>
<g>
</g>
<g>
</g>
<g>
</g>
<g>
</g>
</svg>
