<?xml version="1.0" encoding="iso-8859-1"?>
<!-- Generator: Adobe Illustrator 19.0.0, SVG Export Plug-In . SVG Version: 6.00 Build 0)  -->
<svg version="1.1" id="Layer_1" xmlns="http://www.w3.org/2000/svg" xmlns:xlink="http://www.w3.org/1999/xlink" x="0px" y="0px"
	 viewBox="0 0 482.5 482.5" style="enable-background:new 0 0 482.5 482.5;" xml:space="preserve">
<g>
	<path style="fill:#FFF5CA;" d="M380.501,238.724c1.306-3.434,2.025-7.155,2.025-11.046c0-17.193-13.948-31.13-31.155-31.13
		c-4.607,0-8.975,1.006-12.909,2.799c-0.342-16.896-14.147-30.491-31.141-30.491c-8.602,0-16.387,3.482-22.023,9.111
		c-5.639-5.629-13.425-9.111-22.025-9.111c-8.6,0-16.386,3.482-22.023,9.112c-5.638-5.63-13.425-9.112-22.025-9.112
		c-8.6,0-16.386,3.482-22.023,9.112c-5.638-5.63-13.424-9.112-22.023-9.112c-16.993,0-30.799,13.595-31.141,30.491
		c-3.935-1.793-8.303-2.799-12.908-2.799c-17.208,0-31.156,13.937-31.156,31.13c0,3.891,0.72,7.612,2.025,11.046
		c-13.782,3.214-24.051,15.557-24.051,30.307c0,17.193,13.949,31.13,31.157,31.13c8.601,0,16.387-3.481,22.024-9.111
		c5.637,5.63,13.424,9.111,22.023,9.111c8.601,0,16.387-3.481,22.025-9.111c5.637,5.63,13.424,9.111,22.023,9.111
		c8.601,0,16.387-3.481,22.024-9.111c5.638,5.63,13.423,9.111,22.024,9.111c8.6,0,16.387-3.481,22.024-9.11
		c5.638,5.629,13.425,9.11,22.025,9.11c8.6,0,16.387-3.481,22.024-9.111c5.638,5.63,13.425,9.111,22.024,9.111
		c8.6,0,16.387-3.481,22.023-9.111c5.639,5.63,13.424,9.111,22.025,9.111c17.207,0,31.156-13.937,31.156-31.13
		C404.552,254.28,394.282,241.938,380.501,238.724z"/>
	<g style="opacity:0.1;">
		<path d="M99.294,297.749c-1.595,0-3.19-0.381-4.647-1.146c-10.301-5.407-16.7-15.973-16.7-27.573
			c0-14.542,9.89-27.004,24.05-30.307c-1.343-3.536-2.024-7.252-2.024-11.046c0-17.165,13.976-31.13,31.156-31.13
			c4.49,0,8.833,0.941,12.908,2.799c0.34-16.813,14.31-30.491,31.141-30.491c7.203,0,14.222,2.509,19.764,7.063
			c2.629,2.161,3.979,5.51,3.582,8.89c-0.396,3.379-2.483,6.325-5.54,7.82c-7.498,3.665-13.334,10.265-16.011,18.104
			c-1.395,4.086-5.229,6.769-9.458,6.77c-0.406,0-0.816-0.025-1.228-0.076c-1.265-0.155-2.562-0.234-3.855-0.234
			c-17.18,0-31.156,13.965-31.156,31.13c0,1.21,0.07,2.425,0.208,3.611c0.483,4.149-1.663,8.162-5.383,10.063
			c-9.865,5.039-16.309,15.082-16.817,26.209c-0.155,3.416-2.047,6.516-5.013,8.218C102.731,297.306,101.014,297.749,99.294,297.749
			z"/>
	</g>
	<g>
		<g>
			<path style="fill:#B0CE6F;" d="M265.909,137.655c13.049-5.387,28.213-3.314,39.567,5.414c3.033,2.328,4.636,6.046,4.223,9.8
				c-1.547,14.047-10.609,26.125-23.662,31.512c-13.046,5.39-28.212,3.316-39.569-5.413c-3.029-2.327-4.631-6.044-4.22-9.791
				C243.79,155.122,252.857,143.042,265.909,137.655z"/>
		</g>
		<g>
			<path style="fill:#78B591;" d="M197.316,187.113c-13.258-5.279-22.644-17.216-24.49-31.151c-0.495-3.72,1.041-7.418,4.048-9.746
				c11.265-8.718,26.494-10.859,39.761-5.583c13.259,5.28,22.646,17.215,24.491,31.154c0.494,3.719-1.043,7.415-4.048,9.738
				C225.814,190.251,210.58,192.389,197.316,187.113z"/>
		</g>
	</g>
	<g>
		<path style="fill:#ACEBE9;" d="M241.249,469.378c-102.709,0-186.272-81.764-186.272-182.271c0-7.188,5.961-13.016,13.305-13.016
			h345.934c7.352,0,13.307,5.828,13.307,13.016C427.522,387.614,343.959,469.378,241.249,469.378z"/>
	</g>
	<path style="opacity:0.1;" d="M96.705,287.107c0-7.188,5.961-13.016,13.305-13.016H68.281c-7.344,0-13.305,5.828-13.305,13.016
		c0,100.507,83.563,182.271,186.272,182.271c7.054,0,14.013-0.399,20.864-1.149C169.189,458.046,96.705,380.712,96.705,287.107z"/>
	<g>
		<path style="fill:#FFE060;" d="M171.206,104.394c-22.395,7.508-28.521,13.595-36.08,35.841
			c-7.558-22.246-13.685-28.333-36.08-35.841c22.396-7.509,28.522-13.595,36.08-35.843
			C142.686,90.799,148.811,96.885,171.206,104.394z"/>
	</g>
	<g>
		<path style="fill:#FFE060;" d="M264.804,29.23c-18.264,6.123-23.262,11.086-29.424,29.229
			c-6.166-18.144-11.163-23.106-29.427-29.229C224.217,23.107,229.214,18.144,235.38,0C241.542,18.144,246.54,23.107,264.804,29.23z
			"/>
	</g>
	<g>
		<path style="fill:#FFE060;" d="M373.222,105.067c-18.264,6.123-23.261,11.086-29.425,29.23
			c-6.164-18.144-11.16-23.107-29.425-29.23c18.265-6.123,23.261-11.087,29.425-29.23C349.961,93.98,354.958,98.944,373.222,105.067
			z"/>
	</g>
	<path style="fill:#84C1BC;" d="M170.905,309.052H63.577c-2.925,0-5.451,1.677-6.688,4.118c0.436,2.961,0.943,5.898,1.522,8.811
		c1.346,1.28,3.161,2.071,5.166,2.071h107.328c4.143,0,7.5-3.357,7.5-7.5C178.405,312.409,175.048,309.052,170.905,309.052z"/>
	<g>
		<path style="fill:#84C1BC;" d="M132.061,368.555H77.482c-4.143,0-7.5-3.357-7.5-7.5c0-4.143,3.357-7.5,7.5-7.5h54.578
			c4.143,0,7.5,3.357,7.5,7.5C139.561,365.197,136.203,368.555,132.061,368.555z"/>
	</g>
	<path style="fill:#FFE060;" d="M439.415,461.815c0,7.282-5.975,13.185-13.343,13.185H56.429c-7.369,0-13.344-5.903-13.344-13.185
		v-5.274c0-7.282,5.975-13.185,13.344-13.185h369.644c7.368,0,13.343,5.903,13.343,13.185V461.815z"/>
	<path style="fill:#FFE060;" d="M439.415,461.815c0,7.282-5.975,13.185-13.343,13.185H56.429c-7.369,0-13.344-5.903-13.344-13.185
		v-5.274c0-7.282,5.975-13.185,13.344-13.185h369.644c7.368,0,13.343,5.903,13.343,13.185V461.815z"/>
	<path style="opacity:0.1;" d="M95.25,461.815v-5.274c0-7.282,5.975-13.185,13.344-13.185H56.429
		c-7.369,0-13.344,5.903-13.344,13.185v5.274c0,7.282,5.975,13.185,13.344,13.185h52.165C101.225,475,95.25,469.097,95.25,461.815z"
		/>
	<g>
		<path style="fill:#EF645E;" d="M264.799,227.12h-8.185c-4.238,0-7.672-3.432-7.672-7.666s3.434-7.667,7.672-7.667h8.185
			c4.238,0,7.673,3.433,7.673,7.667S269.037,227.12,264.799,227.12z"/>
	</g>
	<g>
		<path style="fill:#EF645E;" d="M143.549,251.652h-8.184c-4.238,0-7.673-3.432-7.673-7.666c0-4.234,3.435-7.666,7.673-7.666h8.184
			c4.237,0,7.673,3.432,7.673,7.666C151.222,248.221,147.786,251.652,143.549,251.652z"/>
	</g>
	<ellipse style="fill:#FFAB5F;" cx="175.774" cy="222.01" rx="9.207" ry="9.199"/>
	<ellipse style="fill:#FFAB5F;" cx="297.516" cy="244.498" rx="9.208" ry="9.199"/>
	<path style="fill:#78B591;" d="M227.209,238.625c1.697,1.697,1.698,4.447,0,6.145l-6.148,6.144c-1.698,1.697-4.451,1.696-6.149,0
		l-6.148-6.144c-1.697-1.696-1.699-4.447,0-6.145l6.148-6.143c1.698-1.697,4.451-1.696,6.149,0L227.209,238.625z"/>
	<path style="fill:#78B591;" d="M349.708,223.025c1.697,1.697,1.698,4.447,0,6.145l-6.148,6.144c-1.699,1.697-4.452,1.696-6.149,0
		l-6.149-6.144c-1.697-1.696-1.698-4.447,0-6.145l6.149-6.143c1.697-1.697,4.45-1.696,6.149,0L349.708,223.025z"/>
	<path d="M426.072,435.855h-64.668c44.811-34.788,73.617-88.527,73.617-148.748c0-11.313-9.334-20.516-20.807-20.516h-2.252
		c-0.89-14.395-9.59-26.843-22.438-32.686c0.334-2.049,0.502-4.129,0.502-6.229c0-21.301-17.341-38.63-38.655-38.63
		c-2.31,0-4.588,0.201-6.824,0.601c-3.857-13.709-15.178-24.405-29.175-27.424c0.848-2.755,1.46-5.606,1.782-8.535
		c0.695-6.32-2.029-12.669-7.107-16.566c-8.325-6.399-18.679-9.924-29.152-9.924c-6.179,0-12.183,1.186-17.847,3.523
		c-9.626,3.973-17.428,10.998-22.427,19.738c-5.171-7.402-12.482-13.319-21.215-16.797c-5.646-2.246-11.607-3.385-17.717-3.385
		c-10.625,0-21.068,3.553-29.407,10.006c-5.094,3.944-7.733,10.33-6.891,16.662c0.244,1.843,0.616,3.649,1.074,5.426
		c-13.691,3.208-24.718,13.783-28.515,27.275c-2.236-0.399-4.514-0.601-6.823-0.601c-21.315,0-38.656,17.329-38.656,38.63
		c0,2.1,0.168,4.179,0.502,6.229c-12.849,5.843-21.549,18.291-22.438,32.686h-2.254c-11.472,0-20.805,9.203-20.805,20.516
		c0,60.221,28.807,113.96,73.617,148.748H56.429c-11.493,0-20.844,9.279-20.844,20.685v5.274c0,11.406,9.351,20.685,20.844,20.685
		h369.644c11.493,0,20.843-9.279,20.843-20.685v-5.274C446.915,445.135,437.565,435.855,426.072,435.855z M268.772,144.588
		c3.839-1.585,7.918-2.389,12.123-2.389c7.186,0,14.292,2.421,20.016,6.819c0.948,0.729,1.46,1.89,1.334,3.029
		c-1.247,11.328-8.554,21.062-19.07,25.401c-3.84,1.586-7.918,2.39-12.123,2.39c-4.719,0-9.397-1.063-13.677-3.025l20.966-8.657
		c3.829-1.581,5.65-5.967,4.07-9.795c-1.58-3.828-5.964-5.649-9.795-4.07l-21.335,8.81
		C254.176,154.814,260.465,148.016,268.772,144.588z M181.464,152.148c5.724-4.43,12.906-6.868,20.226-6.868
		c4.202,0,8.298,0.781,12.171,2.321c8.405,3.348,14.869,9.987,18.005,18.104l-21.609-8.602c-3.848-1.527-8.21,0.346-9.742,4.195
		c-1.531,3.849,0.347,8.21,4.195,9.742l21.262,8.463c-4.271,1.931-8.96,2.963-13.709,2.963c-4.202,0-8.298-0.781-12.171-2.321
		c-10.741-4.277-18.339-13.921-19.83-25.173C180.117,153.898,180.568,152.841,181.464,152.148z M431.915,461.815
		c0,3.135-2.621,5.685-5.843,5.685H56.429c-3.223,0-5.844-2.551-5.844-5.685v-5.274c0-3.135,2.621-5.685,5.844-5.685H240.25
		c4.143,0,7.5-3.358,7.5-7.5c0-4.143-3.357-7.5-7.5-7.5h-92.745c-50.983-30.819-85.028-85.965-85.028-148.748
		c0-3.041,2.604-5.516,5.805-5.516H310.25c4.143,0,7.5-3.357,7.5-7.5s-3.357-7.5-7.5-7.5H85.583
		c1.015-9.968,8.171-18.244,18.117-20.564c2.107-0.491,3.9-1.869,4.917-3.779c1.018-1.911,1.159-4.167,0.391-6.19
		c-1.02-2.68-1.536-5.499-1.536-8.38c0-13.029,10.612-23.63,23.656-23.63c3.409,0,6.706,0.715,9.798,2.124
		c2.297,1.044,4.968,0.867,7.104-0.477c2.137-1.345,3.454-3.673,3.505-6.197c0.242-11.954,9.565-21.82,21.248-23.02
		c5.195,7.779,12.715,14.001,21.763,17.604c5.646,2.246,11.607,3.385,17.717,3.385c10.63,0,21.074-3.556,29.404-10.008
		c0.595-0.46,1.153-0.956,1.68-1.479c8.063,5.724,17.83,8.859,27.705,8.859c6.18,0,12.185-1.187,17.848-3.525
		c7.793-3.216,14.396-8.429,19.281-14.937c12.391,0.453,22.531,10.647,22.784,23.121c0.051,2.525,1.368,4.853,3.505,6.197
		c2.138,1.345,4.808,1.523,7.103,0.477c3.092-1.409,6.389-2.124,9.799-2.124c13.044,0,23.655,10.601,23.655,23.63
		c0,2.881-0.517,5.7-1.536,8.38c-0.768,2.023-0.627,4.279,0.391,6.19c1.017,1.91,2.81,3.288,4.917,3.779
		c9.945,2.32,17.102,10.597,18.117,20.564H348.25c-4.143,0-7.5,3.357-7.5,7.5s3.357,7.5,7.5,7.5h65.965
		c3.202,0,5.807,2.475,5.807,5.516c0,62.783-34.045,117.929-85.028,148.748H284.25c-4.143,0-7.5,3.357-7.5,7.5
		c0,4.142,3.357,7.5,7.5,7.5h141.822c3.222,0,5.843,2.551,5.843,5.685V461.815z"/>
</g>
<g>
</g>
<g>
</g>
<g>
</g>
<g>
</g>
<g>
</g>
<g>
</g>
<g>
</g>
<g>
</g>
<g>
</g>
<g>
</g>
<g>
</g>
<g>
</g>
<g>
</g>
<g>
</g>
<g>
</g>
</svg>
