<?xml version="1.0" encoding="iso-8859-1"?>
<!-- Generator: Adobe Illustrator 19.0.0, SVG Export Plug-In . SVG Version: 6.00 Build 0)  -->
<svg version="1.1" id="Layer_1" xmlns="http://www.w3.org/2000/svg" xmlns:xlink="http://www.w3.org/1999/xlink" x="0px" y="0px"
	 viewBox="0 0 490 490" style="enable-background:new 0 0 490 490;" xml:space="preserve">
<g>
	<g>
		<g>
			<path style="fill:#62AF62;" d="M353,139.251h-27c-4.142,0-7.5-3.357-7.5-7.5v-27c0-4.143,3.358-7.5,7.5-7.5s7.5,3.357,7.5,7.5
				v19.5H353c4.142,0,7.5,3.357,7.5,7.5C360.5,135.893,357.142,139.251,353,139.251z"/>
		</g>
		<g>
			<path style="fill:#62AF62;" d="M333.587,158.665h-27c-4.142,0-7.5-3.357-7.5-7.5v-27c0-4.143,3.358-7.5,7.5-7.5
				c4.142,0,7.5,3.357,7.5,7.5v19.5h19.5c4.142,0,7.5,3.357,7.5,7.5C341.087,155.307,337.729,158.665,333.587,158.665z"/>
		</g>
		<g>
			<path style="fill:#519351;" d="M287.914,177.336c-1.919,0-3.839-0.732-5.303-2.196c-2.929-2.93-2.929-7.678,0-10.607
				l60.392-60.393c2.929-2.928,7.678-2.928,10.606,0c2.929,2.93,2.929,7.678,0,10.607l-60.392,60.393
				C291.753,176.604,289.833,177.336,287.914,177.336z"/>
		</g>
	</g>
	<g>
		<g>
			<path style="fill:#62AF62;" d="M473.086,304.165h-27c-4.142,0-7.5-3.358-7.5-7.5v-27c0-4.143,3.358-7.5,7.5-7.5
				c4.142,0,7.5,3.357,7.5,7.5v19.5h19.5c4.142,0,7.5,3.357,7.5,7.5C480.586,300.807,477.228,304.165,473.086,304.165z"/>
		</g>
		<g>
			<path style="fill:#62AF62;" d="M453.673,323.579h-27c-4.142,0-7.5-3.357-7.5-7.5v-27c0-4.143,3.358-7.5,7.5-7.5
				c4.142,0,7.5,3.357,7.5,7.5v19.5h19.5c4.142,0,7.5,3.357,7.5,7.5C461.173,320.221,457.815,323.579,453.673,323.579z"/>
		</g>
		<g>
			<path style="fill:#519351;" d="M408,342.25c-1.919,0-3.839-0.732-5.303-2.196c-2.929-2.93-2.929-7.678,0-10.607l60.392-60.393
				c2.929-2.928,7.678-2.928,10.606,0c2.929,2.93,2.929,7.678,0,10.607l-60.392,60.393C411.839,341.518,409.919,342.25,408,342.25z"
				/>
		</g>
	</g>
	<path style="fill:#FFE060;" d="M48.25,263.11c13.668-13.595,35.907-13.596,49.575,0.003c3.11,3.093,3.111,8.113,0,11.207
		l-38.307,38.109c-3.112,3.096-8.157,3.096-11.268-0.001C34.583,298.832,34.582,276.707,48.25,263.11z"/>
	<g>
		<path style="fill:#DDB690;" d="M64.712,371.25h112.853l20.648-20.648c11.716-11.715,11.716-30.711,0-42.426l-55.861-55.861
			c-11.716-11.716-30.711-11.716-42.426,0l-55.862,55.861c-11.715,11.715-11.715,30.711,0,42.426L64.712,371.25z"/>
		<g>
			<path style="fill:#AF805A;" d="M88.639,292.389h-1c-4.142,0-7.5,3.357-7.5,7.5c0,4.143,3.358,7.5,7.5,7.5h1
				c4.142,0,7.5-3.357,7.5-7.5C96.139,295.747,92.781,292.389,88.639,292.389z"/>
			<path style="fill:#AF805A;" d="M148.646,283.389l-1.001-0.001c-0.002,0-0.005,0-0.007,0c-4.139,0-7.496,3.353-7.5,7.493
				c-0.004,4.142,3.351,7.503,7.493,7.507l1.001,0.001c0.003,0,0.005,0,0.007,0c4.139,0,7.496-3.353,7.5-7.493
				C156.143,286.754,152.788,283.393,148.646,283.389z"/>
			<path style="fill:#AF805A;" d="M121.639,268.389h-1c-4.142,0-7.5,3.357-7.5,7.5c0,4.143,3.358,7.5,7.5,7.5h1
				c4.142,0,7.5-3.357,7.5-7.5C129.139,271.747,125.781,268.389,121.639,268.389z"/>
			<path style="fill:#AF805A;" d="M118.638,301.389h-0.999c-4.142,0-7.5,3.357-7.5,7.5c0,4.143,3.358,7.5,7.5,7.5h0.999
				c4.142,0,7.5-3.357,7.5-7.5C126.138,304.747,122.78,301.389,118.638,301.389z"/>
		</g>
	</g>
	<path style="fill:#EFDFBB;" d="M145.092,85.457c-1-5.868,0.749-12.113,5.278-16.642c7.42-7.42,19.45-7.42,26.87,0
		c7.42,7.42,7.42,19.451,0,26.871c-0.6,0.598-1.231,1.146-1.887,1.649L283.66,205.641c5.076,5.076,5.076,13.307,0,18.385
		c-5.077,5.075-13.309,5.076-18.385,0L156.969,115.719c-0.502,0.655-1.05,1.287-1.647,1.887c-7.421,7.42-19.451,7.42-26.872,0
		c-7.42-7.42-7.419-19.451,0.001-26.871C132.979,86.207,139.225,84.457,145.092,85.457z"/>
	<path style="fill:#D3A179;" d="M204.464,144.829c-29.289,29.29-24.857,81.209,9.899,115.967
		c34.757,34.755,79.605,32.117,108.895,2.828c29.289-29.29,31.928-74.14-2.827-108.895
		C285.673,119.971,233.754,115.54,204.464,144.829z"/>
	<path style="opacity:0.1;" d="M245.502,260.795c-34.757-34.758-39.188-86.677-9.899-115.967c9.34-9.34,20.987-15.235,33.639-17.827
		c-24.032-4.591-48.082,1.131-64.778,17.827c-29.289,29.29-24.857,81.209,9.899,115.967c22.153,22.152,48.402,29.092,72.113,23.644
		C272.305,281.211,258.227,273.52,245.502,260.795z"/>
	<g>
		<path style="fill:#B2754B;" d="M316.3,205.284l-0.708-0.707c-2.931-2.929-7.68-2.924-10.607,0.007
			c-2.927,2.931-2.923,7.68,0.007,10.607l0.708,0.707c1.464,1.463,3.382,2.193,5.3,2.193c1.921,0,3.842-0.733,5.307-2.2
			C319.234,212.96,319.23,208.21,316.3,205.284z"/>
		<path style="fill:#B2754B;" d="M303.579,232.16c-2.927-2.931-7.675-2.934-10.607-0.007c-2.931,2.927-2.934,7.676-0.007,10.606
			l0.707,0.708c1.465,1.467,3.386,2.2,5.307,2.2c1.918,0,3.836-0.731,5.3-2.193c2.931-2.927,2.934-7.676,0.007-10.606
			L303.579,232.16z"/>
		<path style="fill:#B2754B;" d="M296.15,182.027c1.921,0,3.842-0.733,5.307-2.2c2.927-2.931,2.923-7.68-0.007-10.607l-0.707-0.706
			c-2.931-2.928-7.68-2.925-10.607,0.007c-2.927,2.931-2.923,7.68,0.007,10.607l0.707,0.706
			C292.315,181.296,294.232,182.027,296.15,182.027z"/>
		<path style="fill:#B2754B;" d="M280.948,192.558c-2.929-2.928-7.678-2.928-10.607,0c-2.929,2.93-2.929,7.678,0,10.607l0.707,0.707
			c1.464,1.464,3.384,2.196,5.303,2.196c1.919,0,3.839-0.732,5.303-2.196c2.929-2.93,2.929-7.678,0-10.607L280.948,192.558z"/>
		<path style="fill:#B2754B;" d="M270.341,156.496l-0.707-0.707c-2.929-2.928-7.678-2.928-10.607,0
			c-2.929,2.93-2.929,7.678,0,10.607l0.707,0.707c1.464,1.464,3.384,2.196,5.303,2.196c1.919,0,3.839-0.732,5.303-2.196
			C273.271,164.173,273.271,159.425,270.341,156.496z"/>
	</g>
	<path style="fill:#FFE060;" d="M364.873,213.769c19.278,0.052,35.004,15.776,35.054,35.057c0.012,4.387-3.538,7.937-7.925,7.925
		l-54.034-0.14c-4.39-0.012-7.957-3.579-7.967-7.968C329.949,229.365,345.593,213.719,364.873,213.769z"/>
	<g>
		<circle style="fill:#D3A179;" cx="366.306" cy="310.806" r="67.556"/>
	</g>
	<g>
		<path style="fill:#AF805A;" d="M396.861,280.75h-1c-4.142,0-7.5,3.357-7.5,7.5c0,4.143,3.358,7.5,7.5,7.5h1
			c4.142,0,7.5-3.357,7.5-7.5C404.361,284.108,401.003,280.75,396.861,280.75z"/>
		<path style="fill:#AF805A;" d="M373.861,256.75h-1c-4.142,0-7.5,3.357-7.5,7.5c0,4.143,3.358,7.5,7.5,7.5h1
			c4.142,0,7.5-3.357,7.5-7.5C381.361,260.108,378.003,256.75,373.861,256.75z"/>
	</g>
	<g>
		<g>
			<path style="fill:#62AF62;" d="M131.861,199.751h-27c-4.142,0-7.5-3.357-7.5-7.5c0-4.143,3.358-7.5,7.5-7.5h19.5v-19.5
				c0-4.143,3.358-7.5,7.5-7.5c4.142,0,7.5,3.357,7.5,7.5v27C139.361,196.393,136.003,199.751,131.861,199.751z"/>
		</g>
		<g>
			<path style="fill:#62AF62;" d="M151.274,219.164h-27c-4.142,0-7.5-3.357-7.5-7.5c0-4.143,3.358-7.5,7.5-7.5h19.5v-19.5
				c0-4.143,3.358-7.5,7.5-7.5s7.5,3.357,7.5,7.5v27C158.774,215.806,155.417,219.164,151.274,219.164z"/>
		</g>
		<g>
			<path style="fill:#519351;" d="M169.946,237.836c-1.919,0-3.839-0.732-5.303-2.196l-60.392-60.392
				c-2.929-2.93-2.929-7.678,0-10.607c2.929-2.928,7.678-2.928,10.606,0l60.392,60.392c2.929,2.93,2.929,7.678,0,10.607
				C173.785,237.104,171.866,237.836,169.946,237.836z"/>
		</g>
	</g>
	<g>
		<circle style="fill:#BC8C6C;" cx="207.417" cy="256.806" r="67.556"/>
	</g>
	<path style="opacity:0.1;" d="M227.556,313.862c-37.311,0-67.556-30.246-67.556-67.556c0-21.968,10.492-41.479,26.731-53.816
		c-27.189,8.738-46.87,34.224-46.87,64.316c0,37.309,30.245,67.556,67.556,67.556c15.342,0,29.483-5.122,40.824-13.739
		C241.721,312.718,234.773,313.862,227.556,313.862z"/>
	<g>
		<path style="fill:#996B48;" d="M177.861,229.751h-1c-4.142,0-7.5,3.357-7.5,7.5c0,4.143,3.358,7.5,7.5,7.5h1
			c4.142,0,7.5-3.357,7.5-7.5C185.361,233.108,182.003,229.751,177.861,229.751z"/>
		<path style="fill:#996B48;" d="M227.869,220.751l-1.001-0.001c-0.003,0-0.005,0-0.007,0c-4.139,0-7.496,3.354-7.5,7.493
			c-0.004,4.142,3.351,7.503,7.493,7.507l1.001,0.001c0.002,0,0.005,0,0.007,0c4.139,0,7.496-3.354,7.5-7.493
			C235.365,224.116,232.011,220.754,227.869,220.751z"/>
		<path style="fill:#996B48;" d="M200.861,205.751h-1c-4.142,0-7.5,3.357-7.5,7.5c0,4.143,3.358,7.5,7.5,7.5h1
			c4.142,0,7.5-3.357,7.5-7.5C208.361,209.108,205.003,205.751,200.861,205.751z"/>
	</g>
	<path style="fill:#EFDFBB;" d="M417.411,174.736c-4.529-4.529-10.775-6.278-16.643-5.278c1-5.867-0.749-12.112-5.278-16.642
		c-7.42-7.42-19.45-7.421-26.87,0c-7.42,7.42-7.42,19.45,0,26.87c0.6,0.6,1.232,1.146,1.887,1.649l-39.264,39.264
		c3.607,2.367,7.017,5.094,10.153,8.23c3.137,3.138,5.864,6.547,8.231,10.154l39.264-39.264c0.502,0.654,1.05,1.286,1.649,1.886
		c7.419,7.42,19.449,7.42,26.869,0C424.831,194.186,424.83,182.156,417.411,174.736z"/>
	<path style="fill:#DDB690;" d="M341.396,228.83c29.29,29.29,24.857,81.209-9.899,115.966
		c-34.757,34.756-79.605,32.118-108.895,2.828c-29.289-29.29-31.928-74.138,2.829-108.895
		C260.188,203.972,312.107,199.54,341.396,228.83z"/>
	<path style="opacity:0.1;" d="M243.602,347.624c-29.289-29.29-31.928-74.138,2.829-108.895
		c16.357-16.357,36.516-25.994,56.329-28.564c-25.859-3.467-55.101,6.335-77.329,28.564c-34.757,34.757-32.118,79.604-2.829,108.895
		c17.276,17.276,39.965,25.27,62.803,21.797C270.045,367.06,255.533,359.554,243.602,347.624z"/>
	<g>
		<g>
			<path style="fill:#AF805A;" d="M234.623,302.09c-1.921,0-3.842-0.733-5.307-2.2c-2.927-2.931-2.923-7.68,0.007-10.606
				l0.708-0.707c2.932-2.927,7.68-2.924,10.607,0.007c2.927,2.931,2.923,7.68-0.007,10.607l-0.708,0.707
				C238.458,301.359,236.54,302.09,234.623,302.09z"/>
		</g>
		<g>
			<path style="fill:#AF805A;" d="M312.293,251.458c-1.919,0-3.839-0.732-5.303-2.196c-2.929-2.93-2.929-7.678,0-10.607l0.707-0.707
				c2.929-2.928,7.678-2.928,10.606,0c2.929,2.93,2.929,7.678,0,10.607l-0.707,0.707
				C316.132,250.725,314.212,251.458,312.293,251.458z"/>
		</g>
		<g>
			<path style="fill:#AF805A;" d="M249.473,266.028c-1.919,0-3.839-0.732-5.303-2.196c-2.929-2.93-2.929-7.678,0-10.607l0.707-0.707
				c2.929-2.928,7.678-2.928,10.606,0c2.929,2.93,2.929,7.678,0,10.607l-0.707,0.707
				C253.311,265.295,251.392,266.028,249.473,266.028z"/>
		</g>
		<g>
			<path style="fill:#AF805A;" d="M269.272,290.07c-1.919,0-3.839-0.732-5.303-2.196c-2.929-2.93-2.929-7.678,0-10.607l0.707-0.707
				c2.929-2.928,7.678-2.928,10.606,0c2.929,2.93,2.929,7.678,0,10.607l-0.707,0.707C273.11,289.337,271.191,290.07,269.272,290.07z
				"/>
		</g>
		<g>
			<path style="fill:#AF805A;" d="M280.586,253.3c-1.919,0-3.839-0.732-5.303-2.196c-2.929-2.93-2.929-7.678,0-10.607l0.707-0.707
				c2.929-2.928,7.678-2.928,10.607,0c2.929,2.93,2.929,7.678,0,10.607l-0.707,0.707C284.425,252.568,282.505,253.3,280.586,253.3z"
				/>
		</g>
	</g>
	<path style="fill:#FFE060;" d="M368.366,341.506c-13.668,13.597-35.907,13.597-49.575-0.001c-3.111-3.095-3.111-8.113,0-11.207
		l38.307-38.11c3.112-3.096,8.157-3.095,11.268,0C382.033,305.785,382.034,327.909,368.366,341.506z"/>
	<path style="fill:#FFE060;" d="M186.873,292.75c19.278,0.052,35.004,15.776,35.054,35.057c0.012,4.387-3.538,7.937-7.925,7.925
		l-54.034-0.14c-4.39-0.012-7.957-3.579-7.967-7.968C151.949,308.346,167.593,292.701,186.873,292.75z"/>
	<path style="fill:#C14616;" d="M423.5,416.75c0,5.523-4.477,10-10,10h-337c-5.523,0-10-4.477-10-10v-55c0-5.522,4.477-10,10-10h337
		c5.523,0,10,4.478,10,10V416.75z"/>
	<path style="opacity:0.1;" d="M117,416.75v-55c0-5.522,4.477-10,10-10H76.5c-5.523,0-10,4.478-10,10v55c0,5.523,4.477,10,10,10H127
		C121.477,426.75,117,422.274,117,416.75z"/>
	<path style="fill:#EF645E;" d="M74.588,400.287c-36.993,0-67.088-29.974-67.088-66.817c0-5.387,4.385-9.755,9.794-9.755h455.412
		c5.409,0,9.794,4.368,9.794,9.755c0,36.844-30.095,66.817-67.087,66.817H74.588z"/>
	<path style="opacity:0.1;" d="M58,333.469c0-5.387,4.385-9.755,9.794-9.755h-50.5c-5.409,0-9.794,4.368-9.794,9.755
		c0,36.844,30.095,66.817,67.088,66.817h50.5C88.095,400.287,58,370.313,58,333.469z"/>
	<path d="M490,332.933c0-9.515-7.758-17.255-17.294-17.255H441.18c0.108-1.611,0.181-3.232,0.181-4.872
		c0-26.22-13.524-49.327-33.952-62.753c-0.304-15.077-8.501-28.281-20.616-35.628l2.311-2.311c4.353,2.964,9.489,4.558,14.871,4.558
		c7.079,0,13.733-2.757,18.738-7.762c10.333-10.332,10.334-27.144,0.001-37.478c-3.992-3.991-9.039-6.551-14.517-7.418
		c-0.879-5.429-3.431-10.528-7.404-14.502c-5.005-5.005-11.66-7.762-18.739-7.762c-7.079,0-13.733,2.757-18.738,7.762
		c-9.124,9.124-10.191,23.302-3.201,33.607l-9.554,9.554c-4.033-14.819-12.404-28.822-24.829-41.248
		c-19.996-19.996-46.358-31.464-72.328-31.464c-13.61,0-26.454,3.212-37.599,9.22l-6.484-6.484c-2.929-2.928-7.678-2.928-10.607,0
		c-2.929,2.93-2.929,7.678,0,10.607l4.502,4.501c-1.393,1.191-2.756,2.419-4.057,3.721c-1.308,1.309-2.534,2.671-3.721,4.058
		l-33.168-33.168c-4.283-4.281-8.841-1.536-12.253,1.887c-4.484,4.484-11.782,4.485-16.266,0
		c-4.484-4.483-4.483-11.779,0.001-16.264c2.624-2.625,6.391-3.814,10.078-3.188c2.4,0.407,4.844-0.371,6.564-2.09
		c1.72-1.72,2.499-4.166,2.09-6.563c-0.628-3.687,0.563-7.455,3.188-10.079c4.484-4.484,11.779-4.484,16.264,0
		c2.172,2.172,3.368,5.06,3.368,8.132c0,3.072-1.196,5.96-3.359,8.124c-3.428,3.413-6.182,7.976-1.896,12.264l13.666,13.666
		c2.929,2.928,7.678,2.928,10.607,0c2.929-2.93,2.929-7.678,0-10.607l-8.575-8.574c2.964-4.354,4.557-9.49,4.557-14.872
		c0-7.079-2.756-13.733-7.762-18.739c-5.005-5.005-11.66-7.762-18.738-7.762c-7.079,0-13.733,2.757-18.738,7.762
		c-3.976,3.977-6.529,9.081-7.406,14.515c-5.434,0.877-10.538,3.43-14.514,7.405c-5.005,5.006-7.762,11.66-7.762,18.739
		c-0.001,7.078,2.756,13.733,7.762,18.739c9.121,9.121,23.294,10.186,33.606,3.2l30.063,30.062
		c-5.201,9.67-8.165,20.441-8.936,31.645c-21.287,9.149-37.516,27.871-43.254,50.715c-4.247-1.637-8.798-2.504-13.487-2.504
		c-10.017,0-19.434,3.901-26.516,10.983l-2.755,2.755c-5.781-2.842-12.186-4.352-18.83-4.352c-11.369,0-22.05,4.396-30.076,12.379
		C34.925,265.788,30.5,276.433,30.5,287.77c0,6.832,1.621,13.405,4.66,19.304c-1.993,2.689-3.571,5.587-4.757,8.604H17.294
		C7.758,315.678,0,323.418,0,332.933c0,35.652,25.331,65.51,59,72.673v11.145c0,9.649,7.851,17.5,17.5,17.5h337
		c9.649,0,17.5-7.851,17.5-17.5v-11.145C464.668,398.443,490,368.586,490,332.933z M426.361,310.806c0,1.642-0.09,3.263-0.223,4.872
		h-40.051c-0.294-10.896-4.674-21.088-12.433-28.808c-1.627-1.618-3.558-2.814-5.657-3.571c0.701-11.241-0.714-22.285-4.278-32.491
		c0.857-0.038,1.719-0.058,2.585-0.058C399.42,250.751,426.361,277.691,426.361,310.806z M207.686,290.754
		c1.219-16.717,9.113-32.786,23.049-46.723c17.204-17.203,39.7-27.07,61.72-27.07c17.068,0,32.565,6.099,43.638,17.172
		c13.44,13.441,18.843,32.344,16.691,51.857c-0.334,0.281-0.663,0.569-0.976,0.881l-28.956,28.808h-95.232
		C224.424,305.044,217.181,296.13,207.686,290.754z M211.563,315.678h-49.354c1.31-2.71,3.068-5.216,5.257-7.41
		c5.157-5.17,12.016-8.018,19.386-8.018C197.661,300.28,207.047,306.574,211.563,315.678z M362.387,297.505
		c0.035-0.034,0.14-0.139,0.345-0.139c0.205,0,0.31,0.104,0.344,0.139c4.908,4.882,7.724,11.298,8.012,18.173H344.12
		L362.387,297.505z M390.902,239.911c-7.711-2.683-15.982-4.16-24.596-4.16c-0.973,0-1.939,0.026-2.902,0.063l12.283-12.282
		C382.783,226.599,388.353,232.559,390.902,239.911z M375.81,186.639c3.127-3.127,2.783-8.552-0.737-11.253
		c-0.419-0.322-0.806-0.659-1.15-1.004c-4.484-4.483-4.484-11.779,0-16.264c2.172-2.172,5.06-3.368,8.131-3.368
		c3.072,0,5.96,1.196,8.132,3.369c2.37,2.369,3.427,5.542,3.331,8.848c-0.087,2.963-0.397,5.449,1.948,7.794
		c2.268,2.268,4.65,2.102,7.541,1.965c3.409-0.161,6.651,0.863,9.101,3.312c4.484,4.484,4.484,11.78,0,16.264
		c-2.172,2.173-5.06,3.369-8.132,3.369c-3.071,0-5.959-1.196-8.131-3.368c-3.409-3.419-7.92-6.219-12.256-1.887l-33.168,33.169
		c-1.187-1.387-2.412-2.75-3.72-4.059c-1.301-1.302-2.665-2.529-4.057-3.721L375.81,186.639z M209.767,150.132
		c11.073-11.073,26.571-17.171,43.639-17.171c22.021,0,44.518,9.867,61.722,27.071c13,12.999,20.74,27.857,22.712,43.363
		l-7.786,7.786c-11.144-6.009-23.989-9.221-37.599-9.221c-9.808,0-19.67,1.638-29.226,4.751
		c-13.748-15.308-33.667-24.962-55.812-24.962c-4.777,0-9.445,0.468-13.978,1.325C195.373,170.616,200.756,159.143,209.767,150.132z
		 M207.417,196.751c15.796,0,30.173,6.146,40.905,16.152c-10.191,5.18-19.76,12.089-28.194,20.522
		c-15.476,15.477-24.673,33.398-27.001,52.302c-2.037-0.307-4.118-0.471-6.236-0.477c-0.007,0-0.105,0-0.111,0
		c-9.622,0-18.744,3.202-26.175,9.087c-8.27-10.289-13.244-23.333-13.244-37.531C147.361,223.691,174.302,196.751,207.417,196.751z
		 M105.229,257.618c4.249-4.249,9.899-6.59,15.909-6.59c4.028,0,7.883,1.074,11.275,3.047c-0.033,0.906-0.052,1.816-0.052,2.732
		c0,18.674,6.872,35.761,18.2,48.905c-1.888,3.123-3.342,6.472-4.36,9.967H47.445c0.585-0.764,1.223-1.499,1.922-2.198
		L105.229,257.618z M53.54,268.427c5.196-5.167,12.12-8.014,19.498-8.014c2.478,0,4.899,0.334,7.225,0.958l-33.751,33.751
		c-0.66-2.364-1.011-4.83-1.011-7.353C45.5,280.455,48.355,273.586,53.54,268.427z M415.413,392.25H344c-4.142,0-7.5,3.357-7.5,7.5
		c0,4.143,3.358,7.5,7.5,7.5h71.413c0.197,0,0.391-0.014,0.587-0.015v9.515c0,1.379-1.122,2.5-2.5,2.5h-337
		c-1.378,0-2.5-1.121-2.5-2.5v-9.515c0.197,0.001,0.391,0.015,0.588,0.015H305c4.142,0,7.5-3.357,7.5-7.5c0-4.143-3.358-7.5-7.5-7.5
		H74.588C41.731,392.25,15,365.641,15,332.933c0-1.243,1.029-2.255,2.294-2.255h455.412c1.265,0,2.294,1.012,2.294,2.255
		C475,365.641,448.269,392.25,415.413,392.25z"/>
</g>
<g>
</g>
<g>
</g>
<g>
</g>
<g>
</g>
<g>
</g>
<g>
</g>
<g>
</g>
<g>
</g>
<g>
</g>
<g>
</g>
<g>
</g>
<g>
</g>
<g>
</g>
<g>
</g>
<g>
</g>
</svg>
