<?xml version="1.0" encoding="iso-8859-1"?>
<!-- Generator: Adobe Illustrator 19.0.0, SVG Export Plug-In . SVG Version: 6.00 Build 0)  -->
<svg version="1.1" id="Layer_1" xmlns="http://www.w3.org/2000/svg" xmlns:xlink="http://www.w3.org/1999/xlink" x="0px" y="0px"
	 viewBox="0 0 490 490" style="enable-background:new 0 0 490 490;" xml:space="preserve">
<g>
	<g>
		<path style="fill:#8C6239;" d="M131.803,275.011c-5.345-5.287-5.328-13.882,0.041-19.192l110.161-108.982
			c5.37-5.312,14.054-5.329,19.4-0.041l22.585,22.346c5.347,5.288,5.329,13.881-0.04,19.191L173.788,297.315
			c-5.369,5.311-14.053,5.328-19.399,0.041L131.803,275.011z"/>
	</g>
	<g>
		<g>
			<path style="fill:#754C24;" d="M215.083,232.624c-1.289,0-2.577-0.495-3.555-1.483c-1.942-1.963-1.925-5.129,0.038-7.072
				l61.461-60.805c1.963-1.941,5.129-1.925,7.07,0.038c1.942,1.963,1.926,5.129-0.037,7.071l-61.46,60.806
				C217.626,232.143,216.354,232.624,215.083,232.624z"/>
		</g>
		<g>
			<path style="fill:#754C24;" d="M201.871,220.381c-1.289,0-2.577-0.495-3.555-1.483c-1.942-1.963-1.925-5.129,0.038-7.071
				l61.462-60.805c1.963-1.942,5.129-1.926,7.071,0.037c1.941,1.963,1.925,5.13-0.038,7.072l-61.462,60.805
				C204.413,219.899,203.142,220.381,201.871,220.381z"/>
		</g>
	</g>
	<g>
		<g>
			<path style="fill:#754C24;" d="M152.403,294.633c-1.289,0-2.577-0.495-3.555-1.483c-1.942-1.963-1.925-5.129,0.038-7.071
				l40.712-40.278c1.963-1.941,5.129-1.924,7.071,0.038c1.942,1.963,1.926,5.129-0.037,7.071l-40.712,40.278
				C154.945,294.151,153.673,294.633,152.403,294.633z"/>
		</g>
		<g>
			<path style="fill:#754C24;" d="M139.332,282.251c-1.289,0-2.577-0.495-3.555-1.483c-1.942-1.963-1.925-5.129,0.038-7.071
				l40.712-40.278c1.963-1.941,5.129-1.925,7.071,0.038c1.942,1.963,1.926,5.129-0.037,7.071l-40.712,40.278
				C141.875,281.77,140.603,282.251,139.332,282.251z"/>
		</g>
	</g>
	<g>
		<path style="fill:#C69C6D;" d="M358.378,295.352c0,9.838-7.875,17.813-17.588,17.813H74.61c-9.714,0-17.589-7.975-17.589-17.813
			v-23.75c0-9.838,7.876-17.812,17.589-17.812h266.18c9.713,0,17.588,7.974,17.588,17.812V295.352z"/>
	</g>
	<path style="opacity:0.1;" d="M88.647,295.352v-23.75c0-9.838,7.875-17.812,17.589-17.812H74.61
		c-9.714,0-17.589,7.974-17.589,17.812v23.75c0,9.838,7.876,17.813,17.589,17.813h31.626
		C96.522,313.164,88.647,305.19,88.647,295.352z"/>
	<g>
		<path style="fill:#AA7F53;" d="M57.165,269.423c-0.086,0.716-0.145,1.439-0.145,2.179v7.821h300.332
			c0.352,0,0.694-0.038,1.025-0.107v-7.714c0-0.708-0.052-1.402-0.131-2.089c-0.292-0.053-0.588-0.09-0.895-0.09H57.165z"/>
		<path style="fill:#AA7F53;" d="M58.047,287.531c-0.352,0-0.695,0.038-1.026,0.107v7.713c0,0.708,0.052,1.403,0.131,2.09
			c0.292,0.053,0.588,0.09,0.895,0.09h300.186c0.086-0.716,0.145-1.44,0.145-2.18v-7.82H58.047z"/>
	</g>
	<path style="opacity:0.1;" d="M61.646,353.983v-23.749c0-9.838,7.876-17.813,17.588-17.813H47.583
		c-9.713,0-17.588,7.975-17.588,17.813v23.749c0,9.837,7.875,17.811,17.588,17.811h31.651
		C69.521,371.795,61.646,363.82,61.646,353.983z"/>
	<path style="fill:#FFCC60;" d="M35.508,433.161c-9.718,0-17.684-7.821-18.216-17.639l-9.544-34.194
		c-0.574-2.057-0.163-4.265,1.109-5.969c1.273-1.703,3.261-2.704,5.368-2.704h461.548c2.108,0,4.097,1.001,5.369,2.704
		c1.273,1.704,1.684,3.912,1.109,5.969l-9.545,34.194c-0.531,9.817-8.498,17.639-18.215,17.639H35.508z"/>
	<path style="opacity:0.1;" d="M58.793,415.523l-9.544-34.194c-0.574-2.057-0.163-4.265,1.109-5.969
		c1.272-1.703,3.261-2.704,5.368-2.704H14.226c-2.107,0-4.096,1.001-5.368,2.704c-1.272,1.704-1.684,3.912-1.109,5.969l9.544,34.194
		c0.532,9.817,8.498,17.639,18.216,17.639h41.501C67.292,433.161,59.325,425.34,58.793,415.523z"/>
	<g>
		<g>
			<path style="fill:#8C6239;" d="M331.352,353.983c0,9.837-7.875,17.811-17.59,17.811H47.583c-9.713,0-17.588-7.975-17.588-17.811
				v-23.749c0-9.838,7.875-17.813,17.588-17.813h266.179c9.715,0,17.59,7.975,17.59,17.813V353.983z"/>
		</g>
		<g>
			<path style="fill:#754C24;" d="M186.435,328.054H30.17c-0.011,0-0.02,0.003-0.031,0.003c-0.087,0.715-0.145,1.44-0.145,2.178
				v7.802c0.06,0.002,0.116,0.018,0.176,0.018h156.265c2.761,0,5-2.238,5-5C191.435,330.292,189.196,328.054,186.435,328.054z"/>
			<path style="fill:#754C24;" d="M187.5,346.163H31.235c-0.431,0-0.841,0.071-1.24,0.174v7.647c0,0.692,0.049,1.373,0.124,2.045
				c0.36,0.082,0.731,0.135,1.116,0.135H187.5c2.761,0,5-2.238,5-5S190.26,346.163,187.5,346.163z"/>
		</g>
		<g>
			<path style="fill:#754C24;" d="M219.308,333.054c0,2.762,2.238,5,5,5h107.043v-7.819c0-0.74-0.059-1.465-0.145-2.181H224.308
				C221.546,328.054,219.308,330.292,219.308,333.054z"/>
			<path style="fill:#754C24;" d="M225.041,346.163c-2.762,0-5,2.238-5,5s2.238,5,5,5h106.167c0.086-0.716,0.145-1.44,0.145-2.18
				v-7.82H225.041z"/>
		</g>
	</g>
	<g>
		<path style="fill:#A67C52;" d="M334.271,369.574c-5.284,5.35-13.869,5.333-19.173-0.041L206.215,259.27
			c-5.306-5.374-5.323-14.066-0.04-19.417l22.324-22.607c5.283-5.351,13.869-5.333,19.174,0.04L356.555,327.55
			c5.306,5.374,5.323,14.065,0.04,19.418L334.271,369.574z"/>
	</g>
	<g>
		<path style="fill:#DDB690;" d="M74.996,212.343h-1c-4.143,0-7.5-3.357-7.5-7.5s3.357-7.5,7.5-7.5h1c4.142,0,7.501,3.357,7.501,7.5
			S79.137,212.343,74.996,212.343z"/>
	</g>
	<g>
		<g>
			<path style="fill:#8C5930;" d="M286.927,291.217c-1.29,0-2.58-0.496-3.558-1.486l-60.748-61.518
				c-1.94-1.967-1.921-5.132,0.044-7.072c1.964-1.94,5.131-1.921,7.071,0.044l60.748,61.519c1.94,1.966,1.92,5.131-0.045,7.071
				C289.466,290.736,288.195,291.217,286.927,291.217z"/>
		</g>
		<g>
			<path style="fill:#8C5930;" d="M274.696,304.441c-1.29,0-2.581-0.496-3.558-1.488l-60.748-61.519
				c-1.94-1.965-1.921-5.13,0.044-7.07c1.964-1.941,5.131-1.922,7.072,0.045l60.748,61.518c1.94,1.965,1.92,5.13-0.045,7.07
				C277.235,303.961,275.965,304.441,274.696,304.441z"/>
		</g>
	</g>
	<g>
		<g>
			<path style="fill:#8C5930;" d="M348.88,353.955c-1.29,0-2.581-0.496-3.558-1.486l-40.24-40.749
				c-1.94-1.965-1.921-5.131,0.044-7.071c1.964-1.941,5.131-1.922,7.072,0.043l40.24,40.75c1.94,1.965,1.92,5.131-0.045,7.071
				C351.419,353.475,350.148,353.955,348.88,353.955z"/>
		</g>
		<g>
			<path style="fill:#8C5930;" d="M336.508,367.038c-1.29,0-2.58-0.496-3.558-1.487l-40.239-40.75
				c-1.941-1.965-1.921-5.13,0.044-7.07c1.964-1.941,5.13-1.922,7.071,0.045l40.239,40.75c1.94,1.965,1.92,5.13-0.045,7.07
				C339.047,366.558,337.777,367.038,336.508,367.038z"/>
		</g>
	</g>
	<g>
		<path style="fill:#8C5930;" d="M150.998,181.342h-1c-4.143,0-7.5-3.357-7.5-7.5c0-4.143,3.357-7.5,7.5-7.5h1
			c4.142,0,7.5,3.357,7.5,7.5C158.498,177.984,155.139,181.342,150.998,181.342z"/>
	</g>
	<g>
		<path style="fill:#DDB690;" d="M89.996,133.341h-1c-4.143,0-7.501-3.357-7.501-7.5c0-4.143,3.358-7.5,7.501-7.5h1
			c4.142,0,7.5,3.357,7.5,7.5C97.496,129.983,94.138,133.341,89.996,133.341z"/>
	</g>
	<g>
		<path style="fill:#DDB690;" d="M176.998,119.341h-1c-4.143,0-7.5-3.357-7.5-7.501c0-4.143,3.357-7.5,7.5-7.5h1
			c4.142,0,7.5,3.357,7.5,7.5C184.499,115.983,181.14,119.341,176.998,119.341z"/>
	</g>
	<g>
		<path style="fill:#DDB690;" d="M315.002,136.341h-1c-4.143,0-7.501-3.357-7.501-7.5c0-4.143,3.357-7.5,7.501-7.5h1
			c4.142,0,7.5,3.357,7.5,7.5C322.502,132.983,319.144,136.341,315.002,136.341z"/>
	</g>
	<g>
		<path style="fill:#8C5930;" d="M322.002,209.343h-1c-4.143,0-7.5-3.357-7.5-7.5s3.357-7.5,7.5-7.5h1c4.142,0,7.5,3.357,7.5,7.5
			S326.144,209.343,322.002,209.343z"/>
	</g>
	<g>
		<path style="fill:#8C5930;" d="M239,64.339h-1c-4.143,0-7.501-3.358-7.501-7.5c0-4.143,3.357-7.5,7.501-7.5h1
			c4.142,0,7.5,3.357,7.5,7.5C246.5,60.981,243.142,64.339,239,64.339z"/>
	</g>
	<g>
		<path style="fill:#774B26;" d="M432.886,302.436c0.008-0.213,0.032-0.418,0.032-0.633c0-9.849-7.976-17.831-17.815-17.831h-7.043
			c0.527-33.43-23.67-36.441-23.67-20.464c0,9.029-5.381,16.037-10.125,20.464h-24.313c-9.839,0-17.815,7.982-17.815,17.831
			c0,0.215,0.024,0.42,0.032,0.633c-13.157,1.266-23.447,12.358-23.447,25.859c0,14.35,11.622,25.983,25.96,25.983h95.691
			c14.337,0,25.958-11.634,25.958-25.983C456.332,314.794,446.043,303.701,432.886,302.436z"/>
	</g>
	<g style="opacity:0.1;">
		<path d="M329.397,328.295c0-13.501,10.289-24.594,23.447-25.859c-0.008-0.213-0.032-0.418-0.032-0.633
			c0-9.849,7.976-17.831,17.815-17.831h-20.674c-9.839,0-17.815,7.982-17.815,17.831c0,0.215,0.024,0.42,0.032,0.633
			c-13.157,1.266-23.447,12.358-23.447,25.859c0,14.35,11.622,25.983,25.96,25.983h20.674
			C341.019,354.278,329.397,342.645,329.397,328.295z"/>
	</g>
	<path style="fill:#EF645E;" d="M327.26,433.161c-2.959,0-5.456-2.201-5.832-5.139l-11.758-91.99
		c-0.215-1.677,0.302-3.366,1.418-4.635c1.117-1.27,2.725-1.997,4.414-1.997h134.051c1.69,0,3.297,0.728,4.414,1.997
		c1.116,1.268,1.633,2.958,1.418,4.635l-11.759,91.99c-0.375,2.938-2.873,5.139-5.832,5.139H327.26z"/>
	<path style="opacity:0.1;" d="M363.001,428.023l-11.758-91.99c-0.215-1.677,0.302-3.366,1.418-4.635
		c1.117-1.27,2.725-1.997,4.414-1.997h-41.573c-1.69,0-3.297,0.728-4.414,1.997c-1.117,1.268-1.633,2.958-1.418,4.635l11.758,91.99
		c0.376,2.938,2.873,5.139,5.832,5.139h41.573C365.874,433.161,363.377,430.96,363.001,428.023z"/>
	<path style="fill:#F7C677;" d="M471.006,336.955c0,5.627-4.558,10.19-10.18,10.19H305.074c-5.623,0-10.18-4.563-10.18-10.19l0,0
		c0-5.627,4.557-10.188,10.18-10.188h155.752C466.448,326.767,471.006,331.328,471.006,336.955L471.006,336.955z"/>
	<path style="opacity:0.1;" d="M336.895,336.955c0-5.627,4.557-10.188,10.18-10.188h-42.001c-5.623,0-10.18,4.561-10.18,10.188
		c0,5.627,4.557,10.19,10.18,10.19h42.001C341.452,347.146,336.895,342.582,336.895,336.955z"/>
	<path d="M487.151,370.87c-2.674-3.578-6.928-5.715-11.378-5.715h-16.55l1.343-10.51h0.259c9.749,0,17.68-7.935,17.68-17.69
		c0-9.145-6.971-16.689-15.875-17.597c-3.042-11.139-11.645-19.973-22.849-23.213c-2.563-11.204-12.574-19.6-24.52-19.674
		c-0.981-10.022-4.29-18.259-9.59-23.643c-3.925-3.987-8.741-6.183-13.56-6.183c-7.565,0-15.222,5.791-15.222,16.861
		c0,5.23-2.802,9.704-5.752,12.964h-5.26v-4.87c0-13.957-11.254-25.312-25.088-25.312h-53.936l-25.115-25.435l27.485-27.19
		c4.04-3.995,6.265-9.311,6.265-14.966c0-5.633-2.211-10.921-6.224-14.891l-22.586-22.346c-8.245-8.156-21.68-8.138-29.949,0.042
		l-13.005,12.866c-2.944,2.914-2.97,7.662-0.057,10.606c2.914,2.946,7.662,2.97,10.606,0.058l13.004-12.867
		c2.452-2.424,6.422-2.443,8.851-0.041l22.586,22.346c1.143,1.131,1.772,2.632,1.772,4.228c0,1.616-0.644,3.144-1.814,4.3
		l-27.598,27.303c-3.705-2.946-8.239-4.559-13.028-4.559c-5.632,0-10.919,2.213-14.887,6.231l-22.324,22.607
		c-3.252,3.294-5.18,7.417-5.83,11.707H152.14l61.134-60.48c2.945-2.913,2.97-7.662,0.057-10.606
		c-2.913-2.946-7.662-2.971-10.606-0.058l-71.913,71.144H74.61c-13.834,0-25.089,11.355-25.089,25.312v23.75
		c0,3.386,0.667,6.615,1.868,9.57h-3.806c-13.834,0-25.089,11.355-25.089,25.313v23.749c0,4.009,0.936,7.8,2.588,11.172H14.226
		c-4.45,0-8.703,2.137-11.378,5.717c-2.647,3.544-3.515,8.206-2.324,12.474c0,0,5.977,22.154,9.342,33.467
		c3.848,12.935,12.272,23.849,25.643,23.849H261c4.142,0,7.5-3.357,7.5-7.5c0-4.143-3.358-7.501-7.5-7.501H35.508
		c-5.694,0-9.237-4.812-10.727-10.544c-3.281-12.616-9.573-34.96-9.573-34.96h292.54l5.817,45.504h-14.563
		c-4.142,0-7.5,3.358-7.5,7.501c0,4.143,3.358,7.5,7.5,7.5h155.49c13.372,0,24.47-10.404,25.642-23.849l9.342-33.467
		C490.668,379.076,489.799,374.413,487.151,370.87z M374.265,291.472c1.9,0,3.728-0.721,5.117-2.017
		c8.184-7.636,12.509-16.607,12.509-25.947c0-1.004,0.185-1.6,0.31-1.857c0.489,0.043,1.537,0.436,2.781,1.701
		c1.747,1.775,5.788,7.326,5.58,20.502c-0.032,2.009,0.744,3.947,2.154,5.38c1.411,1.432,3.336,2.238,5.345,2.238h7.043
		c5.647,0,10.249,4.568,10.314,10.208c-0.011,0.16-0.021,0.318-0.026,0.478c-0.146,3.969,2.825,7.362,6.777,7.743
		c6.247,0.601,11.472,4.23,14.324,9.365H318.563c2.852-5.134,8.077-8.764,14.325-9.365c0.207-0.021,1.914-0.053,2.115-0.089h21.566
		c4.142,0,7.5-3.357,7.5-7.5c0-4.144-3.358-7.501-7.5-7.501h-14.189c1.886-2.048,4.579-3.34,7.573-3.34H374.265z M340.79,261.29
		c5.563,0,10.088,4.626,10.088,10.312v4.87h-0.926c-9.056,0-17.012,4.785-21.487,11.958l-26.799-27.14H340.79z M64.521,271.602
		c0-5.686,4.526-10.312,10.089-10.312h123.642c0.755,1.148,1.628,2.237,2.626,3.249l39.876,40.383H70.872
		c-3.716-1.523-6.351-5.235-6.351-9.57V271.602z M47.583,364.295c-5.563,0-10.088-4.626-10.088-10.311v-23.749
		c0-5.686,4.525-10.313,10.088-10.313h207.984l43.817,44.373H47.583z M288.226,331.647L211.552,254
		c-2.428-2.459-2.446-6.441-0.041-8.878l22.324-22.607c1.128-1.142,2.625-1.77,4.214-1.77c1.611,0,3.134,0.643,4.287,1.811
		l75.703,76.665c-7.646,4.362-13.332,11.622-15.654,20.273C295.687,320.523,290.227,325.319,288.226,331.647z M305.074,339.645
		c-1.478,0-2.68-1.206-2.68-2.689c0-1.482,1.202-2.688,2.68-2.688h155.752c1.478,0,2.68,1.206,2.68,2.688
		c0,1.483-1.202,2.689-2.68,2.689H305.074z M436.367,425.66h-107.68l-9.077-71.015h125.834L436.367,425.66z M465.483,413.506
		c-0.147,0.526-0.236,1.066-0.266,1.611c-0.32,5.913-5.032,10.543-10.726,10.543h-3.002l5.817-45.504h17.486L465.483,413.506z"/>
</g>
<g>
</g>
<g>
</g>
<g>
</g>
<g>
</g>
<g>
</g>
<g>
</g>
<g>
</g>
<g>
</g>
<g>
</g>
<g>
</g>
<g>
</g>
<g>
</g>
<g>
</g>
<g>
</g>
<g>
</g>
</svg>
