<?xml version="1.0" encoding="iso-8859-1"?>
<!-- Generator: Adobe Illustrator 19.0.0, SVG Export Plug-In . SVG Version: 6.00 Build 0)  -->
<svg version="1.1" id="Layer_1" xmlns="http://www.w3.org/2000/svg" xmlns:xlink="http://www.w3.org/1999/xlink" x="0px" y="0px"
	 viewBox="0 0 490 490" style="enable-background:new 0 0 490 490;" xml:space="preserve">
<g>
	<g>
		<g>
			<path style="fill:#407C46;" d="M166.662,72.862c-11.802-7.197-18.856-20.279-18.404-34.142c0.12-3.698,2.171-7.063,5.405-8.863
				c12.115-6.744,26.975-6.466,38.777,0.732c11.803,7.197,18.857,20.28,18.406,34.143c-0.121,3.697-2.172,7.061-5.404,8.86
				C193.325,80.342,178.464,80.062,166.662,72.862z"/>
		</g>
	</g>
	<path style="fill:#EF645E;" d="M214.517,75.767c-3.379,0-6.338-2.222-7.225-5.424c-1.336-4.824-2.013-9.89-2.013-15.057
		C205.279,28.937,223.099,7.5,245,7.5c21.902,0,39.721,21.437,39.721,47.786c0,5.165-0.677,10.23-2.012,15.055
		c-0.887,3.203-3.847,5.426-7.226,5.426H214.517z"/>
	<g>
		<g>
			<path style="fill:#C14616;" d="M244,33.5h-1c-4.142,0-7.5-3.357-7.5-7.5s3.358-7.5,7.5-7.5h1c4.143,0,7.5,3.357,7.5,7.5
				S248.143,33.5,244,33.5z"/>
		</g>
		<g>
			<path style="fill:#C14616;" d="M263.5,48.5h-1c-4.143,0-7.5-3.357-7.5-7.5s3.357-7.5,7.5-7.5h1c4.143,0,7.5,3.357,7.5,7.5
				S267.643,48.5,263.5,48.5z"/>
		</g>
		<g>
			<path style="fill:#C14616;" d="M227.5,48.5h-1c-4.142,0-7.5-3.357-7.5-7.5s3.358-7.5,7.5-7.5h1c4.142,0,7.5,3.357,7.5,7.5
				S231.642,48.5,227.5,48.5z"/>
		</g>
	</g>
	<ellipse style="fill:#A5BC79;" cx="245" cy="148.675" rx="89.844" ry="88.234"/>
	<path style="opacity:0.1;" d="M186.313,148.675c0-43.512,32.071-79.665,74.266-86.909c-5.061-0.869-10.265-1.325-15.578-1.325
		c-49.62,0-89.844,39.505-89.844,88.234S195.38,236.909,245,236.909c5.313,0,10.518-0.456,15.578-1.325
		C218.384,228.34,186.313,192.186,186.313,148.675z"/>
	<ellipse style="fill:#A67C52;" cx="309.388" cy="210.439" rx="89.844" ry="88.234"/>
	<path style="opacity:0.1;" d="M261.312,210.439c0-41.668,29.414-76.585,68.961-85.832c-6.702-1.566-13.693-2.401-20.884-2.401
		c-49.619,0-89.845,39.504-89.845,88.233c0,48.73,40.226,88.234,89.845,88.234c7.19,0,14.182-0.835,20.884-2.401
		C290.726,287.024,261.312,252.107,261.312,210.439z"/>
	<circle style="fill:#FFE060;" cx="103" cy="169" r="28"/>
	<ellipse style="fill:#F9EBCF;" cx="180.612" cy="210.439" rx="89.844" ry="88.234"/>
	<path style="opacity:0.1;" d="M122,210.439c0-43.498,32.053-79.643,74.228-86.902c-5.072-0.873-10.289-1.331-15.616-1.331
		c-49.62,0-89.845,39.504-89.845,88.233c0,48.73,40.225,88.234,89.845,88.234c5.327,0,10.544-0.458,15.616-1.331
		C154.053,290.082,122,253.938,122,210.439z"/>
	<g>
		<path style="fill:#A67C52;" d="M146,151.5h-9c-4.142,0-7.5,3.357-7.5,7.5s3.358,7.5,7.5,7.5h9c4.142,0,7.5-3.357,7.5-7.5
			S150.142,151.5,146,151.5z"/>
		<path style="fill:#754C24;" d="M175,135.5h-9c-4.142,0-7.5,3.357-7.5,7.5s3.358,7.5,7.5,7.5h9c4.142,0,7.5-3.357,7.5-7.5
			S179.142,135.5,175,135.5z"/>
		<path style="fill:#A67C52;" d="M204,154.5h-9c-4.142,0-7.5,3.357-7.5,7.5s3.358,7.5,7.5,7.5h9c4.142,0,7.5-3.357,7.5-7.5
			S208.142,154.5,204,154.5z"/>
		<path style="fill:#8C6239;" d="M236,172.5h-9c-4.142,0-7.5,3.357-7.5,7.5s3.358,7.5,7.5,7.5h9c4.142,0,7.5-3.357,7.5-7.5
			S240.142,172.5,236,172.5z"/>
		<path style="fill:#754C24;" d="M173,172.5h-9c-4.142,0-7.5,3.357-7.5,7.5s3.358,7.5,7.5,7.5h9c4.142,0,7.5-3.357,7.5-7.5
			S177.142,172.5,173,172.5z"/>
	</g>
	<circle style="fill:#EF645E;" cx="94" cy="204" r="28"/>
	<path style="fill:#CEE9FF;" d="M181.351,482.5c-2.43,0-4.706-1.157-6.109-3.103c-1.404-1.945-1.76-4.44-0.954-6.69
		c7.792-21.746,25.829-38.854,48.252-45.76v-54.746c0-12.163,10.075-22.059,22.461-22.059c12.386,0,22.461,9.895,22.461,22.059
		v54.746c22.423,6.906,40.461,24.014,48.252,45.76c0.806,2.249,0.45,4.744-0.953,6.69c-1.404,1.947-3.682,3.103-6.11,3.103H181.351z
		"/>
	<g style="opacity:0.1;">
		<path d="M243.402,437.447v-54.746c0-11.602,9.169-21.133,20.764-21.989c-3.951-6.334-11.064-10.569-19.166-10.569
			c-12.386,0-22.461,9.895-22.461,22.059v54.746c-22.423,6.906-40.46,24.014-48.252,45.76c-0.806,2.249-0.45,4.744,0.954,6.69
			c1.403,1.946,3.68,3.103,6.109,3.103h14.065C203.343,461.092,221.224,444.278,243.402,437.447z"/>
	</g>
	<circle style="fill:#EF645E;" cx="400" cy="200" r="28"/>
	<g>
		<path style="fill:#CEE9FF;" d="M245,400.615c-51.216,0-99.776-19.273-136.733-54.267c-36.856-34.898-58.25-81.665-60.237-131.685
			c-0.08-1.999,0.673-3.942,2.085-5.385c1.411-1.441,3.359-2.256,5.396-2.256h378.98c2.037,0,3.984,0.814,5.395,2.256
			c1.413,1.442,2.164,3.386,2.085,5.385c-1.987,50.02-23.381,96.786-60.238,131.685C344.777,381.342,296.216,400.615,245,400.615z"
			/>
	</g>
	<path style="fill:#FFFFFF;" d="M349.875,341c-16.466,0-30.436,10.646-35.428,25.427C309.455,351.646,295.486,341,279.021,341
		c-16.466,0-30.435,10.646-35.428,25.427C238.601,351.646,224.632,341,208.165,341c-16.465,0-30.435,10.646-35.427,25.427
		C167.746,351.646,153.776,341,137.312,341c-9.471,0-18.111,3.526-24.697,9.331c36.377,32.465,83.151,50.284,132.386,50.284
		c48.587,0,94.776-17.356,130.943-49.014C369.21,345.044,360.018,341,349.875,341z"/>
	<path style="opacity:0.1;" d="M150.243,346.349c-36.856-34.898-58.25-81.665-60.237-131.685c-0.08-1.999,0.673-3.942,2.085-5.385
		c1.411-1.441,3.359-2.256,5.396-2.256H55.511c-2.037,0-3.985,0.814-5.396,2.256c-1.412,1.442-2.165,3.386-2.085,5.385
		c1.987,50.02,23.381,96.786,60.237,131.685c36.957,34.993,85.518,54.267,136.733,54.267c7.055,0,14.058-0.379,20.988-1.102
		C222.605,394.994,182.109,376.522,150.243,346.349z"/>
	<g>
		<path style="fill:#FFFFFF;" d="M392.918,226c-5.983,14.443-10.833,19.294-25.276,25.276c14.443,5.982,19.294,10.833,25.276,25.276
			c5.983-14.443,10.833-19.294,25.276-25.276C403.751,245.294,398.902,240.443,392.918,226z"/>
		<circle style="fill:#FFFFFF;" cx="373.152" cy="293.954" r="11.151"/>
	</g>
	<path d="M445.245,204.032c-2.573-2.627-6.084-4.21-9.756-4.458C435.259,180.195,419.433,164.5,400,164.5
		c-1.716,0-3.4,0.129-5.053,0.365c-12.135-21.951-32.736-38.742-57.474-46.09c-2.557-7.668-6.091-15.023-10.585-21.885
		c-2.272-3.465-6.92-4.432-10.384-2.165c-3.465,2.27-4.435,6.919-2.165,10.384c2.139,3.265,4.015,6.664,5.639,10.166
		c-3.479-0.372-7.012-0.57-10.59-0.57c-24.666,0-47.212,9.076-64.382,24.003c-17.172-14.93-39.725-24.003-64.394-24.003
		c-3.561,0-7.073,0.202-10.536,0.571C183.058,87.385,211.743,67.94,245,67.94c18.044,0,35.175,5.615,49.538,16.238
		c3.33,2.463,8.027,1.76,10.49-1.57c2.463-3.331,1.76-8.027-1.57-10.49c-3.811-2.818-7.794-5.321-11.907-7.534
		c0.44-3.054,0.67-6.16,0.67-9.298C292.221,24.801,271.037,0,245,0c-18.055,0-33.769,11.93-41.711,29.406
		c-2.122-1.939-4.439-3.693-6.943-5.22c-7.186-4.382-15.452-6.698-23.906-6.698c-7.835,0-15.59,2.012-22.425,5.816
		c-5.503,3.063-9.048,8.878-9.253,15.172c-0.54,16.556,7.888,32.186,21.995,40.788c3.327,2.029,6.892,3.591,10.595,4.702
		c-9.265,9.915-16.438,21.744-20.818,34.816c-12.7,3.771-24.31,10.025-34.246,18.195c-4.632-2.224-9.814-3.479-15.287-3.479
		c-19.575,0-35.5,15.925-35.5,35.5c0,3.436,0.507,6.753,1.423,9.896c-5.439,5.434-9.118,12.62-10.131,20.627h-3.281
		c-4.03,0-7.95,1.644-10.756,4.509c-2.843,2.905-4.381,6.89-4.22,10.93c0.994,25.02,6.611,49.268,16.698,72.07
		c1.675,3.789,6.105,5.498,9.893,3.825c3.789-1.676,5.501-6.105,3.825-9.893c-9.297-21.018-14.485-43.371-15.421-66.44l378.94,0.005
		c-1.947,47.992-22.504,92.865-57.893,126.374c-0.283,0.269-0.574,0.527-0.859,0.795c-7.519-5.318-16.475-8.197-25.842-8.197
		c-14.13,0-27.088,6.595-35.428,17.308c-8.34-10.713-21.298-17.308-35.427-17.308c-14.13,0-27.088,6.595-35.428,17.308
		c-8.34-10.713-21.298-17.308-35.428-17.308c-14.129,0-27.087,6.595-35.427,17.308c-8.34-10.713-21.298-17.308-35.427-17.308
		c-8.633,0-17.016,2.494-24.199,7.101c-9.553-9.085-18.137-19.123-25.512-29.85c-2.347-3.412-7.015-4.278-10.43-1.931
		c-3.413,2.347-4.277,7.016-1.931,10.429c8.052,11.71,17.429,22.66,27.87,32.546c31.062,29.41,70.015,48.116,111.929,54.17v15.645
		c-22.197,8.529-39.85,26.347-47.812,48.568c-1.639,4.574-0.916,9.661,1.931,13.605c2.807,3.893,7.365,6.217,12.193,6.217H257
		c4.143,0,7.5-3.357,7.5-7.5s-3.357-7.5-7.5-7.5l-75.569,0.007c1.197-3.301,2.677-6.47,4.376-9.507H229c4.142,0,7.5-3.357,7.5-7.5
		s-3.358-7.5-7.5-7.5h-31.71c7.603-7.456,16.989-13.161,27.456-16.385c3.146-0.969,5.292-3.876,5.292-7.168v-19.364
		c4.958,0.352,9.947,0.532,14.961,0.532c5.014,0,10.004-0.18,14.961-0.532v19.364c0,3.292,2.146,6.199,5.292,7.168
		c20.096,6.189,36.27,21.463,43.315,40.885H293c-4.143,0-7.5,3.357-7.5,7.5s3.357,7.5,7.5,7.5h15.649
		c4.828,0,9.387-2.324,12.193-6.216c2.847-3.947,3.569-9.033,1.931-13.607c-7.961-22.221-25.614-40.039-47.813-48.568v-15.645
		c41.915-6.054,80.868-24.76,111.928-54.17c38.287-36.253,60.511-84.848,62.576-136.834
		C449.625,210.916,448.086,206.933,445.245,204.032z M245,15c17.767,0,32.221,18.072,32.221,40.286c0,1.002-0.037,1.997-0.097,2.986
		C266.91,54.763,256.104,52.94,245,52.94c-11.252,0-22.058,1.9-32.12,5.37c-0.061-1.002-0.101-2.01-0.101-3.024
		C212.779,33.072,227.233,15,245,15z M155.754,38.964c0.034-1.06,0.631-2.038,1.557-2.554c4.609-2.565,9.841-3.922,15.129-3.922
		c5.698,0,11.263,1.558,16.096,4.505c4.024,2.454,7.352,5.764,9.831,9.607c-0.331,2.44-0.514,4.938-0.561,7.473l-13.901-8.477
		c-3.537-2.156-8.152-1.037-10.308,2.499c-2.157,3.536-1.038,8.151,2.499,10.308l16.169,9.859c-1.336,0.852-2.651,1.732-3.942,2.646
		c-0.552,0.03-1.105,0.057-1.66,0.057c-5.697,0-11.263-1.558-16.096-4.506C161.066,60.665,155.39,50.13,155.754,38.964z
		 M245,393.115c-44.053,0-86.054-14.824-119.87-42.01c3.802-1.701,7.946-2.605,12.182-2.605c12.834,0,24.215,8.169,28.321,20.326
		c1.029,3.049,3.888,5.101,7.105,5.101c3.217,0,6.076-2.052,7.105-5.101c4.106-12.157,15.488-20.326,28.321-20.326
		c12.834,0,24.216,8.169,28.322,20.326c1.029,3.049,3.888,5.101,7.105,5.101c3.218,0,6.076-2.052,7.105-5.101
		c4.107-12.157,15.488-20.326,28.322-20.326s24.215,8.169,28.321,20.326c1.029,3.049,3.888,5.101,7.105,5.101
		c3.218,0,6.076-2.052,7.105-5.101c4.106-12.157,15.488-20.326,28.322-20.326c4.93,0,9.689,1.197,13.941,3.447
		C330.184,378.599,288.597,393.115,245,393.115z M420.476,199.523h-40.951c0.257-11.082,9.333-20.023,20.476-20.023
		C411.143,179.5,420.219,188.441,420.476,199.523z M380.734,170.207c-9.635,6.251-16.059,17.039-16.222,29.316h-87.195
		c-2.192-18.908-10.008-36.159-21.756-50.096c14.442-12.273,33.258-19.723,53.828-19.723
		C339.858,129.705,366.497,146.023,380.734,170.207z M262.18,199.523H129.208c-1.578-12.477-9.651-22.949-20.719-27.92
		c14.02-24.945,41.074-41.898,72.123-41.898C222.24,129.705,256.729,160.152,262.18,199.523z M82.5,169
		c0-11.304,9.196-20.5,20.5-20.5c1.099,0,2.175,0.098,3.226,0.267c-5.149,5.999-9.549,12.635-13.09,19.755
		c-3.694,0.09-7.248,0.744-10.582,1.883C82.522,169.939,82.5,169.473,82.5,169z M94,183.5c9.765,0,17.943,6.868,19.993,16.023
		H74.007C76.057,190.368,84.235,183.5,94,183.5z"/>
</g>
<g>
</g>
<g>
</g>
<g>
</g>
<g>
</g>
<g>
</g>
<g>
</g>
<g>
</g>
<g>
</g>
<g>
</g>
<g>
</g>
<g>
</g>
<g>
</g>
<g>
</g>
<g>
</g>
<g>
</g>
</svg>
