<?xml version="1.0" encoding="iso-8859-1"?>
<!-- Generator: Adobe Illustrator 19.0.0, SVG Export Plug-In . SVG Version: 6.00 Build 0)  -->
<svg version="1.1" id="Layer_1" xmlns="http://www.w3.org/2000/svg" xmlns:xlink="http://www.w3.org/1999/xlink" x="0px" y="0px"
	 viewBox="0 0 490 490" style="enable-background:new 0 0 490 490;" xml:space="preserve">
<g>
	<path style="fill:#F7C677;" d="M347.438,338.249c-22.752,22.752-59.638,22.752-82.389,0L139.94,213.141
		c-22.751-22.752-22.751-59.639,0-82.389l0,0c22.751-22.752,59.638-22.752,82.389,0L347.438,255.86
		C370.188,278.61,370.188,315.497,347.438,338.249L347.438,338.249z"/>
	<path style="opacity:0.1;" d="M296.172,327.936L171.064,202.829c-22.751-22.752-22.751-59.639,0-82.389
		c2.518-2.518,5.219-4.742,8.045-6.703c-14.227,0.492-28.308,6.156-39.168,17.016c-22.751,22.75-22.751,59.637,0,82.389
		l125.108,125.107c20.233,20.234,51.635,22.457,74.343,6.703C323.815,345.491,308.063,339.829,296.172,327.936z"/>
	<path style="fill:#DDA657;" d="M317.76,226.182l-25.051,25.049c-4.519,4.52-4.518,11.846,0.002,16.365
		c4.519,4.52,11.844,4.52,16.363,0l25.05-25.051L317.76,226.182z"/>
	<path style="fill:#DDA657;" d="M275.938,184.36l-25.049,25.051c-4.52,4.518-4.519,11.844,0,16.363c4.52,4.52,11.846,4.52,16.365,0
		l25.049-25.049L275.938,184.36z"/>
	<path style="fill:#DDA657;" d="M234.117,142.54l-25.05,25.049c-4.519,4.52-4.519,11.846,0.001,16.363
		c4.518,4.521,11.846,4.521,16.363,0.002l25.05-25.049L234.117,142.54z"/>
	<g>
		<path style="fill:#EFB259;" d="M49.894,338.348c-3.025,0-5.899-1.318-7.872-3.608c-1.975-2.291-2.854-5.328-2.408-8.32
			c7.646-51.268,63.561-89.928,130.064-89.928c66.504,0,122.42,38.66,130.064,89.928c0.446,2.992-0.432,6.029-2.406,8.32
			c-1.975,2.289-4.85,3.608-7.873,3.608H49.894z"/>
		<path style="opacity:0.1;" d="M73.165,334.741c-1.975-2.291-2.854-5.328-2.408-8.32c7.041-47.209,55.014-83.727,114.493-89.213
			c-5.112-0.471-10.309-0.715-15.572-0.715c-66.503,0-122.418,38.66-130.064,89.928c-0.445,2.992,0.434,6.029,2.408,8.32
			c1.974,2.289,4.848,3.608,7.872,3.608h31.144C78.013,338.348,75.139,337.03,73.165,334.741z"/>
		<path style="fill:#D1923F;" d="M231.678,276.348c6.076,0,11-4.924,11-11v-11.605c-6.902-3.602-14.268-6.699-22-9.24v20.846
			C220.678,271.424,225.604,276.348,231.678,276.348z"/>
		<path style="fill:#D1923F;" d="M169.678,276.348c6.076,0,11-4.924,11-11v-28.494c-3.63-0.234-7.297-0.361-11-0.361
			c-3.701,0-7.369,0.127-11,0.361v28.494C158.678,271.424,163.604,276.348,169.678,276.348z"/>
		<path style="fill:#D1923F;" d="M107.678,276.348c6.076,0,11-4.924,11-11v-20.846c-7.732,2.541-15.096,5.639-22,9.24v11.605
			C96.678,271.424,101.604,276.348,107.678,276.348z"/>
	</g>
	<path style="fill:#FFEA92;" d="M389.641,310.325c0,4.623-3.748,8.371-8.371,8.371h-38.509c-4.624,0-8.371-3.748-8.371-8.371v-38.51
		c0-4.623,3.747-8.371,8.371-8.371h38.509c4.623,0,8.371,3.748,8.371,8.371V310.325z"/>
	<path style="fill:#FFE060;" d="M429.25,277.792c3.27,3.27,3.27,8.57,0,11.838l-27.228,27.23c-3.27,3.27-8.57,3.27-11.84,0
		l-27.23-27.23c-3.268-3.268-3.27-8.568,0-11.838l27.23-27.23c3.27-3.27,8.57-3.27,11.84,0L429.25,277.792z"/>
	<path style="fill:#3585B7;" d="M440.5,288.383h-118c-5.523,0-10,4.477-10,10v3c0,5.521,4.477,10,10,10h0.714v41.928h116.572
		v-41.928h0.714c5.523,0,10-4.479,10-10v-3C450.5,292.86,446.023,288.383,440.5,288.383z"/>
	<path style="opacity:0.1;" d="M343.714,322v-33.617H322.5c-5.523,0-10,4.477-10,10v3c0,5.521,4.477,10,10,10h0.714v41.928h116.572
		V322H343.714z"/>
	<path style="fill:#C7B299;" d="M482.5,366.311c0,5.523-4.477,10-10,10h-455c-5.523,0-10-4.477-10-10v-18c0-5.521,4.477-10,10-10
		h455c5.523,0,10,4.479,10,10V366.311z"/>
	<path style="opacity:0.1;" d="M48,366.311v-18c0-5.521,4.477-10,10-10H17.5c-5.523,0-10,4.479-10,10v18c0,5.523,4.477,10,10,10H58
		C52.477,376.311,48,371.835,48,366.311z"/>
	<path d="M472.5,330.811h-25.214v-13.297c6.289-2.656,10.714-8.887,10.714-16.131v-3c0-9.649-7.851-17.5-17.5-17.5h-1.56
		c-0.566-3.162-2.068-6.076-4.387-8.395l-27.229-27.232c-2.998-2.997-6.984-4.648-11.224-4.648c-4.239,0-8.226,1.651-11.224,4.649
		l-10.685,10.686h-16.639c-1.489-1.861-129.921-130.494-129.921-130.494c-12.42-12.421-28.934-19.261-46.498-19.261
		c-17.564,0-34.078,6.84-46.497,19.26c-25.64,25.638-25.64,67.355-0.001,92.996l12.055,12.054
		c-59.736,7.891-107.218,46.021-114.496,94.817c-0.274,1.845-0.246,3.695,0.045,5.495H17.5c-9.649,0-17.5,7.851-17.5,17.5v18
		c0,9.65,7.851,17.5,17.5,17.5h363.499c4.143,0,7.5-3.357,7.5-7.5c0-4.143-3.357-7.5-7.5-7.5H17.5c-1.379,0-2.5-1.121-2.5-2.5v-18
		c0-1.379,1.121-2.5,2.5-2.5h455c1.379,0,2.5,1.121,2.5,2.5v18c0,1.379-1.121,2.5-2.5,2.5h-60.501c-4.143,0-7.5,3.357-7.5,7.5
		c0,4.143,3.357,7.5,7.5,7.5H472.5c9.649,0,17.5-7.85,17.5-17.5v-18C490,338.662,482.149,330.811,472.5,330.811z M395.485,255.865
		c0.169-0.17,0.377-0.256,0.616-0.256c0.239,0,0.447,0.086,0.616,0.255l25.017,25.02h-51.268L395.485,255.865z M341.89,271.815
		c0-0.48,0.391-0.871,0.871-0.871h16.432l-1.544,1.544c-2.318,2.319-3.82,5.233-4.387,8.396H341.89V271.815z M323.517,242.546
		l-19.746,19.746c-1.691,1.694-4.542,1.527-6.044-0.324c-1.293-1.592-1.163-3.984,0.285-5.434l19.747-19.746L323.517,242.546z
		 M281.695,200.725L261.95,220.47c-1.567,1.569-4.19,1.569-5.758,0.001c-1.569-1.569-1.569-4.189,0-5.758l19.745-19.746
		L281.695,200.725z M234.116,153.147l5.759,5.758l-19.748,19.747c-1.535,1.535-4.064,1.566-5.649,0.096
		c-1.666-1.546-1.715-4.247-0.108-5.856L234.116,153.147z M104.178,258.329c2.285-1.093,4.619-2.129,7-3.106v10.126
		c0,1.93-1.57,3.5-3.5,3.5c-1.93,0-3.5-1.57-3.5-3.5V258.329z M315.714,330.811h-8.599c0.291-1.801,0.32-3.651,0.045-5.496
		c-2.149-14.417-7.771-28.098-16.71-40.66c-2.4-3.376-7.084-4.166-10.459-1.764c-3.375,2.401-4.165,7.084-1.764,10.459
		c7.557,10.62,12.299,22.118,14.097,34.177c0.125,0.835-0.119,1.68-0.667,2.315c-0.476,0.551-1.14,0.883-1.853,0.969H49.551
		c-1.601-0.193-2.759-1.68-2.52-3.284c3.646-24.451,19.323-45.813,42.216-60.814c0.703,9.564,8.69,17.136,18.431,17.136
		c10.201,0,18.5-8.299,18.5-18.5v-15.334c7.985-2.293,16.353-3.971,25-4.963v20.297c0,10.201,8.299,18.5,18.5,18.5
		c10.201,0,18.5-8.299,18.5-18.5v-20.281c8.576,0.994,16.951,2.672,25,4.99v15.291c0,10.201,8.299,18.5,18.5,18.5
		c9.716,0,17.688-7.532,18.427-17.063c4.589,3.012,8.92,6.289,12.938,9.831c3.108,2.739,7.847,2.44,10.586-0.666
		c2.739-3.107,2.44-7.847-0.666-10.586c-26.222-23.115-63.867-36.372-103.285-36.372c-1.086,0-2.169,0.01-3.249,0.03l-21.185-21.185
		c-19.791-19.792-19.791-51.993,0-71.783c9.587-9.587,22.333-14.866,35.891-14.866c13.558,0,26.304,5.279,35.891,14.867l6.484,6.484
		l-19.746,19.745c-3.602,3.602-5.585,8.392-5.585,13.485c0,5.095,1.984,9.884,5.584,13.482c3.602,3.604,8.392,5.59,13.486,5.591
		c0,0,0.001,0,0.002,0c5.095,0,9.884-1.984,13.483-5.586l19.746-19.746l14.85,14.85l-19.743,19.745
		c-3.604,3.602-5.588,8.391-5.588,13.486c0.001,5.093,1.984,9.882,5.586,13.485c3.719,3.718,8.602,5.577,13.486,5.577
		c4.884,0,9.768-1.859,13.486-5.577l19.745-19.745l14.85,14.85l-19.747,19.746c-7.435,7.437-7.434,19.535,0.002,26.971
		c3.602,3.603,8.391,5.587,13.485,5.587c5.094,0,9.883-1.984,13.485-5.587l19.745-19.746l3.618,3.618
		c-6.296,2.107-10.852,8.049-10.852,15.044v9.068h-4.39c-9.649,0-17.5,7.851-17.5,17.5v3c0,7.244,4.425,13.475,10.714,16.131
		V330.811z M166.178,265.348v-21.314c1.163-0.024,2.329-0.041,3.5-0.041c1.169,0,2.335,0.014,3.5,0.039v21.316
		c0,1.93-1.57,3.5-3.5,3.5S166.178,267.278,166.178,265.348z M228.178,265.348v-10.071c2.374,0.977,4.711,2.009,7,3.105v6.967
		c0,1.93-1.57,3.5-3.5,3.5S228.178,267.278,228.178,265.348z M443,301.383c0,1.379-1.121,2.5-2.5,2.5h-8.214v26.928H418v-14.5
		c0-4.143-3.357-7.5-7.5-7.5s-7.5,3.357-7.5,7.5v14.5h-14v-14.5c0-4.143-3.357-7.5-7.5-7.5s-7.5,3.357-7.5,7.5v14.5h-14v-14.5
		c0-4.143-3.357-7.5-7.5-7.5s-7.5,3.357-7.5,7.5v14.5h-14.286v-26.928H322.5c-1.379,0-2.5-1.121-2.5-2.5v-3
		c0-1.379,1.121-2.5,2.5-2.5h118c1.379,0,2.5,1.121,2.5,2.5V301.383z"/>
</g>
<g>
</g>
<g>
</g>
<g>
</g>
<g>
</g>
<g>
</g>
<g>
</g>
<g>
</g>
<g>
</g>
<g>
</g>
<g>
</g>
<g>
</g>
<g>
</g>
<g>
</g>
<g>
</g>
<g>
</g>
</svg>
