<?xml version="1.0" encoding="iso-8859-1"?>
<!-- Generator: Adobe Illustrator 19.0.0, SVG Export Plug-In . SVG Version: 6.00 Build 0)  -->
<svg version="1.1" id="Layer_1" xmlns="http://www.w3.org/2000/svg" xmlns:xlink="http://www.w3.org/1999/xlink" x="0px" y="0px"
	 viewBox="0 0 490 490" style="enable-background:new 0 0 490 490;" xml:space="preserve">
<g>
	<g>
		<path style="fill:#B0CE6F;" d="M85.641,331.503c-12.805-5.211-21.867-16.99-23.65-30.743c-0.477-3.671,1.008-7.319,3.91-9.616
			c10.875-8.605,25.584-10.717,38.393-5.51c12.805,5.21,21.869,16.987,23.65,30.742c0.477,3.67-1.008,7.318-3.908,9.613
			C113.158,334.597,98.447,336.709,85.641,331.503z"/>
	</g>
	<g>
		<circle style="fill:#FFF5CA;" cx="215" cy="182.061" r="23"/>
		<circle style="fill:#FFF5CA;" cx="283" cy="182.061" r="23"/>
	</g>
	<path style="fill:#FB8C3B;" d="M384.334,280.061c0,52.467-42.533,95-95,95h-80c-52.467,0-95-42.533-95-95v-2
		c0-52.467,42.533-95,95-95h80c52.467,0,95,42.533,95,95V280.061z"/>
	<path style="opacity:0.1;" d="M155,280.061v-2c0-52.467,42.533-95,95-95h-40.666c-52.467,0-95,42.533-95,95v2
		c0,52.467,42.533,95,95,95H250C197.533,375.061,155,332.528,155,280.061z"/>
	<g>
		<path style="fill:#B0CE6F;" d="M127.045,284.261c5.207-12.805,16.986-21.869,30.74-23.65c3.67-0.477,7.32,1.007,9.617,3.91
			c8.604,10.875,10.717,25.585,5.508,38.392c-5.207,12.806-16.986,21.87-30.74,23.652c-3.67,0.476-7.318-1.009-9.613-3.909
			C123.947,311.78,121.836,297.067,127.045,284.261z"/>
	</g>
	<circle style="fill:#EF645E;" cx="395.736" cy="319.061" r="32.361"/>
	<path style="fill:#C69C6D;" d="M30.961,331.061l7.135,51.376c0.686,4.943,4.914,8.624,9.904,8.624h394
		c4.992,0,9.219-3.681,9.906-8.624l7.135-51.376H30.961z"/>
	<path style="opacity:0.1;" d="M78.596,382.437l-7.135-51.376h-40.5l7.135,51.376c0.686,4.943,4.914,8.624,9.904,8.624h40.5
		C83.51,391.061,79.281,387.38,78.596,382.437z"/>
	<path style="fill:#C69C6D;" d="M482.5,338.932c0,8.766-7.105,15.871-15.871,15.871H23.371c-8.766,0-15.871-7.105-15.871-15.871l0,0
		c0-8.766,7.106-15.871,15.871-15.871h443.258C475.395,323.061,482.5,330.166,482.5,338.932L482.5,338.932z"/>
	<path style="opacity:0.1;" d="M48,338.932c0-8.766,7.105-15.871,15.871-15.871h-40.5c-8.766,0-15.871,7.105-15.871,15.871
		c0,8.766,7.106,15.871,15.871,15.871h40.5C55.105,354.803,48,347.698,48,338.932z"/>
	<g>
		<g>
			<path style="fill:#FB8C3B;" d="M459.668,186.777c9.742-9.742,16.492-22.015,19.006-34.556c0.555-2.773-0.361-5.638-2.424-7.572
				c-2.063-1.936-4.98-2.668-7.713-1.936l-42.314,11.339c-0.703,0.188-1.461-0.014-1.977-0.528
				c-0.514-0.516-0.719-1.271-0.527-1.976l11.336-42.317c0.734-2.732,0.002-5.648-1.932-7.712c-1.938-2.062-4.801-2.979-7.574-2.423
				c-12.541,2.513-24.813,9.263-34.555,19.005c-23.318,23.319-26.887,57.694-7.953,76.627
				C401.975,213.663,436.352,210.094,459.668,186.777z"/>
		</g>
	</g>
	<g style="opacity:0.1;">
		<path d="M403.208,204.79c-18.934-18.933-15.365-53.308,7.953-76.627c6.702-6.702,14.601-11.987,22.961-15.452l0.933-3.48
			c0.734-2.732,0.002-5.648-1.932-7.712c-1.938-2.062-4.801-2.979-7.574-2.423c-12.541,2.513-24.813,9.263-34.555,19.005
			c-23.318,23.319-26.887,57.694-7.953,76.627c5.902,5.903,13.308,9.618,21.41,11.23
			C404.033,205.575,403.612,205.195,403.208,204.79z"/>
	</g>
	<g>
		<g>
			<path style="fill:#FB8C3B;" d="M38.998,186.777c-9.742-9.742-16.492-22.015-19.006-34.556c-0.555-2.773,0.361-5.638,2.424-7.572
				c2.063-1.936,4.98-2.668,7.713-1.936l42.314,11.339c0.703,0.188,1.461-0.014,1.977-0.528c0.514-0.516,0.719-1.271,0.527-1.976
				l-11.336-42.317c-0.734-2.732-0.002-5.648,1.932-7.712c1.938-2.062,4.801-2.979,7.574-2.423
				c12.541,2.513,24.813,9.263,34.555,19.005c23.318,23.319,26.887,57.694,7.953,76.627
				C96.691,213.663,62.314,210.094,38.998,186.777z"/>
		</g>
	</g>
	<g style="opacity:0.1;">
		<path d="M59.213,175.885c-8.607-8.607-14.875-19.191-17.953-30.189l-11.131-2.982c-2.732-0.732-5.65,0-7.713,1.936
			c-2.063,1.935-2.979,4.799-2.424,7.572c2.514,12.541,9.266,24.813,19.008,34.556c23.278,23.279,57.576,26.871,76.529,8.041
			C97.422,198.883,75.592,192.265,59.213,175.885z"/>
	</g>
	<g>
		<path d="M466.629,315.561h-31.193c-1.78-20.346-18.9-36.361-39.699-36.361c-1.316,0-2.618,0.068-3.902,0.193v-1.332
			c0-1.55-0.041-3.09-0.109-4.623c6.625-4.471,14.43-6.877,22.609-6.877c4.143,0,7.5-3.358,7.5-7.5c0-4.143-3.358-7.5-7.5-7.5
			c-8.688,0.001-17.061,1.991-24.615,5.738c-0.824-3.994-1.885-7.902-3.16-11.712c7.539-7.112,17.351-11.025,27.775-11.025
			c4.143,0,7.5-3.358,7.5-7.5c0-4.143-3.358-7.5-7.5-7.5c-12.438,0.001-24.235,4.069-33.9,11.553
			c-2.588-5.003-5.582-9.762-8.929-14.243l11.969-11.968c8.542,6.157,19.167,9.486,30.626,9.486c0.001,0,0,0,0.001,0
			c18.15,0,36.693-8.132,50.871-22.31c10.776-10.777,18.255-24.409,21.057-38.389c2.24-11.203-8.388-21.182-19.433-18.223
			l-33.188,8.893l8.89-33.185c2.961-11.02-7.011-21.688-18.223-19.435c-13.975,2.8-27.606,10.277-38.385,21.056
			c-12.491,12.491-20.296,28.291-21.978,44.487c-1.452,13.994,1.787,26.866,9.152,37.014l-11.211,11.211
			c-13.13-13.09-29.777-22.646-48.383-27.118c-1.818-15.093-14.696-26.831-30.272-26.831c-14.587,0-26.809,10.296-29.796,24h-8.408
			c-2.987-13.704-15.209-24-29.796-24c-15.633,0-28.549,11.824-30.293,26.998c-18.33,4.538-34.725,14.027-47.692,26.953
			l-11.214-11.214c7.366-10.147,10.605-23.018,9.152-37.013c-1.682-16.196-9.486-31.996-21.977-44.488
			c-10.778-10.777-24.41-18.255-38.383-21.055c-11.207-2.248-21.189,8.406-18.226,19.429l8.891,33.19l-33.187-8.893
			c-11.047-2.96-21.672,7.022-19.432,18.226c2.801,13.977,10.279,27.608,21.056,38.385c14.179,14.179,32.72,22.31,50.872,22.31
			c11.459,0,22.084-3.33,30.626-9.486l11.977,11.976c-3.418,4.578-6.45,9.457-9.078,14.576c-9.44-7.438-21.333-11.893-34.257-11.894
			c-4.142,0-7.5,3.357-7.5,7.5c0,4.142,3.357,7.5,7.5,7.5c10.938,0.001,20.859,4.375,28.152,11.448
			c-1.244,3.764-2.279,7.621-3.084,11.563c-7.534-3.837-16.05-6.012-25.068-6.012c-4.142,0-7.5,3.357-7.5,7.5
			c0,4.142,3.357,7.5,7.5,7.5c8.58,0,16.533,2.695,23.087,7.267c-0.058,1.404-0.087,2.815-0.087,4.233v0.518
			c-5.416-2.16-11.123-3.261-16.974-3.261c-10.348,0-20.509,3.531-28.614,9.945c-4.94,3.909-7.504,10.217-6.693,16.462
			c0.632,4.87,2.037,9.526,4.094,13.836H23.371C10.484,315.561,0,326.045,0,338.932c0,12.887,10.484,23.371,23.371,23.371h4.357
			l2.938,21.164c1.193,8.604,8.645,15.094,17.333,15.094h65c4.143,0,7.5-3.357,7.5-7.5c0-4.143-3.357-7.5-7.5-7.5H48
			c-1.241,0-2.305-0.926-2.476-2.155l-2.653-19.102h310.128c4.143,0,7.5-3.357,7.5-7.5c0-4.143-3.357-7.5-7.5-7.5H23.371
			c-4.616,0-8.371-3.755-8.371-8.371c0-4.616,3.755-8.371,8.371-8.371h443.258c4.616,0,8.371,3.755,8.371,8.371
			c0,4.616-3.755,8.371-8.371,8.371H391c-4.143,0-7.5,3.357-7.5,7.5c0,4.143,3.357,7.5,7.5,7.5h56.131l-2.653,19.101
			c-0.171,1.229-1.236,2.157-2.478,2.157H148c-4.143,0-7.5,3.357-7.5,7.5c0,4.143,3.357,7.5,7.5,7.5h294
			c8.685,0,16.139-6.487,17.335-15.093l2.939-21.165h4.354c12.887,0,23.371-10.484,23.371-23.371
			C490,326.045,479.516,315.561,466.629,315.561z M378.633,158.833c1.327-12.782,7.601-25.364,17.665-35.429
			c8.708-8.709,19.619-14.729,30.727-16.955c0.044-0.009,0.089-0.014,0.133-0.014c0.188,0,0.37,0.08,0.493,0.211
			c0.162,0.173,0.222,0.411,0.16,0.644c0,0-11.531,43.192-11.586,43.648l-6.599,6.599c-2.73,2.731-2.912,7.241-0.398,10.177
			c2.804,3.276,7.955,3.479,11.006,0.431l6.603-6.602c0.447-0.051,43.643-11.584,43.643-11.584c0.156-0.043,0.368-0.093,0.641,0.162
			c0.17,0.158,0.246,0.4,0.201,0.628c-2.227,11.107-8.248,22.019-16.956,30.727c-11.386,11.386-26.062,17.917-40.264,17.916
			c-10.331,0-19.237-3.446-25.757-9.966C380.815,181.896,377.367,171.033,378.633,158.833
			C379.96,146.051,377.367,171.033,378.633,158.833z M110.321,189.425c-6.519,6.52-15.425,9.965-25.755,9.965
			c-14.203,0-28.879-6.53-40.265-17.917c-8.708-8.707-14.729-19.619-16.955-30.723c-0.046-0.23,0.03-0.473,0.202-0.633
			c0.17-0.159,0.363-0.184,0.464-0.184c0.059,0,0.117,0.008,0.175,0.024c0,0,43.195,11.533,43.643,11.584l6.603,6.602
			c3.051,3.049,8.201,2.846,11.006-0.431c2.513-2.936,2.332-7.446-0.398-10.177l-6.595-6.595
			c-0.054-0.447-11.591-43.657-11.591-43.657c-0.061-0.227-0.001-0.465,0.153-0.629c0.161-0.173,0.393-0.252,0.636-0.206
			c11.105,2.226,22.017,8.246,30.725,16.954c10.064,10.065,16.338,22.647,17.665,35.43
			C121.299,171.033,117.851,181.896,110.321,189.425C103.803,195.945,117.851,181.896,110.321,189.425z M98.28,301.818
			c-3.836-1.563-8.213,0.285-9.772,4.122c-1.516,3.725,0.187,7.949,3.798,9.621H76.289c-3.658-4.434-6.096-9.868-6.861-15.767
			c-0.137-1.05,0.296-2.111,1.127-2.769c5.466-4.326,12.322-6.708,19.306-6.708c4.006,0,7.911,0.762,11.606,2.264
			c2.399,0.977,4.631,2.245,6.666,3.749c0.566,3.53,1.315,7.001,2.234,10.402L98.28,301.818z M283,166.561
			c6.342,0,11.799,3.832,14.196,9.299c-2.595-0.198-5.218-0.299-7.862-0.299h-20.386C271.412,170.256,276.776,166.561,283,166.561z
			 M215,166.561c6.224,0,11.588,3.695,14.052,9h-19.718c-2.883,0-5.736,0.126-8.561,0.36
			C203.157,170.421,208.634,166.561,215,166.561z M165.963,300.087c-2.724,6.696-7.691,12.105-13.869,15.474h-2.955l7.588-18.661
			c1.561-3.837-0.285-8.213-4.122-9.772c-3.841-1.564-8.212,0.286-9.773,4.122l-8.281,20.367c-3.503-7.673-3.802-16.559-0.559-24.53
			c4.192-10.309,13.678-17.603,24.759-19.038c0.13-0.017,0.262-0.025,0.393-0.025c0.932,0,1.798,0.42,2.377,1.151
			C168.452,277.936,170.154,289.782,165.963,300.087z M356.045,315.561H174.349c2.207-3.003,4.072-6.289,5.509-9.822
			c6.224-15.303,3.705-32.879-6.573-45.871c-3.903-4.933-10.221-7.506-16.462-6.694c-15.056,1.949-28.113,11.221-34.983,24.534
			c0.191-48.086,39.365-87.146,87.495-87.146h80c48.248,0,87.5,39.252,87.5,87.5c0.009,1.99-0.008,3.979-0.1,5.967
			C365.29,290.26,357.237,301.943,356.045,315.561z M371.126,315.561c1.707-12.057,12.09-21.361,24.61-21.361
			s22.903,9.305,24.61,21.361H371.126z"/>
	</g>
</g>
<g>
</g>
<g>
</g>
<g>
</g>
<g>
</g>
<g>
</g>
<g>
</g>
<g>
</g>
<g>
</g>
<g>
</g>
<g>
</g>
<g>
</g>
<g>
</g>
<g>
</g>
<g>
</g>
<g>
</g>
</svg>
