<?xml version="1.0" encoding="iso-8859-1"?>
<!-- Generator: Adobe Illustrator 19.0.0, SVG Export Plug-In . SVG Version: 6.00 Build 0)  -->
<svg version="1.1" id="Layer_1" xmlns="http://www.w3.org/2000/svg" xmlns:xlink="http://www.w3.org/1999/xlink" x="0px" y="0px"
	 viewBox="0 0 490 490" style="enable-background:new 0 0 490 490;" xml:space="preserve">
<g>
	<g>
		<path style="fill:#F9EBCF;" d="M132.648,482.5c-5.523,0-10-4.478-10-10v-455c0-5.523,4.477-10,10-10h224.705
			c5.523,0,10,4.477,10,10v455c0,5.522-4.477,10-10,10H132.648z"/>
		<path style="opacity:0.1;" d="M143.295,38c0-5.522,4.477-10,10-10h214.058V17.5c0-5.523-4.477-10-10-10H132.648
			c-5.523,0-10,4.477-10,10v455c0,5.522,4.477,10,10,10h10.647V38z"/>
		<path style="fill:#8C6239;" d="M223.108,300.235v-52.65c0-6.075-5.033-11.002-11.239-11.002h-11.237
			c-6.206,0-11.237,4.927-11.237,11.002v86.435L223.108,300.235z"/>
		<g>
			<path style="fill:#C5CCCC;" d="M167.352,136.842v27.721c0,4.784,3.871,8.662,8.645,8.662h60.509c4.773,0,8.644-3.878,8.644-8.662
				v-27.721H167.352z"/>
		</g>
		<path style="opacity:0.1;" d="M188,164.563v-27.721h-20.648v27.721c0,4.784,3.871,8.662,8.645,8.662h20.647
			C191.871,173.225,188,169.347,188,164.563z"/>
		<path style="fill:#F7EEDF;" d="M122.647,400.909v71.936c0,5.332,4.313,9.654,9.634,9.654h225.438c5.321,0,9.634-4.322,9.634-9.654
			V155.685L122.647,400.909z"/>
		<path style="fill:#C5CCCC;" d="M322.647,200.484v-76.07c0-47.643-24.15-79.262-53.941-79.262v209.389L322.647,200.484z"/>
		<path style="opacity:0.1;" d="M154,472.846V369.49l-31.353,31.419v71.936c0,5.332,4.313,9.654,9.634,9.654h31.353
			C158.313,482.5,154,478.178,154,472.846z"/>
		<ellipse style="fill:#FFFFFF;" cx="310.512" cy="368.577" rx="29.866" ry="29.929"/>
		<path style="opacity:0.1;" d="M289.353,233.85V50.65c-6.361-3.582-13.332-5.498-20.647-5.498v209.389L289.353,233.85z"/>
	</g>
	<g>
		<path d="M310.512,406.006c20.604,0,37.366-16.79,37.366-37.429c0-20.639-16.762-37.429-37.366-37.429
			c-20.603,0-37.366,16.79-37.366,37.429C273.146,389.216,289.908,406.006,310.512,406.006z M310.512,346.148
			c12.333,0,22.366,10.062,22.366,22.429c0,12.367-10.033,22.429-22.366,22.429c-12.332,0-22.366-10.062-22.366-22.429
			C288.146,356.21,298.179,346.148,310.512,346.148z"/>
		<path d="M331.707,415.143h-42.39c-4.142,0-7.5,3.357-7.5,7.5c0,4.143,3.358,7.5,7.5,7.5h42.39c4.142,0,7.5-3.357,7.5-7.5
			C339.207,418.5,335.849,415.143,331.707,415.143z"/>
		<path d="M323.085,438.313h-25.146c-4.142,0-7.5,3.357-7.5,7.5s3.358,7.5,7.5,7.5h25.146c4.142,0,7.5-3.357,7.5-7.5
			S327.227,438.313,323.085,438.313z"/>
		<path d="M367.353,81.5c4.142,0,7.5-3.357,7.5-7.5V17.5c0-9.649-7.85-17.5-17.5-17.5H132.648c-9.65,0-17.5,7.851-17.5,17.5v455
			c0,9.649,7.851,17.5,17.5,17.5h224.705c9.649,0,17.5-7.851,17.5-17.5V105.999c0-4.143-3.358-7.5-7.5-7.5
			c-4.142,0-7.5,3.357-7.5,7.5v46.583l-29.705,29.769v-57.937c0-24.493-5.936-45.869-17.167-61.816
			c-11.33-16.087-27.053-24.946-44.274-24.946c-4.142,0-7.5,3.357-7.5,7.5v206.286l-30.598,30.663v-34.516
			c0-9.574-7.405-17.473-16.857-18.408v-48.453h22.755c8.902,0,16.144-7.25,16.144-16.162V45.152c0-4.143-3.358-7.5-7.5-7.5
			c-4.142,0-7.5,3.357-7.5,7.5v84.189h-11.187V45.152c0-4.143-3.358-7.5-7.5-7.5c-4.142,0-7.5,3.357-7.5,7.5v84.189h-10.425V45.152
			c0-4.143-3.358-7.5-7.5-7.5c-4.142,0-7.5,3.357-7.5,7.5v84.189h-11.186V45.152c0-4.143-3.358-7.5-7.5-7.5
			c-4.142,0-7.5,3.357-7.5,7.5v119.41c0,8.912,7.242,16.162,16.145,16.162h22.754v48.453c-9.452,0.935-16.857,8.833-16.857,18.408
			v83.332l-51.747,51.857V17.5c0-1.379,1.121-2.5,2.5-2.5h224.705c1.378,0,2.5,1.121,2.5,2.5V74
			C359.853,78.143,363.21,81.5,367.353,81.5z M276.206,53.501c9.313,2.136,17.83,8.248,24.511,17.734
			c9.306,13.214,14.431,32.1,14.431,53.179v72.969l-38.941,39.023V53.501z M175.997,165.725c-0.631,0-1.145-0.521-1.145-1.162
			v-20.221h62.798v20.221c0,0.641-0.513,1.162-1.144,1.162H175.997z M196.895,247.586c0-1.931,1.676-3.502,3.737-3.502h11.237
			c2.062,0,3.739,1.571,3.739,3.502v49.548l-18.713,18.753V247.586z M359.853,173.819v19.312L186.649,366.702
			c-2.926,2.933-2.92,7.681,0.011,10.607c1.464,1.461,3.381,2.191,5.298,2.191c1.922,0,3.844-0.734,5.309-2.202l162.585-162.931
			V472.5c0,1.379-1.122,2.5-2.5,2.5H132.648c-1.379,0-2.5-1.121-2.5-2.5v-27.94l45.166-45.263c2.926-2.933,2.92-7.681-0.011-10.607
			c-2.933-2.926-7.681-2.922-10.607,0.011l-34.548,34.622v-19.313L359.853,173.819z"/>
	</g>
</g>
<g>
</g>
<g>
</g>
<g>
</g>
<g>
</g>
<g>
</g>
<g>
</g>
<g>
</g>
<g>
</g>
<g>
</g>
<g>
</g>
<g>
</g>
<g>
</g>
<g>
</g>
<g>
</g>
<g>
</g>
</svg>
