<?xml version="1.0" encoding="iso-8859-1"?>
<!-- Generator: Adobe Illustrator 19.0.0, SVG Export Plug-In . SVG Version: 6.00 Build 0)  -->
<svg version="1.1" id="Layer_1" xmlns="http://www.w3.org/2000/svg" xmlns:xlink="http://www.w3.org/1999/xlink" x="0px" y="0px"
	 viewBox="0 0 490 490" style="enable-background:new 0 0 490 490;" xml:space="preserve">
<g>
	<g>
		<path style="fill:#C69C6D;" d="M272.501,32.907c-15.783,5.323-20.101,9.638-25.428,25.408
			c-5.327-15.771-9.645-20.085-25.428-25.408c15.783-5.321,20.101-9.636,25.428-25.407C252.4,23.271,256.718,27.586,272.501,32.907z
			"/>
		<path style="fill:#FFCC60;" d="M272.501,32.907c-15.783,5.323-20.101,9.638-25.428,25.408
			c-5.327-15.771-9.645-20.085-25.428-25.408c15.783-5.321,20.101-9.636,25.428-25.407C252.4,23.271,256.718,27.586,272.501,32.907z
			"/>
	</g>
	<g>
		<path style="fill:#C69C6D;" d="M355.94,105.407c-15.783,5.322-20.101,9.636-25.427,25.407
			c-5.328-15.771-9.645-20.085-25.428-25.407c15.783-5.322,20.1-9.637,25.428-25.407C335.839,95.771,340.157,100.085,355.94,105.407
			z"/>
		<path style="fill:#FFCC60;" d="M355.94,105.407c-15.783,5.322-20.101,9.636-25.427,25.407
			c-5.328-15.771-9.645-20.085-25.428-25.407c15.783-5.322,20.1-9.637,25.428-25.407C335.839,95.771,340.157,100.085,355.94,105.407
			z"/>
	</g>
	<g>
		<path style="fill:#FFCC60;" d="M196.417,99.866c-19.352,6.526-24.646,11.817-31.178,31.154
			c-6.532-19.337-11.827-24.628-31.179-31.154c19.352-6.525,24.647-11.816,31.179-31.154
			C171.771,88.05,177.065,93.341,196.417,99.866z"/>
	</g>
	<path style="fill:#CCCCCC;" d="M211.777,267.258c-56.734,0-102.887-46.25-102.887-103.098c0-3.955,3.2-7.16,7.146-7.16h257.931
		c3.944,0,7.144,3.205,7.144,7.16c0,56.848-46.154,103.098-102.887,103.098H211.777z"/>
	<path style="opacity:0.1;" d="M140,164.16c0-3.955,3.2-7.16,7.146-7.16h-31.11c-3.946,0-7.146,3.205-7.146,7.16
		c0,56.848,46.153,103.098,102.887,103.098h31.11C186.153,267.258,140,221.008,140,164.16z"/>
	<path style="fill:#CEE9FF;" d="M381.11,203.13c0-3.954-3.2-7.16-7.144-7.16H116.036c-3.946,0-7.146,3.206-7.146,7.16
		c0,47.324,31.986,87.298,75.432,99.365v11.345c0,6.715,5.433,12.16,12.136,12.16h97.086c6.702,0,12.136-5.445,12.136-12.16v-11.345
		C349.125,290.427,381.11,250.453,381.11,203.13z"/>
	<path style="opacity:0.1;" d="M140,203.13c0-3.954,3.2-7.16,7.146-7.16h-31.11c-3.946,0-7.146,3.206-7.146,7.16
		c0,56.849,46.153,103.099,102.887,103.099h31.11C186.153,306.228,140,259.978,140,203.13z"/>
	<path style="fill:#F2EBAA;" d="M56.959,342.183c8.674,24.949,32.388,42.868,60.312,42.868h255.457
		c27.925,0,51.637-17.919,60.313-42.868H56.959z"/>
	<path style="fill:#CEE9FF;" d="M56.959,391.193c8.674,24.949,32.388,42.869,60.312,42.869h255.457
		c27.925,0,51.637-17.92,60.313-42.869H56.959z"/>
	<path style="fill:#F2EBAA;" d="M470.315,339.965c0,8.309-6.741,15.045-15.057,15.045H34.742c-8.316,0-15.057-6.736-15.057-15.045
		l0,0c0-8.309,6.741-15.046,15.057-15.046h420.516C463.574,324.919,470.315,331.656,470.315,339.965L470.315,339.965z"/>
	<path style="opacity:0.1;" d="M61.37,339.965c0-8.309,6.741-15.046,15.057-15.046H34.742c-8.316,0-15.057,6.737-15.057,15.046
		c0,8.309,6.741,15.045,15.057,15.045h41.685C68.111,355.01,61.37,348.273,61.37,339.965z"/>
	<path style="fill:#CEE9FF;" d="M470.315,388.875c0,8.309-6.741,15.045-15.057,15.045H34.742c-8.316,0-15.057-6.736-15.057-15.045
		l0,0c0-8.31,6.741-15.047,15.057-15.047h420.516C463.574,373.828,470.315,380.565,470.315,388.875L470.315,388.875z"/>
	<path style="opacity:0.1;" d="M72,388.875c0-8.31,6.741-15.047,15.057-15.047H34.742c-8.316,0-15.057,6.736-15.057,15.047
		c0,8.309,6.741,15.045,15.057,15.045h52.315C78.741,403.92,72,397.184,72,388.875z"/>
	<path style="fill:#ACEBE9;" d="M56.959,439.632c8.674,24.95,32.388,42.868,60.312,42.868h255.457
		c27.925,0,51.637-17.918,60.313-42.868H56.959z"/>
	<path style="opacity:0.1;" d="M109,439.632H56.959c8.674,24.95,32.388,42.868,60.312,42.868h52.041
		C141.388,482.5,117.674,464.582,109,439.632z"/>
	<path style="fill:#ACEBE9;" d="M470.315,437.314c0,8.308-6.741,15.044-15.057,15.044H34.742c-8.316,0-15.057-6.736-15.057-15.044
		l0,0c0-8.311,6.741-15.046,15.057-15.046h420.516C463.574,422.268,470.315,429.003,470.315,437.314L470.315,437.314z"/>
	<path style="opacity:0.1;" d="M82.37,437.314c0-8.311,6.741-15.046,15.057-15.046H34.742c-8.316,0-15.057,6.735-15.057,15.046
		c0,8.308,6.741,15.044,15.057,15.044h62.685C89.111,452.357,82.37,445.621,82.37,437.314z"/>
	<g>
		<path d="M131.664,106.973c17.202,5.802,20.665,9.262,26.47,26.448c1.029,3.048,3.888,5.1,7.105,5.1c3.217,0,6.076-2.052,7.105-5.1
			c5.805-17.187,9.268-20.647,26.469-26.448c3.05-1.028,5.104-3.888,5.104-7.106c0-3.219-2.054-6.078-5.104-7.106
			c-17.201-5.8-20.664-9.261-26.469-26.447c-1.029-3.049-3.888-5.101-7.105-5.101c-3.217,0-6.076,2.052-7.105,5.1
			c-5.805,17.188-9.269,20.647-26.47,26.448c-3.05,1.028-5.104,3.888-5.104,7.106C126.56,103.085,128.614,105.944,131.664,106.973z
			 M165.239,87.352c3.266,5.354,7.163,9.25,12.519,12.515c-5.356,3.265-9.253,7.161-12.519,12.516
			c-3.267-5.354-7.164-9.251-12.52-12.516C158.075,96.602,161.973,92.706,165.239,87.352z"/>
		<path d="M219.249,40.014c13.609,4.59,16.127,7.105,20.719,20.702c1.029,3.048,3.888,5.1,7.105,5.1c3.217,0,6.076-2.052,7.105-5.1
			c4.593-13.597,7.11-16.112,20.719-20.702c3.05-1.028,5.103-3.889,5.103-7.106c0-3.219-2.054-6.079-5.104-7.106
			c-13.608-4.589-16.125-7.104-20.718-20.701c-1.029-3.048-3.888-5.1-7.105-5.1c-3.217,0-6.076,2.052-7.105,5.101
			c-4.592,13.597-7.109,16.111-20.718,20.699c-3.05,1.028-5.104,3.889-5.104,7.107C214.146,36.125,216.199,38.985,219.249,40.014z
			 M247.073,25.184c2.15,3.086,4.64,5.576,7.728,7.725c-3.088,2.148-5.578,4.638-7.728,7.725c-2.15-3.087-4.639-5.576-7.727-7.725
			C242.434,30.76,244.924,28.27,247.073,25.184z"/>
		<path d="M302.689,112.514c13.608,4.59,16.126,7.104,20.719,20.701c1.03,3.048,3.889,5.1,7.105,5.1
			c3.217,0,6.076-2.052,7.105-5.101c4.592-13.596,7.109-16.11,20.718-20.7c3.05-1.028,5.104-3.888,5.104-7.106
			c0-3.219-2.054-6.078-5.104-7.106c-13.608-4.589-16.126-7.104-20.718-20.701c-1.029-3.048-3.888-5.1-7.105-5.1
			c-3.217,0-6.076,2.052-7.105,5.1c-4.593,13.597-7.11,16.112-20.719,20.701c-3.05,1.028-5.103,3.888-5.103,7.106
			C297.585,108.626,299.639,111.485,302.689,112.514z M330.512,97.683c2.149,3.086,4.64,5.576,7.727,7.725
			c-3.088,2.149-5.577,4.638-7.727,7.725c-2.149-3.087-4.64-5.576-7.727-7.725C325.872,103.259,328.363,100.769,330.512,97.683z"/>
		<path d="M455.258,411.42c12.438,0,22.557-10.113,22.557-22.545c0-12.433-10.119-22.547-22.557-22.547h-27.29
			c1.015-1.241,2.004-2.506,2.938-3.818h24.352c12.438,0,22.557-10.113,22.557-22.545c0-12.432-10.119-22.546-22.557-22.546h-142.34
			c0.167-1.025,0.262-2.074,0.262-3.146v-6.23c43.787-14.685,75.431-56.163,75.431-104.912c0-3.819-1.479-7.292-3.878-9.903
			c2.523-9.266,3.878-19.01,3.878-29.066c0-8.084-6.569-14.66-14.644-14.66H116.036c-8.076,0-14.646,6.576-14.646,14.66
			c0,10.057,1.355,19.801,3.879,29.066c-2.399,2.611-3.879,6.084-3.879,9.903c0,48.749,31.645,90.229,75.432,104.912v6.23
			c0,1.072,0.095,2.121,0.262,3.146H34.742c-12.438,0-22.557,10.114-22.557,22.546c0,12.432,10.119,22.545,22.557,22.545h24.352
			c0.933,1.313,1.923,2.577,2.938,3.818h-27.29c-12.438,0-22.557,10.114-22.557,22.547c0,12.432,10.119,22.545,22.557,22.545h24.279
			c0.812,1.146,1.666,2.256,2.541,3.348H34.742c-12.438,0-22.557,10.114-22.557,22.546c0,12.431,10.119,22.544,22.557,22.544h24.285
			C72.173,478.417,93.736,490,117.271,490h255.457c23.534,0,45.097-11.583,58.244-30.143h24.286
			c12.438,0,22.557-10.113,22.557-22.544c0-12.432-10.119-22.546-22.557-22.546h-26.82c0.874-1.092,1.728-2.202,2.54-3.348H455.258z
			 M116.39,203.47H161c4.142,0,7.5-3.357,7.5-7.5c0-4.143-3.358-7.5-7.5-7.5h-41.48c-2.013-7.66-3.101-15.692-3.13-23.97h257.22
			c-0.029,8.277-1.117,16.31-3.13,23.97H198c-4.142,0-7.5,3.357-7.5,7.5c0,4.143,3.358,7.5,7.5,7.5h175.61
			c-0.183,52.559-42.902,95.259-95.387,95.259H271c-4.142,0-7.5,3.357-7.5,7.5c0,4.143,3.358,7.5,7.5,7.5h7.223
			c6.813,0,13.481-0.626,19.956-1.815v2.359c0,1.216-0.477,2.315-1.239,3.146H193.06c-0.762-0.831-1.238-1.931-1.238-3.146v-2.359
			c6.475,1.189,13.143,1.815,19.956,1.815H240c4.142,0,7.5-3.357,7.5-7.5c0-4.143-3.358-7.5-7.5-7.5h-28.223
			C159.292,298.728,116.573,256.028,116.39,203.47z M34.742,347.51c-4.167,0-7.557-3.385-7.557-7.545
			c0-4.161,3.39-7.546,7.557-7.546h420.516c4.167,0,7.557,3.385,7.557,7.546c0,4.16-3.39,7.545-7.557,7.545H34.742z M411.033,362.51
			c-1.467,1.357-3.011,2.626-4.61,3.818H83.576c-1.6-1.192-3.143-2.461-4.61-3.818H411.033z M455.258,429.768
			c4.167,0,7.557,3.385,7.557,7.546c0,4.16-3.39,7.544-7.557,7.544H180.999c-4.142,0-7.5,3.357-7.5,7.5c0,4.143,3.358,7.5,7.5,7.5
			h230.14C400.931,469.362,387.311,475,372.728,475H117.271c-14.584,0-28.204-5.638-38.412-15.143H147c4.142,0,7.5-3.357,7.5-7.5
			c0-4.143-3.358-7.5-7.5-7.5H34.742c-4.167,0-7.557-3.384-7.557-7.544c0-4.161,3.39-7.546,7.557-7.546H455.258z M78.865,411.42
			h332.269c-1.267,1.178-2.587,2.293-3.954,3.348H82.819C81.453,413.713,80.132,412.598,78.865,411.42z M34.742,396.42
			c-4.167,0-7.557-3.385-7.557-7.545c0-4.161,3.39-7.547,7.557-7.547h420.516c4.167,0,7.557,3.386,7.557,7.547
			c0,4.16-3.39,7.545-7.557,7.545H34.742z"/>
	</g>
	<g>
		<path style="fill:#FFFFFF;" d="M342.338,210.713c-4.889,11.803-8.852,15.766-20.655,20.656
			c11.803,4.888,15.766,8.852,20.655,20.654c4.888-11.803,8.852-15.767,20.655-20.654
			C351.19,226.479,347.227,222.516,342.338,210.713z"/>
		<circle style="fill:#FFFFFF;" cx="327.112" cy="264.69" r="9.112"/>
	</g>
</g>
<g>
</g>
<g>
</g>
<g>
</g>
<g>
</g>
<g>
</g>
<g>
</g>
<g>
</g>
<g>
</g>
<g>
</g>
<g>
</g>
<g>
</g>
<g>
</g>
<g>
</g>
<g>
</g>
<g>
</g>
</svg>
