<?xml version="1.0" encoding="iso-8859-1"?>
<!-- Generator: Adobe Illustrator 19.0.0, SVG Export Plug-In . SVG Version: 6.00 Build 0)  -->
<svg version="1.1" id="Layer_1" xmlns="http://www.w3.org/2000/svg" xmlns:xlink="http://www.w3.org/1999/xlink" x="0px" y="0px"
	 viewBox="0 0 490 490" style="enable-background:new 0 0 490 490;" xml:space="preserve">
<g>
	<g>
		<ellipse style="fill:#FCEE21;" cx="146.533" cy="103.502" rx="65.454" ry="64.442"/>
		<path style="fill:#F2EBAA;" d="M146.533,147.091c-24.414,0-44.273-19.554-44.273-43.589c0-24.036,19.859-43.589,44.273-43.589
			c24.413,0,44.273,19.553,44.273,43.589C190.807,127.537,170.946,147.091,146.533,147.091z"/>
	</g>
	<path style="fill:#CEE9FF;" d="M388.465,103.907H167.561c-11.297,0-20.455,9.016-20.455,20.138v132.91
		c0,11.122,9.158,20.138,20.455,20.138h8.637l9.09,185.27c0,11.121,9.158,20.138,20.454,20.138h144.542
		c11.3,0,20.456-9.017,20.456-20.138l9.09-185.27h8.635c11.298,0,20.456-9.016,20.456-20.138v-132.91
		C408.921,112.923,399.763,103.907,388.465,103.907z"/>
	<path style="fill:#B7AE6E;" d="M146.533,72.502c-2.762,0-5,2.238-5,5v4c0,2.762,2.238,5,5,5c2.761,0,5-2.238,5-5v-4
		C151.533,74.74,149.294,72.502,146.533,72.502z"/>
	<path style="fill:#B7AE6E;" d="M129.533,103.502c0-2.762-2.239-5-5-5h-4c-2.762,0-5,2.238-5,5c0,2.762,2.238,5,5,5h4
		C127.294,108.502,129.533,106.264,129.533,103.502z"/>
	<path style="fill:#B7AE6E;" d="M127.44,115.523l-2.828,2.828c-1.952,1.952-1.952,5.118,0,7.07c0.977,0.977,2.256,1.465,3.536,1.465
		c1.279,0,2.559-0.488,3.535-1.465l2.828-2.828c1.953-1.952,1.953-5.118,0-7.07C132.559,113.57,129.394,113.57,127.44,115.523z"/>
	<path style="fill:#B7AE6E;" d="M162.09,92.945c1.279,0,2.559-0.488,3.535-1.465l2.828-2.828c1.953-1.952,1.953-5.118,0-7.07
		c-1.953-1.953-5.118-1.953-7.071,0l-2.828,2.828c-1.952,1.952-1.952,5.118,0,7.07C159.53,92.457,160.81,92.945,162.09,92.945z"/>
	<path style="fill:#B7AE6E;" d="M131.684,81.581c-1.953-1.953-5.118-1.953-7.071,0c-1.952,1.952-1.952,5.118,0,7.07l2.828,2.828
		c0.977,0.977,2.256,1.465,3.536,1.465c1.279,0,2.559-0.488,3.535-1.465c1.953-1.952,1.953-5.118,0-7.07L131.684,81.581z"/>
	<path style="fill:#A5D289;" d="M278.014,233.878c-10.17,0-18.443-8.146-18.443-18.159V43.817c0-20.026,16.547-36.317,36.889-36.317
		h75.003c3.396,0,6.149,2.709,6.149,6.054v24.211c0,3.343-2.753,6.053-6.149,6.053h-75.003v171.901
		C296.459,225.731,288.186,233.878,278.014,233.878z"/>
	<path style="opacity:0.1;" d="M227.182,462.362l-9.09-185.27h-8.637c-11.297,0-20.455-9.016-20.455-20.138v-132.91
		c0-11.122,9.158-20.138,20.455-20.138h-41.894c-11.297,0-20.455,9.016-20.455,20.138v132.91c0,11.122,9.158,20.138,20.455,20.138
		h8.637l9.09,185.27c0,11.121,9.158,20.138,20.454,20.138h41.893C236.34,482.5,227.182,473.483,227.182,462.362z"/>
	<path style="fill:#FFFFFF;" d="M296.457,61.655H259.57c-4.143,0-7.5-3.357-7.5-7.5s3.357-7.5,7.5-7.5h36.887
		c4.143,0,7.5,3.357,7.5,7.5S300.6,61.655,296.457,61.655z"/>
	<path style="fill:#FFFFFF;" d="M296.457,88.331H259.57c-4.143,0-7.5-3.357-7.5-7.5s3.357-7.5,7.5-7.5h36.887
		c4.143,0,7.5,3.357,7.5,7.5S300.6,88.331,296.457,88.331z"/>
	<path style="fill:#FFFFFF;" d="M333.149,240.048c-4.768,4.699-12.564,4.635-17.412-0.143l-23.705-23.355
		c-4.851-4.781-4.912-12.465-0.145-17.16l23.314-22.979c4.767-4.695,12.565-4.634,17.418,0.146l23.704,23.355
		c4.847,4.776,4.909,12.462,0.143,17.163L333.149,240.048z"/>
	<path style="fill:#FFFFFF;" d="M247.797,234.123c-4.767,4.699-12.563,4.635-17.412-0.143l-23.705-23.355
		c-4.852-4.781-4.912-12.464-0.146-17.161l23.313-22.978c4.768-4.694,12.566-4.634,17.417,0.146l23.705,23.357
		c4.848,4.775,4.908,12.461,0.143,17.162L247.797,234.123z"/>
	<path style="fill:#F2EBAA;" d="M221.784,455.649c-5.332,0-9.727-4.184-9.988-9.51l-8.358-170.342
		c-0.591-12.033-9.315-22.274-21.216-24.901c-4.582-1.012-7.844-5.072-7.844-9.765v-29.22c0-5.522,4.477-10,10-10h187.27
		c5.522,0,10,4.478,10,10v29.22c0,4.691-3.262,8.752-7.843,9.765c-11.901,2.629-20.625,12.869-21.216,24.901l-8.358,170.342
		c-0.262,5.326-4.656,9.51-9.988,9.51H221.784z"/>
	<g>
		<path style="fill:#B7AE6E;" d="M278.014,406.531h-8.181c-4.143,0-7.5,3.357-7.5,7.5c0,4.142,3.357,7.5,7.5,7.5h8.181
			c4.143,0,7.5-3.358,7.5-7.5C285.514,409.889,282.156,406.531,278.014,406.531z"/>
		<path style="fill:#B7AE6E;" d="M313.468,367.597h-8.182c-4.142,0-7.5,3.357-7.5,7.5c0,4.143,3.358,7.5,7.5,7.5h8.182
			c4.143,0,7.5-3.357,7.5-7.5C320.968,370.954,317.61,367.597,313.468,367.597z"/>
		<path style="fill:#B7AE6E;" d="M250.741,342.09h-8.182c-4.142,0-7.5,3.357-7.5,7.5c0,4.143,3.358,7.5,7.5,7.5h8.182
			c4.143,0,7.5-3.357,7.5-7.5C258.241,345.447,254.884,342.09,250.741,342.09z"/>
		<path style="fill:#B7AE6E;" d="M291.65,307.185h-8.182c-4.143,0-7.5,3.357-7.5,7.5c0,4.142,3.357,7.5,7.5,7.5h8.182
			c4.143,0,7.5-3.358,7.5-7.5C299.15,310.542,295.793,307.185,291.65,307.185z"/>
		<path style="fill:#B7AE6E;" d="M252.105,232.003h-8.182c-4.142,0-7.5,3.357-7.5,7.5c0,4.143,3.358,7.5,7.5,7.5h8.182
			c4.143,0,7.5-3.357,7.5-7.5C259.605,235.36,256.248,232.003,252.105,232.003z"/>
	</g>
	<path d="M388.465,96.407H317c-4.143,0-7.5,3.357-7.5,7.5c0,4.143,3.357,7.5,7.5,7.5h71.465c7.144,0,12.956,5.669,12.956,12.638
		v132.91c0,6.969-5.813,12.638-12.956,12.638H361.62c2.426-5.633,7.491-9.979,13.805-11.373c8.08-1.786,13.724-8.813,13.724-17.088
		v-29.22c0-9.649-7.85-17.5-17.5-17.5h-10.223l-23.543-23.197c-3.786-3.73-8.797-5.784-14.108-5.784
		c-5.232,0-10.146,2.002-13.838,5.639l-5.978,5.892V51.317h67.503c7.526,0,13.649-6.08,13.649-13.553V13.554
		C385.111,6.08,378.988,0,371.462,0h-75.003c-24.476,0-44.389,19.656-44.389,43.817v52.59h-32.942
		c-3.626-36.351-34.796-64.848-72.595-64.848c-40.227,0-72.954,32.273-72.954,71.942c0,37.364,29.038,68.156,66.027,71.609v81.844
		c0,15.239,12.541,27.638,27.955,27.638h1.496l8.732,177.968c0.108,15.15,12.606,27.44,27.954,27.44h144.542
		c15.349,0,27.848-12.29,27.955-27.44l8.731-177.968h1.494c15.415,0,27.956-12.398,27.956-27.638v-132.91
		C416.421,108.806,403.88,96.407,388.465,96.407z M320.465,181.754c0.866-0.854,2.041-1.323,3.31-1.323
		c1.347,0,2.619,0.522,3.581,1.47l12.698,12.512h-32.433L320.465,181.754z M267.07,111.407H276c4.143,0,7.5-3.357,7.5-7.5
		c0-4.143-3.357-7.5-7.5-7.5h-8.93v-52.59c0-15.89,13.184-28.817,29.389-28.817h73.652v21.317h-73.652c-4.143,0-7.5,3.357-7.5,7.5
		v147.927l-2.336,2.303c-0.12,0.119-0.232,0.244-0.349,0.365h-5.981c-0.983-2.115-2.337-4.069-4.059-5.766l-9.164-9.029V111.407z
		 M371.648,209.412c1.379,0,2.5,1.121,2.5,2.5v29.22c0,1.183-0.807,2.187-1.961,2.441c-13.23,2.922-23.383,13.234-26.286,26.02H256
		c-4.143,0-7.5,3.357-7.5,7.5s3.357,7.5,7.5,7.5h88.649l-7.909,161.179c-0.065,1.333-1.162,2.378-2.497,2.378H221.784
		c-1.334,0-2.432-1.044-2.497-2.377l-7.909-161.18H217c4.142,0,7.5-3.357,7.5-7.5s-3.358-7.5-7.5-7.5h-6.874
		c-2.903-12.786-13.056-23.099-26.287-26.02c-1.154-0.255-1.961-1.259-1.961-2.441v-29.22c0-1.379,1.122-2.5,2.5-2.5H371.648z
		 M260.714,194.412h-44.457l18.854-18.582c0.867-0.854,2.043-1.324,3.312-1.324c1.347,0,2.619,0.521,3.579,1.469L260.714,194.412z
		 M139.606,124.045v14.895c-16.975-3.189-29.847-17.862-29.847-35.438c0-4.143-3.358-7.5-7.5-7.5s-7.5,3.357-7.5,7.5
		c0,25.852,19.564,47.266,44.847,50.618v5.903c-28.7-3.376-51.027-27.428-51.027-56.521c0-31.398,25.998-56.942,57.954-56.942
		c29.509,0,53.919,21.788,57.487,49.848h-6.224c-3.512-24.823-25.156-43.994-51.263-43.994c-14.993,0-29.245,6.427-39.103,17.633
		c-2.736,3.11-2.433,7.85,0.678,10.585c3.11,2.736,7.849,2.432,10.585-0.677c7.011-7.97,17.158-12.541,27.84-12.541
		c17.803,0,32.688,12.481,36.056,28.994h-15.027C152.147,96.407,139.606,108.806,139.606,124.045z M167.561,269.593
		c-7.143,0-12.955-5.669-12.955-12.638v-132.91c0-6.969,5.812-12.638,12.955-12.638h84.509v53.472
		c-3.729-3.459-8.543-5.373-13.648-5.373c-5.231,0-10.145,2.002-13.839,5.639l-23.313,22.978c-1.855,1.828-3.293,3.962-4.27,6.29
		h-12.621c-9.649,0-17.5,7.851-17.5,17.5v29.22c0,8.276,5.645,15.304,13.727,17.088c6.313,1.395,11.377,5.74,13.803,11.373H167.561z
		 M363.249,461.995c-0.006,0.122-0.009,0.244-0.009,0.367c0,6.969-5.813,12.638-12.956,12.638H205.742
		c-7.143,0-12.954-5.669-12.954-12.638c0-0.123-0.003-0.245-0.009-0.367l-8.704-177.402h12.286l7.944,161.914
		c0.458,9.332,8.136,16.643,17.479,16.643h112.459c9.343,0,17.02-7.31,17.479-16.643l7.945-161.914h12.285L363.249,461.995z"/>
	<g>
		<path style="fill:#FFFFFF;" d="M361.548,116c-5.573,13.455-10.092,17.974-23.548,23.548c13.456,5.573,17.975,10.093,23.548,23.548
			c5.574-13.455,10.093-17.975,23.549-23.548C371.641,133.974,367.122,129.455,361.548,116z"/>
		<circle style="fill:#FFFFFF;" cx="380.898" cy="169.164" r="10.389"/>
	</g>
</g>
<g>
</g>
<g>
</g>
<g>
</g>
<g>
</g>
<g>
</g>
<g>
</g>
<g>
</g>
<g>
</g>
<g>
</g>
<g>
</g>
<g>
</g>
<g>
</g>
<g>
</g>
<g>
</g>
<g>
</g>
</svg>
