<?xml version="1.0" encoding="iso-8859-1"?>
<!-- Generator: Adobe Illustrator 19.0.0, SVG Export Plug-In . SVG Version: 6.00 Build 0)  -->
<svg version="1.1" id="Layer_1" xmlns="http://www.w3.org/2000/svg" xmlns:xlink="http://www.w3.org/1999/xlink" x="0px" y="0px"
	 viewBox="0 0 490 490" style="enable-background:new 0 0 490 490;" xml:space="preserve">
<g>
	<path style="fill:#F7EEDF;" d="M257.572,162.711c0,7.791-6.295,14.107-14.061,14.107H67.285c-7.764,0-14.061-6.316-14.061-14.107
		v-18.812c0-7.792,6.297-14.108,14.061-14.108h176.227c7.766,0,14.061,6.316,14.061,14.108V162.711z"/>
	<path style="fill:#EF645E;" d="M87.908,482.5c-7.264,0-13.279-5.471-13.992-12.723L45.795,183.849
		c-0.389-3.956,0.912-7.914,3.572-10.86c2.66-2.945,6.457-4.635,10.42-4.635H251.01c3.963,0,7.76,1.689,10.42,4.635
		c2.66,2.946,3.963,6.904,3.572,10.86l-28.121,285.929c-0.713,7.252-6.729,12.723-13.992,12.723H87.908z"/>
	<path style="fill:#C14616;" d="M70.859,438.685l3.057,31.093c0.713,7.252,6.729,12.723,13.992,12.723h134.98
		c7.264,0,13.279-5.471,13.992-12.723l3.059-31.093H70.859z"/>
	<path style="opacity:0.1;" d="M105.285,469.777L77.164,183.849c-0.389-3.956,0.912-7.914,3.572-10.86
		c2.66-2.945,6.457-4.635,10.42-4.635H59.787c-3.963,0-7.76,1.689-10.42,4.635c-2.66,2.946-3.961,6.904-3.572,10.86l28.121,285.929
		c0.713,7.252,6.729,12.723,13.992,12.723h31.369C112.014,482.5,105.998,477.029,105.285,469.777z"/>
	<polygon style="fill:#C69C6D;" points="52.613,367.752 257.572,367.752 264.676,282.078 46.121,282.078 	"/>
	<path style="fill:#8C6239;" d="M63.051,282.645l6.449,85.108h15.015c-0.001-0.188,0-0.376-0.015-0.567l-6.449-85.107H63.036
		C63.037,282.266,63.036,282.454,63.051,282.645z"/>
	<path style="fill:#8C6239;" d="M230.936,282.078l-6.449,85.107c-0.015,0.191-0.014,0.379-0.015,0.567h15.015l6.449-85.108
		c0.015-0.19,0.014-0.379,0.015-0.566H230.936z"/>
	<path style="opacity:0.1;" d="M84.594,162.711v-18.812c0-7.792,6.297-14.108,14.06-14.108H67.285
		c-7.764,0-14.061,6.316-14.061,14.108v18.812c0,7.791,6.297,14.107,14.061,14.107h31.369
		C90.891,176.818,84.594,170.502,84.594,162.711z"/>
	<path style="fill:#F2D8A0;" d="M195.705,56.452h-55.822c-11.376,0-20.631-9.298-20.631-20.726c0-11.428,9.255-20.726,20.631-20.726
		h19.408c4.143,0,7.5-3.357,7.5-7.5s-3.357-7.5-7.5-7.5h-19.408c-19.646,0-35.631,16.026-35.631,35.726s15.984,35.727,35.631,35.727
		h55.822c8.862,0,16.072,7.245,16.072,16.151v15.356c0,4.143,3.357,7.5,7.5,7.5c4.143,0,7.5-3.357,7.5-7.5V87.604
		C226.777,70.427,212.838,56.452,195.705,56.452z"/>
	<g>
		<path style="fill:#FCE9C3;" d="M192.514,44.77h-24.082c-4.143,0-7.5-3.357-7.5-7.5c0-4.143,3.357-7.5,7.5-7.5h24.082
			c4.072,0,7.385-3.313,7.385-7.385c0-4.072-3.313-7.385-7.385-7.385h-11.08c-4.143,0-7.5-3.357-7.5-7.5s3.357-7.5,7.5-7.5h11.08
			c12.343,0,22.385,10.042,22.385,22.385C214.898,34.728,204.856,44.77,192.514,44.77z"/>
	</g>
	<ellipse style="fill:#FFFFFF;" cx="155.399" cy="319.753" rx="59.962" ry="60.165"/>
	<path style="fill:#F7EEDF;" d="M286.631,187.165c0,7.792-6.295,14.108-14.061,14.108H38.227c-7.764,0-14.061-6.316-14.061-14.108
		v-11.286c0-7.792,6.297-14.109,14.061-14.109H272.57c7.766,0,14.061,6.317,14.061,14.109V187.165z"/>
	<path style="opacity:0.1;" d="M55.535,187.165v-11.286c0-7.792,6.297-14.109,14.061-14.109H38.227
		c-7.764,0-14.061,6.317-14.061,14.109v11.286c0,7.792,6.297,14.108,14.061,14.108h31.369
		C61.832,201.273,55.535,194.957,55.535,187.165z"/>
	<g>
		<path style="fill:#C14616;" d="M155.398,359.201c-21.692,0-39.34-17.696-39.34-39.448c0-21.752,17.647-39.448,39.34-39.448
			c21.693,0,39.342,17.696,39.342,39.448c0,4.143-3.357,7.5-7.5,7.5c-4.143,0-7.5-3.357-7.5-7.5c0-13.48-10.92-24.448-24.342-24.448
			c-13.421,0-24.34,10.968-24.34,24.448c0,13.48,10.919,24.448,24.34,24.448c4.143,0,7.5,3.357,7.5,7.5
			S159.541,359.201,155.398,359.201z"/>
	</g>
	<g>
		<g>
			<path style="fill:#A5D289;" d="M205.143,312.5v90c0,34.242,27.758,62,62,62h70c34.242,0,62-27.758,62-62v-90H205.143z"/>
		</g>
		<path style="opacity:0.1;" d="M236.375,402.5v-90h-31.232v90c0,34.242,27.758,62,62,62h31.232
			C264.133,464.5,236.375,436.742,236.375,402.5z"/>
	</g>
	<path style="fill:#79A85B;" d="M399.143,341.284v-14.568c-0.565-0.136-1.151-0.216-1.758-0.216H351.9c-4.143,0-7.5,3.357-7.5,7.5
		s3.357,7.5,7.5,7.5h45.484C397.991,341.5,398.578,341.42,399.143,341.284z"/>
	<path style="fill:#79A85B;" d="M399.143,365.284v-14.568c-0.565-0.136-1.151-0.216-1.758-0.216h-35.219c-4.143,0-7.5,3.357-7.5,7.5
		s3.357,7.5,7.5,7.5h35.219C397.991,365.5,398.578,365.42,399.143,365.284z"/>
	<path style="fill:#78B591;" d="M210.574,482.5c-11.033,0-20.01-8.976-20.01-20.009c0-2.908,2.357-5.265,5.266-5.265h211.672
		c2.91,0,5.266,2.356,5.266,5.265c0,11.033-8.975,20.009-20.008,20.009H210.574z"/>
	<path style="opacity:0.1;" d="M232,462.491c0-2.908,2.357-5.265,5.266-5.265H195.83c-2.908,0-5.266,2.356-5.266,5.265
		c0,11.033,8.977,20.009,20.01,20.009h41.436C240.977,482.5,232,473.524,232,462.491z"/>
	<path d="M422.158,305H372c-4.143,0-7.5,3.357-7.5,7.5s3.357,7.5,7.5,7.5h19.643v82.5c0,20.17-11.023,37.803-27.352,47.227H239.994
		c-16.329-9.424-27.352-27.057-27.352-47.227V320H323h14c4.143,0,7.5-3.357,7.5-7.5s-3.357-7.5-7.5-7.5h-14h-52.698l1.849-22.302
		c0.173-2.09-0.536-4.157-1.957-5.699c-1.42-1.543-3.421-2.421-5.518-2.421h-1.062l6.473-65.805h2.483
		c11.889,0,21.561-9.693,21.561-21.608v-11.286c0-11.915-9.672-21.609-21.561-21.609h-7.498v-10.37
		c0-11.915-9.672-21.608-21.561-21.608H67.285c-11.889,0-21.561,9.693-21.561,21.608v10.37h-7.498
		c-11.889,0-21.561,9.694-21.561,21.609v11.286c0,11.915,9.672,21.608,21.561,21.608h2.483l6.473,65.805h-1.061
		c-2.088,0-4.081,0.87-5.5,2.401c-1.419,1.53-2.137,3.584-1.979,5.665l6.492,85.674c0.296,3.911,3.557,6.934,7.479,6.934h4.47
		l9.369,95.259C67.544,481.621,76.769,490,87.908,490H392.76c15.168,0,27.508-12.341,27.508-27.509
		c0-7.038-5.727-12.765-12.766-12.765h-19.449c10.489-11.295,17.283-26.064,18.415-42.375h15.69
		c28.219,0,51.176-22.957,51.176-51.176C473.334,327.957,450.377,305,422.158,305z M205.572,274.578
		c-12.359-13.795-30.27-22.49-50.174-22.49c-19.902,0-37.813,8.695-50.172,22.49H62.253l-6.473-65.805h199.234l-6.473,65.805
		H205.572z M205.743,305h-0.601c-4.143,0-7.5,3.357-7.5,7.5v38.426c-9.557,13.024-24.93,21.492-42.244,21.492
		c-28.927,0-52.461-23.625-52.461-52.665c0-29.04,23.534-52.665,52.461-52.665C179.225,267.088,199.373,283.121,205.743,305z
		 M255.25,305h-34.033c-1.207-5.409-3.045-10.582-5.461-15.422h40.772L255.25,305z M38.227,193.773
		c-3.617,0-6.561-2.965-6.561-6.608v-11.286c0-3.645,2.943-6.609,6.561-6.609H90c4.143,0,7.5-3.357,7.5-7.5
		c0-4.143-3.357-7.5-7.5-7.5H60.725v-10.37c0-3.643,2.943-6.608,6.561-6.608h140.847c0.827,3.242,3.759,5.644,7.259,5.644h8.436
		c3.5,0,6.432-2.401,7.259-5.644h12.427c3.617,0,6.561,2.965,6.561,6.608v10.37H124c-4.143,0-7.5,3.357-7.5,7.5
		c0,4.143,3.357,7.5,7.5,7.5h148.57c3.617,0,6.561,2.965,6.561,6.609v11.286c0,3.644-2.943,6.608-6.561,6.608H38.227z
		 M59.566,360.252l-5.355-70.674h40.832c-4.537,9.092-7.105,19.336-7.105,30.175c0,15.176,5.008,29.199,13.451,40.499H59.566z
		 M183.064,462.491c0,4.503,1.095,8.753,3.021,12.509H87.908c-3.388,0-6.194-2.56-6.528-5.957l-2.248-22.858H112
		c4.143,0,7.5-3.358,7.5-7.5c0-4.143-3.357-7.5-7.5-7.5H77.656l-5.502-55.933h44.72c10.932,7.657,24.209,12.166,38.524,12.166
		c14.315,0,27.594-4.509,38.525-12.166h3.719V402.5c0,10.226,2.225,19.938,6.212,28.685H146c-4.143,0-7.5,3.357-7.5,7.5
		c0,4.142,3.357,7.5,7.5,7.5h67.176c0.982,1.211,1.992,2.399,3.053,3.542H195.83C188.791,449.727,183.064,455.453,183.064,462.491z
		 M405.067,464.727C404.011,470.561,398.894,475,392.76,475H210.574c-6.135,0-11.253-4.439-12.31-10.273H405.067z M422.158,392.352
		h-15.516V320h15.516c19.947,0,36.176,16.228,36.176,36.176C458.334,376.123,442.105,392.352,422.158,392.352z"/>
</g>
<g>
</g>
<g>
</g>
<g>
</g>
<g>
</g>
<g>
</g>
<g>
</g>
<g>
</g>
<g>
</g>
<g>
</g>
<g>
</g>
<g>
</g>
<g>
</g>
<g>
</g>
<g>
</g>
<g>
</g>
</svg>
