<?xml version="1.0" encoding="iso-8859-1"?>
<!-- Generator: Adobe Illustrator 19.0.0, SVG Export Plug-In . SVG Version: 6.00 Build 0)  -->
<svg version="1.1" id="Layer_1" xmlns="http://www.w3.org/2000/svg" xmlns:xlink="http://www.w3.org/1999/xlink" x="0px" y="0px"
	 viewBox="0 0 490 490" style="enable-background:new 0 0 490 490;" xml:space="preserve">
<g>
	<path style="fill:#CCCCCC;" d="M428.522,442.283c0,8.978-7.25,16.254-16.192,16.254H77.67c-8.942,0-16.192-7.275-16.192-16.254
		V149.732c0-8.975,7.25-16.252,16.192-16.252h334.66c8.942,0,16.192,7.277,16.192,16.252V442.283z"/>
	<path style="opacity:0.1;" d="M428.522,242.387v-55.385H400c-5.522,0-10,4.477-10,10c0-5.523-4.478-10-10-10h-38
		c-5.522,0-10,4.477-10,10c0-5.523-4.478-10-10-10h-38c-5.522,0-10,4.477-10,10c0-5.523-4.478-10-10-10h-38c-5.523,0-10,4.477-10,10
		c0-5.523-4.477-10-10-10h-38c-5.523,0-10,4.477-10,10c0-5.523-4.477-10-10-10h-38c-5.522,0-10,4.477-10,10c0-5.523-4.478-10-10-10
		H61.478v55.385C64.463,243.427,67.665,244,71,244c15.99,0,29-13.008,29-29c0,15.992,13.01,29,29,29s29-13.008,29-29
		c0,15.992,13.01,29,29,29s29-13.008,29-29c0,15.992,13.01,29,29,29s29-13.008,29-29c0,15.992,13.01,29,29,29s29-13.008,29-29
		c0,15.992,13.01,29,29,29s29-13.008,29-29c0,15.992,13.01,29,29,29C422.335,244,425.537,243.427,428.522,242.387z"/>
	<path style="fill:#EF645E;" d="M289.262,259.168h-88.523c-5.961,0-10.795,4.852-10.795,10.836v188.533h110.113V270.004
		C300.057,264.02,295.223,259.168,289.262,259.168z"/>
	<rect x="209.943" y="279.168" style="fill:#FFCC60;" width="70.113" height="159.369"/>
	<g>
		<path style="fill:#EF645E;" d="M97.432,429.201c-5.522,0-10-4.477-10-10V274.008c0-5.522,4.478-10,10-10h56.137
			c5.522,0,10,4.478,10,10v145.193c0,5.523-4.478,10-10,10H97.432z"/>
		<rect x="107.432" y="284.008" style="fill:#FFCC60;" width="36.137" height="125.193"/>
		<path style="fill:#EF645E;" d="M336.432,429.201c-5.522,0-10-4.477-10-10V274.008c0-5.522,4.478-10,10-10h56.137
			c5.522,0,10,4.478,10,10v145.193c0,5.523-4.478,10-10,10H336.432z"/>
		<rect x="346.432" y="284.008" style="fill:#FFCC60;" width="36.137" height="125.193"/>
	</g>
	<g>
		<path style="fill:#EF645E;" d="M71,223.008c-15.99,0-29-13.008-29-29V176.01c0-5.523,4.478-10,10-10h38c5.522,0,10,4.477,10,10
			v17.998C100,210,86.99,223.008,71,223.008z"/>
		<path style="fill:#FFFFFF;" d="M129,223.008c-15.99,0-29-13.008-29-29V176.01c0-5.523,4.478-10,10-10h38c5.523,0,10,4.477,10,10
			v17.998C158,210,144.99,223.008,129,223.008z"/>
		<path style="fill:#EF645E;" d="M187,223.008c-15.99,0-29-13.008-29-29V176.01c0-5.523,4.477-10,10-10h38c5.523,0,10,4.477,10,10
			v17.998C216,210,202.99,223.008,187,223.008z"/>
		<path style="fill:#FFFFFF;" d="M245,223.008c-15.99,0-29-13.008-29-29V176.01c0-5.523,4.477-10,10-10h38c5.522,0,10,4.477,10,10
			v17.998C274,210,260.99,223.008,245,223.008z"/>
		<path style="fill:#EF645E;" d="M303,223.008c-15.99,0-29-13.008-29-29V176.01c0-5.523,4.478-10,10-10h38c5.522,0,10,4.477,10,10
			v17.998C332,210,318.99,223.008,303,223.008z"/>
		<path style="fill:#FFFFFF;" d="M361,223.008c-15.99,0-29-13.008-29-29V176.01c0-5.523,4.478-10,10-10h38c5.522,0,10,4.477,10,10
			v17.998C390,210,376.99,223.008,361,223.008z"/>
		<path style="fill:#EF645E;" d="M419,223.008c-15.99,0-29-13.008-29-29V176.01c0-5.523,4.478-10,10-10h38c5.522,0,10,4.477,10,10
			v17.998C448,210,434.99,223.008,419,223.008z"/>
	</g>
	<path style="fill:#C14616;" d="M448,175.008v-44.881c0-7.941-6.477-14.377-14.466-14.377H56.466
		c-7.989,0-14.466,6.436-14.466,14.377v44.881H448z"/>
	<path style="opacity:0.1;" d="M433.534,115.75H56.466c-7.989,0-14.466,6.436-14.466,14.377v20.992
		c0-7.941,6.477-14.377,14.466-14.377h377.068c7.989,0,14.466,6.436,14.466,14.377v-20.992
		C448,122.186,441.523,115.75,433.534,115.75z"/>
	<path style="fill:#EF645E;" d="M344.853,71.771h-37.886C296.422,48.029,272.652,31.463,245,31.463s-51.422,16.566-61.968,40.309
		h-37.886c-5.059,0-9.16,4.102-9.16,9.16v58.629c0,5.061,4.102,9.162,9.16,9.162h199.707c5.059,0,9.16-4.102,9.16-9.162V80.932
		C354.014,75.873,349.912,71.771,344.853,71.771z"/>
	<rect x="189.943" y="389.191" style="fill:#EF645E;" width="110.113" height="69.346"/>
	<path style="fill:#A5D289;" d="M456.051,377.273c-3.631,0-7.004,1.096-9.82,2.969c-0.948-8.977-8.513-15.973-17.708-15.973
		c-9.194,0-16.759,6.996-17.708,15.973c-2.816-1.873-6.19-2.969-9.82-2.969c-9.837,0-17.813,8.004-17.813,17.877v16.254
		c0,9.873,7.976,17.877,17.813,17.877c9.195,0,45.862,0,55.057,0c9.838,0,17.813-8.004,17.813-17.877V395.15
		C473.863,385.277,465.889,377.273,456.051,377.273z"/>
	<path style="fill:#3585B7;" d="M482.5,447.701c0,5.984-4.834,10.836-10.795,10.836h-86.364c-5.962,0-10.796-4.852-10.796-10.836
		v-32.506c0-5.984,4.834-10.834,10.796-10.834h86.364c5.961,0,10.795,4.85,10.795,10.834V447.701z"/>
	<path style="fill:#A5D289;" d="M89.006,377.273c-3.631,0-7.005,1.096-9.82,2.969c-0.949-8.977-8.514-15.973-17.708-15.973
		c-9.195,0-16.76,6.996-17.708,15.973c-2.816-1.873-6.189-2.969-9.82-2.969c-9.838,0-17.813,8.004-17.813,17.877v16.254
		c0,9.873,7.975,17.877,17.813,17.877c9.194,0,45.861,0,55.057,0c9.837,0,17.813-8.004,17.813-17.877V395.15
		C106.818,385.277,98.843,377.273,89.006,377.273z"/>
	<path style="fill:#3585B7;" d="M115.455,447.701c0,5.984-4.834,10.836-10.796,10.836H18.295c-5.961,0-10.795-4.852-10.795-10.836
		v-32.506c0-5.984,4.834-10.834,10.795-10.834h86.364c5.962,0,10.796,4.85,10.796,10.834V447.701z"/>
	<path style="opacity:0.1;" d="M471.705,404.361h-86.364c-5.962,0-10.796,4.85-10.796,10.834v20.639
		c0-5.984,4.834-10.834,10.796-10.834h86.364c5.961,0,10.795,4.85,10.795,10.834v-20.639
		C482.5,409.211,477.666,404.361,471.705,404.361z"/>
	<path style="opacity:0.1;" d="M104.659,404.361H18.295c-5.961,0-10.795,4.85-10.795,10.834v20.639
		C7.5,429.85,12.334,425,18.295,425h86.364c5.962,0,10.796,4.85,10.796,10.834v-20.639
		C115.455,409.211,110.621,404.361,104.659,404.361z"/>
	<rect x="211.534" y="410.861" style="fill:#C14616;" width="66.932" height="26.006"/>
	<path style="fill:#F7EEDF;" d="M165.986,123.723c-2.762,0-5-2.238-5-5v-16.951c0-2.762,2.238-5,5-5h17.046
		c9.872,0,18.841-5.829,22.848-14.851c6.868-15.465,22.224-25.458,39.12-25.458c16.896,0,32.252,9.992,39.12,25.457
		c4.007,9.021,12.976,14.852,22.848,14.852h17.046c2.762,0,5,2.238,5,5v16.951c0,2.762-2.238,5-5,5H165.986z"/>
	<g>
		<path d="M264,357.813c2.762,0,5-2.238,5-5v-14.182c0-2.762-2.238-5-5-5s-5,2.238-5,5v14.182
			C259,355.574,261.238,357.813,264,357.813z"/>
		<path d="M481.363,399.653v-4.503c0-13.993-11.355-25.377-25.313-25.377c-1.735,0-3.451,0.177-5.127,0.523
			c-3.107-5.924-8.47-10.398-14.901-12.387V226.281c11.572-6.129,19.478-18.293,19.478-32.273v-63.881
			c0-12.063-9.853-21.877-21.966-21.877h-72.021V80.932c0-9.187-7.474-16.66-16.66-16.66h-33.188
			C298.724,39.63,273.072,23.963,245,23.963s-53.724,15.667-66.665,40.309h-33.189c-9.186,0-16.66,7.474-16.66,16.66v27.318h-72.02
			c-12.112,0-21.966,9.814-21.966,21.877v63.881c0,13.98,7.905,26.145,19.478,32.273v20.714c0,4.143,3.357,7.5,7.5,7.5
			c4.143,0,7.5-3.357,7.5-7.5v-16.546c0.67,0.037,1.344,0.059,2.022,0.059c11.811,0,22.324-5.643,29-14.371
			c6.676,8.728,17.189,14.371,29,14.371s22.324-5.643,29-14.371c6.676,8.728,17.189,14.371,29,14.371s22.324-5.643,29-14.371
			c6.676,8.728,17.189,14.371,29,14.371c11.81,0,22.324-5.643,29-14.371c6.676,8.728,17.19,14.371,29,14.371s22.324-5.643,29-14.371
			c6.676,8.728,17.19,14.371,29,14.371s22.324-5.643,29-14.371c6.676,8.728,17.19,14.371,29,14.371c0.679,0,1.353-0.021,2.022-0.059
			V357.91c-4.228,1.307-7.987,3.693-10.954,6.854v-90.757c0-9.649-7.851-17.5-17.5-17.5h-56.137c-9.649,0-17.5,7.851-17.5,17.5
			v145.193c0,9.649,7.851,17.5,17.5,17.5h30.613v11c0,1.141,0.118,2.252,0.318,3.336h-59.807v-61.846V270.004
			c0-10.11-8.207-18.336-18.295-18.336h-88.523c-10.088,0-18.295,8.226-18.295,18.336v119.188v61.846h-59.807
			c0.2-1.084,0.318-2.195,0.318-3.336v-11h30.613c9.649,0,17.5-7.851,17.5-17.5V274.008c0-9.649-7.851-17.5-17.5-17.5H97.432
			c-9.649,0-17.5,7.851-17.5,17.5v90.757c-2.967-3.161-6.727-5.548-10.954-6.854v-82.915c0-4.143-3.357-7.5-7.5-7.5
			c-4.143,0-7.5,3.357-7.5,7.5v82.915c-6.432,1.988-11.794,6.463-14.901,12.387c-1.676-0.347-3.392-0.523-5.127-0.523
			c-13.957,0-25.313,11.384-25.313,25.377v4.503C3.461,402.896,0,408.641,0,415.195v32.506c0,10.11,8.207,18.336,18.295,18.336
			h453.41c10.088,0,18.295-8.226,18.295-18.336v-32.506C490,408.641,486.539,402.896,481.363,399.653z M94.932,274.008
			c0-1.379,1.121-2.5,2.5-2.5h56.137c1.379,0,2.5,1.121,2.5,2.5v145.193c0,1.379-1.121,2.5-2.5,2.5h-30.613v-5h20.613
			c4.143,0,7.5-3.357,7.5-7.5V284.008c0-4.143-3.357-7.5-7.5-7.5h-36.137c-4.143,0-7.5,3.357-7.5,7.5v88.254
			c-1.582-0.762-3.258-1.358-5-1.779V274.008z M23.637,395.15c0-5.722,4.626-10.377,10.313-10.377c2.021,0,3.981,0.593,5.667,1.714
			c2.184,1.452,4.969,1.658,7.344,0.543c2.374-1.116,3.992-3.392,4.269-6c0.558-5.279,4.964-9.261,10.249-9.261
			c5.285,0,9.691,3.982,10.25,9.262c0.275,2.608,1.895,4.884,4.269,5.999c2.376,1.116,5.16,0.91,7.344-0.544
			c1.685-1.12,3.644-1.713,5.666-1.713c5.687,0,10.313,4.655,10.313,10.377v1.711H23.637V395.15z M107.955,447.701
			c0,1.84-1.479,3.336-3.296,3.336H18.295c-1.816,0-3.295-1.496-3.295-3.336v-32.506c0-1.838,1.479-3.334,3.295-3.334h86.364
			c1.817,0,3.296,1.496,3.296,3.334V447.701z M114.932,400.065V291.508h21.137v110.193h-19.065
			C116.355,401.106,115.66,400.563,114.932,400.065z M292.557,451.037h-95.113v-54.346h95.113V451.037z M292.557,381.691h-5V279.168
			c0-4.143-3.357-7.5-7.5-7.5h-70.113c-4.143,0-7.5,3.357-7.5,7.5V336c0,4.143,3.357,7.5,7.5,7.5c4.143,0,7.5-3.357,7.5-7.5v-49.332
			h55.113v95.023h-55.113V366c0-4.143-3.357-7.5-7.5-7.5c-4.143,0-7.5,3.357-7.5,7.5v15.691h-5V270.004
			c0-1.84,1.479-3.336,3.295-3.336h88.523c1.816,0,3.295,1.496,3.295,3.336V381.691z M92.5,194.008c0,11.855-9.645,21.5-21.5,21.5
			s-21.5-9.645-21.5-21.5v-11.5h43V194.008z M150.5,194.008c0,11.855-9.645,21.5-21.5,21.5s-21.5-9.645-21.5-21.5v-11.5h43V194.008z
			 M208.5,194.008c0,11.855-9.645,21.5-21.5,21.5s-21.5-9.645-21.5-21.5v-11.5h43V194.008z M266.5,194.008
			c0,11.855-9.645,21.5-21.5,21.5s-21.5-9.645-21.5-21.5v-11.5h43V194.008z M324.5,194.008c0,11.855-9.645,21.5-21.5,21.5
			s-21.5-9.645-21.5-21.5v-11.5h43V194.008z M382.5,194.008c0,11.855-9.645,21.5-21.5,21.5s-21.5-9.645-21.5-21.5v-11.5h43V194.008z
			 M49.5,167.508v-37.381c0-3.792,3.125-6.877,6.966-6.877h72.02v16.311c0,9.188,7.474,16.662,16.66,16.662H292
			c4.143,0,7.5-3.357,7.5-7.5c0-4.143-3.357-7.5-7.5-7.5H145.146c-0.915,0-1.66-0.746-1.66-1.662V80.932
			c0-0.915,0.745-1.66,1.66-1.66h37.886c2.965,0,5.65-1.746,6.855-4.455c9.674-21.78,31.308-35.854,55.113-35.854
			s45.44,14.073,55.113,35.854c1.204,2.709,3.89,4.455,6.854,4.455h37.886c0.915,0,1.66,0.745,1.66,1.66v58.629
			c0,0.916-0.745,1.662-1.66,1.662H320c-4.143,0-7.5,3.357-7.5,7.5c0,4.143,3.357,7.5,7.5,7.5h24.853
			c9.187,0,16.66-7.475,16.66-16.662V123.25h72.021c3.841,0,6.966,3.085,6.966,6.877v37.381H49.5z M419,215.508
			c-11.855,0-21.5-9.645-21.5-21.5v-11.5h43v11.5C440.5,205.863,430.855,215.508,419,215.508z M406.66,386.486
			c2.183,1.454,4.967,1.66,7.344,0.544c2.374-1.115,3.993-3.391,4.269-5.999c0.559-5.28,4.965-9.262,10.25-9.262
			c5.285,0,9.691,3.982,10.249,9.261c0.276,2.608,1.894,4.884,4.268,6c2.375,1.115,5.16,0.909,7.344-0.543
			c1.686-1.121,3.646-1.714,5.667-1.714c5.686,0,10.313,4.655,10.313,10.377v1.711h-75.682v-1.711
			c0-5.722,4.626-10.377,10.313-10.377C403.017,384.773,404.976,385.366,406.66,386.486z M367.045,421.701h-30.613
			c-1.379,0-2.5-1.121-2.5-2.5V274.008c0-1.379,1.121-2.5,2.5-2.5h56.137c1.379,0,2.5,1.121,2.5,2.5v96.475
			c-1.742,0.421-3.418,1.018-5,1.779v-88.254c0-4.143-3.357-7.5-7.5-7.5h-36.137c-4.143,0-7.5,3.357-7.5,7.5v125.193
			c0,4.143,3.357,7.5,7.5,7.5h20.613V421.701z M375.068,400.065c-0.729,0.498-1.424,1.042-2.072,1.637h-19.064V291.508h21.137
			V400.065z M475,447.701c0,1.84-1.478,3.336-3.295,3.336h-86.364c-1.817,0-3.296-1.496-3.296-3.336v-32.506
			c0-1.838,1.479-3.334,3.296-3.334h86.364c1.816,0,3.295,1.496,3.295,3.334V447.701z"/>
		<path d="M211.534,444.367h66.932c4.143,0,7.5-3.357,7.5-7.5v-26.006c0-4.142-3.357-7.5-7.5-7.5h-66.932
			c-4.143,0-7.5,3.358-7.5,7.5v26.006C204.034,441.01,207.392,444.367,211.534,444.367z M219.034,418.361h51.932v11.006h-51.932
			V418.361z"/>
		<path d="M336.514,118.723v-16.951c0-6.893-5.607-12.5-12.5-12.5h-17.046c-6.911,0-13.189-4.081-15.993-10.396
			c-8.07-18.172-26.116-29.913-45.975-29.913s-37.904,11.742-45.975,29.914c-2.805,6.314-9.082,10.395-15.993,10.395h-17.046
			c-6.893,0-12.5,5.607-12.5,12.5v16.951c0,6.892,5.607,12.5,12.5,12.5h158.027C330.906,131.223,336.514,125.615,336.514,118.723z
			 M321.514,116.223H168.486v-11.951h14.546c12.834,0,24.493-7.578,29.702-19.307C218.4,72.207,231.065,63.963,245,63.963
			s26.6,8.243,32.266,21.001c5.209,11.729,16.868,19.308,29.702,19.308h14.546V116.223z"/>
	</g>
</g>
<g>
</g>
<g>
</g>
<g>
</g>
<g>
</g>
<g>
</g>
<g>
</g>
<g>
</g>
<g>
</g>
<g>
</g>
<g>
</g>
<g>
</g>
<g>
</g>
<g>
</g>
<g>
</g>
<g>
</g>
</svg>
