<?xml version="1.0" encoding="iso-8859-1"?>
<!-- Generator: Adobe Illustrator 19.0.0, SVG Export Plug-In . SVG Version: 6.00 Build 0)  -->
<svg version="1.1" id="Layer_1" xmlns="http://www.w3.org/2000/svg" xmlns:xlink="http://www.w3.org/1999/xlink" x="0px" y="0px"
	 viewBox="0 0 490 490" style="enable-background:new 0 0 490 490;" xml:space="preserve">
<g>
	<path style="fill:#A5D289;" d="M240.764,160.668l28.111,286.424c0.716,7.298,6.757,12.803,14.052,12.803h135.559
		c7.294,0,13.335-5.505,14.052-12.803l28.111-286.424H240.764z"/>
	<g>
		<path style="fill:#EF645E;" d="M341.166,138.863c-2.773,0-5.022-2.252-5.022-5.031V14.072c0-2.779,2.249-5.032,5.022-5.032h19.081
			c2.773,0,5.021,2.253,5.021,5.032v119.76c0,2.779-2.249,5.031-5.021,5.031H341.166z"/>
	</g>
	<g>
		<g>
			<path style="fill:#FFFFFF;" d="M339.626,69.209c-1.917,0-3.833-0.73-5.297-2.191c-2.932-2.926-2.938-7.674-0.012-10.607
				l23.433-23.483c2.926-2.933,7.675-2.938,10.606-0.011c2.932,2.926,2.938,7.674,0.012,10.606l-23.433,23.483
				C343.47,68.475,341.548,69.209,339.626,69.209z"/>
		</g>
		<g>
			<path style="fill:#FFFFFF;" d="M339.626,112.482c-1.917,0-3.833-0.73-5.298-2.191c-2.932-2.926-2.937-7.674-0.011-10.606
				l23.433-23.482c2.926-2.933,7.674-2.937,10.607-0.011c2.932,2.926,2.937,7.674,0.011,10.606l-23.433,23.482
				C343.47,111.748,341.548,112.482,339.626,112.482z"/>
		</g>
	</g>
	<g>
		<path style="fill:#79A85B;" d="M274.585,237.5h-23.094c-4.142,0-7.5-3.357-7.5-7.5s3.358-7.5,7.5-7.5h23.094
			c4.142,0,7.5,3.357,7.5,7.5S278.727,237.5,274.585,237.5z"/>
	</g>
	<g>
		<path style="fill:#79A85B;" d="M282.283,207.5h-36.566c-4.142,0-7.5-3.357-7.5-7.5s3.358-7.5,7.5-7.5h36.566
			c4.142,0,7.5,3.357,7.5,7.5S286.425,207.5,282.283,207.5z"/>
	</g>
	<path style="fill:#F7EEDF;" d="M453.317,148.129c0,7.842-6.322,14.198-14.121,14.198h-176.98c-7.797,0-14.121-6.356-14.121-14.198
		v-18.931c0-7.842,6.324-14.198,14.121-14.198h176.98c7.799,0,14.121,6.356,14.121,14.198V148.129z"/>
	<ellipse style="fill:#F7C677;" cx="350.707" cy="275.549" rx="60.219" ry="60.55"/>
	<path style="fill:#F2EBAA;" d="M350.706,316.099c-22.176,0-40.218-18.19-40.218-40.55c0-22.358,18.041-40.549,40.218-40.549
		c22.177,0,40.22,18.19,40.22,40.549C390.926,297.908,372.883,316.099,350.706,316.099z"/>
	<path style="fill:#E66416;" d="M396.527,368.583c0,18.673-15.107,33.813-33.742,33.813H41.242
		c-18.635,0-33.742-15.14-33.742-33.813l0,0c0-18.674,15.107-33.814,33.742-33.814h321.543
		C381.42,334.77,396.527,349.909,396.527,368.583L396.527,368.583z"/>
	<path style="opacity:0.1;" d="M49,368.583c0-18.674,15.107-33.814,33.742-33.814h-41.5c-18.635,0-33.742,15.14-33.742,33.814
		c0,18.673,15.107,33.813,33.742,33.813h41.5C64.107,402.396,49,387.256,49,368.583z"/>
	<g>
		<g>
			<path style="fill:#AA340F;" d="M116.436,362.957c-6.554,0-9.922-8.175-5.309-12.798l18.142-18.178
				c2.925-2.932,7.674-2.937,10.607-0.011s2.936,7.675,0.011,10.606l-18.142,18.178C120.28,362.223,118.358,362.957,116.436,362.957
				z"/>
		</g>
		<g>
			<path style="fill:#F7EEDF;" d="M165.914,362.957c-6.554,0-9.922-8.175-5.309-12.798l18.141-18.178
				c2.925-2.932,7.674-2.937,10.606-0.011c2.932,2.926,2.937,7.675,0.011,10.606l-18.141,18.178
				C169.757,362.223,167.835,362.957,165.914,362.957z"/>
		</g>
		<g>
			<path style="fill:#AA340F;" d="M215.391,362.957c-6.554,0-9.923-8.175-5.309-12.798l18.141-18.178
				c2.925-2.932,7.674-2.937,10.607-0.011s2.936,7.675,0.011,10.606l-18.141,18.178
				C219.234,362.223,217.313,362.957,215.391,362.957z"/>
		</g>
		<g>
			<path style="fill:#F7EEDF;" d="M264.868,362.957c-6.554,0-9.922-8.175-5.309-12.798l18.142-18.178
				c2.925-2.932,7.674-2.937,10.606-0.011c2.932,2.926,2.937,7.675,0.011,10.606l-18.142,18.178
				C268.711,362.223,266.79,362.957,264.868,362.957z"/>
		</g>
	</g>
	<path style="opacity:0.1;" d="M310.375,447.092l-28.242-287.754c-0.39-3.98,0.916-7.964,3.588-10.929
		c2.671-2.966,6.485-4.665,10.465-4.665h-41.5c-3.98,0-7.793,1.699-10.465,4.665c-2.672,2.965-3.978,6.948-3.588,10.929
		l28.242,287.754c0.716,7.298,6.757,12.803,14.052,12.803h41.5C317.132,459.895,311.091,454.39,310.375,447.092z"/>
	<path style="fill:#F7C677;" d="M378.168,427.257c0,29.659-23.993,53.703-53.59,53.703H79.45c-29.597,0-53.59-24.044-53.59-53.703
		l0,0c0-29.659,23.993-53.702,53.59-53.702h245.127C354.174,373.555,378.168,397.598,378.168,427.257L378.168,427.257z"/>
	<path style="opacity:0.1;" d="M67.692,427.257c0-29.659,23.993-53.702,53.59-53.702H79.45c-29.597,0-53.59,24.043-53.59,53.702
		c0,29.659,23.993,53.703,53.59,53.703h41.832C91.686,480.96,67.692,456.916,67.692,427.257z"/>
	<path style="opacity:0.1;" d="M289.595,148.129v-18.931c0-7.842,6.324-14.198,14.121-14.198h-41.5
		c-7.797,0-14.121,6.356-14.121,14.198v18.931c0,7.842,6.324,14.198,14.121,14.198h41.5
		C295.919,162.327,289.595,155.971,289.595,148.129z"/>
	<path style="fill:#F7EEDF;" d="M482.5,162.675c0,7.843-6.322,14.199-14.121,14.199H233.033c-7.797,0-14.121-6.356-14.121-14.199
		v-11.357c0-7.842,6.324-14.199,14.121-14.199h235.346c7.799,0,14.121,6.357,14.121,14.199V162.675z"/>
	<path style="opacity:0.1;" d="M260.412,162.675v-11.357c0-7.842,6.324-14.199,14.121-14.199h-41.5
		c-7.797,0-14.121,6.357-14.121,14.199v11.357c0,7.843,6.324,14.199,14.121,14.199h41.5
		C266.736,176.874,260.412,170.518,260.412,162.675z"/>
	<g>
		<path d="M398.426,275.549c0-26.494-21.407-48.049-47.72-48.049c-26.312,0-47.718,21.555-47.718,48.049
			c0,26.495,21.406,48.05,47.718,48.05C377.019,323.599,398.426,302.044,398.426,275.549z M317.988,275.549
			c0-18.224,14.677-33.049,32.718-33.049c18.042,0,32.72,14.825,32.72,33.049c0,18.224-14.678,33.05-32.72,33.05
			C332.665,308.599,317.988,293.772,317.988,275.549z"/>
		<path d="M468.379,129.618h-7.562v-0.42c0-11.965-9.699-21.698-21.621-21.698h-66.428V14.072c0-6.91-5.617-12.532-12.521-12.532
			h-19.081c-6.905,0-12.522,5.622-12.522,12.532V107.5h-66.428c-11.921,0-21.621,9.733-21.621,21.698v0.42h-7.563
			c-11.922,0-21.621,9.734-21.621,21.699v11.357c0,11.965,9.699,21.699,21.621,21.699h2.521l14.024,142.896H41.242
			C18.501,327.27,0,345.803,0,368.583c0,15.994,9.127,29.882,22.432,36.743c-2.62,6.813-4.072,14.203-4.072,21.931
			c0,33.747,27.405,61.203,61.09,61.203h170.549c4.142,0,7.5-3.357,7.5-7.5c0-4.143-3.358-7.5-7.5-7.5H79.45
			c-25.414,0-46.09-20.727-46.09-46.203c0-25.475,20.676-46.202,46.09-46.202H108c4.142,0,7.5-3.357,7.5-7.5
			c0-4.143-3.358-7.5-7.5-7.5H79.45c-20.624,0-38.879,10.301-49.946,26.026C20.917,387.753,15,378.857,15,368.583
			c0-14.509,11.772-26.314,26.242-26.314h321.543c14.47,0,26.242,11.805,26.242,26.314c0,10.274-5.917,19.17-14.504,23.498
			c-11.067-15.726-29.323-26.026-49.946-26.026H138.999c-4.142,0-7.5,3.357-7.5,7.5c0,4.143,3.358,7.5,7.5,7.5h185.578
			c25.414,0,46.09,20.727,46.09,46.202c0,25.477-20.676,46.203-46.09,46.203H287c-4.142,0-7.5,3.357-7.5,7.5
			c0,4.143,3.358,7.5,7.5,7.5h37.577c18.366,0,34.852-8.173,46.06-21.065h47.849c11.171,0,20.421-8.413,21.516-19.57l25.856-263.45
			h2.522c11.922,0,21.621-9.734,21.621-21.699v-11.357C490,139.352,480.301,129.618,468.379,129.618z M343.644,16.54h14.125v90.96
			h-14.125V16.54z M297.988,275.549c0-29.251,23.649-53.049,52.718-53.049c29.07,0,52.72,23.798,52.72,53.049
			c0,25.211-17.573,46.355-41.037,51.721h-23.365C315.56,321.904,297.988,300.76,297.988,275.549z M425.073,446.359
			c-0.338,3.44-3.17,6.035-6.588,6.035h-38.231c3.466-7.675,5.413-16.181,5.413-25.138c0-7.728-1.452-15.118-4.072-21.931
			c13.305-6.861,22.432-20.749,22.432-36.743c0-14.457-7.457-27.195-18.715-34.579c19.81-11.887,33.113-33.633,33.113-58.455
			c0-37.522-30.379-68.049-67.72-68.049c-37.34,0-67.718,30.526-67.718,68.049c0,20.687,9.242,39.233,23.786,51.721H264.65
			l-14.024-142.896h200.159L425.073,446.359z M475,162.675c0,3.694-2.97,6.699-6.621,6.699H233.033c-3.65,0-6.621-3.005-6.621-6.699
			v-11.357c0-3.694,2.97-6.699,6.621-6.699H393c4.142,0,7.5-3.357,7.5-7.5c0-4.143-3.358-7.5-7.5-7.5H255.595v-0.42
			c0-3.693,2.97-6.698,6.621-6.698h176.98c3.651,0,6.621,3.005,6.621,6.698v0.42H429c-4.142,0-7.5,3.357-7.5,7.5
			c0,4.143,3.358,7.5,7.5,7.5h39.379c3.651,0,6.621,3.005,6.621,6.699V162.675z"/>
	</g>
</g>
<g>
</g>
<g>
</g>
<g>
</g>
<g>
</g>
<g>
</g>
<g>
</g>
<g>
</g>
<g>
</g>
<g>
</g>
<g>
</g>
<g>
</g>
<g>
</g>
<g>
</g>
<g>
</g>
<g>
</g>
</svg>
