<?xml version="1.0" encoding="iso-8859-1"?>
<!-- Generator: Adobe Illustrator 19.0.0, SVG Export Plug-In . SVG Version: 6.00 Build 0)  -->
<svg version="1.1" id="Layer_1" xmlns="http://www.w3.org/2000/svg" xmlns:xlink="http://www.w3.org/1999/xlink" x="0px" y="0px"
	 viewBox="0 0 490 490" style="enable-background:new 0 0 490 490;" xml:space="preserve">
<g>
	<ellipse style="fill:#C14616;" cx="391.918" cy="322.698" rx="23.198" ry="23.326"/>
	<g>
		<path style="fill:#78B591;" d="M228.485,157.247c-0.822,0.826-1.807,1.488-2.905,1.936c-15.687,6.387-27.048,7.793-38.699-3.924
			c-11.521-11.584-15.501-28.682-10.384-44.615c0.432-1.346,1.173-2.549,2.141-3.521c0.967-0.973,2.162-1.717,3.501-2.152
			c15.846-5.145,32.847-1.145,44.368,10.441c11.652,11.717,10.254,23.141,3.902,38.914
			C229.965,155.431,229.307,156.421,228.485,157.247z"/>
	</g>
	<g>
		<path style="fill:#5D8C70;" d="M228.485,164.747c-1.926,0-3.853-0.737-5.318-2.212l-23.029-23.158
			c-2.921-2.936-2.908-7.686,0.029-10.607c2.938-2.92,7.687-2.907,10.606,0.03l23.029,23.158c2.921,2.936,2.908,7.686-0.029,10.607
			C232.31,164.02,230.398,164.747,228.485,164.747z"/>
	</g>
	<g>
		<path style="fill:#C14616;" d="M252.015,191.626c-3.126,0-5.952-1.869-7.188-4.756c-2.777-6.482-4.245-13.818-4.245-21.215
			c0-24.736,16.151-44.859,36.003-44.859c19.851,0,36.002,20.123,36.002,44.859c0,7.396-1.467,14.732-4.245,21.215
			c-1.237,2.887-4.063,4.756-7.189,4.756H252.015z"/>
		<line style="fill:#C69C6D;" x1="298.728" y1="145.903" x2="299.833" y2="145.903"/>
	</g>
	<ellipse style="fill:#7C5C9E;" cx="206.337" cy="176.075" rx="23.198" ry="23.326"/>
	<g>
		<g>
			<path style="fill:#912C0D;" d="M255.647,153.403h-1.104c-4.142,0-7.5-3.357-7.5-7.5c0-4.143,3.358-7.5,7.5-7.5h1.104
				c4.142,0,7.5,3.357,7.5,7.5C263.147,150.046,259.79,153.403,255.647,153.403z"/>
		</g>
		<g>
			<path style="fill:#912C0D;" d="M251.228,177.839h-1.104c-4.142,0-7.5-3.357-7.5-7.5c0-4.143,3.358-7.5,7.5-7.5h1.104
				c4.142,0,7.5,3.357,7.5,7.5C258.728,174.482,255.371,177.839,251.228,177.839z"/>
		</g>
		<g>
			<path style="fill:#912C0D;" d="M299.834,153.403h-1.106c-4.142,0-7.5-3.357-7.5-7.5c0-4.143,3.358-7.5,7.5-7.5h1.106
				c4.142,0,7.5,3.357,7.5,7.5C307.334,150.046,303.976,153.403,299.834,153.403z"/>
		</g>
		<g>
			<path style="fill:#912C0D;" d="M303.147,176.73h-1.104c-4.142,0-7.5-3.357-7.5-7.5c0-4.143,3.358-7.5,7.5-7.5h1.104
				c4.142,0,7.5,3.357,7.5,7.5C310.647,173.372,307.29,176.73,303.147,176.73z"/>
		</g>
		<g>
			<path style="fill:#912C0D;" d="M277.74,165.62h-1.104c-4.142,0-7.5-3.357-7.5-7.5c0-4.143,3.358-7.5,7.5-7.5h1.104
				c4.142,0,7.5,3.357,7.5,7.5C285.24,162.263,281.882,165.62,277.74,165.62z"/>
		</g>
		<g>
			<path style="fill:#912C0D;" d="M277.74,140.073h-1.104c-4.142,0-7.5-3.357-7.5-7.5c0-4.143,3.358-7.5,7.5-7.5h1.104
				c4.142,0,7.5,3.357,7.5,7.5C285.24,136.716,281.882,140.073,277.74,140.073z"/>
		</g>
	</g>
	<ellipse style="fill:#644382;" cx="245" cy="176.075" rx="23.198" ry="23.326"/>
	<ellipse style="fill:#C14616;" cx="96.977" cy="324.921" rx="23.198" ry="23.326"/>
	<path style="fill:#F7EEDF;" d="M135.997,358.243c-3.493,0-6.779-1.66-8.863-4.477c-2.084-2.818-2.721-6.461-1.717-9.824
		l44.105-147.734c1.402-4.697,5.702-7.914,10.58-7.914h129.953c4.881,0,9.184,3.223,10.583,7.924l43.95,147.734
		c1,3.363,0.362,7.004-1.723,9.818c-2.085,2.814-5.37,4.473-8.86,4.473H135.997z"/>
	<path style="fill:#EF645E;" d="M330.776,230.505l-10.199-34.287c-1.399-4.701-5.702-7.924-10.583-7.924H180.041
		c-4.877,0-9.177,3.217-10.58,7.914l-10.238,34.297h99.032v12.217c0,7.361,5.935,13.33,13.256,13.33
		c5.439,0,10.107-3.297,12.151-8.01v5.789c0,7.359,5.935,13.328,13.256,13.328c7.321,0,13.256-5.969,13.256-13.328v-23.326H330.776z
		"/>
	<path style="opacity:0.1;" d="M158.184,353.767c-2.084-2.818-2.721-6.461-1.717-9.824l44.105-147.734
		c1.402-4.697,5.702-7.914,10.58-7.914h-31.05c-4.878,0-9.177,3.217-10.58,7.914l-44.105,147.734
		c-1.004,3.363-0.367,7.006,1.717,9.824c2.084,2.816,5.371,4.477,8.863,4.477h31.05
		C163.554,358.243,160.268,356.583,158.184,353.767z"/>
	<ellipse style="fill:#644382;" cx="131.221" cy="319.366" rx="23.198" ry="23.326"/>
	<ellipse style="fill:#644382;" cx="360.988" cy="319.366" rx="23.198" ry="23.326"/>
	<path style="fill:#C1D9E8;" d="M68.75,342.579c-0.284,1.9-0.434,3.846-0.434,5.824c0,21.449,17.29,38.834,38.619,38.834h276.128
		c21.329,0,38.619-17.385,38.619-38.834c0-1.978-0.149-3.924-0.434-5.824H68.75z"/>
	<path style="opacity:0.1;" d="M108.817,348.403c0-1.978,0.149-3.924,0.434-5.824h-40.5c-0.284,1.9-0.434,3.846-0.434,5.824
		c0,21.449,17.29,38.834,38.619,38.834h40.5C126.107,387.237,108.817,369.853,108.817,348.403z"/>
	<path style="fill:#CEE9FF;" d="M482.5,343.804c0,6.135-4.945,11.107-11.046,11.107H18.546c-6.101,0-11.046-4.973-11.046-11.107
		v-6.664c0-6.137,4.946-11.109,11.046-11.109h452.907c6.101,0,11.046,4.973,11.046,11.109V343.804z"/>
	<path style="opacity:0.1;" d="M58,343.804v-6.664c0-6.137,4.946-11.109,11.046-11.109h-50.5c-6.101,0-11.046,4.973-11.046,11.109
		v6.664c0,6.135,4.946,11.107,11.046,11.107h50.5C62.946,354.911,58,349.939,58,343.804z"/>
	<path d="M471.453,318.53h-49.125c-2.034-15.033-14.891-26.658-30.41-26.658c-4.508,0-8.789,0.986-12.648,2.748
		c-5.11-3.817-11.438-6.08-18.282-6.08c-1.683,0-3.332,0.142-4.942,0.405l-5.975-20.086c-1.181-3.971-5.358-6.229-9.327-5.05
		c-3.97,1.181-6.231,5.356-5.05,9.327l6.508,21.876c-7.034,5.483-11.631,13.964-11.887,23.518H221.999c-4.142,0-7.5,3.357-7.5,7.5
		s3.358,7.5,7.5,7.5h249.454c1.956,0,3.547,1.619,3.547,3.609v6.664c0,1.989-1.591,3.607-3.547,3.607H355
		c-4.142,0-7.5,3.357-7.5,7.5c0,4.143,3.358,7.5,7.5,7.5h55.891c-5.115,10.264-15.665,17.326-27.826,17.326H106.936
		c-12.161,0-22.711-7.063-27.826-17.326H319c4.142,0,7.5-3.357,7.5-7.5c0-4.143-3.358-7.5-7.5-7.5H18.546
		c-1.956,0-3.546-1.618-3.546-3.607v-6.664c0-1.99,1.591-3.609,3.546-3.609H185c4.142,0,7.5-3.357,7.5-7.5s-3.358-7.5-7.5-7.5
		h-23.103c-0.276-10.335-5.64-19.416-13.662-24.805l16.635-55.721h85.885v4.717c0,11.485,9.311,20.83,20.756,20.83
		c2.26,0,4.46-0.367,6.532-1.058c3.282,7.173,10.508,12.165,18.875,12.165c11.445,0,20.756-9.344,20.756-20.828v-15.826h7.569
		l3.611,12.139c1.181,3.971,5.355,6.23,9.327,5.05c3.97-1.181,6.231-5.357,5.05-9.327l-15.406-51.787
		c-1.549-5.208-5.312-9.357-10.051-11.559c1.509-5.41,2.312-11.122,2.312-16.865c0-28.871-19.515-52.359-43.502-52.359
		c-13.673,0-25.885,7.641-33.863,19.552c-0.415-7.479-3.359-15.147-10.895-22.725c-9.529-9.583-22.26-14.86-35.849-14.86
		c-5.46,0-10.895,0.866-16.157,2.574c-2.442,0.795-4.69,2.177-6.499,3.995c-1.808,1.817-3.179,4.071-3.965,6.519
		c-5.819,18.121-1.538,37.552,11.151,51.098c-3.075,4.802-4.868,10.506-4.868,16.627c0,1.761,0.155,3.484,0.44,5.164
		c-6.483,1.42-11.771,6.212-13.745,12.823l-28.247,94.615c-0.945-0.088-1.9-0.138-2.867-0.138c-8.189,0-15.633,3.243-21.143,8.509
		c-3.975-1.893-8.416-2.954-13.101-2.954c-14.745,0-27.091,10.494-30.03,24.436h-48.4C8.32,318.53,0,326.878,0,337.14v6.664
		c0,10.26,8.32,18.607,18.546,18.607h44.446c5.924,18.721,23.374,32.326,43.944,32.326h276.128c20.57,0,38.02-13.605,43.944-32.326
		h44.445c10.227,0,18.547-8.348,18.547-18.607v-6.664C490,326.878,481.68,318.53,471.453,318.53z M345.333,318.53
		c0.435-8.337,7.28-14.99,15.655-14.99c8.376,0,15.22,6.653,15.655,14.99H345.333z M391.664,318.53
		c-0.109-4.042-0.989-7.893-2.509-11.406c0.897-0.162,1.82-0.252,2.763-0.252c7.224,0,13.306,4.951,15.127,11.658H391.664z
		 M276.584,128.296c15.716,0,28.502,16.76,28.502,37.359c0,5.225-0.853,10.39-2.461,15.139h-27.29
		c0.237-1.539,0.362-3.114,0.362-4.719c0-14.472-9.983-26.639-23.396-29.938C257.32,135.445,266.324,128.296,276.584,128.296z
		 M245,160.249c8.655,0,15.697,7.1,15.697,15.826c0,1.646-0.271,3.226-0.735,4.719h-29.925c-0.464-1.493-0.735-3.072-0.735-4.719
		C229.302,167.349,236.344,160.249,245,160.249z M183.638,112.937c0.064-0.199,0.174-0.381,0.318-0.525
		c0.142-0.143,0.311-0.246,0.5-0.308c3.761-1.222,7.637-1.841,11.522-1.841c9.566,0,18.52,3.707,25.212,10.437
		c7.863,7.907,8.497,15.015,2.573,30.024c-4.954-3.445-10.956-5.475-17.425-5.475c-5.408,0-10.49,1.416-14.907,3.892
		C182.502,139.575,179.5,125.82,183.638,112.937z M214.665,180.794h-23.29c-0.464-1.493-0.735-3.072-0.735-4.719
		c0-8.727,7.042-15.826,15.698-15.826c3.961,0,7.579,1.49,10.34,3.942c-1.528,3.66-2.376,7.674-2.376,11.885
		C214.302,177.68,214.427,179.255,214.665,180.794z M176.708,198.354c0.457-1.531,1.821-2.559,3.393-2.559h129.953
		c1.574,0,2.939,1.029,3.395,2.563l7.333,24.648h-10.607c-4.142,0-7.5,3.357-7.5,7.5v23.326c0,3.214-2.582,5.828-5.756,5.828
		c-3.174,0-5.756-2.614-5.756-5.828v-5.789c0-3.555-2.496-6.622-5.977-7.344c-3.484-0.719-6.991,1.099-8.405,4.36
		c-0.92,2.122-2.988,3.493-5.269,3.493c-3.174,0-5.756-2.615-5.756-5.83v-12.217c0-4.143-3.358-7.5-7.5-7.5h-88.907L176.708,198.354
		z M131.221,303.54c8.376,0,15.221,6.653,15.656,14.99h-31.311C116,310.193,122.845,303.54,131.221,303.54z M96.977,309.095
		c1.758,0,3.445,0.299,5.022,0.841c-0.873,2.72-1.361,5.606-1.442,8.595H82.628C85.069,312.98,90.578,309.095,96.977,309.095z"/>
	<g>
		<path style="fill:#FFFFFF;" d="M290.623,201.001c-3.339,8.06-6.046,10.768-14.108,14.107c8.062,3.338,10.769,6.046,14.108,14.107
			c3.339-8.062,6.046-10.77,14.107-14.107C296.669,211.769,293.961,209.061,290.623,201.001z"/>
		<circle style="fill:#FFFFFF;" cx="279.224" cy="232.314" r="6.224"/>
	</g>
</g>
<g>
</g>
<g>
</g>
<g>
</g>
<g>
</g>
<g>
</g>
<g>
</g>
<g>
</g>
<g>
</g>
<g>
</g>
<g>
</g>
<g>
</g>
<g>
</g>
<g>
</g>
<g>
</g>
<g>
</g>
</svg>
