<?xml version="1.0" encoding="iso-8859-1"?>
<!-- Generator: Adobe Illustrator 19.0.0, SVG Export Plug-In . SVG Version: 6.00 Build 0)  -->
<svg version="1.1" id="Layer_1" xmlns="http://www.w3.org/2000/svg" xmlns:xlink="http://www.w3.org/1999/xlink" x="0px" y="0px"
	 viewBox="0 0 490 490" style="enable-background:new 0 0 490 490;" xml:space="preserve">
<g>
	<rect x="231" y="67.897" style="fill:#4D556D;" width="28" height="354.205"/>
	<path style="fill:#6B758E;" d="M230.934,443.853c0,5.722-4.632,10.357-10.345,10.357H17.845c-5.713,0-10.345-4.635-10.345-10.357
		V46.147c0-5.72,4.632-10.356,10.345-10.356h202.744c5.713,0,10.345,4.637,10.345,10.356V443.853z"/>
	<path style="opacity:0.1;" d="M38.566,443.853V46.147c0-5.72,4.632-10.356,10.345-10.356H17.845
		c-5.713,0-10.345,4.637-10.345,10.356v397.705c0,5.722,4.632,10.357,10.345,10.357h31.066
		C43.198,454.209,38.566,449.574,38.566,443.853z"/>
	<path style="fill:#6B758E;" d="M482.5,443.853c0,5.722-4.631,10.357-10.345,10.357H269.411c-5.714,0-10.345-4.635-10.345-10.357
		V46.147c0-5.72,4.631-10.356,10.345-10.356h202.744c5.714,0,10.345,4.637,10.345,10.356V443.853z"/>
	<path style="opacity:0.1;" d="M281,443.853V46.147c0-5.72,4.631-10.356,10.345-10.356h-21.934c-5.714,0-10.345,4.637-10.345,10.356
		v397.705c0,5.722,4.631,10.357,10.345,10.357h21.934C285.631,454.209,281,449.574,281,443.853z"/>
	<g>
		<g>
			<path style="fill:#F7EEDF;" d="M441.124,393.951c0,2.859-2.315,5.176-5.173,5.176H305.615c-2.857,0-5.173-2.317-5.173-5.176
				V114.313c0-2.859,2.315-5.177,5.173-5.177h130.336c2.857,0,5.173,2.317,5.173,5.177V393.951z"/>
		</g>
	</g>
	<path style="opacity:0.1;" d="M326.491,378.99c-2.857,0-5.173-2.316-5.173-5.176V109.137h-15.703c-2.857,0-5.173,2.317-5.173,5.177
		v279.638c0,2.859,2.315,5.176,5.173,5.176h130.336c2.857,0,5.173-2.317,5.173-5.176V378.99H326.491z"/>
	<path style="fill:#4D556D;" d="M48.877,93.127H7.5v70.427h41.377c8.568,0,15.516-6.956,15.516-15.536v-39.356
		C64.393,100.081,57.445,93.127,48.877,93.127z"/>
	<g>
		<path style="fill:#CCCCCC;" d="M198.43,275.065c0,6.483-5.254,11.736-11.734,11.736H51.74c-6.482,0-11.735-5.253-11.735-11.736
			v-78.641c0-6.482,5.253-11.736,11.735-11.736h134.955c6.48,0,11.734,5.254,11.734,11.736V275.065z"/>
		<path style="opacity:0.1;" d="M71.575,275.065v-78.641c0-6.482,5.253-11.736,11.735-11.736H51.74
			c-6.482,0-11.735,5.254-11.735,11.736v78.641c0,6.483,5.253,11.736,11.735,11.736h31.57
			C76.828,286.801,71.575,281.548,71.575,275.065z"/>
		<rect x="40.005" y="211.683" style="fill:#4D556D;" width="158.425" height="19.954"/>
	</g>
	<path style="fill:#4D556D;" d="M129.05,265.903c-1.794-6.826-7.957-11.581-15.005-11.581H7.5v189.53
		c0,5.722,4.632,10.357,10.345,10.357h160.698L129.05,265.903z"/>
	<path style="opacity:0.1;" d="M49.302,423c-5.713,0-10.345-4.635-10.345-10.356V254.322H7.5v189.53
		c0,5.722,4.632,10.357,10.345,10.357h160.698L170.34,423H49.302z"/>
	<g>
		<g>
			<path style="fill:#BCB3A6;" d="M415.264,326.379h-89.993c-4.143,0-7.5,3.357-7.5,7.5s3.357,7.5,7.5,7.5h89.993
				c4.143,0,7.5-3.357,7.5-7.5S419.406,326.379,415.264,326.379z"/>
			<path style="fill:#BCB3A6;" d="M415.264,351.236h-44.48c-4.143,0-7.5,3.358-7.5,7.5c0,4.143,3.357,7.5,7.5,7.5h44.48
				c4.143,0,7.5-3.357,7.5-7.5C422.764,354.594,419.406,351.236,415.264,351.236z"/>
			<path style="fill:#BCB3A6;" d="M325.271,219.169h44.479c4.143,0,7.5-3.357,7.5-7.5c0-4.143-3.357-7.5-7.5-7.5h-44.479
				c-4.143,0-7.5,3.357-7.5,7.5C317.771,215.811,321.128,219.169,325.271,219.169z"/>
			<path style="fill:#BCB3A6;" d="M325.271,248.168h44.479c4.143,0,7.5-3.357,7.5-7.5c0-4.143-3.357-7.5-7.5-7.5h-44.479
				c-4.143,0-7.5,3.357-7.5,7.5C317.771,244.811,321.128,248.168,325.271,248.168z"/>
			<path style="fill:#BCB3A6;" d="M325.271,277.166h44.479c4.143,0,7.5-3.357,7.5-7.5c0-4.143-3.357-7.5-7.5-7.5h-44.479
				c-4.143,0-7.5,3.357-7.5,7.5C317.771,273.809,321.128,277.166,325.271,277.166z"/>
			<path style="fill:#BCB3A6;" d="M396.09,219.169h19.174c4.143,0,7.5-3.357,7.5-7.5c0-4.143-3.357-7.5-7.5-7.5H396.09
				c-4.143,0-7.5,3.357-7.5,7.5C388.59,215.811,391.947,219.169,396.09,219.169z"/>
			<path style="fill:#BCB3A6;" d="M415.264,233.168H396.09c-4.143,0-7.5,3.357-7.5,7.5c0,4.143,3.357,7.5,7.5,7.5h19.174
				c4.143,0,7.5-3.357,7.5-7.5C422.764,236.525,419.406,233.168,415.264,233.168z"/>
			<path style="fill:#BCB3A6;" d="M415.264,262.166H396.09c-4.143,0-7.5,3.357-7.5,7.5c0,4.143,3.357,7.5,7.5,7.5h19.174
				c4.143,0,7.5-3.357,7.5-7.5C422.764,265.523,419.406,262.166,415.264,262.166z"/>
			<path style="fill:#BCB3A6;" d="M415.264,291.167H396.09c-4.143,0-7.5,3.357-7.5,7.5c0,4.143,3.357,7.5,7.5,7.5h19.174
				c4.143,0,7.5-3.357,7.5-7.5C422.764,294.524,419.406,291.167,415.264,291.167z"/>
		</g>
		<g>
			<path style="fill:#BCB3A6;" d="M370.783,193.244c-16.923,0-30.18-9.278-30.18-21.124c0-11.845,13.257-21.123,30.18-21.123
				c16.922,0,30.178,9.278,30.178,21.123C400.961,183.966,387.705,193.244,370.783,193.244z M370.783,165.997
				c-9.445,0-15.18,4.253-15.18,6.123s5.734,6.124,15.18,6.124c9.443,0,15.178-4.254,15.178-6.124S380.227,165.997,370.783,165.997z
				"/>
		</g>
	</g>
	<rect x="323.091" y="35.791" style="fill:#4D556D;" width="95.385" height="89.896"/>
	<rect x="323.091" y="35.791" style="opacity:0.1;" width="31.524" height="89.896"/>
	<path style="fill:#3585B7;" d="M404.433,129.027c0,5.317-4.306,9.627-9.615,9.627h-48.068c-5.311,0-9.615-4.31-9.615-9.627v-9.623
		c0-5.318,4.304-9.627,9.615-9.627h48.068c5.31,0,9.615,4.309,9.615,9.627V129.027z"/>
	<path d="M472.155,28.291H269.411c-9.84,0-17.845,8.011-17.845,17.856v14.25h-13.133v-14.25c0-9.846-8.005-17.856-17.845-17.856
		H17.845C8.005,28.291,0,36.302,0,46.147v397.705c0,9.846,8.005,17.857,17.845,17.857h202.744c9.84,0,17.845-8.011,17.845-17.857
		v-14.25h13.133v14.25c0,9.846,8.005,17.857,17.845,17.857H410c4.143,0,7.5-3.357,7.5-7.5c0-4.143-3.357-7.5-7.5-7.5H269.411
		c-1.568,0-2.845-1.281-2.845-2.857V46.147c0-1.575,1.276-2.856,2.845-2.856h46.18v58.346h-9.976
		c-6.988,0-12.673,5.686-12.673,12.677v279.638c0,6.989,5.685,12.676,12.673,12.676h130.336c6.988,0,12.673-5.687,12.673-12.676
		V164.999c0-4.143-3.357-7.5-7.5-7.5c-4.143,0-7.5,3.357-7.5,7.5v226.628H307.942v-274.99h7.648v9.05c0,4.143,3.357,7.5,7.5,7.5
		h7.075c1.864,7.437,8.581,12.968,16.583,12.968h48.068c8.002,0,14.719-5.531,16.583-12.968h7.075c4.143,0,7.5-3.357,7.5-7.5v-9.05
		h7.648v19.364c0,4.143,3.357,7.5,7.5,7.5c4.143,0,7.5-3.357,7.5-7.5v-21.688c0-6.99-5.684-12.677-12.673-12.677h-9.976V43.291
		h46.18c1.568,0,2.845,1.281,2.845,2.856v397.705c0,1.575-1.276,2.857-2.845,2.857h-24.156c-4.143,0-7.5,3.357-7.5,7.5
		c0,4.143,3.357,7.5,7.5,7.5h24.156c9.84,0,17.845-8.011,17.845-17.857V46.147C490,36.302,481.995,28.291,472.155,28.291z
		 M15,100.627h33.877c4.42,0,8.016,3.604,8.016,8.034v39.356c0,4.431-3.596,8.036-8.016,8.036H15V100.627z M223.434,443.853
		c0,1.575-1.276,2.857-2.845,2.857h-36.263l-18.562-70.617c-1.052-4.006-5.151-6.397-9.16-5.348c-4.006,1.054-6.4,5.154-5.347,9.16
		l17.56,66.805H17.845c-1.568,0-2.845-1.281-2.845-2.857v-182.03h99.045c3.637,0,6.825,2.462,7.752,5.987l20.788,79.091
		c0.885,3.367,3.923,5.596,7.248,5.596c0.631,0,1.273-0.08,1.911-0.248c4.006-1.053,6.4-5.154,5.347-9.16l-12.822-48.787h42.427
		c10.606,0,19.234-8.629,19.234-19.236v-78.641c0-10.607-8.628-19.236-19.234-19.236H51.74c-10.606,0-19.235,8.629-19.235,19.236
		v50.398H15v-75.769h33.877c12.691,0,23.016-10.334,23.016-23.036v-39.356c0-12.701-10.325-23.034-23.016-23.034H15V46.147
		c0-1.575,1.276-2.856,2.845-2.856h202.744c1.568,0,2.845,1.281,2.845,2.856V443.853z M47.505,239.137H190.93v35.928
		c0,2.336-1.899,4.236-4.234,4.236h-46.369l-4.022-15.304c-2.658-10.112-11.811-17.175-22.259-17.175h-66.54V239.137z
		 M47.505,219.183H190.93v4.954H47.505V219.183z M190.93,204.183H47.505v-7.759c0-2.336,1.9-4.236,4.235-4.236h134.955
		c2.335,0,4.234,1.9,4.234,4.236V204.183z M251.566,414.603h-13.133V75.397h13.133V414.603z M396.933,129.027
		c0,1.173-0.949,2.127-2.115,2.127h-48.068c-1.166,0-2.115-0.954-2.115-2.127v-9.623c0-1.173,0.949-2.127,2.115-2.127h48.068
		c1.166,0,2.115,0.954,2.115,2.127V129.027z M410.976,113.809c-2.325-6.7-8.681-11.531-16.158-11.531h-48.068
		c-7.477,0-13.833,4.831-16.158,11.531V43.291h80.385V113.809z"/>
</g>
<g>
</g>
<g>
</g>
<g>
</g>
<g>
</g>
<g>
</g>
<g>
</g>
<g>
</g>
<g>
</g>
<g>
</g>
<g>
</g>
<g>
</g>
<g>
</g>
<g>
</g>
<g>
</g>
<g>
</g>
</svg>
