<?xml version="1.0" encoding="iso-8859-1"?>
<!-- Generator: Adobe Illustrator 19.0.0, SVG Export Plug-In . SVG Version: 6.00 Build 0)  -->
<svg version="1.1" id="Layer_1" xmlns="http://www.w3.org/2000/svg" xmlns:xlink="http://www.w3.org/1999/xlink" x="0px" y="0px"
	 viewBox="0 0 490 490" style="enable-background:new 0 0 490 490;" xml:space="preserve">
<g>
	<path style="fill:#D6ECF2;" d="M13.15,448.289c-2.002,0-3.854-1.07-4.861-2.807c-1.009-1.738-1.021-3.883-0.036-5.633
		c4.97-8.818,23.866-14.744,47.021-14.744c23.156,0,42.052,5.926,47.021,14.744c0.986,1.75,0.974,3.895-0.036,5.633
		c-1.007,1.736-2.859,2.807-4.86,2.807H13.15z"/>
	<path style="fill:#CEE9FF;" d="M180.169,426.219c-1.668,0-3.299-0.49-4.69-1.416c-35.803-23.754-57.177-63.574-57.177-106.518
		c0-27.271,8.925-54.332,25.132-76.197c3.848-5.188,9.986-8.283,16.422-8.283h170.84c6.435,0,12.572,3.096,16.419,8.281
		c16.209,21.869,25.135,48.93,25.135,76.199c0,42.943-21.375,82.764-57.177,106.518c-1.393,0.926-3.023,1.416-4.691,1.416H180.169z"
		/>
	<path style="fill:#D6ECF2;" d="M434.726,315.863c-26.344,0-47.774-21.531-47.774-48V140.414c0-3.047,2.458-5.518,5.491-5.518
		h84.566c3.033,0,5.491,2.471,5.491,5.518v127.449C482.5,294.332,461.068,315.863,434.726,315.863z"/>
	<path style="fill:#F2D06F;" d="M386.951,204.799v63.065c0,26.469,21.431,48,47.774,48c26.343,0,47.774-21.531,47.774-48v-63.065
		H386.951z"/>
	<line style="fill:#C69C6D;" x1="412.211" y1="224.277" x2="412.211" y2="225.381"/>
	<line style="fill:#C69C6D;" x1="439.668" y1="233.105" x2="439.668" y2="234.209"/>
	<line style="fill:#C69C6D;" x1="416.603" y1="251.863" x2="416.603" y2="252.967"/>
	<line style="fill:#C69C6D;" x1="427.587" y1="278.346" x2="427.587" y2="279.449"/>
	<path style="fill:#D6ECF2;" d="M55.274,315.863c-26.343,0-47.774-21.531-47.774-48V140.414c0-3.047,2.458-5.518,5.491-5.518h84.566
		c3.033,0,5.491,2.471,5.491,5.518v127.449C103.049,294.332,81.618,315.863,55.274,315.863z"/>
	<path style="fill:#F2D06F;" d="M7.5,204.799v63.065c0,26.469,21.432,48,47.774,48c26.344,0,47.774-21.531,47.774-48v-63.065H7.5z"
		/>
	<line style="fill:#C69C6D;" x1="32.76" y1="224.277" x2="32.76" y2="225.381"/>
	<line style="fill:#C69C6D;" x1="60.217" y1="233.105" x2="60.217" y2="234.209"/>
	<line style="fill:#C69C6D;" x1="37.153" y1="251.863" x2="37.153" y2="252.967"/>
	<line style="fill:#C69C6D;" x1="48.136" y1="278.346" x2="48.136" y2="279.449"/>
	<g>
		<g>
			<path style="fill:#FFCC60;" d="M237.025,155.961c-21.891,7.346-27.879,13.301-35.268,35.064
				c-7.388-21.764-13.377-27.719-35.268-35.064c21.891-7.346,27.88-13.299,35.268-35.064
				C209.146,142.662,215.135,148.615,237.025,155.961z"/>
		</g>
		<g>
			<path style="fill:#FFE060;" d="M312.054,71.834c-18.805,6.309-23.948,11.424-30.296,30.119
				c-6.347-18.695-11.491-23.811-30.296-30.119c18.805-6.311,23.949-11.426,30.296-30.123
				C288.105,60.408,293.249,65.523,312.054,71.834z"/>
		</g>
		<g>
			<path style="fill:#FFCC60;" d="M324.01,177.73c-13.829,4.641-17.612,8.402-22.28,22.15c-4.667-13.748-8.451-17.51-22.28-22.15
				c13.829-4.641,17.613-8.402,22.28-22.152C306.397,169.328,310.181,173.09,324.01,177.73z"/>
		</g>
	</g>
	<path style="fill:#FFCC60;" d="M271.794,330.438c0,14.715-11.873,26.647-26.52,26.647c-14.645,0-26.52-11.932-26.52-26.647
		s11.874-41.047,26.52-41.047C259.921,289.391,271.794,315.723,271.794,330.438z"/>
	<circle style="fill:#FFFFFF;" cx="245" cy="331.5" r="12.5"/>
	<path style="fill:#EF645E;" d="M273.464,361.115h-56.379c-4.447,0-8.054,3.623-8.054,8.092v57.012h72.486v-57.012
		C281.518,364.738,277.911,361.115,273.464,361.115z"/>
	<rect x="386.951" y="173.518" style="fill:#F7EEDF;" width="95.549" height="48.553"/>
	<rect x="7.5" y="173.518" style="fill:#F7EEDF;" width="95.549" height="48.553"/>
	<g>
		<g>
			<path style="fill:#FFFFFF;" d="M412.211,232.881c-4.143,0-7.5-3.357-7.5-7.5v-1.104c0-4.143,3.357-7.5,7.5-7.5
				c4.143,0,7.5,3.357,7.5,7.5v1.104C419.711,229.523,416.353,232.881,412.211,232.881z"/>
		</g>
		<g>
			<path style="fill:#FFFFFF;" d="M439.668,241.709c-4.143,0-7.5-3.357-7.5-7.5v-1.104c0-4.143,3.357-7.5,7.5-7.5
				c4.142,0,7.5,3.357,7.5,7.5v1.104C447.168,238.352,443.81,241.709,439.668,241.709z"/>
		</g>
		<g>
			<path style="fill:#CEAC59;" d="M416.603,260.467c-4.143,0-7.5-3.357-7.5-7.5v-1.104c0-4.143,3.357-7.5,7.5-7.5
				c4.143,0,7.5,3.357,7.5,7.5v1.104C424.103,257.109,420.746,260.467,416.603,260.467z"/>
		</g>
		<g>
			<path style="fill:#CEAC59;" d="M453.5,279.078c-3.107,0-5.625-2.518-5.625-5.625v-0.828c0-3.107,2.518-5.625,5.625-5.625
				s5.625,2.518,5.625,5.625v0.828C459.125,276.56,456.607,279.078,453.5,279.078z"/>
		</g>
		<g>
			<path style="fill:#FFFFFF;" d="M427.587,286.949c-4.143,0-7.5-3.357-7.5-7.5v-1.103c0-4.143,3.357-7.5,7.5-7.5
				c4.143,0,7.5,3.357,7.5,7.5v1.103C435.087,283.592,431.729,286.949,427.587,286.949z"/>
		</g>
	</g>
	<path style="opacity:0.1;" d="M407.451,267.863V140.414c0-3.047,2.458-5.518,5.491-5.518h-20.5c-3.033,0-5.491,2.471-5.491,5.518
		v127.449c0,26.469,21.431,48,47.774,48c3.519,0,6.946-0.396,10.25-1.124C423.543,310.012,407.451,290.797,407.451,267.863z"/>
	<g>
		<g>
			<path style="fill:#FFFFFF;" d="M32.76,232.881c-4.143,0-7.5-3.357-7.5-7.5v-1.104c0-4.143,3.357-7.5,7.5-7.5
				c4.143,0,7.5,3.357,7.5,7.5v1.104C40.26,229.523,36.902,232.881,32.76,232.881z"/>
		</g>
		<g>
			<path style="fill:#FFFFFF;" d="M60.217,241.709c-4.143,0-7.5-3.357-7.5-7.5v-1.104c0-4.143,3.357-7.5,7.5-7.5s7.5,3.357,7.5,7.5
				v1.104C67.717,238.352,64.359,241.709,60.217,241.709z"/>
		</g>
		<g>
			<path style="fill:#CEAC59;" d="M37.153,260.467c-4.143,0-7.5-3.357-7.5-7.5v-1.104c0-4.143,3.357-7.5,7.5-7.5s7.5,3.357,7.5,7.5
				v1.104C44.653,257.109,41.296,260.467,37.153,260.467z"/>
		</g>
		<g>
			<path style="fill:#CEAC59;" d="M75,279.822c-3.279,0-5.938-2.658-5.938-5.938v-0.873c0-3.279,2.658-5.938,5.938-5.938
				s5.938,2.658,5.938,5.938v0.873C80.938,277.164,78.279,279.822,75,279.822z"/>
		</g>
		<g>
			<path style="fill:#FFFFFF;" d="M48.136,286.949c-4.143,0-7.5-3.357-7.5-7.5v-1.103c0-4.143,3.357-7.5,7.5-7.5
				c4.143,0,7.5,3.357,7.5,7.5v1.103C55.636,283.592,52.278,286.949,48.136,286.949z"/>
		</g>
	</g>
	<g>
		<polygon style="fill:#FFFFFF;" points="237.814,361.115 209.031,389.898 209.031,404.039 251.955,361.115 		"/>
		<path style="fill:#FFFFFF;" d="M274.708,361.222l-64.997,64.997h14.141l57.635-57.635
			C281.2,364.825,278.362,361.793,274.708,361.222z"/>
		<polygon style="fill:#FFFFFF;" points="246.711,426.219 260.852,426.219 281.518,405.553 281.518,391.412 		"/>
	</g>
	<path style="opacity:0.1;" d="M238.054,361.115h-20.969c-4.447,0-8.054,3.623-8.054,8.092v57.012H230v-57.012
		C230,364.738,233.606,361.115,238.054,361.115z"/>
	<path style="opacity:0.1;" d="M150,318.285c0-27.271,8.925-54.332,25.132-76.197c3.848-5.188,9.986-8.283,16.422-8.283h-31.698
		c-6.436,0-12.574,3.096-16.422,8.283c-16.207,21.865-25.132,48.926-25.132,76.197c0,42.943,21.374,82.764,57.177,106.518
		c1.392,0.926,3.023,1.416,4.69,1.416h31.698c-1.668,0-3.299-0.49-4.69-1.416C171.374,401.049,150,361.228,150,318.285z"/>
	<path style="fill:#D6ECF2;" d="M392.601,448.289c-2.001,0-3.853-1.07-4.86-2.807c-1.01-1.738-1.022-3.883-0.036-5.633
		c4.97-8.818,23.865-14.744,47.021-14.744c23.155,0,42.052,5.926,47.022,14.744c0.985,1.75,0.973,3.895-0.036,5.633
		c-1.008,1.736-2.859,2.807-4.861,2.807H392.601z"/>
	<path style="fill:#ACEBE9;" d="M340.824,437.254c0,6.096-4.918,11.035-10.983,11.035H160.708c-6.065,0-10.982-4.939-10.982-11.035
		v-7.725c0-6.094,4.917-11.035,10.982-11.035h169.133c6.066,0,10.983,4.941,10.983,11.035V437.254z"/>
	<path style="opacity:0.1;" d="M28.451,267.863V140.414c0-3.047,2.458-5.518,5.491-5.518H12.991c-3.033,0-5.491,2.471-5.491,5.518
		v127.449c0,26.469,21.432,48,47.774,48c3.6,0,7.102-0.415,10.476-1.177C44.432,309.875,28.451,290.716,28.451,267.863z"/>
	<path style="opacity:0.1;" d="M191.901,437.254v-7.725c0-6.094,4.917-11.035,10.982-11.035h-42.176
		c-6.065,0-10.982,4.941-10.982,11.035v7.725c0,6.096,4.917,11.035,10.982,11.035h42.176
		C196.818,448.289,191.901,443.35,191.901,437.254z"/>
	<g>
		<path d="M164.105,163.071c19.643,6.592,23.927,10.849,30.552,30.365c1.032,3.042,3.889,5.089,7.102,5.089
			c3.213,0,6.069-2.047,7.102-5.089c6.626-19.517,10.909-23.773,30.552-30.365c3.056-1.025,5.114-3.888,5.114-7.11
			c0-3.223-2.059-6.085-5.114-7.11c-19.644-6.592-23.926-10.849-30.552-30.365c-1.032-3.042-3.889-5.089-7.102-5.089
			c-3.213,0-6.069,2.047-7.102,5.09c-6.624,19.516-10.906,23.773-30.551,30.364c-3.056,1.025-5.114,3.888-5.114,7.11
			C158.99,159.184,161.049,162.046,164.105,163.071z M201.758,139.936c4.061,7.101,8.954,11.981,16.074,16.024
			c-7.118,4.043-12.014,8.925-16.074,16.025c-4.06-7.102-8.954-11.981-16.074-16.025
			C192.804,151.917,197.698,147.037,201.758,139.936z"/>
		<path d="M249.076,78.944c16.626,5.578,19.973,8.903,25.58,25.42c1.032,3.042,3.889,5.089,7.102,5.089
			c3.213,0,6.069-2.047,7.102-5.089c5.608-16.517,8.955-19.843,25.58-25.42c3.055-1.024,5.114-3.888,5.114-7.11
			c0-3.223-2.059-6.085-5.114-7.11c-16.625-5.579-19.972-8.905-25.58-25.424c-1.032-3.042-3.889-5.089-7.102-5.089
			c-3.213,0-6.069,2.047-7.102,5.089c-5.608,16.518-8.954,19.845-25.58,25.424c-3.056,1.025-5.114,3.888-5.114,7.11
			C243.962,75.057,246.021,77.92,249.076,78.944z M281.758,60.163c3.082,4.946,6.744,8.6,11.701,11.67
			c-4.957,3.07-8.619,6.723-11.701,11.669c-3.081-4.945-6.744-8.599-11.701-11.669C275.014,68.763,278.677,65.109,281.758,60.163z"
			/>
		<path d="M308.831,153.167c-1.032-3.042-3.889-5.089-7.102-5.089c-3.213,0-6.069,2.047-7.102,5.09
			c-3.932,11.581-5.901,13.538-17.564,17.452c-3.056,1.025-5.114,3.888-5.114,7.11c0,3.223,2.059,6.085,5.114,7.11
			c11.663,3.914,13.633,5.871,17.564,17.451c1.032,3.042,3.889,5.089,7.102,5.089c3.213,0,6.069-2.047,7.102-5.089
			c3.933-11.58,5.902-13.537,17.564-17.451c3.056-1.025,5.114-3.888,5.114-7.11c0-3.223-2.059-6.085-5.114-7.11
			C314.733,166.706,312.764,164.749,308.831,153.167z M301.729,182.838c-1.49-1.949-3.165-3.621-5.119-5.107
			c1.954-1.486,3.629-3.158,5.119-5.107c1.491,1.949,3.166,3.621,5.119,5.107C304.895,179.217,303.221,180.888,301.729,182.838z"/>
		<path d="M490,267.863V140.414c0-7.178-5.828-13.018-12.991-13.018h-84.566c-7.163,0-12.991,5.84-12.991,13.018v127.449
			c0,28.047,20.833,51.287,47.774,54.976v94.979c-18.984,1.061-39.251,6.276-46.055,18.35c-2.283,4.05-2.251,9.064,0.081,13.078
			c2.341,4.036,6.689,6.544,11.349,6.544h84.249c4.657,0,9.006-2.507,11.349-6.542c2.331-4.018,2.363-9.028,0.083-13.08
			c-6.805-12.073-27.071-17.288-46.056-18.35v-94.979C469.167,319.15,490,295.91,490,267.863z M394.451,142.396H475v23.621h-80.549
			V142.396z M394.451,181.018H475v33.553h-80.549V181.018z M472.488,440.789h-75.524c5.614-4,18.602-8.184,37.762-8.184
			C453.889,432.605,466.876,436.79,472.488,440.789z M434.726,308.363c-22.207,0-40.274-18.168-40.274-40.5V229.57H475v38.293
			C475,290.195,456.933,308.363,434.726,308.363z"/>
		<path d="M353.138,237.617c-5.255-7.083-13.645-11.313-22.442-11.313h-170.84c-8.8,0-17.191,4.23-22.447,11.317
			c-17.157,23.147-26.606,51.794-26.606,80.663c0,36.396,14.517,70.656,39.743,95.779c-5.006,3.319-8.319,9.008-8.319,15.465v7.725
			c0,10.221,8.291,18.535,18.482,18.535h101.291c4.143,0,7.5-3.357,7.5-7.5c0-4.143-3.357-7.5-7.5-7.5H160.708
			c-1.92,0-3.482-1.586-3.482-3.535v-7.725c0-1.949,1.563-3.535,3.482-3.535h169.133c1.921,0,3.483,1.586,3.483,3.535v7.725
			c0,1.949-1.563,3.535-3.483,3.535H299c-4.143,0-7.5,3.357-7.5,7.5c0,4.143,3.357,7.5,7.5,7.5h30.841
			c10.191,0,18.483-8.314,18.483-18.535v-7.725c0-6.46-3.317-12.151-8.328-15.471c2.973-2.956,5.825-6.033,8.512-9.26
			c2.65-3.184,2.219-7.912-0.965-10.563c-3.182-2.649-7.911-2.219-10.563,0.965c-4.787,5.749-10.103,11.027-15.877,15.793h-32.086
			v-41.787c0-8.598-6.978-15.592-15.554-15.592h-3.237c5.622-6.094,9.067-14.238,9.067-23.178c0-16.669-13.248-48.547-34.02-48.547
			s-34.02,31.878-34.02,48.547c0,8.94,3.445,17.084,9.067,23.178h-3.237c-8.576,0-15.554,6.994-15.554,15.592v41.787h-32.078
			c-27.532-22.734-43.651-56.54-43.651-92.709c0-25.675,8.401-51.149,23.655-71.729c2.439-3.288,6.326-5.251,10.398-5.251h170.84
			c4.071,0,7.957,1.963,10.394,5.247c15.258,20.586,23.66,46.061,23.66,71.733c0,18.101-4.147,36.236-11.995,52.447
			c-1.805,3.729-0.245,8.214,3.483,10.019c3.729,1.806,8.215,0.244,10.019-3.483c8.827-18.236,13.493-38.632,13.493-58.982
			C379.749,289.419,370.299,260.772,353.138,237.617z M245.274,296.891c8.395,0,19.02,20.8,19.02,33.547
			c0,10.558-8.532,19.147-19.02,19.147s-19.02-8.589-19.02-19.147C226.255,317.69,236.88,296.891,245.274,296.891z M216.531,369.207
			c0-0.326,0.248-0.592,0.554-0.592h56.379c0.306,0,0.554,0.266,0.554,0.592v41.787h-57.486V369.207z"/>
		<path d="M97.558,127.396H81.999c-4.143,0-7.5,3.357-7.5,7.5s3.357,7.5,7.5,7.5h13.55v23.621H15v-23.621h34
			c4.143,0,7.5-3.357,7.5-7.5s-3.357-7.5-7.5-7.5H12.991C5.828,127.396,0,133.236,0,140.414v127.449
			c0,28.047,20.833,51.287,47.774,54.976v94.979c-18.984,1.061-39.251,6.276-46.057,18.352c-2.279,4.049-2.247,9.06,0.085,13.077
			c2.342,4.035,6.691,6.542,11.348,6.542h84.249c4.659,0,9.008-2.508,11.346-6.539c2.335-4.02,2.367-9.033,0.085-13.083
			c-6.805-12.073-27.071-17.288-46.056-18.35v-94.979c26.941-3.689,47.774-26.929,47.774-54.976V140.414
			C110.549,133.236,104.721,127.396,97.558,127.396z M93.036,440.789H17.513c5.614-4,18.602-8.184,37.762-8.184
			C74.435,432.605,87.422,436.789,93.036,440.789z M95.549,267.863c0,22.332-18.067,40.5-40.274,40.5S15,290.195,15,267.863V229.57
			h80.549V267.863z M95.549,214.57H15v-33.553h80.549V214.57z"/>
	</g>
	<path style="fill:#FFFFFF;" d="M293.856,275.382c15.729,6.515,21.011,11.797,27.525,27.525
		c6.516-15.728,11.797-21.011,27.525-27.525c-15.728-6.516-21.01-11.797-27.525-27.525
		C314.867,263.585,309.585,268.866,293.856,275.382z"/>
	<circle style="fill:#FFFFFF;" cx="346" cy="313" r="12.144"/>
</g>
<g>
</g>
<g>
</g>
<g>
</g>
<g>
</g>
<g>
</g>
<g>
</g>
<g>
</g>
<g>
</g>
<g>
</g>
<g>
</g>
<g>
</g>
<g>
</g>
<g>
</g>
<g>
</g>
<g>
</g>
</svg>
