<?xml version="1.0" encoding="iso-8859-1"?>
<!-- Generator: Adobe Illustrator 19.0.0, SVG Export Plug-In . SVG Version: 6.00 Build 0)  -->
<svg version="1.1" id="Layer_1" xmlns="http://www.w3.org/2000/svg" xmlns:xlink="http://www.w3.org/1999/xlink" x="0px" y="0px"
	 viewBox="0 0 490 490" style="enable-background:new 0 0 490 490;" xml:space="preserve">
<g>
	<path style="fill:#F7EEDF;" d="M382.33,406.242c0,5.833-4.739,10.561-10.586,10.561H121.92c-5.847,0-10.586-4.728-10.586-10.561
		V40.827c0-5.834,4.739-10.561,10.586-10.561h249.824c5.847,0,10.586,4.728,10.586,10.561V406.242z"/>
	<path style="opacity:0.1;" d="M143,406.242V40.827c0-5.834,4.739-10.561,10.586-10.561H121.92c-5.847,0-10.586,4.728-10.586,10.561
		v365.415c0,5.833,4.739,10.561,10.586,10.561h31.666C147.739,416.803,143,412.075,143,406.242z"/>
	<g>
		<path style="fill:#C69C6D;" d="M317.12,394.279H172.88c-4.013,0-7.316-3.156-7.5-7.164c-0.621-13.551-11.262-24.773-24.75-26.105
			c-3.843-0.379-6.771-3.611-6.771-7.472V94.918c0-3.86,2.929-7.092,6.771-7.472c14.029-1.385,24.681-13.079,24.777-27.2
			c0.028-4.127,3.382-7.457,7.508-7.457h144.17c4.126,0,7.48,3.33,7.509,7.457c0.102,15.047,12.405,27.293,27.441,27.338
			c0.09-0.003,0.176-0.004,0.262-0.004c4.147,0,7.509,3.361,7.509,7.508v258.28c0,4.146-3.361,7.508-7.509,7.508
			c-0.061,0-0.17-0.002-0.256-0.004c-14.71,0.039-26.747,11.552-27.42,26.243C324.436,391.123,321.133,394.279,317.12,394.279z
			 M179.43,379.264h131.123c3.667-16.857,17.235-29.846,34.236-32.781V101.965c-17.416-3.053-31.277-16.783-34.503-34.16H179.725
			c-2.953,16.141-14.969,29.164-30.85,33.365v246.132C164.125,351.404,176.014,363.853,179.43,379.264z"/>
	</g>
	<g>
		<g>
			<g>
				<path style="fill:#A5D289;" d="M188.846,271.516c0-31.949,25.962-57.85,57.986-57.85c32.023,0,57.985,25.9,57.985,57.85H188.846
					z"/>
			</g>
		</g>
	</g>
	<ellipse style="fill:#EF645E;" cx="123.793" cy="66.886" rx="59.524" ry="59.386"/>
	<path style="opacity:0.1;" d="M144.524,105.771C111.65,105.771,85,79.183,85,46.386c0-11.206,3.115-21.687,8.523-30.63
		c-17.508,10.34-29.255,29.361-29.255,51.13c0,32.797,26.65,59.386,59.524,59.386c21.641,0,40.582-11.525,51.001-28.756
		C165.924,102.754,155.579,105.771,144.524,105.771z"/>
	<g>
		<g>
			<path style="fill:#A67C52;" d="M311.404,317.818H182.259c-4.143,0-7.5-3.357-7.5-7.5c0-4.143,3.357-7.5,7.5-7.5h129.145
				c4.143,0,7.5,3.357,7.5,7.5C318.904,314.461,315.547,317.818,311.404,317.818z"/>
		</g>
		<g>
			<path style="fill:#A67C52;" d="M286.896,352.855h-80.127c-4.143,0-7.5-3.358-7.5-7.5c0-4.143,3.357-7.5,7.5-7.5h80.127
				c4.143,0,7.5,3.357,7.5,7.5C294.396,349.498,291.038,352.855,286.896,352.855z"/>
		</g>
	</g>
	<g>
		<g>
			<g>
				<path style="fill:#C69C6D;" d="M276.181,159.572h-15.198c-4.147,0-7.508-3.361-7.508-7.508c0-4.147,3.36-7.508,7.508-7.508
					h15.198c6.411,0,11.628-5.196,11.628-11.582c0-6.387-5.217-11.582-11.628-11.582h-13.2c-4.146,0-7.508-3.361-7.508-7.508
					c0-4.148,3.361-7.508,7.508-7.508h13.2c14.692,0,26.645,11.932,26.645,26.598S290.873,159.572,276.181,159.572z"/>
			</g>
		</g>
		<g>
			<g>
				<path style="fill:#C69C6D;" d="M222.18,185.952c-4.146,0-7.508-3.36-7.508-7.508V168.06c0-12.96,10.561-23.503,23.54-23.503
					h24.981c4.147,0,7.509,3.36,7.509,7.508c0,4.146-3.361,7.508-7.509,7.508h-24.981c-4.7,0-8.523,3.808-8.523,8.487v10.385
					C229.689,182.592,226.327,185.952,222.18,185.952z"/>
			</g>
		</g>
	</g>
	<g>
		<g>
			<path style="fill:#C69C6D;" d="M248.217,135.918h-29.842c-15.184,0-27.536-12.333-27.536-27.49
				c0-15.158,12.353-27.489,27.536-27.489h10.713c4.147,0,7.509,3.361,7.509,7.508c0,4.148-3.361,7.508-7.509,7.508h-10.713
				c-6.903,0-12.52,5.597-12.52,12.474c0,6.878,5.616,12.474,12.52,12.474h29.842c4.146,0,7.508,3.361,7.508,7.508
				C255.725,132.557,252.363,135.918,248.217,135.918z"/>
		</g>
	</g>
	<path style="fill:#A5D289;" d="M401.691,444.605c0,5.051-4.103,9.142-9.162,9.142H101.137c-5.062,0-9.165-4.092-9.165-9.142
		v-25.598c0-5.05,4.104-9.142,9.165-9.142h291.393c5.06,0,9.162,4.092,9.162,9.142V444.605z"/>
	<path style="opacity:0.1;" d="M133.24,444.605v-25.598c0-5.05,4.104-9.142,9.165-9.142h-41.269c-5.062,0-9.165,4.092-9.165,9.142
		v25.598c0,5.051,4.104,9.142,9.165,9.142h41.269C137.344,453.748,133.24,449.656,133.24,444.605z"/>
	<path style="fill:#C69C6D;" d="M425.731,471.94c0,5.833-4.739,10.56-10.586,10.56H78.518c-5.846,0-10.586-4.728-10.586-10.56
		v-29.571c0-5.833,4.74-10.562,10.586-10.562h336.628c5.847,0,10.586,4.729,10.586,10.562V471.94z"/>
	<path style="opacity:0.1;" d="M109.2,471.94v-29.571c0-5.833,4.74-10.562,10.586-10.562H78.518
		c-5.846,0-10.586,4.729-10.586,10.562v29.571c0,5.833,4.74,10.56,10.586,10.56h41.269C113.94,482.5,109.2,477.772,109.2,471.94z"/>
	<path style="fill:#8C6239;" d="M164.263,464.892c4.143,0,7.5-3.357,7.5-7.5s-3.357-7.5-7.5-7.5H67.932v15H164.263z"/>
	<g>
		<path d="M246.832,195.622c-4.143,0-7.5,3.357-7.5,7.5v3.485c-30.12,3.444-54.083,27.354-57.542,57.408h-6.464
			c-4.143,0-7.5,3.357-7.5,7.5s3.357,7.5,7.5,7.5h143.011c4.143,0,7.5-3.357,7.5-7.5s-3.357-7.5-7.5-7.5h-6.464
			c-3.459-30.055-27.422-53.964-57.541-57.408v-3.485C254.332,198.98,250.975,195.622,246.832,195.622z M296.759,264.016h-99.854
			c3.643-24.218,24.645-42.85,49.928-42.85C272.114,221.166,293.116,239.798,296.759,264.016z"/>
		<path d="M415.146,424.307h-5.954v-5.299c0-9.176-7.475-16.642-16.662-16.642h-2.699V94c0-4.143-3.357-7.5-7.5-7.5
			c-4.143,0-7.5,3.357-7.5,7.5v308.366H118.834V133.571c1.643,0.118,3.293,0.2,4.959,0.2c36.957,0,67.024-30.005,67.024-66.886
			c0-10.432-2.409-20.311-6.695-29.12h187.622c1.701,0,3.086,1.373,3.086,3.062V57c0,4.143,3.357,7.5,7.5,7.5
			c4.143,0,7.5-3.357,7.5-7.5V40.827c0-9.959-8.113-18.061-18.086-18.061h-197.64C161.813,8.823,143.82,0,123.793,0
			C86.836,0,56.769,30.005,56.769,66.886c0,14.857,4.779,28.925,13.822,40.685c2.524,3.282,7.23,3.899,10.518,1.373
			c3.283-2.525,3.898-7.233,1.373-10.518c-7.009-9.113-10.713-20.021-10.713-31.54C71.769,38.275,95.106,15,123.793,15
			c28.687,0,52.024,23.275,52.024,51.886c0,28.61-23.338,51.886-52.024,51.886c-7.903,0-15.487-1.719-22.543-5.108
			c-3.732-1.795-8.215-0.224-10.008,3.512c-1.794,3.733-0.222,8.214,3.512,10.008c2.957,1.421,5.991,2.589,9.08,3.553v271.631
			h-2.697c-9.189,0-16.665,7.466-16.665,16.642v5.299h-5.954c-9.973,0-18.086,8.103-18.086,18.062v29.571
			c0,9.959,8.113,18.06,18.086,18.06h336.628c9.973,0,18.086-8.102,18.086-18.06v-29.571
			C433.231,432.409,425.118,424.307,415.146,424.307z M99.472,419.008c0-0.905,0.747-1.642,1.665-1.642h291.393
			c0.917,0,1.662,0.736,1.662,1.642v5.299H99.472V419.008z M418.231,471.94c0,1.688-1.385,3.06-3.086,3.06H78.518
			c-1.701,0-3.086-1.373-3.086-3.06v-29.571c0-1.689,1.385-3.062,3.086-3.062h336.628c1.701,0,3.086,1.373,3.086,3.062V471.94z"/>
	</g>
</g>
<g>
</g>
<g>
</g>
<g>
</g>
<g>
</g>
<g>
</g>
<g>
</g>
<g>
</g>
<g>
</g>
<g>
</g>
<g>
</g>
<g>
</g>
<g>
</g>
<g>
</g>
<g>
</g>
<g>
</g>
</svg>
