<?xml version="1.0" encoding="iso-8859-1"?>
<!-- Generator: Adobe Illustrator 18.0.0, SVG Export Plug-In . SVG Version: 6.00 Build 0)  -->
<!DOCTYPE svg PUBLIC "-//W3C//DTD SVG 1.1//EN" "http://www.w3.org/Graphics/SVG/1.1/DTD/svg11.dtd">
<svg version="1.1" id="Capa_1" xmlns="http://www.w3.org/2000/svg" xmlns:xlink="http://www.w3.org/1999/xlink" x="0px" y="0px"
	 viewBox="0 0 309.501 309.501" style="enable-background:new 0 0 309.501 309.501;" xml:space="preserve">
<g>
	<g>
		<g>
			<path style="fill:#EF8829;" d="M254.778,210.634c0.096,0.149,0.201,0.3,0.288,0.446
				C254.979,210.933,254.875,210.784,254.778,210.634z"/>
			<path style="fill:#EF8829;" d="M255.461,211.805c0.058,0.114,0.131,0.236,0.183,0.346
				C255.591,212.04,255.519,211.92,255.461,211.805z"/>
			<path style="fill:#EF8829;" d="M253.348,208.76c-0.141-0.159-0.284-0.315-0.435-0.472
				C253.063,208.445,253.208,208.602,253.348,208.76z"/>
			<path style="fill:#EF8829;" d="M251.712,207.152c0.168,0.143,0.324,0.29,0.483,0.437
				C252.035,207.442,251.88,207.296,251.712,207.152z"/>
			<path style="fill:#EF8829;" d="M253.934,209.46c0.126,0.16,0.253,0.319,0.369,0.477
				C254.186,209.778,254.061,209.62,253.934,209.46z"/>
			<path style="fill:#EF8829;" d="M256.006,213.047c-4.56-1.788-9.871-3.337-15.062-4.846c-9.86-2.864-18.374-5.338-23.006-9.778
				c-20.305-19.459-46.477-21.19-64.857-19.209c-32.317,3.479-59.494,19.568-64.4,26.859c-2.451,3.643-3.293,7.016-2.572,10.314
				c0.151,0.692,0.373,1.369,0.644,2.031c20.805,2.039,44.131,3.141,68.192,3.141c36.155,0,70.757-2.451,97.432-6.9
				c1.248-0.208,2.446-0.417,3.621-0.626c0.09-0.02,0.174-0.038,0.244-0.057C256.208,213.709,256.124,213.392,256.006,213.047z"/>
			<path style="fill:#EF8829;" d="M250.332,206.095c0.164,0.111,0.312,0.233,0.469,0.348
				C250.643,206.327,250.496,206.207,250.332,206.095z"/>
		</g>
		<path style="fill:#84BD93;" d="M258.747,85.705c-5.571-3.256-12.266-4.856-18.44-4c-12.316,1.711-42.467,17.706-69.066,31.818
			c-14.825,7.865-28.827,15.293-40.154,20.549c-7.396,3.431-17.376,6.121-27.941,8.971c-12.724,3.432-25.881,6.98-32.698,11.46
			c-2.578,1.695-4.4,3.856-5.411,5.885c-0.408-0.042-0.722-0.074-0.926-0.097c3.287,0.358,35.148,3.515,35.962,3.913
			c11.944-4.761,25.615-8.478,39.372-9.959c20.919-2.253,39.849,0.717,55.91,8.625c4.314-0.548,8.503-1.172,12.561-1.876
			c32.378-19.856,44.297-39.77,44.415-39.971c0.1-0.168,0.219-0.359,0.331-0.519C261.87,107.263,263.943,95.269,258.747,85.705z"/>
		<g>
			<path style="fill:#FFFFFF;" d="M270.172,133.874c17.407-25.189,11.11-43.454,5.794-52.115c-2.257-3.676-5.131-6.947-8.433-9.739
				c1.253,1.49,2.402,3.067,3.422,4.728c5.317,8.66,11.613,26.926-5.794,52.115c-1.091,1.808-6.554,10.358-18.357,21.485
				c6.795-2.755,12.895-5.865,18.273-9.31C268.01,137.33,269.63,134.77,270.172,133.874z"/>
			<g>
				<path style="fill:#84BD93;" d="M266.598,48.71c1.152,0.64,2.256,1.332,3.336,2.049C268.853,50.043,267.749,49.35,266.598,48.71z
					"/>
				<path style="fill:#84BD93;" d="M270.682,51.27c0.996,0.689,1.969,1.402,2.902,2.157C272.65,52.674,271.679,51.958,270.682,51.27
					z"/>
				<path style="fill:#84BD93;" d="M279.754,59.405c-1.827-2.121-3.827-4.078-6.007-5.851
					C275.923,55.331,277.926,57.285,279.754,59.405z"/>
				<path style="fill:#84BD93;" d="M292.409,89.375c-1.597-12.025-5.912-22.141-12.651-29.965c-2.485-2.136-5.195-4.046-8.148-5.688
					c-17.307-9.62-41.41-9.572-62.903,0.13c-7.754,3.5-19.411,9.747-32.908,16.98c-31.698,16.986-71.147,38.126-96.324,43.475
					c-34.22,7.271-56.061,14.622-59.209,28.787c-0.435,1.953-0.236,3.559,0.639,5.151c4.49,3.065,11.013,5.566,18.254,7.514
					c-0.88-8.646,4.168-18.027,13.007-23.84c8.832-5.807,23.173-9.674,37.042-13.414c9.927-2.677,19.302-5.205,25.528-8.094
					c10.963-5.086,24.794-12.424,39.436-20.191c30.391-16.122,59.096-31.351,74.044-33.427c16.546-2.293,34.115,5.909,42.738,19.956
					c5.317,8.661,11.613,26.925-5.793,52.115c-1.091,1.808-6.554,10.359-18.357,21.484c15.923-6.455,28.06-14.844,35.925-24.98
					C290.922,114.809,294.178,102.699,292.409,89.375z"/>
				<path style="fill:#84BD93;" d="M18.116,146.018c0.1,0.097,0.193,0.195,0.297,0.29C18.309,146.213,18.216,146.115,18.116,146.018
					z"/>
				<path style="fill:#84BD93;" d="M20.658,148.085c-0.208-0.145-0.409-0.292-0.607-0.44
					C20.25,147.793,20.45,147.939,20.658,148.085z"/>
			</g>
		</g>
		<g>
			<path style="fill:#84BD93;" d="M164.968,246.616c-39.714-0.285-77.121-2.861-105.326-8.055c-4.929-0.908-9.426-1.86-13.572-2.854
				c27.746,21.453,63.133,32.355,105.256,32.355c47.895,0,77.026-10.736,99.799-26.711
				C230.698,244.04,200.481,246.87,164.968,246.616z"/>
			<path style="fill:#84BD93;" d="M265.174,230.264c1.313-1.146,2.615-2.304,3.901-3.482
				C267.789,227.959,266.487,229.117,265.174,230.264z"/>
			<path style="fill:#84BD93;" d="M256.054,237.736c1.343-1.025,2.664-2.07,3.969-3.13
				C258.718,235.666,257.397,236.711,256.054,237.736z"/>
			<path style="fill:#84BD93;" d="M251.132,241.346c1.468-1.029,2.902-2.086,4.321-3.157
				C254.034,239.26,252.6,240.316,251.132,241.346z"/>
			<path style="fill:#84BD93;" d="M260.748,234.014c1.291-1.06,2.568-2.135,3.828-3.226
				C263.316,231.88,262.039,232.954,260.748,234.014z"/>
		</g>
		<g>
			<path style="fill:#84BD93;" d="M18.697,203.778c-0.3-0.173-0.58-0.34-0.832-0.499C18.117,203.438,18.397,203.605,18.697,203.778z
				"/>
			<path style="fill:#84BD93;" d="M22.497,205.667c-0.702-0.307-1.347-0.604-1.923-0.887
				C21.15,205.064,21.794,205.361,22.497,205.667z"/>
			<path style="fill:#84BD93;" d="M20.528,204.757c-0.539-0.267-1.016-0.52-1.455-0.763
				C19.511,204.237,19.989,204.49,20.528,204.757z"/>
			<path style="fill:#84BD93;" d="M16.664,202.46c-0.235-0.177-0.445-0.344-0.611-0.489C16.22,202.116,16.429,202.282,16.664,202.46
				z"/>
			<path style="fill:#84BD93;" d="M17.52,203.058c-0.227-0.15-0.433-0.292-0.619-0.427C17.088,202.767,17.291,202.908,17.52,203.058
				z"/>
			<path style="fill:#84BD93;" d="M24.758,206.594c-0.673-0.262-1.299-0.518-1.882-0.767
				C23.459,206.076,24.085,206.331,24.758,206.594z"/>
			<path style="fill:#84BD93;" d="M60.415,195.144c0.111-0.315,0.219-0.63,0.341-0.944
				C60.635,194.514,60.526,194.829,60.415,195.144z"/>
			<path style="fill:#84BD93;" d="M59.534,198.138c0.069-0.296,0.147-0.592,0.226-0.888
				C59.681,197.546,59.603,197.841,59.534,198.138z"/>
			<path style="fill:#84BD93;" d="M61.68,192.097c0.136-0.286,0.257-0.573,0.403-0.858C61.937,191.524,61.816,191.811,61.68,192.097
				z"/>
			<path style="fill:#84BD93;" d="M27.519,207.604c-0.738-0.256-1.437-0.508-2.091-0.755
				C26.082,207.096,26.78,207.348,27.519,207.604z"/>
			<path style="fill:#84BD93;" d="M31.151,208.786c-1.029-0.314-1.991-0.624-2.894-0.928
				C29.159,208.163,30.122,208.472,31.151,208.786z"/>
			<path style="fill:#84BD93;" d="M59.109,200.413c-0.025,0.169-0.074,0.338-0.095,0.508c-13.744,2.724-22.461,5.609-27.595,7.95
				c6.143,1.859,14.553,3.863,26.093,5.788c1.244,0.208,2.522,0.406,3.8,0.605c-0.792-1.731-1.445-3.584-1.888-5.562
				C58.736,206.632,58.66,203.516,59.109,200.413z"/>
		</g>
		<g>
			<path style="fill:#84BD93;" d="M292.796,202.77c0.165-0.116,0.317-0.226,0.455-0.331
				C293.113,202.544,292.961,202.655,292.796,202.77z"/>
			<path style="fill:#84BD93;" d="M293.408,202.321c0.17-0.133,0.325-0.259,0.453-0.372
				C293.733,202.061,293.578,202.188,293.408,202.321z"/>
			<path style="fill:#84BD93;" d="M265.232,199.534c-0.221-0.266-0.454-0.521-0.686-0.781
				C264.778,199.012,265.011,199.269,265.232,199.534z"/>
			<path style="fill:#84BD93;" d="M267.28,202.263c-0.086-0.132-0.198-0.252-0.286-0.382c1.948,2.874,3.335,5.964,3.932,9.04
				c5.571-1.365,9.838-2.697,13.128-3.918C279.838,205.472,274.294,203.85,267.28,202.263z"/>
			<path style="fill:#84BD93;" d="M262.732,196.882c-0.287-0.274-0.573-0.543-0.872-0.807
				C262.159,196.338,262.445,196.61,262.732,196.882z"/>
			<path style="fill:#84BD93;" d="M258.904,193.758c0.308,0.211,0.595,0.446,0.895,0.668
				C259.499,194.203,259.213,193.969,258.904,193.758z"/>
			<path style="fill:#84BD93;" d="M284.226,206.94c1.377-0.515,2.58-1.009,3.624-1.477
				C286.806,205.932,285.602,206.426,284.226,206.94z"/>
			<path style="fill:#84BD93;" d="M288.143,205.329c0.411-0.188,0.798-0.37,1.16-0.549
				C288.941,204.959,288.554,205.142,288.143,205.329z"/>
			<path style="fill:#84BD93;" d="M291.921,203.346c0.246-0.152,0.471-0.299,0.676-0.438
				C292.392,203.047,292.167,203.193,291.921,203.346z"/>
			<path style="fill:#84BD93;" d="M289.621,204.624c0.368-0.185,0.712-0.365,1.03-0.539
				C290.333,204.258,289.989,204.438,289.621,204.624z"/>
			<path style="fill:#84BD93;" d="M290.802,204.003c0.366-0.203,0.7-0.398,1.002-0.583
				C291.502,203.605,291.168,203.8,290.802,204.003z"/>
		</g>
	</g>
	<path style="fill:#3F2D20;" d="M276.033,178.87c-12.204-3.109-27.435-5.675-44.861-7.591c29.009-7.761,50.63-20.196,63.432-36.694
		c10.6-13.658,14.993-29.977,12.707-47.189c-3.941-29.676-20.343-44.562-33.408-51.826c-21.706-12.066-50.263-12.227-76.395-0.433
		c-8.218,3.711-20.085,10.069-33.823,17.431c-29.23,15.664-69.263,37.116-92.347,42.021c-34.191,7.264-65.332,15.807-70.761,40.229
		c-1.499,6.744-0.07,13.221,4.135,18.731c9.846,12.903,34.255,18.48,51.061,20.843c-11.28,1.859-21.091,4.032-29.019,6.453
		c-11.313,3.455-26.355,9.406-26.354,21.153c0,2.729,0.782,5.257,2.372,7.612c3.145,5.607,12.77,20.885,31.651,36.098
		c21.169,17.056,58.633,37.387,116.901,37.387c85.155,0,116.68-32.67,150.054-67.259c0,0,8.506-7.317,8.107-13.838
		C308.881,192.052,298.857,184.684,276.033,178.87z M33.973,225.184c4.693,1.179,9.894,2.294,15.647,3.354
		c28.205,5.193,65.611,7.77,105.326,8.054c64.359,0.461,111.345-9.209,114.129-9.811c-25.846,23.671-56.41,41.28-117.748,41.28
		c-42.918,0-78.863-11.289-106.838-33.554C40.547,231.372,37.053,228.226,33.973,225.184z M16.664,144.428
		c-1.531-2.008-1.953-3.906-1.409-6.346c3.148-14.164,24.989-21.516,59.209-28.786c25.176-5.349,64.626-26.489,96.324-43.475
		c13.498-7.233,25.154-13.48,32.908-16.98c21.492-9.702,45.596-9.75,62.903-0.13c14.417,8.014,23.342,22.075,25.811,40.665
		c1.77,13.324-1.487,25.434-9.68,35.992c-7.866,10.135-20.003,18.525-35.925,24.98c11.803-11.126,17.266-19.677,18.357-21.485
		c17.407-25.189,11.11-43.454,5.794-52.115c-8.623-14.047-26.192-22.249-42.738-19.956c-14.948,2.076-43.653,17.305-74.044,33.427
		c-14.642,7.768-28.473,15.106-39.436,20.192c-6.226,2.888-15.601,5.416-25.528,8.094c-13.87,3.74-28.211,7.607-37.042,13.414
		c-8.84,5.813-13.887,15.194-13.007,23.839C29.112,153.055,20.383,149.306,16.664,144.428z M207.917,160.993
		c-4.058,0.704-8.247,1.328-12.561,1.875c-16.062-7.907-34.992-10.877-55.91-8.624c-13.757,1.481-27.428,5.198-39.372,9.959
		c-0.813-0.398-32.675-3.556-35.962-3.913c-0.084-0.018-0.165-0.043-0.249-0.059c-5.569-1.036-9.196-3.146-9.7-5.646
		c-0.523-2.599,1.676-7.09,6.262-10.106c6.816-4.481,19.973-8.029,32.698-11.461c10.565-2.849,20.545-5.54,27.941-8.971
		c11.327-5.256,25.329-12.684,40.154-20.549c26.6-14.112,56.75-30.107,69.066-31.818c10.46-1.449,22.441,4.105,27.858,12.93
		c5.975,9.734,4.081,22.145-5.479,35.89c-0.112,0.16-0.231,0.351-0.331,0.52C252.214,121.223,240.294,141.137,207.917,160.993z
		 M141.053,169.192c18.381-1.981,44.553-0.251,64.858,19.209c4.632,4.441,13.146,6.914,23.006,9.778
		c7.151,2.078,14.545,4.225,19.859,6.981c4.677,2.425,7.214,6.853,7.466,8.816c-0.07,0.019-0.155,0.037-0.245,0.057
		c-1.174,0.209-2.372,0.419-3.621,0.626c-26.675,4.449-61.277,6.901-97.432,6.901c-25.556,0-50.322-1.229-72.074-3.52
		c-2.839-2.071-7.658-6.499-8.789-11.675c-0.721-3.298,0.121-6.671,2.572-10.314C81.559,188.759,108.737,172.67,141.053,169.192z
		 M63.728,188.362c-4.401,6.871-5.895,14.231-4.305,21.339c0.442,1.978,1.096,3.832,1.888,5.562c-1.277-0.199-2.556-0.397-3.8-0.605
		c-30.158-5.03-39.074-10.613-41.459-12.687C19.371,199.072,32.203,193.056,63.728,188.362z M255.696,191.812
		c-2.179-1.129-4.53-2.135-6.968-3.067c27.808,4.353,41.545,9.876,45.133,13.203c-1.771,1.553-7.282,5.136-22.935,8.973
		C269.488,203.516,263.677,195.95,255.696,191.812z"/>
</g>
<g>
</g>
<g>
</g>
<g>
</g>
<g>
</g>
<g>
</g>
<g>
</g>
<g>
</g>
<g>
</g>
<g>
</g>
<g>
</g>
<g>
</g>
<g>
</g>
<g>
</g>
<g>
</g>
<g>
</g>
</svg>
